<?xml version="1.0" encoding="utf-8"?>
<!-- Generator: Adobe Illustrator 26.1.0, SVG Export Plug-In . SVG Version: 6.00 Build 0)  -->
<svg version="1.1" xmlns="http://www.w3.org/2000/svg" xmlns:xlink="http://www.w3.org/1999/xlink" x="0px" y="0px"
	 viewBox="0 0 328.88 643.06" style="enable-background:new 0 0 328.88 643.06;" xml:space="preserve">
<style type="text/css">
	.st0{fill:#391F14;}
	.st1{fill:#682320;}
	.st2{fill:#D26F75;}
	.st3{fill:#FEEAE3;}
	.st4{fill:#F8E2E7;}
	.st5{fill:#E86E78;}
	.st6{fill:#F19299;}
	.st7{fill:#F4C3C9;}
	.st8{fill:#B3203B;}
	.st9{fill:#666633;}
	.st10{fill:#C74E69;}
	.st11{opacity:0.4;}
	.st12{fill:#FFFFFF;}
	.st13{fill:#FAEED5;}
	.st14{fill:#DCA455;}
	.st15{fill:#4F3021;}
	.st16{fill:#D69F53;}
	.st17{fill:#FCE3A2;}
	.st18{fill:#FFD480;}
	.st19{fill:#FBAF3C;}
	.st20{fill:#FDC363;}
	.st21{fill:#754A3C;}
	.st22{opacity:0.3;}
	.st23{fill:#DDEADB;}
	.st24{fill:#BCD3C2;}
	.st25{fill:#A3C6AC;}
	.st26{fill:#D8E5DA;}
	.st27{fill:#233328;}
	.st28{fill:#5C6B63;}
	.st29{fill:#82AD91;}
	.st30{fill:#D2DBD1;}
	.st31{fill:#7AA388;}
	.st32{opacity:0.5;}
	.st33{fill:#6C845F;}
	.st34{fill:#5E7553;}
	.st35{fill:#C1786C;}
	.st36{fill:#E7CCC2;}
	.st37{fill:#F8E7DA;}
	.st38{fill:#EAC8B6;}
	.st39{fill:#E3987F;}
	.st40{fill:#F2C4A8;}
	.st41{fill:#7A4D4B;}
	.st42{fill:#DE998E;}
	.st43{fill:#CC644C;}
	.st44{fill:#D88977;}
	.st45{fill:#D87C60;}
	.st46{fill:#F7E4D6;}
	.st47{fill:#8C4330;}
	.st48{fill:#D4695B;}
	.st49{fill:#F0D6BF;}
	.st50{fill:#C19160;}
	.st51{fill:#D8AA75;}
	.st52{fill:#915A26;}
	.st53{fill:#BC7C48;}
	.st54{fill:#5B361E;}
	.st55{fill:#7E4F23;}
	.st56{fill:#CE9957;}
	.st57{fill:#E2BA84;}
	.st58{fill:#22120A;}
	.st59{fill:#554E26;}
	.st60{fill:#F6ECF5;}
	.st61{fill:#DBB6D1;}
	.st62{fill:#F3E4E0;}
	.st63{fill:#996699;}
	.st64{fill:#E8D4E7;}
	.st65{fill:#C48BBD;}
	.st66{fill:#6F3670;}
	.st67{fill:#8F6191;}
	.st68{fill:#441946;}
	.st69{fill:#F3DAD0;}
	.st70{fill:#741112;}
	.st71{fill:#CC3333;}
	.st72{fill:#DE6D57;}
	.st73{fill:#C75044;}
	.st74{fill:#CA4536;}
	.st75{fill:#D25847;}
	.st76{fill:#F3E4DE;}
	.st77{fill:#E06865;}
	.st78{fill:#CC4746;}
	.st79{fill:#436137;}
	.st80{fill:#9A3332;}
	.st81{fill:#EDA99F;}
	.st82{fill:#CC6666;}
	.st83{fill:#E89B95;}
	.st84{fill:#2C1B10;}
	.st85{fill:#CCAAA2;}
	.st86{fill:#EFDFD9;}
	.st87{fill:#836759;}
	.st88{fill:#D1B7A6;}
	.st89{fill:#674E3D;}
	.st90{fill:#B0806D;}
	.st91{fill:#CDAA96;}
	.st92{fill:#967A67;}
	.st93{fill:#EBBC8B;}
	.st94{fill:#6B3715;}
	.st95{fill:#F7DEBC;}
	.st96{fill:#EFE4DA;}
	.st97{fill:#CC6E28;}
	.st98{fill:#B25827;}
	.st99{fill:#A54924;}
	.st100{fill:#9E6031;}
	.st101{fill:#DDDACC;}
	.st102{fill:#908B47;}
	.st103{fill:#AFAA7A;}
	.st104{fill:#7F7E5F;}
	.st105{fill:#8B693E;}
	.st106{fill:#8E4316;}
	.st107{fill:#DDDAB1;}
	.st108{fill:#8F9C58;}
	.st109{fill:#828E3C;}
	.st110{fill:#8E5852;}
	.st111{fill:#CA887F;}
	.st112{fill:#E3988D;}
	.st113{fill:#F2CAB9;}
	.st114{fill:#EDAB9A;}
	.st115{fill:#F2DDBB;}
	.st116{fill:#AC4D27;}
	.st117{fill:#E69F59;}
	.st118{fill:#F2DAAE;}
	.st119{fill:#DA7B38;}
	.st120{fill:#E9C1A4;}
	.st121{fill:#D58761;}
	.st122{fill:#55150F;}
</style>
<g id="Bg">
</g>
<g id="Graphic">
	<g id="Boba_1">
		<g id="Drink">
			<g>
				<path class="st115" d="M58.56,121.15L14.61,228.87c-1.89,2.77-1.95,1.07-4.69,3.05c-7.79,5.63-9.73,19.55-8.04,28.86
					c1.08,5.97,15.27,8.48,15.27,8.48c1.57,10.49,4.56,22.53,6.13,33.01c1.16,7.74,6.54,33.1,12.24,38.6
					C52.5,501.17,48.31,501.2,62.35,600.91c0.66,4.7,2.77,10.68,7.63,10.59c0,0-0.13,11.83,2.49,17.05
					c2.88,5.75,10.16,7.7,16.61,8.91c25.62,4.8,49.78,5.05,75.66,5.62c25.88-0.56,50.04-0.81,75.66-5.62
					c6.45-1.21,13.72-3.16,16.61-8.91c2.62-5.22,2.49-17.05,2.49-17.05c4.87,0.1,6.97-5.89,7.63-10.59
					c13-92.35,26.83-260.03,26.83-260.03c5.7-5.5,11.08-30.86,12.24-38.6c1.57-10.49,2.21-23.59,3.78-34.07
					c0,0,17.06-3.6,18.14-9.57c1.69-9.31,1.07-20.24-6.72-25.88c-2.74-1.98-4.9-2.41-6.79-5.18l-43.52-106.42l-0.46-0.07
					c-70.18-10.59-141.6-10.58-211.78,0.03L58.56,121.15z"/>
			</g>
			<g>
				<g>
					<path class="st1" d="M163.34,4.13l-33.42,5.46l58.2,356.35l0.01,0c0,0.04,0.01,0.09,0.01,0.13c0.57,3.47,8.51,5.07,17.74,3.56
						c9.23-1.51,16.25-5.55,15.68-9.02c-0.01-0.04-0.02-0.09-0.03-0.13l0.01,0L163.34,4.13z"/>
				</g>
				<g>
					
						<ellipse transform="matrix(0.9869 -0.1612 0.1612 0.9869 0.8122 23.7264)" class="st116" cx="146.63" cy="6.86" rx="16.93" ry="6.37"/>
				</g>
			</g>
			<g>
				<g>
					<path class="st117" d="M259.16,228.46c-49.03-15.22-96.05-16.47-146.82-9.99c-24.12,3.08-49.97,10.41-71.49,22.16
						c0,0,3.93,86.76,17.62,93.76l0.54,1.4c0,0,3.96,42.59,5.68,60.6c2.02,21.14,4.11,42.27,6.37,63.39
						c2.26,21.12,4.69,42.22,7.39,63.29c2.15,16.81,2.63,48.89,7.61,64.97c8.07,26.06,80.71,24.23,109.3,22
						c14.42-1.12,34.74-3.02,46.21-13.26c9.69-8.66,9.85-53.07,11.88-68.8c8.13-63.01,13.81-126.29,19.72-189.53l0.54-1.4
						c13.99-12.91,15.15-95.41,15.15-95.41C280.47,238.34,267.78,231.14,259.16,228.46z"/>
				</g>
				<g>
					<path class="st116" d="M218.41,483.17c-4.39,0.88-6.15,6.15-5.27,10.54c3.51,17.57,14.93,33.38,7.03,50.07
						c-1.76,4.39-7.03,9.66-13.18,6.15c-0.88-0.88-1.76-3.51-3.51-5.27c-3.51-5.27-10.54-4.39-15.81-7.91
						c-9.66-7.91,0.88-19.32,4.39-27.23c0.88-1.76,0.88-4.39,0-6.15c-4.39-4.39-13.18-4.39-15.81-10.54
						c-1.76-3.51,4.39-7.91,1.76-11.42c-6.15-10.54-23.72-26.35-34.26-14.05c-4.39,5.27-6.15,11.42-11.42,13.18
						c-7.03,2.64-17.57,1.76-19.32,7.03c-6.96,15.81-21.2,21.15-36.18,22.57c0.53,4.31,1.06,8.63,1.62,12.94
						c2.15,16.81,2.63,48.89,7.61,64.97c8.07,26.06,80.71,24.23,109.3,22c14.42-1.12,34.74-3.02,46.21-13.26
						c9.69-8.66,9.85-53.07,11.88-68.8c2.39-18.51,4.56-37.04,6.6-55.59c-0.11,0.08-0.22,0.15-0.34,0.23
						C246.52,482.29,232.47,479.65,218.41,483.17z"/>
				</g>
				<g>
					<path class="st12" d="M286.86,245.9c2.81-3.77,8.21-9.29,8.15-21.32c-0.05-9.4-3.55-9.47-10.2-13.86
						c-5.45-3.6-8.59-9.76-12.64-14.95c-4.21-5.4-11.49-7.61-15.98-13.19c-4.54-5.66-4.86-11.47-7.62-17.63
						c-2.71-6.05-7.63-8.62-14.25-10.97c-6.97-2.48-14.06-10.68-18.11-16.74c-3.63-5.43-8.06-7.25-11.66-9.5
						c-6.07-3.81-10.41,1.87-13.15,5.99c-9.93,14.95-15.54,3.84-27.41,8.41c-3.78,1.46-11.97,7.07-16.04,7
						c-3.83-0.06-14.38-0.72-18.2-0.93c-10.99-0.6-8.08,9.55-18.92,11.41c-6.13,1.05-10.85-0.74-16.05,2.6
						c-2.95,1.9-9.76,10.37-12.45,12.61c-3.32,2.75-11.17-3.87-14.88-1.64c-8.11,4.88-12.79,10.98-16.23,19.5
						c-4.33,10.74-26.2,33.55-16.51,43.93c3.16,3.39,6.12,11.07,13.19,9.89c25.63-4.26,17.69,8.97,37.2,2.69
						c5.16-1.66,11.86-7.62,19.97-7.67c6.21-0.04,18.5,4.22,25.33,4.03c7.06-0.2,21.09-4.09,28.44-4.92
						c8.59-0.98,7.91,6.12,15.87,4.92c15.38-2.31,19.51,7.61,36.04-4.92c10.62-8.05,23.8,6.25,30.38,3.56
						c11.22-4.59,15.48,5.97,20.55,6.72C272.39,252.51,284.47,249.1,286.86,245.9z"/>
				</g>
				<g>
					<path class="st118" d="M213.23,154.34c0.17,0.39,0.16,0.95-0.13,1.76c-1.13,3.16-7.79,2.83-10.15,4.58
						c-4.74,3.52-6.32,8.02-18.88,8.92c-12.2,0.87-14.66-5.51-20.3-6.7c-5.79-1.22-6.7-1.65-11.08,0.48
						c-3.92,1.91-10.6,2.15-14.82,1.01c-1.61-0.43-7.78-2.28-5.08-5c1.88-1.89,8.02,2.46,10.13,2.76c3.76,0.54,7.72-0.85,11.33-1.99
						c9.42-2.98,16.56-0.6,26.45,5.48c4.88,3,7.63-0.73,9.34-0.97c2.86-0.39,6.51-2.01,8.6-3.95c2.69-2.5,5.79-4.59,9.18-6.06
						C209.5,153.94,212.6,152.96,213.23,154.34z M190.03,187.89c-1.21-3.57-17.46-1.92-20.4-2.44c-6.51-1.15-12.29-0.96-18.78,0.52
						c-3.46,0.79-7.17,0.33-10.6-0.57c-4.75-1.25-8.79-4.39-13.52-5.74c-5.74-1.64-12.38-0.64-17.36-3.88
						c-3.94-2.56-6.98-9.48-12.44-8.63c0.26,3.36,3.83,7.42,5.94,10.24c2.83,3.8,6.62,7.3,11.37,8.11c2.95,0.5,5.98-0.08,8.97,0.17
						c6.39,0.54,11.89,4.82,18.23,5.78c4.17,0.64,8.41-0.21,12.53-1.11c8.04-1.76,17.62,1.69,25.86,1.4
						c2.08-0.07,9.52-0.02,10.24-3.03C190.12,188.41,190.11,188.14,190.03,187.89z M208.8,184.41c2.16-0.53,4.36,0.76,6.59,0.69
						c1.35-0.04,2.62-0.57,3.86-1.09c3.2-1.35,6.4-2.69,9.6-4.04c1.74-0.73,3.51-1.48,4.97-2.66c1.95-1.58,3.72-3.44,4.41-5.78
						c-2.45,0.22-4.26,1.73-6.36,3.11c-5.78,3.79-12.46,6.25-19.36,7.13c-4.78,0.61-10.26-0.72-14.68,1.28
						C201.07,184.71,205.49,185.21,208.8,184.41z M177.78,218.28c-3.64-0.43-7.55-0.02-11.08-1.12c-3.71-1.16-7.19-3.05-11.16-3.22
						c-5.57-0.25-7.66,3.18-13.13,2.13c-3.68-0.71-7.26-2.12-11.01-2.07c-3.18,0.04-6.3,1.13-9.46,0.78
						c-2.94-0.32-5.55-1.85-8.2-3.11c-8.3-3.95-17.82-5.54-27-4.49c-3.47,0.39-5.16-1.5-8.61-2.1c-2.34-0.41-5.44,0.04-7.8,0.28
						c-1.61,0.16-3.06,1.07-4.67,1.23c-6.65,0.66-2.52-4.41-4.13-8.22c-0.48-1.14-2.44-1.1-2.51,0.12
						c-0.5,7.94-7.2,13.29,7.38,12.37c4.72-0.3,9.61-2.03,14.05-0.45c1.43,0.51,2.71,1.35,4.18,1.74c2.55,0.67,5.21-0.14,7.84-0.36
						c8.6-0.73,16.24,4.76,23.55,9.16c1.32,0.8,2.72,1.58,4.28,1.75c2.35,0.25,11.66-0.16,13.81-1.05
						c9.13-3.78,19.17-1.94,28.66-0.48c4.04,0.62,7.99,1.72,12.02,2.44c2.91,0.52,5.85,0.63,8.8,0.7c1.76,0.04,6.82,1.1,5.53-1.69
						c-0.43-0.94-1.52-1.7-2.89-2.3C183.46,219.09,179.59,218.49,177.78,218.28z M255.44,188.52c-0.49-0.73-3.27-1.38-4.14-1.38
						c-2,0-4.13,0.58-5.85,1.6c-0.81,0.48-1.46,1.15-2.18,1.73c-4.29,3.4-10.44,2.95-15.67,4.67c-5.39,1.77-9.84,5.89-15.37,7.18
						c-4.21,0.98-8.85,0.27-12.7,2.21c-1,0.5-1.98,1.2-3.11,1.2c-0.82,0.01-1.58-0.36-2.38-0.49c-1.98-0.33-4.12,0.75-5.99,0.04
						c-1.01-0.38-1.75-1.23-2.62-1.86c-2.15-1.56-5.02-1.76-7.72-1.86c-3.41-0.12-9.2,1.05-12.62,1.06c-1.56,0-6.1-0.19-7.36,1.11
						c-1.43,1.47,0.98,2.15,2.32,2.26c1.68,0.14,3.36-0.25,5.04-0.02c6.84,0.94,16.45,0.38,22.58,3.56
						c0.83,0.43,1.68,0.89,2.63,0.98c0.8,0.08,1.6-0.12,2.4-0.13c1.59-0.01,3.1,0.72,4.69,0.71c2.51-0.02,4.58-1.81,6.81-2.95
						c4.34-2.21,9.55-1.98,14.13-3.68c5.07-1.89,9.29-6.12,14.67-6.6c4.09-0.37,8.45,1.51,12.18-0.21c2.68-1.23,4.23-3.99,6.48-5.89
						C252.92,190.7,256.51,190.13,255.44,188.52z M260.03,211.44c-0.09-0.81-5.24-0.21-7.8,0.08c-2.05,0.23-3.66,1.24-5.28,2.09
						c-4.18,2.21-9.28,3.68-14.59,4.2c-4.27,0.42-8.74,0.26-12.74,1.33c-2.35,0.63-4.45,1.67-6.91,2.08
						c-2.21,0.37-7.26-0.93-8.91,0.43c-2.31,1.9,2.8,2.19,4.69,2.15c5.5-0.12,10.52-2.12,15.75-3.02
						c5.78-0.99,11.89-0.71,17.79-1.36c4.05-0.45,8.15-1.43,11.15-3.33C254.48,215.27,260.15,212.53,260.03,211.44z"/>
				</g>
				<g>
					<path class="st119" d="M90.72,345.12c0.82,4.97,0.35,10.27,2.54,14.81c2.68,5.56,8.64,8.58,13.66,12.17
						c5.03,3.59,9.8,9.33,8.25,15.31c0.77-5.16,4.81-9.69,9.86-11.03s10.8,0.58,14.03,4.68c3.62,4.6,3.87,10.92,3.9,16.77
						c0.04,7.18,0.2,15.02,6.48,19.83c3.01,2.31,7.23,2.59,10.29,0.35c6.64-4.86,0.34-15.35,5.76-20.15
						c2.08-1.84,5.1-1.97,7.71-2.93c18.48-6.82,5.38-32.13,6.49-44.78c1.3-14.81,19.64-21.55,17.24-2.84
						c-0.71,5.52-1.84,15.65,5.31,17.61c2.22-8.62,14.96-7.38,15.82-16.09c2.01-20.37,16.23-20.11,16.69-12.29
						c1.12,19.02-3.21,28.46,0.98,47.04c0.38-9.06,2.59-18.36,5.75-26.83c1.76-4.72,3.84-9.71,6.99-13.7
						c0.02-0.03,0.04-0.06,0.07-0.08c3.36-4.19,10.23-2.2,10.87,3.13c2.14,17.7-4.21,36.45-5.96,53.43
						c-0.33,3.19-2.25,6.07-5.2,7.33c-7.41,3.15-11.49-7.17-18.44-8.34c-4.63-0.78-8.87,2.79-11.56,6.64s-4.73,8.34-8.54,11.09
						c-8.79,6.34-21.44,0.14-31.78,3.38c-7.96,2.49-14.02,10.45-22.36,10.6c-10.69,0.2-18.85-12.68-29.42-11.04
						c-5.66,0.87-9.81,5.77-12.64,10.76c-3.67,6.47-6.2,13.86-13.43,17.52c-3.41,1.73-7.57,1.62-10.62-0.69
						c-5.65-4.26-3.66-12.46-2.7-19.22c2.23-15.69-3.64-31.23-7.73-46.55c-2.94-10.99-5.06-23.15-2.29-34.4
						c0.49-2.01,1.17-3.81,1.97-5.34C82.42,334.14,88.71,332.95,90.72,345.12z M73.32,279.4c-3.79,5.57-5.24,12.99-1.8,18.8
						c4.38,7.39,15.34,9.71,24,7.19s15.4-8.71,21.28-15.08c3.37-3.65,6.72-7.54,11.34-9.75c4.62-2.21,10.97-2.24,14.5,1.34
						c2.82,2.85,3.23,7.25,6.17,9.99c4.21,3.93,11.65,2.58,16.29-0.85c4.64-3.43,7.62-8.4,11.84-12.27
						c8.24-7.53,20.74-10.18,32.3-8.75c11.55,1.43,22.27,6.52,31.86,12.7c4.89,3.15,11.35,6.7,16.25,3.64
						c3.39-2.12,4.06-6.74,2.45-10.24s-4.97-6.06-8.42-8.15c-23.28-14.03-50.76-22.66-80.73-7.09c-17.15,8.91-39.07,7.44-58.96,6.57
						c-15.88-0.7-24.79-3.62-34.27,6.7C76.06,275.62,74.7,277.35,73.32,279.4z M189.57,131.12c-3.47,4.19-5.38,7.85-11.26,8.86
						c-3.65,0.63-7.19-0.48-10.76-0.11c-2.82,0.29-5.85,1.76-8.4,2.9c-5.37,2.41-10.88,5.93-17.03,5.03
						c-7.79-1.15-13.18-4.36-20.19,1.05c-4.37,3.38-8.43,9.03-14.08,10.14c-2.74,0.54-5.57,0.4-8.33,0.77
						c-7.55,1.02-15.37,10.38-17.88,17.24c-0.91,2.49-1.3,5.35-2.92,7.53c-1.71,2.29-8.09,4.55-6.77,8.24
						c2.29,6.43,7.85-0.22,9.65-3.39c3.3-5.82,6.18-12.86,11.49-17.38c6.76-5.74,16.37-3.99,24.05-8.08
						c3.59-1.91,7.35-5.18,11.69-3.41c4.72,1.93,5.19,8.47,3.69,12.61c-1.61,4.45-9.29,26.19,1.04,25.53
						c5.63-0.36,9.99-5.33,10.72-10.42c1.3-9.14,3.07-31.18,14.87-33.55c6.01-1.21,7.51,2.94,11.17,6.05
						c5.21,4.41,12.31-1.92,17.03,4.54c1.9,2.6,2.44,6,2.13,9.2c-0.42,4.41-1.72,8.82-3.83,12.72c-1.78,3.28-4.97,5.23-4.71,9.38
						c0.16,2.63,1.33,5.07,2.48,7.44c1.76,3.63,3.53,10.94,8.27,8.46c4.17-2.18,6.64-7.99,9.85-11.29
						c5.28-5.43,9.97,2.53,16.33-1.37c2.58-1.59,4.54-4.47,7.54-4.89c5.18-0.72,9.75,5.38,13.26,8.27
						c2.82,2.32,8.04,4.01,11.08,1.04c3.13-3.05,1.54-9.62-0.46-13c-0.89-1.51-2.07-2.92-2.37-4.65c-1.23-7.1,11.56-0.22,8.55-7.99
						c-1.92-4.95-4.76-9.37-6.19-14.53c-1.62-5.83-3.93-9.27-9.68-11.92c-4.61-2.13-9.01-3.97-12.95-7.24
						C216.65,136.58,202.91,115.01,189.57,131.12z"/>
				</g>
				<g>
					<path class="st120" d="M240.6,404.28c-14.16-7.88-28.96-12.62-44.64-8.64c-2.16,0.39-4.29,0.85-6.38,1.39
						c-8.09,2.08-13.18,6.1-19.87,10.33c-4.13,2.61-9.08,5.61-13.19,1.06c-8.63-9.55,1.53-19.86,8.84-21.55
						c7.96,0.34,15.62,0.29,23.18-0.29c1.89-0.15,3.77-0.33,5.65-0.54c16.81-4.62,32.89-11.72,47.05,7.21
						c1.93,2.37,7.72,0,9.01,3.15C252.19,402.7,244.47,405.85,240.6,404.28z M125.61,419.84c5.02-1.58,10.04-2.87,14.47-6.46
						c1.05-0.85,2.16-2.12,1.84-3.5c-0.37-1.57-2.21-1.96-3.69-2.04c-4.39-0.25-18.61-3-21.71,2.63c-0.62,1.09-1.63,2.04-2.9,2.92
						c-2.49,2.16-5.65,3.31-9.03,4.73c-1.53,0.77-2.97,1.57-4.21,2.46c-2.35,1.71-2.89,5.4,1.48,6.63c1.47,0.41,3.49,0.54,6.19,0.22
						c4.24-0.5,7.55-3.57,11.53-5.37C121.57,421.16,123.59,420.48,125.61,419.84z M142.9,298.68c4.98-0.04,9.82-0.87,14.79-1.08
						c4.05-0.17,8.14,0.08,12.16-0.22c13.92-1.02,23.6-9.58,18.42-16.3c-0.64-0.83-1.93-1.75-3.63-1.59
						c-0.78,0.07-1.41,0.36-1.99,0.64c-6.27,3.01-12.53,6.01-18.8,9.02c-1.29,0.62-2.78,1.27-4.54,1.22
						c-1.44-0.04-2.63-0.56-3.73-1.03c-3.99-1.71-8.44-3.27-13.53-3.84c-5.08-0.57-10.93,0.03-14.31,2.07
						C118.79,292.95,133.08,298.76,142.9,298.68z M194.61,170.87c3.68-0.19,16.51,0.14,16.37-5.62c-0.14-5.89-10.78-1.93-13.59-0.84
						c-4.09,1.59-11.13,4.44-12.19,9.35c-0.76,3.52-1.16,7.26-3.22,10.21c-1.35,1.94-3.31,3.36-5.24,4.74
						c-3.2,2.3-0.86,3.78-4.06,6.08c-1.11,0.8-7.81,2.46-8.4,3.69c-0.92,1.9,5.28,3.39,6.33,5.22c0.81,1.4,1.91,2.74,3.43,3.31
						c3.39,1.28,6.91-1.77,8.58-4.98c1.67-3.22-2.94-6.21-0.15-8.53c1.26-1.05,7.36-8.08,7.33-9.72
						C189.71,178.76,188.35,171.18,194.61,170.87z M194.76,145.7c0.87-3.29,0.26-6.96-1.79-9.63c-3.62,2.73-1.15,12.94-12.53,12.92
						c-2.93-0.01,10.84,4.44,13.77,4.65c2.93,0.21-2.14-4.62-1.2-7.4C193.08,146.01,194.7,145.93,194.76,145.7z M232.14,173.81
						c-1.09-2.29-1.55-4.83-2.16-7.29c-0.67-2.71-1.6-5.47-3.61-7.48c-1.43-1.43-3.56-2.4-5.65-2.27c-3.55,0.22-1.94,2.05-0.04,3.39
						c2.71,1.91,4.32,4.94,5.38,7.99s1.69,6.26,2.96,9.24c0.31,0.74,0.68,1.49,1.3,2.04s1.54,0.84,2.31,0.53
						c1-0.39,1.39-1.63,1.19-2.65c-0.2-1.02-0.83-1.91-1.34-2.83C232.36,174.26,232.25,174.03,232.14,173.81z"/>
				</g>
			</g>
			<g>
				<path class="st121" d="M259.6,611.4c0,0,0.13,11.83-2.49,17.05c-2.88,5.75-10.16,7.7-16.61,8.91
					c-27.05,5.07-52.48,5.07-80.01,5.71h8.7c-27.53-0.65-52.96-0.64-80.01-5.71c-6.45-1.21-13.72-3.16-16.61-8.91
					c-2.62-5.22-2.49-17.05-2.49-17.05s21.78,17.06,94.92,15.83C239.21,625.99,259.6,611.4,259.6,611.4z"/>
			</g>
			<g>
				<path class="st122" d="M209.7,508.37c1.21,3.23,4.36,4.91,7.36,4.81c3.1-0.1,6.04-2.11,6.53-6.26
					C224.98,495,205.17,496.24,209.7,508.37z"/>
				<path class="st122" d="M245.33,590.63c-0.07-0.08-0.14-0.16-0.21-0.24c-1.88-2.17-4.08-4.38-6.92-4.8
					c-3.46-0.52-6.72,1.77-9.11,4.33c-1.98,2.11-3.73,4.64-3.99,7.52c-0.24,2.57,0.72,4.99,2.05,7.25
					c5.45-1.86,10.46-4.38,14.41-7.91C243.02,595.47,244.26,593.34,245.33,590.63z"/>
				<path class="st122" d="M165.58,566.54c-2.01-0.05-4-0.6-5.79-1.79c-0.87-0.57-1.61-1.2-2.25-1.85c-3.95,0.6-7.3,3.9-5.15,9.67
					c1.21,3.23,4.36,4.91,7.36,4.81c3.1-0.1,6.04-2.11,6.53-6.26C166.5,569.28,166.21,567.76,165.58,566.54z"/>
				<path class="st122" d="M77.64,516.59c1.45,0.76,3.06,1.14,4.66,1.09c3.73-0.13,7.26-2.53,7.85-7.53
					c1.11-9.51-8.99-12.05-14.33-8.43C76.41,506.68,77.01,511.64,77.64,516.59z"/>
				<path class="st122" d="M239.87,546.29c-0.8,1.96-0.98,4.13-0.78,6.24c0.4,4.16,2.66,8.46,6.6,9.85c1.83,0.65,3.48,0.65,4.93,0.2
					c0.76-7.76,1.27-15.63,1.74-22.33C247.85,538.69,241.95,541.16,239.87,546.29z"/>
				<path class="st122" d="M152.29,607.49c-1.58-3.18-4.25-5.81-7.45-7.35c-2.81-1.36-8.03-2.78-10.76-0.72
					c-2.61,1.96-4,5.09-3.1,8.34c0.17,0.61,0.41,1.18,0.7,1.73c7,0.82,14.27,1.3,21.41,1.54
					C153.25,609.84,152.83,608.59,152.29,607.49z"/>
				<path class="st122" d="M89.45,565.36c0.61-0.29,1.19-0.63,1.76-1c1.41,3.51,4.04,6.6,7.57,7.89c8.71,3.19,16.08-7.11,10.7-14.57
					c-2.03-2.81-7.14-4.44-11.6-4.08c0.28-4.4-1.92-8.98-5.81-11.07c-5.86-3.16-9.56-0.86-11.66,3.26
					c0.49,6.63,1.02,13.56,1.73,20.13C84.4,566.97,87.17,566.46,89.45,565.36z"/>
				<path class="st84" d="M116.81,549.05c9.41,2.67,20.93-1.01,18.12-12.99c-3.12-13.32-22.85-19.62-28.39-4.19
					C103.29,540.9,109.39,546.94,116.81,549.05z"/>
				<path class="st84" d="M198.97,609.74c0.01-0.02,0.02-0.04,0.03-0.06c1.03-2.48,0.44-5.37-0.75-7.78
					c-3.77-7.66-13.83-11.51-21.75-8.34c-9.76,3.91-7.61,11.94-1.62,17.51c7.93-0.2,15.01-0.61,20.47-1.04
					C196.52,609.95,197.73,609.85,198.97,609.74z"/>
				<path class="st84" d="M191.9,463.04c-1.99,10.69,11.57,20,19.48,12.06c5.03-5.05,3.91-13.24-0.27-17.89
					C205.59,451.08,193.71,453.33,191.9,463.04z"/>
				<path class="st84" d="M190.6,538.89c3.59,14.12,24.8,7.24,26.89-4.65c0.93-5.29-1.31-11.11-5.78-14.1
					C200.31,512.51,187.74,527.65,190.6,538.89z"/>
				<path class="st84" d="M197.05,588.49c11.49,6.58,23.91,1.97,25.98-8.98c0.67-3.52,1.07-7.18-0.21-10.58
					c-2.31-6.13-9.28-10.81-16.35-11.6c-4.96-0.55-9.98,0.81-13.49,4.93C186.44,569.97,187.28,582.89,197.05,588.49z"/>
				<path class="st84" d="M129.6,563.81c-14.14-0.2-16.25,20.02-4.88,25.8c11.48,5.84,24.43-9.02,16.62-19.51
					C138.59,566.42,134.2,563.88,129.6,563.81z"/>
				<path class="st84" d="M240.62,496.4c-2.11,1.52-3.01,4.2-3.5,6.76c-0.86,4.55-0.72,9.48,1.54,13.53c2.26,4.04,7,6.91,11.53,5.97
					c1.57-0.32,2.96-1.08,4.18-2.1c0.91-7.18,1.78-14.37,2.63-21.56c-2.79-2.49-6.9-3.83-10.6-3.98
					C244.38,494.92,242.26,495.22,240.62,496.4z"/>
				<path class="st84" d="M154.29,517.87c3.37,15.1,27.03,15.71,30.77,0.46c1.31-5.36,0.3-11.37-3.15-15.68
					C171.28,489.4,150.96,502.92,154.29,517.87z"/>
				<path class="st84" d="M115.49,494.59c3.8,3.31,9.2,4.7,14.12,3.64c0.99-0.21,1.98-0.53,2.77-1.15
					c3.12-2.45,5.4-11.08,5.48-15.03c0.13-6.1-4.34-10.67-9.9-12.25c-4.08-1.16-8.6-1.13-12.42,0.7c-3.82,1.84-6.79,5.64-7.05,9.87
					c-0.19,3.19,1.1,6.29,2.76,9.02C112.43,491.31,113.8,493.12,115.49,494.59z"/>
				<path class="st84" d="M97.06,600.14c5.25-4.03,2.93-13.76,0.21-19.39c-2.51-5.2-8.78-9.65-14.31-8.13
					c0.8,5.86,1.79,11.19,3.1,15.41C87.6,593.03,91.53,597,97.06,600.14z"/>
				<path class="st84" d="M159.79,564.75c1.8,1.19,3.78,1.74,5.79,1.79c1.88,0.05,3.79-0.33,5.6-1.06
					c4.51-1.82,8.52-5.69,9.82-10.47c1.38-5.08-1.15-11.01-5.86-13.36c-12.25-6.11-27.01,11.54-17.59,21.25
					C158.18,563.55,158.92,564.17,159.79,564.75z"/>
			</g>
			<g>
				<path class="st1" d="M176.93,518.02c-2.82-0.59-4.74-5-5.63-7.22c-1.34-3.34-0.22-6.23,3.42-7.11c3.08-0.75,5.31,3.95,5.86,6.16
					c0.59,2.34,1.02,7.01-1.93,8.04C178.05,518.1,177.47,518.13,176.93,518.02z M212.32,564.19c-0.19-0.05-0.39-0.09-0.59-0.12
					c-3.37-0.48-5.49,1.42-5.68,4.63c-0.27,4.69,5.59,17.01,11.21,10.2c1.5-1.81,1.33-4.64,1.08-6.86
					C217.99,568.83,215.65,565.03,212.32,564.19z M170.01,554.48c-0.71,1.5-0.88,3.35-0.04,4.77c2.56,4.35,7.56-2.69,7.94-5.49
					c0.2-1.46-0.79-3.83-2.37-4.23C173.3,548.96,170.81,552.78,170.01,554.48z M125.28,529.15c-0.92,0.39-1.18,1.76-0.99,3.57
					c0.17,1.58,0.75,3.11,1.61,4.44c0.79,1.23,1.57,3.12,2.73,3.99c3.2,2.39,4.3-3.4,3.73-5.44c-0.66-2.36-2.33-4.73-4.46-5.97
					C126.72,529.05,125.87,528.9,125.28,529.15z M125.75,474.31c-1.38,0.62-2.38,1.95-2.15,3.92c0.43,3.63,4.45,9.17,7.84,8.73
					c0.87-0.11,1.59-0.79,1.99-1.65c0.4-0.86,0.52-1.89,0.5-2.91c-0.08-3.36-1.47-6.85-4.46-8.14
					C128.3,473.76,126.9,473.79,125.75,474.31z M211.26,464.39c-1.74-2.73-7.69-1.83-8.69,3.24c-0.51,2.6,1.09,5.23,3.97,4.94
					C210.58,472.15,212.67,466.62,211.26,464.39z"/>
			</g>
			<g>
				<g>
					<path class="st84" d="M112.23,166.63c1.31-5.36,0.3-11.37-3.15-15.68c-10.63-13.24-30.96,0.27-27.62,15.22
						C84.83,181.26,108.49,181.88,112.23,166.63z"/>
				</g>
				<g>
					<path class="st84" d="M117.97,170.5c-2.51,3.86-3.36,8.86-1.82,13.2c4.72,13.33,24.42,8.28,25.89-4.39
						C143.53,166.51,125.09,159.54,117.97,170.5z"/>
				</g>
				<g>
					<path class="st84" d="M68.38,187.84c-2.67,3.8-3.4,8.85-1.43,13.33c6.06,13.79,28.3,9.64,29.36-3.18
						C97.38,185.05,75.97,177.04,68.38,187.84z"/>
				</g>
				<g>
					<path class="st84" d="M106.12,185.26c-1.68,2.59-2.26,5.96-1.23,8.87c3.18,8.96,16.42,5.57,17.41-2.95
						C123.31,182.57,110.91,177.88,106.12,185.26z"/>
				</g>
				<g>
					<path class="st1" d="M103.25,166.2c-6.77-1.08-11.71-16.83-2.13-16.44c4.6,0.19,6.95,6.15,7.27,10.11
						C108.63,162.86,106.69,166.75,103.25,166.2z"/>
				</g>
				<g>
					<path class="st1" d="M136.18,170.5c4.49,2.97,3.1,15.14-3.6,11.68c-3.22-1.66-3.04-6.42-2.03-9.17
						C131.3,170.94,133.9,168.99,136.18,170.5z"/>
				</g>
				<g>
					<path class="st1" d="M89.73,189.89c5.47,3.43,4.81,15.93-3.29,11.83c-3.89-1.97-4.05-6.89-3.09-9.66
						C84.07,189.96,86.95,188.14,89.73,189.89z"/>
				</g>
			</g>
			<g class="st11">
				<g>
					<path class="st12" d="M321.39,232.75c-2.74-1.98-4.9-2.41-6.79-5.18l-43.52-106.42l-0.46-0.07c-18.79-2.83-37.67-4.9-56.6-6.22
						c-27.83,18.42-70.13,19.97-96.91-0.11c-19.48,1.31-38.92,3.43-58.27,6.35l-0.29,0.04L14.61,228.87
						c-1.89,2.77-1.95,1.07-4.69,3.05c-7.79,5.63-9.73,19.55-8.04,28.86c1.08,5.97,15.27,8.48,15.27,8.48s20.83,4.93,71.63,5.91
						c66.03,1.28,120.05-0.08,159.98-2.35c15.32-0.87,61.21-4.62,61.21-4.62s17.06-3.6,18.14-9.57
						C329.8,249.31,329.18,238.38,321.39,232.75z"/>
				</g>
			</g>
		</g>
		<g id="Stroke">
			<g>
				<path d="M45.06,334.12c-3.19-1.59-4.62-4.93-5.53-8.2c-1.14-4.1-1.85-8.36-2.71-12.53c-1.9-9.26-3.71-18.54-5.43-27.83
					c-0.25-1.35-2.31-0.78-2.06,0.57c1.81,9.78,3.72,19.54,5.73,29.28c0.87,4.2,1.51,8.56,2.88,12.62c1.1,3.25,2.87,6.35,6.04,7.94
					C45.21,336.58,46.29,334.74,45.06,334.12L45.06,334.12z"/>
			</g>
			<g>
				<path d="M46.48,348.81c2.64,29.72,5.36,59.43,8.28,89.13c2.72,27.69,5.62,55.36,8.65,83.01c1.89,17.17,3.82,34.34,5.79,51.5
					c0.15,1.35,2.3,1.37,2.14,0c-3.4-29.64-6.7-59.3-9.82-88.97c-2.9-27.67-5.63-55.36-8.22-83.06c-1.61-17.2-3.16-34.4-4.69-51.61
					C48.5,347.45,46.36,347.44,46.48,348.81L46.48,348.81z"/>
			</g>
			<g>
				<path d="M282.28,351.56c-2.05,21.64-4.1,43.29-6.15,64.93c-2.04,21.56-4.08,43.12-6.12,64.68c-1.15,12.19-2.31,24.38-3.46,36.57
					c-0.13,1.37,2.01,1.36,2.14,0c2.05-21.64,4.1-43.29,6.15-64.93c2.04-21.56,4.08-43.12,6.12-64.68
					c1.15-12.19,2.31-24.38,3.46-36.57C284.55,350.19,282.41,350.2,282.28,351.56L282.28,351.56z"/>
			</g>
			<g>
				<path d="M27.76,272.75c19.24,1.31,38.5,2.32,57.77,3.02c18.42,0.67,36.85,1.05,55.28,1.14c17.66,0.08,35.32-0.11,52.97-0.57
					c17.03-0.45,34.06-1.15,51.07-2.11c16.31-0.92,32.6-2.08,48.88-3.46c1.98-0.17,3.95-0.34,5.93-0.51c1.36-0.12,1.37-2.26,0-2.14
					c-16.2,1.43-32.42,2.64-48.65,3.62c-16.85,1.01-33.71,1.78-50.58,2.29c-17.56,0.53-35.12,0.79-52.69,0.78
					c-18.41-0.01-36.83-0.32-55.23-0.92c-19.16-0.62-38.32-1.55-57.45-2.78c-2.43-0.16-4.86-0.32-7.3-0.48
					C26.39,270.52,26.39,272.66,27.76,272.75L27.76,272.75z"/>
			</g>
			<g>
				<path d="M24.63,233.79c19.46,1.32,38.94,2.3,58.44,2.93c18.95,0.61,37.9,0.91,56.86,0.9c18.29-0.01,36.59-0.3,54.87-0.86
					c17.51-0.54,35-1.32,52.49-2.35c16.58-0.98,33.15-2.17,49.7-3.58c2.03-0.17,4.05-0.35,6.08-0.53c1.36-0.12,1.37-2.26,0-2.14
					c-16.42,1.45-32.86,2.69-49.32,3.72c-17.37,1.08-34.76,1.93-52.15,2.52c-18.19,0.63-36.39,0.98-54.59,1.06
					c-18.88,0.08-37.76-0.13-56.63-0.66c-19.43-0.55-38.86-1.42-58.26-2.65c-2.49-0.16-4.99-0.32-7.48-0.49
					C23.26,231.56,23.27,233.7,24.63,233.79L24.63,233.79z"/>
			</g>
			<g>
				<path d="M8.19,231.6c-2.07,1-3,3.12-3.78,5.16c-1.07,2.78-2.09,5.59-2.9,8.46c-1.53,5.43-2.22,11.19-0.5,16.67
					c0.41,1.31,2.48,0.75,2.06-0.57c-1.56-4.97-0.98-10.14,0.38-15.09c0.67-2.44,1.5-4.83,2.38-7.2c0.74-1.99,1.37-4.58,3.44-5.58
					C10.51,232.85,9.43,231,8.19,231.6L8.19,231.6z"/>
			</g>
			<g>
				<path d="M46.66,265.58c31.83,2.76,63.78,4.07,95.72,3.89c8.94-0.05,17.88-0.22,26.81-0.5c1.37-0.04,1.38-2.18,0-2.14
					c-31.93,1-63.9,0.53-95.79-1.42c-8.92-0.54-17.84-1.21-26.74-1.98C45.29,263.32,45.29,265.46,46.66,265.58L46.66,265.58z"/>
			</g>
			<g>
				<path d="M128.63,246.03c22.26,0.71,44.53,0.75,66.79,0.1c22.09-0.65,44.17-1.97,66.18-3.96c12.48-1.13,24.95-2.48,37.39-4.04
					c1.35-0.17,1.36-2.31,0-2.14c-22.09,2.77-44.27,4.87-66.5,6.28c-22.06,1.4-44.16,2.13-66.26,2.18
					c-12.54,0.03-25.07-0.16-37.6-0.56C127.25,243.85,127.25,245.99,128.63,246.03L128.63,246.03z"/>
			</g>
			<g>
				<path d="M180.05,254.61c20.44,0,40.88-1.31,61.26-2.69c6.24-0.42,12.48-0.86,18.72-1.31c1.37-0.1,1.38-2.24,0-2.14
					c-21.31,1.52-42.64,3.07-64,3.73c-5.33,0.17-10.65,0.27-15.98,0.27C178.68,252.47,178.67,254.61,180.05,254.61L180.05,254.61z"
					/>
			</g>
			<g>
				<path d="M271.32,263.98c8.18-0.73,16.36-1.51,24.54-2.29c1.36-0.13,1.37-2.27,0-2.14c-8.18,0.78-16.36,1.56-24.54,2.29
					C269.96,261.97,269.95,264.11,271.32,263.98L271.32,263.98z"/>
			</g>
			<g>
				<path d="M19.78,261.76c3.68,1,7.53,1.45,11.3,1.95c2.53,0.34,5.07,0.66,7.61,0.94c1.37,0.15,1.36-1.99,0-2.14
					c-2.45-0.27-4.89-0.57-7.33-0.9c-3.67-0.49-7.43-0.94-11.01-1.92C19.02,259.34,18.45,261.4,19.78,261.76L19.78,261.76z"/>
			</g>
			<g>
				<path d="M308.87,210.75c-1.22-2.99-2.44-5.98-3.67-8.97c-2.92-7.14-5.84-14.27-8.76-21.41c-3.55-8.67-7.09-17.34-10.64-26.01
					c-3.05-7.47-6.11-14.93-9.16-22.4c-1.49-3.64-2.83-7.37-4.48-10.94c-0.02-0.05-0.04-0.1-0.06-0.15
					c-0.2-0.49-0.51-0.72-1.03-0.79c-10.41-1.31-20.83-2.62-31.24-3.92c-1.47-0.18-2.94-0.37-4.42-0.55c-1.36-0.17-1.35,1.97,0,2.14
					c10.41,1.31,20.83,2.62,31.24,3.92c1.47,0.18,2.94,0.37,4.42,0.55c-0.34-0.26-0.69-0.52-1.03-0.79
					c1.22,2.99,2.44,5.98,3.67,8.97c2.92,7.14,5.84,14.27,8.76,21.41c3.55,8.67,7.09,17.34,10.64,26.01
					c3.05,7.47,6.11,14.93,9.16,22.4c1.49,3.64,2.87,7.35,4.48,10.94c0.02,0.05,0.04,0.1,0.06,0.15
					C307.32,212.57,309.39,212.02,308.87,210.75L308.87,210.75z"/>
			</g>
			<g>
				<path d="M50.42,138.12c-2.16,5.24-4.31,10.49-6.47,15.73c-3.45,8.4-6.91,16.8-10.36,25.2c-0.79,1.92-1.58,3.84-2.37,5.76
					c-0.52,1.27,1.55,1.83,2.06,0.57c2.16-5.24,4.31-10.49,6.47-15.73c3.45-8.4,6.91-16.8,10.36-25.2c0.79-1.92,1.58-3.84,2.37-5.76
					C53,137.42,50.94,136.86,50.42,138.12L50.42,138.12z"/>
			</g>
			<g>
				<path d="M78.16,621.17c1.16,7.29,10.25,9.26,16.26,10.42c7.31,1.41,14.74,2.4,22.14,3.21c13.68,1.5,27.43,1.8,41.18,1.81
					c10.55,0.01,21.1-0.12,31.65-0.19c1.38-0.01,1.38-2.15,0-2.14c-16.53,0.12-33.08,0.46-49.61-0.04
					c-13.21-0.41-26.3-1.72-39.35-3.78c-4.41-0.7-8.93-1.38-13.14-2.94c-3.28-1.22-6.49-3.2-7.08-6.91
					C80.01,619.24,77.95,619.82,78.16,621.17L78.16,621.17z"/>
			</g>
			<g>
				<path d="M221.37,634.33c3.52-0.3,7.04-0.84,10.52-1.51c5.77-1.1,11.9-2.54,16.95-5.66c2.28-1.41,4.45-3.33,5.2-6
					c0.38-1.33-1.69-1.89-2.06-0.57c-0.58,2.05-2.3,3.51-4.04,4.6c-2.35,1.48-4.96,2.49-7.6,3.33c-5.04,1.6-10.28,2.59-15.51,3.27
					c-1.15,0.15-2.3,0.29-3.46,0.39C220.01,632.31,220,634.45,221.37,634.33L221.37,634.33z"/>
			</g>
			<g>
				<path d="M121.81,119.81c20.91,10.74,46.53,12.24,69.12,6.5c5.64-1.43,11.15-3.39,16.35-6c1.23-0.62,0.15-2.46-1.08-1.85
					c-9.34,4.68-19.75,7.24-30.11,8.32c-11.56,1.21-23.38,0.63-34.7-2.06c-6.41-1.53-12.64-3.74-18.5-6.75
					C121.67,117.34,120.58,119.19,121.81,119.81L121.81,119.81z"/>
			</g>
		</g>
	</g>
</g>
</svg>
