<?xml version="1.0" encoding="utf-8"?>
<!-- Generator: Adobe Illustrator 26.1.0, SVG Export Plug-In . SVG Version: 6.00 Build 0)  -->
<svg version="1.1" xmlns="http://www.w3.org/2000/svg" xmlns:xlink="http://www.w3.org/1999/xlink" x="0px" y="0px"
	 viewBox="0 0 299.44 680.2" style="enable-background:new 0 0 299.44 680.2;" xml:space="preserve">
<style type="text/css">
	.st0{fill:#391F14;}
	.st1{fill:#682320;}
	.st2{fill:#D26F75;}
	.st3{fill:#FEEAE3;}
	.st4{fill:#F8E2E7;}
	.st5{fill:#E86E78;}
	.st6{fill:#F19299;}
	.st7{fill:#F4C3C9;}
	.st8{fill:#B3203B;}
	.st9{fill:#666633;}
	.st10{fill:#C74E69;}
	.st11{opacity:0.4;}
	.st12{fill:#FFFFFF;}
	.st13{fill:#FAEED5;}
	.st14{fill:#DCA455;}
	.st15{fill:#4F3021;}
	.st16{fill:#D69F53;}
	.st17{fill:#FCE3A2;}
	.st18{fill:#FFD480;}
	.st19{fill:#FBAF3C;}
	.st20{fill:#FDC363;}
	.st21{fill:#754A3C;}
	.st22{opacity:0.3;}
	.st23{fill:#DDEADB;}
	.st24{fill:#BCD3C2;}
	.st25{fill:#A3C6AC;}
	.st26{fill:#D8E5DA;}
	.st27{fill:#233328;}
	.st28{fill:#5C6B63;}
	.st29{fill:#82AD91;}
	.st30{fill:#D2DBD1;}
	.st31{fill:#7AA388;}
	.st32{opacity:0.5;}
	.st33{fill:#6C845F;}
	.st34{fill:#5E7553;}
	.st35{fill:#C1786C;}
	.st36{fill:#E7CCC2;}
	.st37{fill:#F8E7DA;}
	.st38{fill:#EAC8B6;}
	.st39{fill:#E3987F;}
	.st40{fill:#F2C4A8;}
	.st41{fill:#7A4D4B;}
	.st42{fill:#DE998E;}
	.st43{fill:#CC644C;}
	.st44{fill:#D88977;}
	.st45{fill:#D87C60;}
	.st46{fill:#F7E4D6;}
	.st47{fill:#8C4330;}
	.st48{fill:#D4695B;}
	.st49{fill:#F0D6BF;}
	.st50{fill:#C19160;}
	.st51{fill:#D8AA75;}
	.st52{fill:#915A26;}
	.st53{fill:#BC7C48;}
	.st54{fill:#5B361E;}
	.st55{fill:#7E4F23;}
	.st56{fill:#CE9957;}
	.st57{fill:#E2BA84;}
	.st58{fill:#22120A;}
	.st59{fill:#554E26;}
	.st60{fill:#F6ECF5;}
	.st61{fill:#DBB6D1;}
	.st62{fill:#F3E4E0;}
	.st63{fill:#996699;}
	.st64{fill:#E8D4E7;}
	.st65{fill:#C48BBD;}
	.st66{fill:#6F3670;}
	.st67{fill:#8F6191;}
	.st68{fill:#441946;}
	.st69{fill:#F3DAD0;}
	.st70{fill:#741112;}
	.st71{fill:#CC3333;}
	.st72{fill:#DE6D57;}
	.st73{fill:#C75044;}
	.st74{fill:#CA4536;}
	.st75{fill:#D25847;}
	.st76{fill:#F3E4DE;}
	.st77{fill:#E06865;}
	.st78{fill:#CC4746;}
	.st79{fill:#436137;}
	.st80{fill:#9A3332;}
	.st81{fill:#EDA99F;}
	.st82{fill:#CC6666;}
	.st83{fill:#E89B95;}
	.st84{fill:#2C1B10;}
	.st85{fill:#CCAAA2;}
	.st86{fill:#EFDFD9;}
	.st87{fill:#836759;}
	.st88{fill:#D1B7A6;}
	.st89{fill:#674E3D;}
	.st90{fill:#B0806D;}
	.st91{fill:#CDAA96;}
	.st92{fill:#967A67;}
	.st93{fill:#EBBC8B;}
	.st94{fill:#6B3715;}
	.st95{fill:#F7DEBC;}
	.st96{fill:#EFE4DA;}
	.st97{fill:#CC6E28;}
	.st98{fill:#B25827;}
	.st99{fill:#A54924;}
	.st100{fill:#9E6031;}
	.st101{fill:#DDDACC;}
	.st102{fill:#908B47;}
	.st103{fill:#AFAA7A;}
	.st104{fill:#7F7E5F;}
	.st105{fill:#8B693E;}
	.st106{fill:#8E4316;}
	.st107{fill:#DDDAB1;}
	.st108{fill:#8F9C58;}
	.st109{fill:#828E3C;}
	.st110{fill:#8E5852;}
	.st111{fill:#CA887F;}
	.st112{fill:#E3988D;}
	.st113{fill:#F2CAB9;}
	.st114{fill:#EDAB9A;}
	.st115{fill:#F2DDBB;}
	.st116{fill:#AC4D27;}
	.st117{fill:#E69F59;}
	.st118{fill:#F2DAAE;}
	.st119{fill:#DA7B38;}
	.st120{fill:#E9C1A4;}
	.st121{fill:#D58761;}
	.st122{fill:#55150F;}
</style>
<g id="Bg">
</g>
<g id="Graphic">
	<g id="Boba_2">
		<g id="Drink_00000060744426589586614550000018352978156773901697_">
			<g>
				<g>
					<path class="st108" d="M199.35,143.69c1.18-0.18,2.35-0.36,3.53-0.54c-0.65-5.14-1.52-10.34-1.82-15.47
						c1.42-0.16,3.02-0.89,3.37-2.22c0.36-1.38-0.19-2.8-0.54-4.18c-0.71-2.76-0.58-5.76,0.92-8.24c1.5-2.49,4.54-4.34,7.76-4.23
						c1.33,0.05,2.73,0.4,3.95-0.07c1.46-0.57,2.13-2.15,3.58-2.72c1.47-0.57,3.15,0.06,4.75,0.16c5.22,0.31,8.35-4.82,10.12-9.12
						c6.64,3.91,5.77,12.78,10.25,18.58c1.82,2.36,4.69,4.64,4.17,7.44c-0.36,1.93-2.33,3.77-1.46,5.57
						c0.36,0.75,1.15,1.26,1.65,1.95c1.54,2.12-1,5.36-3.81,4.86c0.89,5.33,1.78,10.65,2.68,15.98c0.34,2.01,0.62,4.23-0.69,5.9
						c-0.9,1.14-2.4,1.81-3.47,2.83c-2.87,2.76-1.98,7.32-4.4,10.4c-3.2,4.07-10.38,3.67-14.84,6.69c-2.06,1.4-3.46,3.48-5.69,4.66
						c-7.7,4.06-19.33-1.06-19.5-8.79C199.65,163.31,199.62,153.5,199.35,143.69z"/>
				</g>
				<g>
					<path class="st109" d="M229.59,120.04c-0.56,0.79-1.25,1.48-1.76,2.3c-1.94,3.07-1.08,7.08-1.74,10.65
						c-0.47,2.57-1.74,4.91-2.99,7.21c-0.69,1.26-1.43,2.58-2.65,3.34c-0.82,0.51-1.8,0.73-2.56,1.33
						c-1.25,0.99-1.57,2.81-1.29,4.38c0.28,1.57,1.04,3.01,1.59,4.52c1.02,2.78,1.32,5.82,0.86,8.75c-0.46,2.94-1.67,5.77-1.78,8.75
						c0.96-0.09,1.44-1.19,1.71-2.12c1.69-5.64,3.36-11.8,1.19-17.28c-0.35-0.87-0.79-1.81-0.52-2.71c0.41-1.38,2.12-1.76,3.47-2.26
						c3.88-1.46,6.18-5.75,6.28-9.9c0.06-2.69-0.65-5.39-0.32-8.06c0.34-2.74,1.73-5.22,2.79-7.78c1.33-3.22,3.27-8.5,2.39-12
						C231.81,111.98,231.82,116.89,229.59,120.04z"/>
				</g>
				<g>
					<path class="st109" d="M228.25,128.29c0.29-0.31,0.65-0.59,1.08-0.84c-1.85-1.87-2.99-3.98-4.79-5.88
						c-2.63-2.77-0.56-7.43-3.39-10.12c-1.25,1.17-1.37,3.05-0.51,4.1c1.27,1.54-0.69,5.2,0.11,6.84c1.47,3.01,3.31,2.65,6.61,5.03
						C227.68,127.64,227.97,127.95,228.25,128.29z"/>
				</g>
				<g>
					<path class="st109" d="M219.9,155.11c0.18-0.42,0.45-0.84,0.8-1.27c-2.7-0.87-4.75-2.29-7.39-3.2
						c-3.88-1.34-3.54-6.56-7.6-7.73c-0.86,1.64-0.24,3.43,1.09,3.99c1.96,0.83,1.34,5.09,2.84,6.22c2.75,2.09,4.55,0.92,8.98,1.59
						C219.04,154.78,219.47,154.93,219.9,155.11z"/>
				</g>
				<g>
					<path class="st109" d="M223.3,145.93c0.01,0.03,0.02,0.05,0.02,0.08c0,0,0.01,0,0.01,0c-0.05-0.2-0.11-0.41-0.12-0.49
						c-0.05-0.24-0.5-1.79,0.02-0.39c-0.36-0.96-0.59-1.85-0.63-2.76c-0.49-0.31-0.95-0.67-1.35-1.1c-1.14-1.23-4.21-4.34-4.74-5.93
						c-1.1-3.33,0.98-3.98-2.12-8.78c-0.77-1.19-1.87-10.63-2.49-7.76c-0.46,1.05-0.22,2.27,0.02,3.4l1.14,12.08
						c0.55,2.53,1.8,1.46,2.51,3.95c0.52,1.81,3.32,5.01,4.01,6.76c0.11,0.28,0.23,0.58,0.46,0.78c0.38,0.33,0.95,0.31,1.45,0.28
						c0.64-0.03,1.23-0.04,1.8-0.03C223.31,145.98,223.31,145.95,223.3,145.93z"/>
				</g>
				<g>
					<path class="st109" d="M232.6,134.97c-0.6,0.03-1.23-0.08-1.77,0.19c-0.36,0.18-0.62,0.52-0.86,0.85
						c-0.94,1.3-1.91,2.82-3.48,3.16c-0.03,0.65,0.81,0.94,1.46,0.98c2.35,0.12,4.66-0.49,6.93-1.09c1.48-0.39,3.02-0.81,4.17-1.82
						c1.21-1.05,1.84-2.59,2.43-4.08c0.95-2.39-0.04-6.72-2.98-4.09C236.3,131.01,236.35,134.81,232.6,134.97z"/>
				</g>
				<g>
					<path class="st109" d="M226.09,153.38c-1.79-0.49-3.93-1.21-5.3,0.04c-0.87,0.79-1.03,2.07-1.14,3.24
						c1.34,1.17,3.31,1.23,5.07,0.98c1.76-0.25,3.53-0.75,5.29-0.48c1.87,0.29,3.95,1.35,5.66-0.08c1.09-0.91,1.38-1.46,0.42-2.44
						C234.34,152.86,228.37,154,226.09,153.38z"/>
				</g>
				<g>
					<path class="st108" d="M240.64,146.22c1.3,0.93,3.15-0.22,3.92-1.62c0.77-1.4,1.05-3.1,2.15-4.27c1.09-1.17,3.55-1.2,3.88,0.37
						c2.67-2.92,2.09-7.76,4.59-10.83c2.54-3.11,7.2-3.24,11.2-2.81c4,0.43,8.4,1.05,11.73-1.2c1.33-0.9,2.58-2.28,4.17-2.15
						c2.02,0.16,3,2.67,2.75,4.68c-0.25,2.01-1.25,3.9-1.25,5.93c0,5.61,7.39,9.48,6.64,15.04c-0.33,2.41-2.21,4.67-1.57,7.01
						c0.54,1.98,2.74,3.23,3.1,5.25c0.71,3.99-5.6,5.37-7.31,9.05c-0.68,1.46-0.57,3.23-1.42,4.59c-2.28,3.65-9.38,1.82-11,5.81
						c-0.36,0.88-0.33,1.87-0.67,2.75c-1.12,2.98-5.26,3.18-7.76,5.15c-1.27,1-2.1,2.45-3.15,3.67c-3.3,3.82-8.54,5.19-13.45,6.35
						c-2.44,0.58-4.98,1.16-7.42,0.61c-4.99-1.18-8.23-5.91-13.51-6.27c0.45-6.81,2.63-13.42,4.25-20.02
						c0.76-3.07,2.49-21.86,8.84-15.47C239.93,154.01,240.23,150.09,240.64,146.22z"/>
				</g>
				<g>
					<path class="st109" d="M260.72,158.72c1.14-2.5,1.61-5.31,3.11-7.61c2.18-3.34,6.25-5.14,8.23-8.6
						c1.64-2.86,3.49-7.17,5.34-9.9c1.97,0.94-2.63,7.39-3.01,10.74c-0.08,0.7-0.16,1.42-0.45,2.06c-0.49,1.1-1.5,1.85-2.43,2.61
						c-5.09,4.17-8.82,9.98-10.49,16.35c-0.33,1.26-0.64,2.64-1.64,3.47c-0.86,0.71-2.03,0.86-3.03,1.36
						c-2.69,1.34-3.3,4.48-5.21,6.53c-1.87,2-6.83,3.51-5.6-0.74c0.8-2.76,5.81-5.78,7.89-7.61
						C256.27,164.88,259.12,162.23,260.72,158.72z"/>
				</g>
				<g>
					<path class="st109" d="M270.29,146.24c0.09,0.7,0.21,1.25-0.36,1.75c-1.08-0.97-1.5-2.42-2.22-3.68
						c-0.92-1.59-2.77-2.49-3.35-4.31c-0.48-1.5,0.33-4.88,1.12-6.16c0.95-1.54,1.3-1.23,1.58,0.45c0.33,1.94,0.29,3.75,0.9,5.68
						C268.55,141.83,270.02,144.04,270.29,146.24z"/>
				</g>
				<g>
					<path class="st109" d="M258.9,145.47c0.65,1.51,0.54,7.84,0.35,9.61c-0.43,3.85,3.71,2.15,1.64,8.28
						c-0.09,0.27-1.66-0.49-1.78-0.25c-0.25,0.47-0.77-0.01-0.98-0.51c-1.25-3.02-2.65-4.13-2.24-7.61c0.13-1.1,2.08-4.91,1.96-6
						c-0.21-1.81-4.46-7.61-3.7-8.77C255.29,138.47,258.52,144.61,258.9,145.47z"/>
				</g>
				<g>
					<path class="st109" d="M250.89,166.45c0.55,1.13,1.18,2.24,1.48,3.46c0.29,1.22,0.19,2.62-0.61,3.59
						c-0.85-0.63-0.96-1.83-1.14-2.87c-0.59-3.38-2.63-6.3-4.41-9.23c-0.59-0.96-1.17-2-1.17-3.13c0-0.49,0.11-0.96,0.22-1.44
						c0.39-1.73,0.79-3.45,1.18-5.18c0.42-1.86,1.56,0.09,1.79,0.89c0.35,1.24,0.03,2.81,0.11,4.08
						C248.53,160.02,249.4,163.39,250.89,166.45z"/>
				</g>
				<g>
					<path class="st109" d="M271.63,150.86c-0.68-0.12-1.37-0.39-2.03-0.25c-0.45,0.09-0.81,0.35-1.15,0.61
						c-1.34,1.04-2.76,2.28-4.6,2.23c-0.17,0.63,0.71,1.12,1.44,1.31c2.62,0.69,5.36,0.67,8.04,0.64c1.75-0.02,3.58-0.05,5.09-0.75
						c1.58-0.73,2.62-2.08,3.61-3.39c1.58-2.1,1.4-6.57-2.49-4.74C276.64,147.9,275.88,151.62,271.63,150.86z"/>
				</g>
				<g>
					<path class="st109" d="M261.17,168.81c-1.91-0.92-4.17-2.15-5.98-1.27c-1.15,0.56-1.61,1.77-1.98,2.89
						c1.26,1.47,3.47,2.02,5.5,2.21c2.04,0.19,4.14,0.14,6.06,0.84c2.04,0.75,4.16,2.29,6.39,1.32c1.42-0.62,1.87-1.09,0.99-2.28
						C270.57,170.34,263.61,169.98,261.17,168.81z"/>
				</g>
			</g>
			<g>
				<g>
					<path class="st110" d="M189.6,6.13l-40.57-0.15l-1.96,343.4l0.01,0c0,0.04-0.01,0.08-0.01,0.13
						c-0.02,3.35,9.05,6.09,20.25,6.13c11.2,0.04,20.3-2.64,20.32-5.99c0-0.04-0.01-0.08-0.01-0.13l0.01,0L189.6,6.13z"/>
				</g>
				<g>
					
						<ellipse transform="matrix(3.383111e-03 -1 1 3.383111e-03 162.6815 175.3554)" class="st111" cx="169.32" cy="6.06" rx="6.06" ry="20.29"/>
				</g>
			</g>
			<g>
				<path class="st112" d="M40.71,607.4v25.23c0,4.2,3.11,7.8,7.39,8.54l0.07,0.01l0.04,11.47c0.01,4.86,3.74,12.49,8.58,13.81
					c62.37,16.96,120.27,19.62,185.6-0.01c4.82-1.45,8.58-8.96,8.58-13.83l0-11.42c0,0,0,0,0,0c4.35-0.6,7.54-8.26,7.54-12.5v-21.3
					H40.71z"/>
			</g>
			<g>
				<path class="st3" d="M285.82,217.5c-18.57-16.11-42.34-21.9-65.44-25.41c-51.48-7.82-104.02-6.48-155.15,3.97
					c-17.65,3.61-35.7,8.58-50.11,20.8c-1.12,0.95-2.33,2.53-1.65,3.92c29.67,13.98,64.5,17.41,96.5,19.97
					C168.28,245.38,231.92,249.08,285.82,217.5z"/>
			</g>
			<g>
				<path class="st3" d="M296.4,221.07c4.61,4.75-1.08,15.36-1.08,15.36c-1.57,11.28-3.13,32.64-4.7,43.92
					c-0.79,5.7-0.81,11.58-1.15,17.31c-1.08,18.21-2.07,36.43-3.07,54.65c-1.36,24.96-2.7,49.91-4.03,74.87
					c-1.38,25.86-2.74,51.72-4.11,77.58c-1.1,20.93-6.43,85.18-9.12,98.55c-3.37,16.76-11.3,21.73-25.28,27.61
					c-27.58,11.6-57.76,17.14-87.78,17.44c-28.12,0.29-55.68-3.82-82.5-11.57c-19.46-5.62-45.19-19.02-46.37-41.59
					c0,0-3.15-26.99-3.72-37.65c-1.07-19.98-1.75-32.73-2.82-52.7c-1.31-24.38-2.62-48.76-3.95-73.14
					c-1.3-23.87-2.6-47.75-3.92-71.62c-1.02-18.46-2.05-36.91-3.14-55.36c-0.95-16.22-2.43-32.26-4.18-48.41
					c-0.24-2.25-0.43-14.59-0.74-16.84c0,0-6.4-12.6-2.45-17.88c11.03-14.74,19.51-0.17,55.14,3.4c0.41,0.04,0.83,0.08,1.24,0.12
					c50.73,5.03,101.84,5.52,152.68,1.63c8-0.61,16.31-1.21,24.6-1.75C268.29,222.9,282.16,206.42,296.4,221.07z"/>
			</g>
			<g>
				<path class="st113" d="M269.86,250.7c-38,6.79-56.5,9.28-93.19,10.4c-7.69,0.23-15.38,0.73-23.07,0.66
					c-19.57-0.17-39.13-1.2-58.6-3.26c-19.34-2.05-47.54-4.55-65.7-8.95c3.73,43.03,2.94,52.06,5.69,95.15
					c3.49,54.62,6.77,109.26,10.33,163.87c1.68,25.72,1.29,51.77,6.77,77.06c10.34,47.72,100.29,44.18,138.21,39.64
					c13.86-1.66,27.8-5.21,39.97-12c15.79-8.8,17.08-24.27,19.28-40.27C249.98,569.88,265.39,314.85,269.86,250.7z"/>
			</g>
			<g>
				<path class="st62" d="M234.29,374.8c-0.7,1.44,0.12,4.16,1.43,4.77c0.58,0.27,1.28,0.29,1.97,0.11
					c-0.21,0.34-0.31,0.66,0.06,0.97c0.45,0.38,1.07,0.54,1.63,0.04c0.48-0.42,0.42-1.2,0.18-1.36c-0.14-0.09-0.31-0.2-0.49-0.27
					c0.59-0.4,1.11-0.94,1.41-1.57c0.85-1.76,0.32-3.69-1.22-4.44C237.39,372.12,235.21,372.9,234.29,374.8z"/>
				<path class="st62" d="M249.63,379.67c-0.6,1.03-0.02,2.59,0.95,3.29c0.8,0.58,2.1,0.67,2.42,0.24c0.62-0.84,1.99-1.11,1.83-2.73
					c-0.15-1.52-0.37-2.95-0.98-4.34c-0.22-0.51-0.63-1.07-1.02-0.76c-0.89,0.72-2.16,0.92-2.96,2.28
					C249.32,378.02,250.06,378.91,249.63,379.67z"/>
				<path class="st62" d="M241.19,444.22c0.17,0.64,0.47,1.2,0.99,1.64c0.29,0.24,0.62,0.34,0.97,0.39
					c0.03,0.07,0.06,0.15,0.11,0.22c0.35,0.49,0.79,0.29,1.22-0.06c0.21,0.05,0.41,0.13,0.6,0.26c0.03,0.02,0.31-0.27,0.45-0.44
					c0.21-0.28,0.36-0.61,0.6-0.87c1.63-1.76,1-4.38-1.26-5.29c-0.19,0.19-0.44,0.14-0.67,0.2
					C241.49,440.86,240.4,441.17,241.19,444.22z"/>
				<path class="st62" d="M244.88,440.05c0.02-0.01,0.03-0.01,0.03-0.01c0,0,0,0,0,0c-0.02,0.01-0.03,0.01-0.05,0.02l-0.01,0
					c0.01,0,0.01,0.01,0.02,0.01c0.01-0.01,0.03-0.02,0.04-0.03L244.88,440.05z"/>
				<path class="st62" d="M237.95,417.3c-1.73-0.88-2.95-0.55-3.74,1.08c-0.26,0.54-0.97,1.33-0.58,1.65
					c0.9,0.77,0.9,2.15,2.04,2.68c1.57,0.74,3.46,0.02,4.35-1.67C240.71,419.74,239.91,418.29,237.95,417.3z"/>
				<path class="st62" d="M250.66,335.97c-0.79,1.63-0.11,3.55,1.58,4.43c0.91,0.47,3.15-0.74,3.79-2.05
					c0.59-1.2-0.25-3.79-1.39-4.32C253.29,333.42,251.47,334.3,250.66,335.97z"/>
				<path class="st62" d="M258.54,422.39c-0.93-0.32-1.38-1.07-1.83-1.86c-0.27-0.47-0.55-0.55-0.83-0.02
					c-0.15,0.27-0.27,0.56-0.41,0.84c-0.04,0.08-0.08,0.16-0.12,0.24c-0.45,0.96-0.09,2.3,0.72,2.71c0.48,0.24,2.54-0.66,2.81-1.22
					c0.02-0.04,0.02-0.06,0.03-0.1c0.01-0.09,0.01-0.18,0.02-0.27C258.89,422.56,258.73,422.46,258.54,422.39z"/>
				<path class="st62" d="M255.44,328.99c0.28-0.62-0.32-2.04-0.99-2.37c-0.7-0.34-2.21,0.1-2.34,0.81
					c-0.17,0.89,0.05,1.79,0.91,2.31C253.65,330.12,255.16,329.61,255.44,328.99z"/>
				<path class="st62" d="M251.02,360.93c0.9,0.44,1.56,0,2.06-0.9c0.64-1.14-0.31-1.74-0.85-2.15c-0.56-0.43-1.44-0.16-1.7,0.61
					C250.06,359.55,250.05,360.45,251.02,360.93z"/>
				<path class="st62" d="M246.34,439.05c0.13-0.02,0.27-0.07,0.42-0.18c0.52-0.38,0.06-0.8,0.09-1.22
					c-0.24-0.14-0.48-0.22-0.72-0.23c-0.36-0.44-0.92-0.6-1.46-0.69c-0.23-0.04-0.43,0.02-0.59,0.13c-0.06-0.22-0.12-0.4-0.21-0.5
					c-0.3-0.34-0.56-0.18-0.78,0.07c-0.64,0.74-1.51,0.89-2.4,1.01c-0.54,0.07-0.71,0.3-0.33,0.76c0.2,0.24,0.42,0.46,0.63,0.69
					c0.06,0.07,0.12,0.13,0.18,0.2c0.71,0.76,2.05,0.93,2.75,0.36c0.26,0.24,0.61,0.43,0.99,0.59c0.31-0.12,0.65-0.21,0.9-0.41
					C246.03,439.46,246.21,439.27,246.34,439.05z"/>
				<path class="st62" d="M245.51,451.53c0.74,0.46,1.46,0.2,1.73-0.8c0.95-0.97-0.2-1.62-0.64-1.78c-0.66-0.24-1.65-0.27-2.1,0.73
					C244.02,450.75,244.92,451.16,245.51,451.53z"/>
				<path class="st62" d="M225.66,338.57c0.48-0.91-0.12-1.61-0.68-1.93c-0.75-0.42-1.45,0.03-1.61,0.83
					c-0.32,0.72-0.78,1.37,0.01,1.88C224.03,339.76,225.3,339.25,225.66,338.57z"/>
				<path class="st62" d="M249.82,448.77c0.58,0.25,1.62,0.15,1.85-0.57c0.18-0.58,0.32-1.57-0.72-1.92
					c-0.72-0.37-1.36-0.34-1.73,0.54C248.87,447.64,249.1,448.46,249.82,448.77z"/>
				<path class="st62" d="M250,331.43c0.35-0.78-0.13-1.39-0.91-1.77c-0.79-0.4-1.43-0.25-1.79,0.5c-0.43,0.88,0.05,1.43,0.62,1.64
					C248.93,332.28,249.68,332.14,250,331.43z"/>
				<path class="st62" d="M243.31,405.57c-0.23-0.7-0.46-1.43-1.22-1.86c-0.47,0.23-0.96-0.78-1.49,0.11
					c-0.41,0.69,0.09,1.22,0.43,1.29c0.65,0.14,1,0.27,1.07,1c0.03,0.36,0.44,0.09,0.68,0.07
					C243.14,406.16,243.42,405.9,243.31,405.57z"/>
				<path class="st62" d="M221.94,402.38c-0.68-0.32-1.21-0.07-1.55,0.53c-0.32,0.57-0.04,1.06,0.49,1.31
					c0.6,0.29,1.2,0.29,1.57-0.43C222.78,403.14,222.57,402.7,221.94,402.38z"/>
				<path class="st62" d="M259.62,340.83c0.33-0.62-0.07-1.12-0.74-1.42c-0.68-0.31-0.99-0.06-1.18,0.55
					c-0.42,0.6-0.16,0.95,0.41,1.25C258.75,341.54,259.36,341.31,259.62,340.83z"/>
				<path class="st62" d="M249.28,426.28c-0.38,0.59,0.15,0.95,0.75,1.24c0.44,0.26,1.02,0.35,1.22-0.31
					c0.13-0.42,0.24-1.05-0.39-1.35C250.21,425.55,249.6,425.79,249.28,426.28z"/>
				<path class="st62" d="M265.68,293.45c-0.67-0.3-1.1-0.08-1.4,0.68c-0.08,0.28-0.53,0.77,0.1,1.02c0.65,0.26,1.35,0.12,1.74-0.52
					C266.39,294.16,266.25,293.71,265.68,293.45z"/>
				<path class="st62" d="M251.6,386.62c0.34-0.62,0.12-1.2-0.38-1.46c-0.36-0.19-0.94-0.03-1.21,0.48
					c-0.31,0.58-0.01,0.9,0.48,1.15C250.9,387,251.28,387.2,251.6,386.62z"/>
				<path class="st62" d="M247.15,433.36c-0.55-0.27-0.82,0.05-1,0.52c-0.26,0.46-0.4,0.91,0.2,1.23c0.52,0.27,1.11,0.03,1.28-0.32
					C247.87,434.32,247.79,433.67,247.15,433.36z"/>
				<path class="st62" d="M258.49,416.32c-0.21,0.47-0.29,0.82,0.27,1.07c0.17,0.08,0.34,0.14,0.49,0.17
					c0.04-0.57,0.07-1.13,0.11-1.7C259.02,415.86,258.69,415.86,258.49,416.32z"/>
				<path class="st62" d="M258.33,425.03c-0.48-0.34-0.72-0.02-0.92,0.39c-0.23,0.49-0.33,0.93,0.23,1.28
					c0.5,0.31,0.73-0.15,1.08-0.32c0.02-0.26,0.03-0.52,0.05-0.77C258.68,425.38,258.55,425.18,258.33,425.03z"/>
				<path class="st62" d="M254.94,419.97c0.18-0.43,0.48-0.84-0.13-1.15c-0.45-0.23-0.74-0.09-0.97,0.35
					c-0.28,0.54-0.09,1.02,0.29,1.31C254.66,420.88,254.73,420.24,254.94,419.97z"/>
				<path class="st62" d="M230.79,367.5c0.5,0.12,1.54,0.16,1.68-0.82c0.12-0.84-0.28-1.5-1.22-2.04c-0.33,0.5-1.3-0.01-1.44,0.84
					C229.66,366.32,229.89,367.29,230.79,367.5z"/>
				<path class="st62" d="M256.85,325.05c-0.41-0.16-0.81-0.23-0.87,0.16c-0.05,0.35-0.01,0.82,0.37,1.05
					c0.44,0.27,0.5-0.17,0.65-0.41C257.21,325.49,257.24,325.17,256.85,325.05z"/>
				<path class="st62" d="M194.86,441.73c1.23-1.15,1.14-3.76-0.18-5.2c-1.32-1.44-3.31-1.67-4.57-0.52
					c-1.54,1.4-1.63,3.71-0.21,5.27C190.98,442.47,193.8,442.72,194.86,441.73z"/>
				<path class="st62" d="M198.33,427.89c0.14,0.64,1.25,0.28,1.78,0.97c0.74,0.94,2.4,0.98,3.41,0.34c0.83-0.53,1.4-1.7,1.12-2.16
					c-0.55-0.89-0.3-2.26-1.85-2.71c-1.47-0.42-2.88-0.75-4.4-0.7c-0.56,0.02-1.23,0.19-1.08,0.66
					C197.64,425.38,197.36,426.64,198.33,427.89z"/>
				<path class="st62" d="M254.44,455.68c0.11,0.24-0.03,0.46-0.07,0.7c-0.44,2.63-0.56,3.77,2.22,4.21c0.12-1.99,0.25-3.99,0.37-6
					C256.08,454.58,255.17,454.92,254.44,455.68z"/>
				<path class="st62" d="M231.65,458.68c1.05-0.55,2.33-0.04,3.25-0.9c1.27-1.18,1.3-3.2,0.06-4.65c-0.96-1.12-2.6-0.92-4.25,0.53
					c-1.46,1.28-1.6,2.54-0.39,3.87C230.74,457.97,231.2,458.92,231.65,458.68z"/>
				<path class="st62" d="M164.61,411.86c0.78-0.67,0.48-3.2-0.5-4.28c-0.9-0.99-3.61-1.18-4.52-0.32
					c-1.07,1.02-0.93,3.04,0.32,4.41C161.13,413.02,163.17,413.1,164.61,411.86z"/>
				<path class="st62" d="M138.37,350.94c-0.51,0.48-0.47,3.22,0.05,3.8c0.9,1.01,3.31,1.12,4.25,0.19c0.8-0.78,0.93-2.94,0.21-3.65
					C142,350.41,139.16,350.19,138.37,350.94z"/>
				<path class="st62" d="M133.41,381.13c0.81,0.82,3.01,1.09,3.68,0.46c0.97-0.91,1.05-2.42,0.18-3.31c-0.7-0.71-3-0.68-3.68,0.05
					C132.93,379.03,132.84,380.55,133.41,381.13z"/>
				<path class="st62" d="M142.04,387c0.96,1.02,2.61,1.17,3.54,0.32c0.75-0.68,0.71-2.14-0.08-2.99c-0.89-0.95-2.65-1.07-3.52-0.23
					C141.05,385.01,141.06,385.96,142.04,387z"/>
				<path class="st62" d="M252.03,439.45c0.61-0.77,1.83-0.43,2.3-1.35c0.76-0.46,1.15-1.08,0.87-1.96
					c-0.15-0.46-2.45-1.58-2.9-1.45c-0.16,0.05-0.3,0.18-0.45,0.28c-1.24,0.89-1.43,3.11-0.36,4.22
					C251.64,439.36,251.9,439.62,252.03,439.45z"/>
				<path class="st62" d="M198.49,346.37c0.62-0.57,0.69-2.43,0.11-3.08c-0.59-0.67-2.4-0.71-3.12-0.07
					c-0.66,0.59-0.82,2.32-0.28,2.92C195.91,346.95,197.73,347.07,198.49,346.37z"/>
				<path class="st62" d="M213.83,405.62c0.67-0.15,1.49-0.2,1.68-1c0.13-0.55,0.39-1.25-0.2-1.63c-0.72-0.77-1.46-0.55-2.2-0.38
					c-0.8,0.18-0.73,0.89-0.74,1.4c-0.02,0.72,0.11,1.27-0.95,1.23c-0.46-0.02-1.07,0.49-0.89,1.1c0.13,0.46,0.53,1.09,1.11,0.94
					c0.44-0.11,1.44-0.09,1.24-0.68C212.47,405.35,213.29,405.74,213.83,405.62z"/>
				<path class="st62" d="M161.19,385.48c0.55,0.84,2.71,0.86,3.43,0.14c0.5-0.5,0.48-2.08-0.03-2.64c-0.68-0.75-2.23-0.7-3.19,0.19
					C160.35,383.74,160.66,384.67,161.19,385.48z"/>
				<path class="st62" d="M255.22,381.98c-0.34,0.34-0.23,2.72,0.15,3.13c0.37,0.4,2.15,0.39,2.61-0.02
					c0.78-0.69,0.92-2.6,0.25-3.27C257.89,381.47,255.61,381.6,255.22,381.98z"/>
				<path class="st62" d="M233.54,401.29c0.85-0.75,1.31-2.18,0.84-2.63c-0.55-0.53-2.93-0.42-3.61,0.17
					c-0.85,0.74-0.48,1.47-0.14,2.04C231.47,401.77,232.84,401.9,233.54,401.29z"/>
				<path class="st62" d="M155.84,373.33c-0.71,0.68-0.69,1.9,0.04,2.69c0.46,0.5,2.37,0.78,2.43,0.37
					c0.11-0.89,1.61-1.39,1.08-2.09C157.63,372.47,156.86,372.34,155.84,373.33z"/>
				<path class="st62" d="M152.52,407.16c0.76,0.49,1.68,0.62,2.49,0.01c0.59-0.44,0.67-2.03,0.2-2.53
					c-0.47-0.49-2.01-0.46-2.57,0.04C152.06,405.21,151.91,406.77,152.52,407.16z"/>
				<path class="st62" d="M204.92,387.22c-0.39-0.56-0.76-0.73-1.26-0.63c-1.07,0.2-2.06,0.38-2.68,1.53
					c-0.37,0.68-0.12,0.93,0.23,1.35c0.46,0.53,0.86,0.38,1.19-0.1c0.37-0.54,0.86-0.77,1.42-0.5c0.65,0.31,0.92-0.15,1.2-0.49
					C205.41,387.92,205.06,387.47,204.92,387.22z"/>
				<path class="st62" d="M258.18,429.76c0.39-0.71,0.35-1.55-0.03-2.28c-0.26-0.49-2.26-0.74-2.66-0.41
					c-0.47,0.39-0.44,2.03,0.04,2.59C255.96,430.15,257.89,430.3,258.18,429.76z"/>
				<path class="st62" d="M134.76,365.13c-0.72,0.66-0.91,1.54-0.56,1.94c0.64,0.72,2.84,1.36,3.28,0.95
					c0.37-0.34-0.11-2.17-0.76-2.82C135.99,364.46,135.28,364.72,134.76,365.13z"/>
				<path class="st62" d="M183.23,420.6c0.74-0.67,0.58-1.45-0.07-2.25c-0.82-1.01-1.73-0.36-2.31-0.01
					c-0.6,0.36-0.69,1.28-0.06,1.81C181.59,420.98,182.42,421.33,183.23,420.6z"/>
				<path class="st62" d="M254.42,455.64c0,0.02,0,0.04,0,0.05l0,0.01c0.01-0.01,0.01-0.01,0.02-0.02
					C254.43,455.67,254.43,455.65,254.42,455.64C254.42,455.64,254.42,455.64,254.42,455.64z"/>
				<path class="st62" d="M254.38,454.65c-0.18-0.6-0.47-1.08-1.23-1.18c-0.99-0.13-1.5,0.51-1.9,1.16
					c-0.34,0.55,0.09,1.11,0.56,1.47c1.02,0.78,1.84,0.31,2.6-0.46C254.42,455.3,254.47,454.95,254.38,454.65z"/>
				<path class="st62" d="M223.28,422.5c1.05-0.92-0.54-1.76-0.42-2.59c-0.68-0.8-1.4-0.82-1.98-0.34
					c-0.62,0.52-0.59,1.28,0.07,1.79C221.66,421.89,222.04,423.59,223.28,422.5z"/>
				<path class="st62" d="M176.57,394.11c0.66-0.53,0.48-1.35-0.25-1.91c-0.49-0.79-1.26-1.06-1.93-0.44
					c-0.46,0.42-0.66,1.19-0.02,1.85C175.02,394.29,175.83,394.7,176.57,394.11z"/>
				<path class="st62" d="M151.18,437.58c0.55,0.57,0.98,1.23,1.75,0.68c0.63-0.45,0.62-1.82,0.12-2.4
					c-0.67-0.79-1.54-0.49-2.04-0.09C150.34,436.32,150.51,437.13,151.18,437.58z"/>
				<path class="st62" d="M153.47,410.79c-0.66,0.59-0.76,1.23-0.2,1.85c0.66,0.72,1.35,0.48,1.75,0.03
					c0.82-0.76,0.97-1.51,0.43-2.07C154.86,409.99,154.12,410.22,153.47,410.79z"/>
				<path class="st62" d="M183.36,374.57c0.66-0.56,0.67-1.36,0.2-1.88c-0.66-0.73-1.43-0.34-2.12,0.35
					c-0.74,0.48-0.57,0.98,0.02,1.64C182.21,375.52,182.76,375.09,183.36,374.57z"/>
				<path class="st62" d="M244.71,414.16c0.66-0.51,0.76-1.13,0.3-1.71c-0.52-0.64-1.17-0.49-1.76,0.1
					c-0.61,0.49-0.79,1.14-0.25,1.77C243.57,415.02,244.14,414.6,244.71,414.16z"/>
				<path class="st62" d="M220.55,446.28c0.37-0.55,0.62-0.83,1.33-0.62c0.34,0.1,0.25-0.38,0.32-0.6c0.11-0.35-0.03-0.7-0.38-0.72
					c-0.73-0.05-1.5-0.11-2.18,0.44c0.04,0.52-1.08,0.6-0.45,1.43C219.68,446.84,220.36,446.57,220.55,446.28z"/>
				<path class="st62" d="M226.84,417.67c-0.09,0.24-0.01,0.56-0.41,0.48c-0.32-0.07-0.56-0.02-0.56,0.33
					c0,0.48,0.33,0.36,0.66,0.37c0.34,0.01,0.68,0.16,1,0.27c0.46,0.16,0.97,0.19,1.15-0.31c0.17-0.46,0.31-1.03-0.16-1.48
					C228.02,416.83,227.11,416.99,226.84,417.67z"/>
				<path class="st62" d="M210.93,462.99c-0.55,0.51-0.51,1.1-0.09,1.64c0.41,0.51,0.96,0.43,1.4,0.03c0.49-0.45,0.71-1,0.19-1.61
					C211.94,462.49,211.45,462.52,210.93,462.99z"/>
				<path class="st62" d="M235.21,430.14c-0.44,0.49-0.47,1.04-0.06,1.52c0.39,0.46,0.93,0.35,1.47,0.22
					c-0.07-0.67,0.94-1.24,0.13-1.84C236.31,429.7,235.69,429.6,235.21,430.14z"/>
				<path class="st62" d="M170.85,383.89c-0.47,0.43-0.45,0.92,0,1.39c0.53,0.55,1,0.43,1.6-0.31c0.12-0.18,0.9-0.47,0.21-1.05
					C172.12,383.46,171.44,383.36,170.85,383.89z"/>
				<path class="st62" d="M166.22,406.62c0.4,0.61,0.83,0.5,1.32,0.08c0.55-0.47,0.56-1.13,0.21-1.54c-0.46-0.54-1.06-0.35-1.6,0.16
					C165.62,405.84,165.73,406.22,166.22,406.62z"/>
				<path class="st62" d="M159.85,388.59c-0.48,0.51-0.46,1.02,0.01,1.53c0.48,0.52,0.94,0.35,1.4-0.02
					c0.61-0.49,0.35-0.91-0.1-1.32C160.79,388.28,160.36,388.05,159.85,388.59z"/>
				<path class="st62" d="M144.35,359.76c-0.43,0.43-0.38,1.01,0,1.46c0.44,0.52,1.09,0.45,1.57,0.14c0.53-0.35,0.21-0.86-0.03-1.31
					C145.38,359.88,144.95,359.16,144.35,359.76z"/>
				<path class="st62" d="M126.01,381.96c-0.52,0.52-0.49,0.99,0.11,1.55c0.23,0.18,0.52,0.77,0.98,0.29
					c0.49-0.5,0.61-1.21,0.16-1.81C126.93,381.55,126.45,381.52,126.01,381.96z"/>
				<path class="st62" d="M194.8,394.63c0.34-0.37,0.36-1.02-0.13-1.44c-0.45-0.38-0.95-0.44-1.47-0.11
					c-0.43,0.55-0.23,1.03,0.17,1.44C193.79,394.95,194.43,395.03,194.8,394.63z"/>
				<path class="st62" d="M163.08,336.31c-0.42-0.36-1.03-0.32-1.47,0.03c-0.56,0.44-0.22,0.86,0.18,1.26
					c0.36,0.6,0.96,0.51,1.35,0.15C163.56,337.36,163.52,336.7,163.08,336.31z"/>
				<path class="st62" d="M192.72,327.38c0.47-0.51,0.51-1.04,0.06-1.56c-0.39-0.44-0.78-0.32-1.2,0.14
					c-0.64,0.35-0.41,0.79,0.03,1.24C191.94,327.55,192.26,327.86,192.72,327.38z"/>
				<path class="st62" d="M175.99,385.18c0.35-0.44,1.1-0.79,0.55-1.54c-0.29-0.39-0.59-0.59-1.1-0.18c-0.68,0.55,0,1.21-0.33,1.71
					C175.48,385.55,175.8,385.42,175.99,385.18z"/>
				<path class="st62" d="M205.8,429.41c-0.31,0.26-0.38,0.86-0.01,1.3c0.43,0.51,0.84,0.34,1.25-0.02c0.35-0.3,0.68-0.58,0.26-1.09
					C206.84,429.06,206.23,429.05,205.8,429.41z"/>
				<path class="st62" d="M250.37,452.46c0.44-0.38,0.43-1.02,0.18-1.31c-0.35-0.39-0.98-0.56-1.5-0.09
					c-0.45,0.41-0.26,0.78,0.11,1.12C249.49,452.61,249.86,452.9,250.37,452.46z"/>
				<path class="st62" d="M193.61,371.87c0.43-0.38,0.57-0.78,0.16-1.25c-0.38-0.44-0.87-0.09-1.35-0.24
					c0.05,0.58-0.41,1.06,0.07,1.56C192.92,372.39,193.24,372.2,193.61,371.87z"/>
				<path class="st62" d="M238.53,434.37c0.42-0.4,0.71-0.81,0.3-1.37c-0.4-0.55-0.88-0.11-1.36-0.1c-0.12,0.44-0.52,0.83-0.04,1.32
					C237.79,434.59,238.08,434.8,238.53,434.37z"/>
				<path class="st62" d="M219.88,414.8c0.37-0.34,0.24-0.71-0.1-1.04c-0.4-0.39-0.82-0.53-1.34-0.15
					c-0.13,0.43-0.48,0.98-0.02,1.32C218.83,415.24,219.45,415.19,219.88,414.8z"/>
				<path class="st62" d="M167.57,389.03c0.26-0.22,0.62-0.53,0.27-0.89c-0.42-0.42-0.95-0.36-1.37-0.14
					c-0.42,0.4-0.51,0.74-0.17,1.12C166.76,389.65,167.18,389.36,167.57,389.03z"/>
				<path class="st62" d="M158.4,348.79c-0.28,0.02-0.69-0.08-0.74,0.38c-0.04,0.38,0.31,0.42,0.55,0.45
					c0.62,0.1,0.76,0.67,1.17,1.21C159.78,349.58,159.3,348.74,158.4,348.79z"/>
				<path class="st62" d="M197.89,359.31c0.24-0.26,0.67-0.65,0.2-1.14c-0.34-0.35-0.65-0.42-1.01-0.05
					c-0.42,0.41-0.45,0.99-0.19,1.4C197.19,359.98,197.68,359.54,197.89,359.31z"/>
				<path class="st62" d="M238.38,438.57c-0.38,0.33-0.36,0.65-0.04,1.03c0.39,0.46,0.92,0.46,1.32,0.22
					c0.57-0.35,0.01-0.66-0.16-0.94C239.18,438.55,238.9,438.12,238.38,438.57z"/>
				<path class="st62" d="M136.66,346.02c0.8,0.59,0.57,1.48,1.03,2.15C138.46,346.25,138.27,345.8,136.66,346.02z"/>
				<path class="st62" d="M137.14,373.62c-0.34,0.33-0.46,0.65-0.15,1.06c0.34,0.45,0.69,0.29,1.01,0.02
					c0.31-0.25,0.64-0.57,0.29-0.99C137.96,373.33,137.53,373.3,137.14,373.62z"/>
				<path class="st62" d="M195.42,407.21c0.34-0.26,0.28-0.58,0.01-0.9c-0.35-0.42-0.68-0.49-1.09-0.1
					c-0.31,0.29-0.41,0.55-0.06,0.91C194.61,407.46,195.02,407.52,195.42,407.21z"/>
				<path class="st62" d="M216.62,349.96c0.14,0.17,0.42,0.16,0.6-0.02c0.15-0.15,0.06-0.32-0.06-0.47
					c-0.59-0.78-0.42-1.44,0.28-2.06c0.47-0.42,0.74-0.95,0.81-1.61c0.19-1.91-0.76-3.22-2.22-4.25c-0.37-0.26-0.74-0.33-0.41-0.96
					c0.26-0.5,0.15-1.18-0.5-1.47c-0.71-0.32-0.9,0.31-1.21,0.72c-0.29,0.38-0.52,0.73-0.1,1.17c0.19,0.2,0.31,0.63-0.03,0.6
					c-0.92-0.08-1.25,0.76-1.65,1.17c-1.7,1.75-2.49,3.98,0.1,5.94c0.74,0.25,1.3,1.21,2.41,0.95
					C215.32,349.51,216.05,349.24,216.62,349.96z"/>
				<path class="st62" d="M240.17,368.31c-0.71,0.94-0.3,2.89,0.71,3.73c0.99,0.83,2.63,0.46,3.53-0.54
					c0.87-0.96,0.43-2.54-0.81-3.48C242.31,367.05,241.04,367.15,240.17,368.31z"/>
				<path class="st62" d="M260.14,368.75c-1.45,0.54-2.1,2.32-1.39,4.22c0.47,1.24,1.69,1.48,2.65,0.5
					c0.24-0.25,0.43-0.55,0.64-0.83c0.07-1.18,0.15-2.36,0.22-3.53C261.73,368.64,261.04,368.42,260.14,368.75z"/>
				<path class="st62" d="M229.28,386.45c0.85-0.77,0.59-1.65-0.67-2.77c-0.95-0.85-2.2-0.66-2.93,0.3
					c-0.76,1.01-0.55,2.37,0.49,3.17C226.99,387.77,228.52,387.42,229.28,386.45z"/>
				<path class="st62" d="M191.51,359.33c0.85,0.34,1.82,0.35,2.49-0.56c0.72-0.98,0.6-1.75-0.38-2.49
					c-0.82-0.61-2.25-0.41-2.88,0.41C190.27,357.31,190.65,358.99,191.51,359.33z"/>
				<path class="st62" d="M208.45,377.84c0.79-1.08,0.05-1.73-0.47-2.22c-0.75-0.7-1.8-0.18-2.25,0.45
					c-0.34,0.47-0.31,1.46,0.49,2.13C206.9,378.17,207.65,378.94,208.45,377.84z"/>
				<path class="st62" d="M198.2,375.8c-0.35,0.81,0.17,1.5,0.58,2.25c0.89,0.06,1.79-0.27,2.33-0.9c0.48-0.55,0.29-1.46-0.22-2.05
					C200.47,374.6,198.52,375.1,198.2,375.8z"/>
				<path class="st62" d="M224.95,332.27c0.54-0.82,0.28-1.48-0.31-2.04c-0.65-0.61-1.5-0.42-1.86,0.13
					c-0.38,0.59-0.82,1.48,0.1,2.18C223.7,333.18,224.33,332.77,224.95,332.27z"/>
				<path class="st62" d="M179.59,442c0.72,0.44,1.7,0.59,2.23-0.17c0.29-0.42,0.72-1.36-0.14-1.86c-0.74-0.43-1.5-0.29-2.34,0.37
					C179.69,440.84,178.85,441.55,179.59,442z"/>
				<path class="st62" d="M217.24,369.98c0.46,0.43,1.99,0.31,2.18-0.19c0.26-0.67,0.26-1.65-0.22-1.95
					c-0.22-0.14-0.5-0.18-0.78-0.17c0.03-0.02,0.06-0.04,0.08-0.06c0.54-0.39,0.24-0.94-0.2-1.31c-0.64-0.94-1.39-0.27-1.97-0.04
					c-0.22,0.09-0.45,0.97,0.02,1.42c0.31,0.3,0.63,0.4,0.95,0.4c-0.09,0.07-0.19,0.12-0.27,0.2
					C216.79,368.9,216.72,369.5,217.24,369.98z"/>
				<path class="st62" d="M195.67,367.39c-0.99-0.81-1.08-0.8-1.63-0.15c-0.42,0.5-0.4,1-0.05,1.46c0.29,0.37,2.19,0.23,2.39-0.15
					C196.76,367.77,195.9,367.74,195.67,367.39z"/>
				<path class="st62" d="M221.54,385.07c-0.5-0.7-1.15-0.21-1.35,0.16c-0.23,0.44-0.89,1.13-0.14,1.63
					c0.61,0.41,1.26,0.31,1.78-0.38C222.28,385.86,222.22,385.45,221.54,385.07z"/>
				<path class="st62" d="M211.99,365.59c0.56-0.46,0.33-1.07-0.08-1.33c-0.4-0.25-1.09-0.8-1.5-0.14
					c-0.28,0.45-0.68,1.16,0.15,1.71C211.18,366.25,211.59,366.22,211.99,365.59z"/>
				<path class="st62" d="M226.75,355.51c0.31-0.38,0.39-0.8-0.14-1.12c-0.47-0.53-1.03-0.25-1.37,0.08
					c-0.28,0.28-0.27,0.91,0.09,1.19C225.78,356.01,226.35,356,226.75,355.51z"/>
				<path class="st62" d="M243.64,355.73c-0.11,0.31-0.81,0.71-0.29,1.04c0.71,0.47,1.1-0.45,1.63-0.74
					c0.31-0.17,0.43-0.6-0.01-0.87C244.33,354.78,243.98,355.19,243.64,355.73z"/>
				<path class="st62" d="M230.17,369.75c0.19-0.29,0.33-0.63-0.07-0.77c-0.51-0.17-1.08-0.29-1.81,0.02
					c0.53,0.36-0.09,0.98,0.55,1.26C229.46,370.55,229.84,370.24,230.17,369.75z"/>
				<path class="st62" d="M244.48,337.27c-0.19,0.32-0.65,0.65-0.14,1.01c0.4,0.28,0.85,0.2,1.2-0.2c0.37-0.42,0.3-0.85-0.09-1.17
					C244.97,336.52,244.74,336.98,244.48,337.27z"/>
				<path class="st62" d="M223.71,388.98c-0.27-0.21-0.66-0.13-0.98,0.1c0.11,0.41-0.36,0.92,0.08,1.2c0.35,0.23,0.94,0.08,1.2-0.19
					C224.34,389.73,224.05,389.24,223.71,388.98z"/>
				<path class="st62" d="M229.46,381.33c0.31-0.39,0.3-0.72-0.08-1.01c-0.39-0.31-0.73-0.22-0.99,0.22
					c-0.32,0.35-0.27,0.67,0.11,0.98C228.92,381.88,229.18,381.69,229.46,381.33z"/>
				<path class="st62" d="M224.18,365.32c-0.29-0.2-0.81-0.28-1.09,0.07c-0.29,0.37-0.21,0.87,0.09,1.21
					c0.4,0.44,0.58-0.06,0.82-0.3C224.14,365.99,224.69,365.67,224.18,365.32z"/>
				<path class="st62" d="M246.26,406.09c0.23-0.37,0.37-0.82,0.03-1.21c-0.37-0.42-0.61,0.01-0.86,0.21
					c-0.39,0.3-0.43,0.63-0.07,0.98C245.66,406.29,246,406.51,246.26,406.09z"/>
				<path class="st62" d="M247.74,397.68c-0.38-0.46-0.86-0.24-1.21-0.05c-0.55,0.29,0,0.55,0.12,0.81
					c0.29,0.26,0.52,0.71,0.98,0.29C247.98,398.43,248.05,398.07,247.74,397.68z"/>
				<path class="st62" d="M173.43,394.36c-0.33,0.25-0.48,0.47-0.16,0.86c0.4,0.47,0.84,0.16,1.19,0.04
					c0.43-0.16,0.17-0.49-0.15-0.92C174.16,394.09,173.84,394.06,173.43,394.36z"/>
				<path class="st62" d="M178.31,343.85c-0.15,0.3-0.19,0.67,0.01,0.87c0.36,0.36,0.85,0.16,1.22-0.03c0.3-0.15,0.16-0.48,0.01-0.7
					C179.21,343.5,178.75,343.84,178.31,343.85z"/>
				<path class="st62" d="M255.87,399.65c-0.2,0.27-0.21,0.67,0.16,1.03c0.39,0.38,0.62-0.03,0.87-0.22
					c0.37-0.29,0.28-0.58-0.03-0.87C256.59,399.34,256.31,399.14,255.87,399.65z"/>
				<path class="st62" d="M234.31,394.14c-0.17,0.3-0.46,0.62-0.12,1.02c0.27,0.31,0.6,0.37,0.92,0.09c0.37-0.33,0.33-0.67,0-1.02
					C234.89,393.99,234.66,393.81,234.31,394.14z"/>
				<path class="st62" d="M189.54,377.84c-0.32,0.25-0.48,0.54-0.19,0.9c0.3,0.38,0.65,0.41,1.03,0.08
					c0.29-0.25,0.35-0.49-0.01-0.88C190.19,377.79,189.93,377.54,189.54,377.84z"/>
				<path class="st62" d="M236.17,397.55c-0.26,0.37,0,0.58,0.19,0.8c0.31,0.36,0.6,0.24,0.88-0.05c0.23-0.23,0.42-0.49,0.12-0.78
					C236.97,397.15,236.56,397.47,236.17,397.55z"/>
				<path class="st62" d="M250.05,408.12c0.22-0.2,0.57-0.45,0.28-0.75c-0.32-0.33-0.78-0.3-1.14-0.2c-0.36,0.25-0.31,0.47-0.1,0.7
					C249.35,408.15,249.61,408.54,250.05,408.12z"/>
				<path class="st62" d="M176.4,363.92c0.35,0.39,0.62,0.12,0.89-0.12c0.27-0.24,0.4-0.48,0.2-0.65c-0.49-0.46-0.9-0.36-1.22-0.12
					C175.87,363.34,176.17,363.66,176.4,363.92z"/>
				<path class="st62" d="M248.56,389.13c-0.49-0.11-0.91-0.56-1.45-0.36c-0.2,0.34-0.03,0.55,0.16,0.75
					c0.41,0.44,0.91,0.24,1.34,0.13C248.82,389.59,248.81,389.18,248.56,389.13z"/>
				<path class="st62" d="M253.52,396.91c0.26-0.22,0.46-0.47,0.13-0.78c-0.35-0.32-0.75-0.11-1.12-0.07
					c-0.3,0.24-0.23,0.48-0.04,0.71C252.79,397.16,253.13,397.25,253.52,396.91z"/>
				<path class="st62" d="M179.67,384.55c0.28,0.36,0.6,0.26,0.9-0.03c0.23-0.22,0.5-0.5,0.24-0.78c-0.35-0.4-0.81-0.06-1.22-0.04
					C179.33,384.03,179.48,384.32,179.67,384.55z"/>
				<path class="st62" d="M252.16,408.08c0.18-0.19,0.46-0.42,0.17-0.63c-0.21-0.15-0.71-0.22-0.85-0.08
					c-0.46,0.42-0.36,0.99-0.11,1.66C251.67,408.67,251.9,408.36,252.16,408.08z"/>
				<path class="st62" d="M161.56,358.38c-0.27,0.24-0.19,0.48,0.04,0.69c0.31,0.29,0.64,0.31,0.95,0.01
					c0.23-0.23,0.21-0.5-0.02-0.7C162.23,358.12,161.88,358.1,161.56,358.38z"/>
				<path class="st62" d="M152.07,401.88c-0.3,0.33-0.52,0.67-0.18,0.87c0.3,0.18,0.75,0.32,1.11,0.05
					c0.42-0.31,0.03-0.53-0.14-0.76C152.61,401.7,152.32,401.56,152.07,401.88z"/>
				<path class="st62" d="M184.78,402.4c0.17-0.23,0.29-0.53,0.02-0.71c-0.33-0.23-0.73-0.34-1.08-0.06
					c-0.33,0.38-0.04,0.6,0.16,0.82C184.2,402.79,184.51,402.76,184.78,402.4z"/>
				<path class="st62" d="M44.17,435.24c0.11,0.04,0.2,0.05,0.3,0.07c0.05,0.22,0.21,0.39,0.39,0.61c0.46,0.53,0.86,0.38,1.19-0.1
					c0.37-0.54,0.86-0.77,1.42-0.5c0.65,0.31,0.92-0.15,1.2-0.49c0.39-0.46,0.04-0.91-0.1-1.16c-0.39-0.56-0.76-0.73-1.26-0.63
					c-0.74,0.14-1.45,0.28-2.02,0.73c-0.07-0.04-0.14-0.08-0.23-0.11c-0.57-0.46-0.89-0.09-1.14,0.49
					C43.72,434.58,43.54,435,44.17,435.24z"/>
				<path class="st62" d="M53.36,465.94c0.32-0.82-0.17-1.55-0.81-1.68c-0.69-0.13-1.68-0.21-1.99,0.9
					c-0.28,1.01,0.34,1.43,1.02,1.83C52.54,467.19,53.06,466.7,53.36,465.94z"/>
				<path class="st62" d="M53.2,487.23c-0.11,0.48,0.13,0.86,0.63,1.04c0.53,0.19,0.9-0.04,1.05-0.52c0.19-0.58-0.33-0.62-0.69-0.76
					C53.82,486.92,53.35,486.62,53.2,487.23z"/>
				<path class="st62" d="M47.17,475.66c0.83-0.53,1.4-1.7,1.12-2.16c-0.55-0.89-0.3-2.26-1.85-2.71c-1.2-0.35-2.37-0.61-3.58-0.68
					c0.1,1.61,0.21,3.21,0.31,4.82c0.22,0.07,0.44,0.18,0.6,0.39C44.49,476.26,46.15,476.3,47.17,475.66z"/>
				<path class="st62" d="M119.21,442.3c0.37,0.37,0.95,0.42,1.32-0.02c0.42-0.49,0.87-0.52,1.43-0.39c1.4,0.32,2.74,0.25,3.75-0.93
					c0.92-1.07,0.44-2.32,0.08-3.39c-0.22-0.65-1.04-1.1-1.59-1.63c-0.88,0.91-2.37,0.37-3.17,1.33c-0.9,0.74-0.96,1.76-0.98,2.72
					c-0.01,0.54-0.06,0.9-0.49,1.24C119.22,441.47,118.74,441.83,119.21,442.3z"/>
				<path class="st62" d="M98.02,502.85c-0.46,2.73-0.57,3.86,2.55,4.26c0.66,0.08,1.29,0.01,1.89-0.31
					c0.97-0.52,0.92-1.82,1.83-2.39c0.03-0.02-0.13-0.39-0.24-0.58c-0.18-0.3-0.43-0.57-0.58-0.88c-1.03-2.16-3.69-2.56-5.38-0.79
					C98.19,502.39,98.06,502.61,98.02,502.85z"/>
				<path class="st62" d="M75.3,505.15c1.05-0.55,2.33-0.04,3.25-0.9c1.27-1.18,1.3-3.2,0.06-4.65c-0.96-1.12-2.6-0.92-4.25,0.53
					c-1.46,1.28-1.6,2.54-0.39,3.87C74.38,504.44,74.85,505.38,75.3,505.15z"/>
				<path class="st62" d="M107.89,454.35c-0.33,1.2,1,2.51,2.56,2.44c1.85-0.09,2.92-2.1,1.94-3.65c-0.58-0.92-2.84-0.73-3.8,0.33
					C108.54,453.88,108.02,453.88,107.89,454.35z"/>
				<path class="st62" d="M95.5,481.44c-1.24,0.89-1.43,3.11-0.36,4.22c0.15,0.16,0.4,0.42,0.54,0.25c0.61-0.77,1.83-0.43,2.3-1.35
					c0.76-0.46,1.15-1.08,0.87-1.96c-0.15-0.46-2.45-1.58-2.9-1.45C95.78,481.21,95.64,481.34,95.5,481.44z"/>
				<path class="st62" d="M42.25,389.75c-0.59-0.67-2.4-0.71-3.12-0.07c-0.66,0.59-0.82,2.32-0.28,2.92c0.72,0.8,2.53,0.93,3.3,0.23
					C42.76,392.26,42.83,390.41,42.25,389.75z"/>
				<path class="st62" d="M57.48,452.08c0.67-0.15,1.49-0.2,1.68-1c0.13-0.55,0.39-1.25-0.2-1.63c-0.72-0.77-1.46-0.55-2.2-0.38
					c-0.8,0.18-0.73,0.89-0.74,1.4c-0.02,0.72,0.11,1.27-0.95,1.23c-0.46-0.02-1.07,0.49-0.89,1.1c0.13,0.46,0.53,1.09,1.11,0.94
					c0.44-0.11,1.44-0.09,1.24-0.68C56.11,451.82,56.93,452.2,57.48,452.08z"/>
				<path class="st62" d="M115.03,466.49c0.37,0.17,1.01,0.25,1.26-0.13c0.76-1.15,1.69-0.87,2.74-0.59
					c0.42,0.11,1.15,0.25,1.39-0.42c0.23-0.64,0.33-1.33-0.41-1.84c-0.48-0.78-1.05-0.81-1.67-0.08c-0.34,0.41-0.77,0.65-1.29,0.51
					c-1.34-0.37-2.04,0.07-1.99,1.51C115.08,465.81,114.46,466.22,115.03,466.49z"/>
				<path class="st62" d="M98.87,428.44c-0.34,0.34-0.23,2.72,0.15,3.13c0.37,0.4,2.15,0.39,2.61-0.02c0.78-0.69,0.92-2.6,0.25-3.27
					C101.53,427.94,99.26,428.06,98.87,428.44z"/>
				<path class="st62" d="M74.42,445.29c-0.85,0.74-0.48,1.47-0.14,2.04c0.83,0.9,2.21,1.03,2.91,0.42
					c0.85-0.75,1.31-2.18,0.84-2.63C77.48,444.59,75.1,444.7,74.42,445.29z"/>
				<path class="st62" d="M110.91,480.18c-0.62,0.59-0.56,2.23,0.12,2.9c0.76,0.77,1.65,0.62,2.4,0.1c0.8-0.55,0.7-2.14-0.07-2.98
					C112.9,479.7,111.43,479.69,110.91,480.18z"/>
				<path class="st62" d="M116.76,475.04c-0.41,0.62-0.61,1.3,0.17,2.01c0.74,0.68,2.47,0.67,3.23-0.08
					c0.27-0.27,0.06-2.11-0.27-2.4C119.36,474.12,117.48,474.35,116.76,475.04z"/>
				<path class="st62" d="M84.64,485.35c0.06,0.07,0.12,0.13,0.18,0.2c0.72,0.77,2.1,0.94,2.79,0.33c0.4-0.35,0.33-2.61-0.09-3.06
					c-0.3-0.34-0.56-0.18-0.78,0.07c-0.64,0.74-1.51,0.89-2.4,1.01c-0.54,0.07-0.71,0.3-0.33,0.76
					C84.21,484.9,84.43,485.12,84.64,485.35z"/>
				<path class="st62" d="M99.18,476.12c0.43,0.5,2.36,0.64,2.65,0.11c0.39-0.71,0.35-1.55-0.03-2.28
					c-0.26-0.49-2.26-0.74-2.66-0.41C98.66,473.92,98.69,475.56,99.18,476.12z"/>
				<path class="st62" d="M118.17,432.19c0.57-0.53,0.46-1.83-0.21-2.54c-0.39-0.41-1.86-0.63-2.18-0.32
					c-0.32,0.31-0.37,2.28-0.07,2.63C116.11,432.45,117.74,432.6,118.17,432.19z"/>
				<path class="st62" d="M127.21,449.82c-0.71-0.72-1.48-1.02-2.32,0.01c-1.35,0.7-0.35,1.53,0.1,2.21
					c0.62,0.95,1.55,0.51,2.12-0.02C127.72,451.45,127.95,450.57,127.21,449.82z"/>
				<path class="st62" d="M114.26,448.86c-0.75-0.52-1.63,0.55-2.26-0.35c-0.11-0.15-0.39,0.21-0.3,0.52
					c0.1,0.33,0.29,0.68,0.27,1.01c-0.06,0.86,0.66,1.05,1.15,1.26c0.53,0.23,1.23,0.24,1.71-0.34c0.39-0.38,0.74-0.78,0.52-1.39
					C115.15,449.03,114.58,449.08,114.26,448.86z"/>
				<path class="st62" d="M98.07,502.1c0,0.02,0,0.04,0,0.05l0,0.01c0.01-0.01,0.01-0.01,0.02-0.02
					C98.08,502.13,98.08,502.12,98.07,502.1C98.07,502.1,98.07,502.1,98.07,502.1z"/>
				<path class="st62" d="M98.03,501.11c-0.18-0.6-0.47-1.08-1.23-1.18c-0.99-0.13-1.5,0.51-1.9,1.16
					c-0.34,0.55,0.09,1.11,0.56,1.47c1.02,0.78,1.84,0.31,2.6-0.46C98.07,501.77,98.12,501.42,98.03,501.11z"/>
				<path class="st62" d="M64.61,467.83c0.7,0.53,1.08,2.23,2.33,1.14c1.05-0.92-0.54-1.76-0.42-2.59c-0.68-0.8-1.4-0.82-1.98-0.34
					C63.91,466.56,63.94,467.32,64.61,467.83z"/>
				<path class="st62" d="M108.96,505.8c0.7-0.52,0.73-1.28-0.1-1.9c-0.55-1.24-1.58-0.41-1.89-0.06c-0.47,0.52-0.86,1.43-0.1,2.22
					C107.68,506.91,108.4,506.22,108.96,505.8z"/>
				<path class="st62" d="M122.09,468.61c0.62-0.45,0.84-1.25,0.21-1.82c-0.87-0.79-1.61,0.24-2.34,0.51
					c-0.35,0.13-1.22,0.98-0.26,1.75C120.65,469.94,121.4,469.11,122.09,468.61z"/>
				<path class="st62" d="M107.99,500.78c0.44-0.44,0.74-1.45,0.16-1.92c-0.47-0.39-1.34-0.87-2.06-0.04
					c-0.61,0.53-0.82,1.13-0.14,1.8C106.59,501.24,107.44,501.34,107.99,500.78z"/>
				<path class="st62" d="M88.65,458.92c-0.52-0.64-1.17-0.49-1.76,0.1c-0.61,0.49-0.79,1.14-0.25,1.77
					c0.58,0.69,1.15,0.27,1.72-0.17C89.01,460.12,89.12,459.5,88.65,458.92z"/>
				<path class="st62" d="M64.2,492.75c0.37-0.55,0.62-0.83,1.33-0.62c0.34,0.1,0.25-0.38,0.32-0.6c0.11-0.35-0.03-0.7-0.38-0.72
					c-0.73-0.05-1.5-0.11-2.18,0.44c0.04,0.52-1.08,0.6-0.45,1.43C63.33,493.3,64,493.03,64.2,492.75z"/>
				<path class="st62" d="M111.44,443.4c-0.65,0.4-0.19,0.82,0.2,1.28c0.55,1.06,1.43,0.28,2.12,0.07c0.32-0.1,0.53-0.88,0.02-1.25
					C113.05,442.98,112.21,442.93,111.44,443.4z"/>
				<path class="st62" d="M70.49,464.14c-0.09,0.24-0.01,0.56-0.41,0.48c-0.32-0.07-0.56-0.02-0.56,0.33c0,0.48,0.33,0.36,0.66,0.37
					c0.34,0.01,0.68,0.16,1,0.27c0.46,0.16,0.97,0.19,1.15-0.31c0.17-0.46,0.31-1.03-0.16-1.48
					C71.66,463.3,70.75,463.45,70.49,464.14z"/>
				<path class="st62" d="M123.41,447.59c0.36-0.43,0.74-1.16-0.03-1.74c-0.4-0.64-0.91-0.59-1.4-0.11
					c-0.49,0.48-0.65,1.12-0.18,1.64C122.21,447.86,122.95,448.14,123.41,447.59z"/>
				<path class="st62" d="M55.89,511.12c0.49-0.45,0.71-1,0.19-1.61c-0.48-0.56-0.97-0.52-1.5-0.06c-0.55,0.51-0.51,1.1-0.09,1.64
					C54.89,511.6,55.45,511.52,55.89,511.12z"/>
				<path class="st62" d="M80.4,476.5c-0.44-0.34-1.06-0.44-1.54,0.1c-0.44,0.49-0.47,1.04-0.06,1.52c0.39,0.46,0.93,0.35,1.47,0.22
					C80.19,477.67,81.2,477.11,80.4,476.5z"/>
				<path class="st62" d="M83.03,427.15c0.48-0.42,0.42-1.2,0.18-1.36c-0.4-0.27-1.06-0.64-1.52-0.18c-0.34,0.55-0.84,1.04-0.29,1.5
					C81.85,427.49,82.47,427.65,83.03,427.15z"/>
				<path class="st62" d="M88.34,492.7c0.4-0.31,0.71-0.81,0.16-1.25c-0.34-0.28-0.89-0.61-1.4-0.13c-0.52,0.49-0.53,1.15-0.19,1.62
					C87.32,493.5,87.85,493.14,88.34,492.7z"/>
				<path class="st62" d="M109.22,462.69c-0.38-0.42-0.37-0.99-0.65-1.43c-0.14-0.23-0.22-0.49-0.56-0.45
					c-0.39,0.05-0.64,0.29-0.78,0.63c-0.12,0.29,0,0.63,0.23,0.68c0.64,0.13,0.72,0.71,0.97,1.09c0.37,0.13,0.48,0.76,0.87,0.51
					C109.73,463.45,109.46,462.97,109.22,462.69z"/>
				<path class="st62" d="M121.14,434.97c0.51-0.42,0.58-0.98,0.29-1.42c-0.33-0.5-0.92-0.33-1.3-0.17
					c-0.64,0.51-0.46,0.93-0.09,1.34C120.34,435.06,120.62,435.4,121.14,434.97z"/>
				<path class="st62" d="M49.44,477.18c0.43,0.51,0.84,0.34,1.25-0.02c0.35-0.3,0.68-0.58,0.26-1.09
					c-0.46-0.54-1.07-0.55-1.49-0.19C49.14,476.14,49.07,476.74,49.44,477.18z"/>
				<path class="st62" d="M92.81,498.66c0.33,0.41,0.7,0.71,1.21,0.27c0.44-0.38,0.43-1.02,0.18-1.31c-0.35-0.39-0.98-0.56-1.5-0.09
					C92.24,497.95,92.44,498.31,92.81,498.66z"/>
				<path class="st62" d="M82.18,480.84c0.42-0.4,0.71-0.81,0.3-1.37c-0.4-0.55-0.88-0.11-1.36-0.1c-0.12,0.44-0.52,0.83-0.04,1.32
					C81.44,481.05,81.73,481.26,82.18,480.84z"/>
				<path class="st62" d="M63.53,461.27c0.37-0.34,0.24-0.71-0.1-1.04c-0.4-0.39-0.82-0.53-1.34-0.15
					c-0.13,0.43-0.48,0.98-0.02,1.32C62.47,461.71,63.1,461.65,63.53,461.27z"/>
				<path class="st62" d="M124.5,458.74c0.29-0.4,0.28-1.01-0.23-1.41c-0.31-0.29-0.63-0.81-1.08-0.29
					c-0.45,0.52,0.11,1.11,0.16,1.66C123.39,458.97,124.26,459.07,124.5,458.74z"/>
				<path class="st62" d="M90.4,485.34c0.52-0.38,0.06-0.8,0.09-1.22c-0.47-0.26-0.94-0.34-1.39-0.04c-0.49,0.32-0.28,0.67,0.02,1
					C89.49,485.47,89.87,485.72,90.4,485.34z"/>
				<path class="st62" d="M40.72,404.59c-0.42,0.41-0.45,0.99-0.19,1.4c0.3,0.46,0.79,0.01,1-0.21c0.24-0.26,0.67-0.65,0.2-1.14
					C41.4,404.29,41.09,404.22,40.72,404.59z"/>
				<path class="st62" d="M83.31,486.28c0.57-0.35,0.01-0.66-0.16-0.94c-0.33-0.33-0.6-0.76-1.12-0.31
					c-0.38,0.33-0.36,0.65-0.04,1.03C82.39,486.53,82.91,486.53,83.31,486.28z"/>
				<path class="st62" d="M105.23,469.9c0.41-0.39,0.35-0.74-0.02-1.13c-0.34-0.36-0.65-0.4-1.05,0.01c-0.46,0.3-0.2,0.61,0.09,0.93
					C104.53,470.02,104.8,470.31,105.23,469.9z"/>
				<path class="st62" d="M129.79,455.41c0.43-0.37,0.35-0.77,0.01-1.15c-0.31-0.35-0.67-0.39-1.04-0.1
					c-0.39,0.35-0.28,0.71,0.02,1.03C129.06,455.49,129.37,455.78,129.79,455.41z"/>
				<path class="st62" d="M104.09,471.94c-0.36-0.39-0.66-0.39-0.99-0.01c-0.4,0.29-0.51,0.62-0.16,1.01c0.34,0.36,0.66,0.35,1.03,0
					C104.32,472.61,104.47,472.35,104.09,471.94z"/>
				<path class="st62" d="M60.27,396.42c0.14,0.17,0.42,0.16,0.6-0.02c0.15-0.15,0.06-0.32-0.06-0.47
					c-0.59-0.78-0.42-1.44,0.28-2.06c0.47-0.42,0.74-0.95,0.81-1.61c0.19-1.91-0.76-3.22-2.22-4.25c-0.37-0.26-0.74-0.33-0.41-0.96
					c0.26-0.5,0.15-1.18-0.5-1.47c-0.71-0.32-0.9,0.31-1.21,0.72c-0.29,0.38-0.52,0.73-0.1,1.17c0.19,0.2,0.31,0.63-0.03,0.6
					c-0.92-0.08-1.25,0.76-1.65,1.17c-1.7,1.75-2.49,3.98,0.1,5.94c0.74,0.25,1.3,1.21,2.41,0.95
					C58.97,395.97,59.7,395.7,60.27,396.42z"/>
				<path class="st62" d="M88.05,417.97c0.87-0.96,0.43-2.54-0.81-3.48c-1.29-0.98-2.56-0.87-3.43,0.29
					c-0.71,0.94-0.3,2.89,0.71,3.73C85.51,419.33,87.15,418.97,88.05,417.97z"/>
				<path class="st62" d="M103.79,415.22c-1.45,0.54-2.1,2.32-1.39,4.22c0.47,1.24,1.69,1.48,2.65,0.5
					c0.25-0.25,0.44-0.56,0.65-0.85c0,0,0.01,0.01,0.01,0.01c0.14-0.18,0.25-0.38,0.41-0.53c0.83-0.78,0.79-1.74,0.21-2.52
					C105.76,415.27,104.95,414.79,103.79,415.22z"/>
				<path class="st62" d="M72.93,432.92c0.85-0.77,0.59-1.65-0.67-2.77c-0.95-0.85-2.2-0.66-2.93,0.3
					c-0.76,1.01-0.55,2.37,0.49,3.17C70.63,434.24,72.17,433.89,72.93,432.92z"/>
				<path class="st62" d="M108.44,442.53c-0.88-0.66-2.67-0.48-3.25,0.34c-0.69,0.96-0.49,1.82,0.62,2.68
					c0.99,0.76,1.71,0.59,2.72-0.73C109.18,444.11,109.49,443.32,108.44,442.53z"/>
				<path class="st62" d="M52.1,424.3c0.79-1.08,0.05-1.73-0.47-2.22c-0.75-0.7-1.8-0.18-2.25,0.45c-0.34,0.47-0.31,1.46,0.49,2.13
					C50.55,424.64,51.29,425.4,52.1,424.3z"/>
				<path class="st62" d="M44.54,421.57c-0.43-0.5-2.38-0.01-2.69,0.7c-0.35,0.81,0.17,1.5,0.58,2.25c0.89,0.06,1.79-0.27,2.33-0.9
					C45.24,423.07,45.05,422.16,44.54,421.57z"/>
				<path class="st62" d="M68.28,376.69c-0.65-0.61-1.5-0.42-1.86,0.13c-0.38,0.59-0.82,1.48,0.1,2.18
					c0.83,0.63,1.46,0.22,2.07-0.27C69.13,377.92,68.88,377.26,68.28,376.69z"/>
				<path class="st62" d="M60.88,416.45c0.46,0.43,1.99,0.31,2.18-0.19c0.26-0.67,0.26-1.65-0.22-1.95
					c-0.22-0.14-0.5-0.18-0.78-0.17c0.03-0.02,0.06-0.04,0.08-0.06c0.54-0.39,0.24-0.94-0.2-1.31c-0.64-0.94-1.39-0.27-1.97-0.04
					c-0.22,0.09-0.45,0.97,0.02,1.42c0.31,0.3,0.63,0.4,0.95,0.4c-0.09,0.07-0.19,0.12-0.27,0.2
					C60.44,415.36,60.37,415.96,60.88,416.45z"/>
				<path class="st62" d="M39.33,413.87c0.03,0.47,0.06,0.94,0.09,1.42c0.3-0.06,0.55-0.16,0.61-0.28
					C40.4,414.25,39.58,414.2,39.33,413.87z"/>
				<path class="st62" d="M65.47,432.94c0.46-0.62,0.39-1.03-0.28-1.41c-0.5-0.7-1.15-0.21-1.35,0.16
					c-0.23,0.44-0.89,1.13-0.14,1.63C64.31,433.73,64.96,433.64,65.47,432.94z"/>
				<path class="st62" d="M55.64,412.06c0.56-0.46,0.33-1.07-0.08-1.33c-0.4-0.25-1.09-0.8-1.5-0.14c-0.28,0.45-0.68,1.16,0.15,1.71
					C54.82,412.72,55.24,412.69,55.64,412.06z"/>
				<path class="st62" d="M70.4,401.98c0.31-0.38,0.39-0.8-0.14-1.12c-0.47-0.53-1.03-0.25-1.37,0.08
					c-0.28,0.28-0.27,0.91,0.09,1.19C69.42,402.47,69.99,402.46,70.4,401.98z"/>
				<path class="st62" d="M87.29,402.2c-0.11,0.31-0.81,0.71-0.29,1.04c0.71,0.47,1.1-0.45,1.63-0.74c0.31-0.17,0.43-0.6-0.01-0.87
					C87.98,401.24,87.63,401.66,87.29,402.2z"/>
				<path class="st62" d="M73.75,415.45c-0.51-0.17-1.08-0.29-1.81,0.02c0.53,0.36-0.09,0.98,0.55,1.26c0.62,0.27,1-0.03,1.33-0.52
					C74,415.93,74.14,415.59,73.75,415.45z"/>
				<path class="st62" d="M88.13,383.73c-0.19,0.32-0.65,0.65-0.14,1.01c0.4,0.28,0.85,0.2,1.2-0.2c0.37-0.42,0.3-0.85-0.09-1.17
					C88.62,382.98,88.39,383.45,88.13,383.73z"/>
				<path class="st62" d="M67.36,435.44c-0.27-0.21-0.66-0.13-0.98,0.1c0.11,0.41-0.36,0.92,0.08,1.2c0.35,0.23,0.94,0.08,1.2-0.19
					C67.99,436.2,67.69,435.7,67.36,435.44z"/>
				<path class="st62" d="M72.15,427.99c0.42,0.35,0.68,0.17,0.97-0.19c0.31-0.39,0.3-0.72-0.08-1.01
					c-0.39-0.31-0.73-0.22-0.99,0.22C71.72,427.35,71.77,427.67,72.15,427.99z"/>
				<path class="st62" d="M67.83,411.78c-0.29-0.2-0.81-0.28-1.09,0.07c-0.29,0.37-0.21,0.87,0.09,1.21c0.4,0.44,0.58-0.06,0.82-0.3
					C67.79,412.45,68.34,412.14,67.83,411.78z"/>
				<path class="st62" d="M125.54,476.51c-0.4,0.35-0.24,0.71,0,1.08c0.24,0.21,0.54,0.37,0.8,0.06c0.26-0.3,0.47-0.69,0.13-1.08
					C126.2,476.25,125.88,476.21,125.54,476.51z"/>
				<path class="st62" d="M89.01,452.54c0.3,0.22,0.63,0.43,0.89,0.02c0.23-0.37,0.37-0.82,0.03-1.21
					c-0.37-0.42-0.61,0.01-0.86,0.21C88.69,451.85,88.65,452.19,89.01,452.54z"/>
				<path class="st62" d="M132.51,432.23c-0.37,0.29-0.49,0.63-0.11,1.01c0.3,0.3,0.62,0.29,0.94,0.01c0.46-0.39,0.2-0.8,0.05-1.21
					C133,431.65,132.77,432.02,132.51,432.23z"/>
				<path class="st62" d="M91.28,445.2c0.34-0.31,0.41-0.67,0.1-1.05c-0.38-0.46-0.86-0.24-1.21-0.05c-0.55,0.29,0,0.55,0.12,0.81
					C90.59,445.17,90.82,445.61,91.28,445.2z"/>
				<path class="st62" d="M100.55,446.92c0.37-0.29,0.28-0.58-0.03-0.87c-0.28-0.25-0.56-0.45-1,0.05c-0.2,0.27-0.21,0.67,0.16,1.03
					C100.07,447.53,100.3,447.11,100.55,446.92z"/>
				<path class="st62" d="M78.76,441.71c0.37-0.33,0.33-0.67,0-1.02c-0.23-0.24-0.46-0.42-0.8-0.09c-0.17,0.3-0.46,0.62-0.12,1.02
					C78.12,441.94,78.44,441.99,78.76,441.71z"/>
				<path class="st62" d="M81.01,443.99c-0.4-0.38-0.81-0.06-1.19,0.02c-0.26,0.37,0,0.58,0.19,0.8c0.31,0.36,0.6,0.24,0.88-0.05
					C81.13,444.54,81.32,444.28,81.01,443.99z"/>
				<path class="st62" d="M93.7,454.58c0.22-0.2,0.57-0.45,0.28-0.75c-0.32-0.33-0.78-0.3-1.14-0.2c-0.36,0.25-0.31,0.47-0.1,0.7
					C93,454.61,93.25,455,93.7,454.58z"/>
				<path class="st62" d="M92.21,435.59c-0.49-0.11-0.91-0.56-1.45-0.36c-0.2,0.34-0.03,0.55,0.16,0.75
					c0.41,0.44,0.91,0.24,1.34,0.13C92.47,436.05,92.45,435.65,92.21,435.59z"/>
				<path class="st62" d="M113.18,431.77c-0.26,0.24-0.02,0.58,0.21,0.79c0.34,0.3,0.64,0.14,0.92-0.12
					c0.25-0.24,0.36-0.49,0.07-0.82C113.97,431.47,113.5,431.48,113.18,431.77z"/>
				<path class="st62" d="M96.18,442.53c-0.3,0.24-0.23,0.48-0.04,0.71c0.3,0.38,0.64,0.47,1.03,0.13c0.26-0.22,0.46-0.47,0.13-0.78
					C96.94,442.28,96.54,442.49,96.18,442.53z"/>
				<path class="st62" d="M95.12,453.84c-0.46,0.42-0.36,0.99-0.11,1.66c0.3-0.37,0.54-0.67,0.8-0.96c0.18-0.19,0.46-0.42,0.17-0.63
					C95.76,453.77,95.27,453.7,95.12,453.84z"/>
			</g>
			<g>
				<g>
					<path class="st114" d="M284.17,227.72c-1.54,9.15-2.71,19.65-9.36,27.04c-1.64,1.82-3.52,3.3-5.54,4.56
						c-1.48,21.97-3.73,57.41-6.19,96.7c-17.97,7.14-12.92-13.33-12.84-14.95c0.32-6.05,1.16-12.05,1.88-18.05
						c1.36-11.39,2.2-22.53-0.94-33.74c-0.35-1.26-0.79-2.58-1.8-3.41c-4.53-3.7-2.8,3.69-2.47,5.36c0.61,3.08,0.65,6.32,0.18,9.42
						c-0.9,5.9-3.96,12.17-10.24,13.68c-6.38,1.54-9.24-4.18-10.27-9.42c-0.53-2.74-0.71-5.54-1.44-8.24
						c-0.73-2.69-2.11-5.35-4.47-6.84c-5.29-3.36-11.76,2.85-16.98,3.76c-2.79,0.48-6.15,0.16-7.91,2.38
						c-1.41,1.78-1.02,4.34-0.56,6.57c1.2,5.82,2.84,11.73,3.64,17.62c0.62,4.56,0.53,8.95,2.42,13.33
						c2.05,4.75,5.75,8.63,7.94,13.32c4.26,9.12-2.33,18.6-10.24,23.22c-3.25,1.9-10.01,4.33-12.86,0.39
						c-2.58-3.57-0.79-12.96-0.72-17.13c0.16-8.83-0.63-20.05-10.9-22.52c-4.7-1.13-9.73-0.83-14.26-2.54
						c-5.47-2.07-9.43-6.78-14.11-10.28c-8.57-6.41-15.08-3.99-22,2.77c-1.62,1.58-3.48,3.06-5.68,3.56
						c-5.72,1.31-8.55-5.01-7.56-9.76c0.4-1.91,1.27-3.69,1.64-5.61c0.37-1.91,0.14-4.13-1.31-5.43c-2.92-2.61-8.37,3.22-11.21,4.21
						c-4.36,1.52-9.23,1.48-13.69,0.42c-6.34-1.52-12.04-4.97-17.37-8.73c-3.01-2.12-6.25-4.45-9.93-4.38
						c-9.29,0.18-5.42,12.13-3.23,16.92c1.5,3.28,3.2,6.52,3.92,10.06c2.09,10.23-6.5,12.15-12.53,18.02
						c-3.23,3.14-6.54,7.05-10.66,9.04c-0.39,0.19-0.82,0.24-1.25,0.2c-0.1-1.52-0.19-3.04-0.29-4.55
						c-2.52-39.45-2.07-50.37-4.84-84.94c-18.2-7.25-24.42-38.11-7.29-56.89c2.73-2.99,15.92-11.64,17.08-15.96
						c0.83-3.1,0.38-6.48,0.43-9.75c0.14-8.57,4.12-16.88,10.06-21.02c2.51-1.75,21.55-3.3,22.15-6.84
						c3.68-21.48,25.77-14.89,27.14-23.87c2.15-14.06,15.84-24.99,24.51-28.39c8.27,22.84,24.22,19.28,30.4,19.73
						c13.57,0.98,9.26,18.96,21.68,25.95c13.78,7.75,9.64-1,23.13,7.53c7.71,4.87,6.36,11.84,14.71,14.52
						c5.1,1.63,13.07-2.08,18.24-0.88c14.86,3.45,14.33,7.03,23.88,17.52c5.84,6.42,14.16,9.52,20.68,15.11
						C285.98,204.27,285.96,217.11,284.17,227.72z M232.69,533.36c-14.65,0-24.41-11.39-35.8-17.9c4.07,12.21,1.63,26.85-7.32,33.36
						c-8.95,6.51-17.09-8.14-25.23-13.02c-2.44-0.81-5.7,6.51-9.76,7.32c-8.14,3.26-14.65-1.63-16.27-8.14
						c-4.07-17.9-3.25-35.8-11.39-52.08c-7.32,4.07-6.51,13.02-7.32,19.53c-0.81,6.51-7.32,4.07-9.76,5.7
						c-5.7,4.07-11.39,9.76-18.72,7.32c-4.07-1.63-7.32-5.7-11.39-3.25c-13.02,8.14-6.51,28.48-16.27,36.62
						c-3.66,2.62-9.68,0.52-16.11-0.87c0.8,12.66,2.08,25.27,4.77,37.69c10.34,47.72,100.29,44.18,138.21,39.64
						c13.86-1.66,27.8-5.21,39.97-12c15.79-8.8,17.08-24.27,19.28-40.27c0.14-1.03,1.91-29.45,4.38-69.38
						C241.82,508.52,232.69,519.34,232.69,533.36z"/>
				</g>
				<g>
					<path class="st62" d="M165.59,162.78c-2.19-6.44-16.04-23.15-14.91-29.75c12.3,3.78,24.61,16.29,23.23,31.02
						c-0.47,4.98,0,15.36,4.16,18.15c5.04,3.38,12.3-0.71,17.78,1.89c5.19,2.45,4.02,9.37,6.12,14.71c0.37,0.95,0.83,1.92,1.61,2.58
						c0.85,0.72,1.99,1,3.08,1.28c7.32,1.88,11.15,6.15,18.04,9.24c4.02,1.8,6.89,0.52,7.13,1.44c0.14,0.55-7.48,0.83-9.02,4.88
						c-3.23,8.49,0.94,15.75-0.92,24.64c-3.88-1.81-1.93-7.5-2.75-11.7c-0.82-4.2-0.79-8.58-2.14-12.64
						c-1.89-5.7-6.6-10.39-12.3-12.28c-1.72-0.57-3.61-0.95-4.87-2.25c-2.31-2.39-1.29-6.55-3.13-9.31
						c-1.97-2.96-6.25-3.11-9.75-2.49c-2.6,0.46-4.14,1.84-6.96,0.69c-2.22-0.91-4.03-2.87-5.17-4.94
						C169.8,178.81,168.88,172.46,165.59,162.78z M112.51,153.89c-1.02,2.05-0.19,4.48,0.29,6.72c2.74,12.77-6.43,26.99-0.38,38.56
						c1.03,1.96,2.44,3.69,3.72,5.5c4.87,6.89,7.83,15.12,8.46,23.54c0.16,2.08,0.19,4.23,1.07,6.12c1.68,3.6,6.01,5.22,9.98,5.32
						c3.97,0.1,7.89-0.96,11.86-1.09c17.38-0.56,30.7,16.06,47.74,19.52c1.77-4.13-1.21-8.94-5.07-11.23
						c-3.86-2.29-8.45-2.93-12.66-4.49c-7.46-2.77-13.58-8.41-21.04-11.18c-6.4-2.37-13.39-2.48-20.11-3.65
						c-2.15-0.38-4.37-0.91-6.03-2.33c-2.47-2.11-3.09-5.69-2.92-8.94c0.17-3.24,0.96-6.47,0.67-9.71
						c-0.52-5.76-4.36-10.68-5.8-16.28c-2.07-8.07,1.04-16.7-0.48-24.89c-0.47-2.55-1.39-5.15-0.8-7.67
						c0.37-1.58,1.3-2.95,2.14-4.34c4.3-7.06,10.44-22.23,6.23-30.27c-3.7,1.82-5.29,9-6.29,12.75c-0.89,3.35-1.02,7.18-2.71,10.28
						C118.5,149.59,114.15,150.59,112.51,153.89z M83.64,170.73c1.02-0.97,2.09-1.96,2.64-3.26c0.54-1.3,7.53-12.32,6.38-13.13
						c-1.11-0.79-3.02-0.74-3.81,0.38c-7.69,10.8-11.24,1.91-13.69,4.36c-2.86,2.86-6.13,7.43-19.91,8.81
						c-5.22,0.52-0.7,15.94-1.64,20.22c-1.21,5.51-7.41,7.63-8.24,13.28c-0.92,6.17,0.8,7.56,3.33,13.26
						c1.51,3.39,3.81,6.55,4.23,10.24c0.29,2.58-0.15,5.72,1.94,7.26c2.01,1.48,4.78,0.28,7.25-0.08c3.69-0.53,7.4,1.03,10.45,3.17
						c3.05,2.14,5.65,4.87,8.62,7.13c6.43,4.9,14.59,7.48,22.66,7.16c2.35-0.09,5.02-0.63,6.19-2.67c0.85-1.48,0.61-3.41-0.31-4.84
						c-0.93-1.43-2.44-2.39-4.04-2.96c-6.84-2.43-15.11,1.61-21.39-2.03c-3.75-2.17-5.62-6.46-8.49-9.71
						c-3.09-3.51-7.45-5.89-9.92-9.86c-3.56-5.73-2.28-13.19,0.02-19.53c1.8-4.95,4.15-9.7,6.99-14.13
						C75.95,179.05,79.56,174.64,83.64,170.73z"/>
				</g>
				<g>
					<path class="st112" d="M51.09,254.12c3.67,0.58,7.57,0.82,11.39,1.18c5.62,0.53,11.08,1.31,16.52,2.1
						c2.47,0.35,5.05,0.74,6.8,1.55c1.11,0.51,1.81,1.17,2.96,1.67c0.01,0.01,0.02,0.01,0.03,0.01c1.4,0.6,0.97,1.97-0.69,2.11
						c-0.32,0.03-0.63,0.05-0.95,0.06c-2.6,0.09-17.62,4.4-20.15,4.15c-11.98-1.22-12.19-5.85-24.18-4.65
						c-3.34,0.33-6.74,0.76-10.14,0.57c-7.44-0.42-7.82-16.44-8.99-19.52C18.7,230.2,36.88,251.89,51.09,254.12z M222.16,195.98
						c7.52,1.48,14.82,5.88,17.72,12.74c2.92,6.92,1.16,15.52,5.82,21.49c2.97-0.54,5.18-3.14,6.06-5.93
						c0.88-2.8,0.69-5.79,0.49-8.7c-0.53-7.72-1.06-15.44-1.59-23.16c-4.81-2.63-10.33-4.04-15.86-4.04
						c1.54-2.66,2.7-5.54,3.42-8.51c0.21-0.85,0.36-1.81-0.12-2.56c-0.41-0.63-1.18-0.95-1.91-1.17
						c-9.88-3.02-21.44,5.89-20.59,15.87C215.49,190.72,216,194.77,222.16,195.98z M102.54,175.47c-0.56-7.93-0.76-3.98-7.45-2.37
						c-7.3,1.75-18.03,5.14-23.55,10.22c-4.96,4.57-6.83,11.58-6.49,18.19c0.33,6.61-5.73,7.68-3.48,13.93
						c1.21,3.35,15.07,12.63,16.28,15.98c0.73,2.03,6.07,6.64,8.29,6.46c7.14-9.26-11.74-17.78-9.5-24.89
						C80.83,199.7,103.71,192.06,102.54,175.47z M140.52,152.45c1.08,12.81,5.23,32.06,15.05,41.33c0.5,0.47,1.13,0.96,1.82,0.86
						c1.15-0.17,2.18-11.23,2.44-12.33c1.13-4.65,6.53,3.49,9.48-0.34c2.15-2.79,2.32-6.65,1.32-9.99s-3.04-6.3-5.05-9.19
						c-1.85-2.67-11.26-7.11-13.11-9.78C145.73,143.28,138.91,133.35,140.52,152.45z M116.64,188.61c-6.07,6.61-7.77,19-6.96,27.4
						c0.19,1.95,0.76,4.21,2.63,4.97c1.61,0.66,3.42-0.13,5.06-0.7c13.31-4.64,26.96,4.53,39.75,10.37
						c7.02,3.21,14.48,5.49,22.13,6.77c5.09,0.85,10.38,1.29,14.97,3.58c9.56,4.76,13.35,15.84,16.26,25.83
						c6.38-6.35,2.94-16.83-0.86-24.89c-3.38-7.17-7.62-15.08-15.42-17.36c-8.15-2.37-16.99,2.49-25.32,0.79
						c-4.83-0.98-8.92-4.07-13.62-5.52c-5.06-1.56-10.64-1.17-15.56-3.11c-6.44-2.53-10.7-8.74-12.49-15.23
						C125.09,193.87,126.86,177.49,116.64,188.61z M130.76,308.53c-5.85,1.51-43.58,12.79-35.53,23.09
						c5.82,7.45,33.96-6.38,44.13-0.63c5,2.82,8.14,8,12.26,12c4.12,4,10.63,6.88,15.5,3.84c5.04-3.14,6.7-11.6,12.65-11.75
						c4.94-0.12,7.99,6.08,12.89,6.75c4.2,0.58,7.87-3.29,9.04-7.37c1.18-4.08,0.68-8.43,1.11-12.65
						c1.35-13.31,13.16-24.78,26.5-25.74c6.49-0.47,13.04,1.27,19.48,0.36s13.2-6.05,12.34-12.5c-1.08-8.11-12.47-10.06-20.05-6.98
						s-14.29,9.04-22.47,9.41c-7.48,0.34-16.26-3.78-21.72,1.34c-7.33,6.87,0.3,23.09-8.79,27.36c-4.64,2.18-9.83-1.05-14.37-3.42
						c-7.16-3.72-15.12-5.41-23.21-5.56C143.9,305.96,137.17,306.87,130.76,308.53z M123.58,273.14c5.8,2.51,10.87,6.72,14.4,11.96
						c0.68,1.01,1.42,2.14,2.6,2.42c0.73,0.17,1.5-0.02,2.22-0.24c4.52-1.37,8.77-3.66,12.41-6.67c2.53-2.1,4.79-4.56,7.6-6.27
						c2.81-1.72,6.4-2.6,9.39-1.23c1.07,0.49,2.01,1.25,3.12,1.64c2.6,0.92,5.4-0.31,8.1-0.89c2.4-0.51,4.89-0.5,7.3-0.95
						c2.41-0.45,4.88-1.49,6.23-3.54s1.11-5.25-1.01-6.5c-2.29,4.12-6.87,6.87-11.58,6.95c-3.07,0.05-6.05-0.93-9.06-1.5
						c-6.84-1.29-14.08-0.4-20.41,2.51c-2.14,0.98-4.28,2.22-6.64,2.26c-2.31,0.04-4.46-1.07-6.51-2.15
						C134.22,266.95,125.65,260.43,123.58,273.14z M201.63,502.08c-1.31-1.37-3.15-2.24-5.03-2.63c-2.46-0.51-5.01-0.3-7.52-0.05
						c-6.07,0.59-9.82-10.77-15.85-9.84c-3.44,0.53-6.92,1.12-10.1,2.53c-5.7,2.52-14.46,22.61-7.26,27.64
						c2.68,1.87,6.12,2.21,9.39,2.36c9.59,0.42,19.41-0.37,28.3-4.01c3-1.23,5.96-2.86,7.94-5.43s2.75-6.28,1.19-9.12
						C202.4,502.98,202.04,502.5,201.63,502.08z M148.08,482.69c0.49-1.15,0.64-2.48,0.42-3.71c-0.44-2.48-2.06-4.58-3.81-6.38
						c-5.99-6.14-14.35-9.9-22.92-10.32c-6.79-0.33-14.43,1.12-19.74-3.12c-3.85-3.08-5.84-8.79-10.64-9.89
						c-3.35-0.77-6.67,1.12-9.6,2.92c-7.13,4.41-17.38,8.54-23.31,14.42c-4.71,4.67,0.11,12.73,5.15,16.21
						c4.76,3.3,11.25,3.94,16.56,1.64c3.64-1.58,7.04-4.48,10.99-4.13c5.53,0.5,8.9,7.11,14.4,7.88c4.87,0.68,8.93-3.42,12.3-6.99
						s8.08-7.26,12.71-5.62c2.97,1.06,4.76,3.99,6.8,6.39c2.04,2.4,5.27,4.56,8.17,3.33C146.74,484.83,147.59,483.85,148.08,482.69z
						"/>
				</g>
			</g>
			<g>
				<g>
					<path class="st84" d="M162.54,555.32c-7.92,7.09-21.18,5.72-25.75-5.61c-3.46-8.58,0.41-19.7,11.64-20.62
						C163.97,527.8,173.93,545.11,162.54,555.32z M138.1,586.26c1.73,10.1,11.74,14.65,21.01,11.18
						c12.23-4.58,12.92-16.61,4.58-23.47C151.7,564.1,135.7,572.28,138.1,586.26z M114.18,576.57c1.29,7.51,10.6,12.57,17.49,9.99
						c9.1-3.41,9.61-15.16,3.41-20.26C126.16,558.97,112.4,566.18,114.18,576.57z M68.4,478.95c-22,7.97-3.2,38.35,13.68,22.25
						C90.33,493.33,81.69,474.13,68.4,478.95z M222.61,482.86c-26.65,7-4.2,42.97,15.32,24.35
						C247.46,498.11,238.43,478.71,222.61,482.86z M93.04,583.69c-6.69,4.25-9.02,14.76-3.63,20.96c5.84,6.72,18.71,7.35,24.18,0.97
						C126.19,590.9,105.76,575.6,93.04,583.69z M128.52,549.33c-0.11-0.34-0.23-0.68-0.37-1c-2.74-6.67-11.6-10.23-18.48-8.34
						c-8.41,2.31-12.18,13.5-9.21,21.2c3.33,8.64,14.64,10.04,22.08,6.33C128.71,564.44,130.55,555.6,128.52,549.33z M223.18,527.47
						c-16.79,1.72-17.32,23.85,0.06,25.29c4.26,0.35,7.63-1.73,10.48-4.13C241.54,542.05,233.18,526.45,223.18,527.47z
						 M205.04,515.17c-8.74-8.26-22.79-6.05-28.03,4.73c-5.91,12.17,4.2,23,15.46,23.12C206.41,543.18,214.82,524.43,205.04,515.17z
						 M95.42,571.72c1.8-5.99-0.6-12.92-5.43-16.8c-5.73-4.6-14.03-6-20.32-1.66c-4.1,2.83-6.15,7.62-6.01,12.53
						c0.22,7.72,5.44,15.27,13.59,15.76c5.5,0.33,11.85-1.14,15.56-5.23C93.98,575.05,94.88,573.52,95.42,571.72z M171.78,563.87
						c-0.58,4.84,2.16,9.59,6.38,11.98c6.8,3.86,16.04,0.75,19.94-5.81c4.84-8.15-1.21-18.03-10.05-19.67
						C180.18,548.92,172.68,556.3,171.78,563.87z M217.67,564.11c-9.65,1.25-17.33,10.7-16.38,20.45
						c1.97,20.17,36.03,16.83,36.05-3.02c0.01-5.25-3-10.23-6.9-13.57C226.51,564.61,221.98,563.56,217.67,564.11z M177.07,612.71
						c6.65,3.6,17.82,1.75,22.11-5.05c3.85-6.08,1.18-13.5-4.3-17.54c-9.05-6.66-22.15-1.77-24.15,8.04
						C169.59,603.74,173.32,610.68,177.07,612.71z M73.27,513.63c-11.69-0.02-19.77,12.94-13.19,24.63
						c7.31,12.98,35.63,10.88,34.97-6.51C94.65,521.22,81.87,513.65,73.27,513.63z"/>
				</g>
				<g>
					<path class="st21" d="M84.61,523.22c5.68,1.78,7.37,5.68,5.67,10.41c-1.16,3.24-3.59,5.92-7.39,3.2
						c-2.65-1.89-4.19-4.69-4.91-7.49C76.96,525.39,79.22,521.53,84.61,523.22z M153.65,533.66c-0.57,0.08-1.19,0.24-1.53,0.67
						c-0.19,0.24-0.27,0.53-0.33,0.82c-0.48,2.34,0.49,4.73,1.78,6.78c0.77,1.23,1.71,2.43,3.03,3.16c1.32,0.73,3.11,0.87,4.35,0.02
						c1.48-1.01,1.69-3.04,1.17-4.67C160.88,536.57,158.68,532.99,153.65,533.66z M197.64,526.59c1.84,3.43,7.67,5.57,8.17,0.27
						c0.29-3.03-1.23-6.35-3.19-8.71c-1.21-1.46-3.57-3.85-5.7-2.43C194.33,517.44,196.53,524.52,197.64,526.59z M155.62,585.61
						c0.65,1.51,1.54,3.01,2.99,3.93c6.47,4.11,8.48-7.54,5.62-11.04c-1.41-1.73-5.23-3.34-7.45-2.26
						C153.36,577.89,154.5,583.03,155.62,585.61z M82.04,568.24c0.65,1.51,1.54,3.01,2.99,3.93c6.47,4.11,8.48-7.54,5.62-11.04
						c-1.41-1.73-5.23-3.34-7.45-2.26C79.79,560.52,80.93,565.66,82.04,568.24z M217.91,573.38c0.29,1.48,1.28,2.75,2.25,3.96
						c0.97,1.21,1.95,2.43,2.92,3.64c1.4,1.75,3.19,3.69,5.52,3.62c6.02-0.17,4.36-8.84,1.25-11.41
						C227.19,570.99,216.62,566.74,217.91,573.38z"/>
				</g>
				<g>
					<path class="st84" d="M167.91,162.78c3.96,5.26,4.83,13.02,1.4,19.18c-4,7.19-13.23,10.49-20.93,7.57
						c-8.24-3.14-12.05-11.93-10.62-20.31c1.48-8.65,11.85-13.03,19.76-12.31C161.95,157.32,165.5,159.58,167.91,162.78z
						 M225.96,188.11c-11.72,25.06,31.22,31.43,29.38,4.41C254.44,179.3,232.92,173.23,225.96,188.11z M209.15,149.81
						c-18.24,4.21-17.33,35.44,3.7,34.12c9.64-0.6,18.92-4.02,18.98-14.3C231.91,157.41,221.64,146.92,209.15,149.81z
						 M138.86,156.89c-0.32-8.66-10.76-14.4-18.81-11.6c-6.46,2.25-10.24,9.46-8.63,15.91c2,8.04,11.77,12.43,19.41,8.76
						C136.23,167.36,139.05,161.97,138.86,156.89z M206.15,221.35c-0.32-8.66-10.76-14.4-18.81-11.6
						c-6.46,2.25-10.24,9.46-8.63,15.91c2,8.04,11.77,12.43,19.41,8.76C203.53,231.82,206.34,226.43,206.15,221.35z M85.29,182.5
						c-12.79,5.53-16.1,21.62-8.44,29.88c8.94,9.64,27.31,10.15,35.43-1.4C124.1,194.17,104.08,174.38,85.29,182.5z M42.96,220.92
						c-1.21,4.24-2.08,8.76,2.92,14.16c8.59,9.28,26.97,1.15,24.46-10.5C67.19,209.95,46.6,208.07,42.96,220.92z"/>
				</g>
				<g>
					<path class="st21" d="M94.21,185.25c1.81-1.02,4.13-0.89,6.04-0.14c4.32,1.69,7.83,5.45,9.46,9.48
						c0.83,2.05,1.15,4.35,0.54,6.51c-1.08,3.81-4.72,4.63-8.25,3.18c-5.8-2.38-13.25-11-9.49-17.44
						C92.85,186.24,93.4,185.71,94.21,185.25z M154.02,164.51c-0.06,0.05-0.1,0.12-0.15,0.18c-1.05,1.34-1.13,2.96-0.59,4.33
						c1.3,3.26,6.38,6.01,9.66,6.43c4.43,0.57,7.09-4.78,4.42-8.17C164.58,163.75,160.9,159.43,154.02,164.51z M216.05,165.71
						c1.54,2.74,3.83,5.28,6.86,6.66c4.36,1.98,5.76-1.3,5.81-4.88c0.09-5.24-2.69-8.89-8.48-9.5
						C214.75,157.39,213.88,161.86,216.05,165.71z"/>
				</g>
			</g>
			<g class="st11">
				<g>
					<path class="st12" d="M295.32,236.44c0,0,5.69-10.62,1.08-15.36c-14.25-14.65-28.11,1.83-60.43,3.93
						c-8.29,0.54-16.6,1.14-24.6,1.75c-50.84,3.89-101.95,3.4-152.68-1.63c-0.42-0.04-0.83-0.08-1.24-0.12
						c-35.64-3.57-44.11-18.14-55.14-3.4c-3.95,5.28,2.45,17.88,2.45,17.88s59.67,14.98,148.29,15.44
						C248.5,255.43,295.32,236.44,295.32,236.44z"/>
				</g>
			</g>
		</g>
		<g id="Stroke_00000033342600814587574240000012613674020763949717_">
			<g>
				<path d="M27.88,425.66c-0.76-17.17-1.52-34.34-2.28-51.51c-0.22-4.89-0.43-9.79-0.65-14.68c-0.06-1.3-2.09-1.31-2.03,0
					c0.76,17.17,1.52,34.34,2.28,51.51c0.22,4.89,0.43,9.79,0.65,14.68C25.9,426.97,27.94,426.97,27.88,425.66L27.88,425.66z"/>
			</g>
			<g>
				<path d="M28.35,448.2c1.08,22.65,2.07,45.3,3.24,67.94c0.81,15.74,1.65,31.5,3.11,47.2c0.94,10.2,2.05,20.48,4.42,30.47
					c1.47,6.2,3.47,12.58,7.2,17.82c2.97,4.18,6.98,7.26,11.71,9.23c0.58,0.24,1.16,0.47,1.75,0.68c1.23,0.45,1.76-1.52,0.54-1.96
					c-4.42-1.59-8.37-4.11-11.44-7.9c-3.62-4.48-5.76-10.5-7.26-16.23c-2.45-9.36-3.6-19.05-4.56-28.65
					c-1.48-14.84-2.33-29.74-3.12-44.63c-1.15-21.44-2.09-42.88-3.1-64.33c-0.15-3.21-0.3-6.43-0.46-9.64
					C30.32,446.9,28.29,446.89,28.35,448.2L28.35,448.2z"/>
			</g>
			<g>
				<path d="M278.36,277.86c-1.08,19.52-2.16,39.03-3.24,58.55c-1.08,19.52-2.16,39.03-3.24,58.55
					c-0.61,10.96-1.21,21.92-1.82,32.89c-0.07,1.31,1.96,1.3,2.03,0c1.08-19.52,2.16-39.03,3.24-58.55
					c1.08-19.52,2.16-39.03,3.24-58.55c0.61-10.96,1.21-21.92,1.82-32.89C280.47,276.55,278.43,276.55,278.36,277.86L278.36,277.86z
					"/>
			</g>
			<g>
				<path d="M265.62,542.19c1.81-25.49,3.38-50.99,4.71-76.51c0.38-7.29,0.74-14.58,1.08-21.88c0.06-1.31-1.97-1.31-2.03,0
					c-1.2,25.52-2.63,51.04-4.3,76.53c-0.48,7.28-0.97,14.57-1.49,21.85C263.5,543.5,265.53,543.5,265.62,542.19L265.62,542.19z"/>
			</g>
			<g>
				<path d="M11.57,213.43c-4.91,1.71-8.86,5.54-10.63,10.44c-1.89,5.24-0.85,11.34,2.47,15.77c0.77,1.04,2.54,0.02,1.76-1.03
					c-2.95-3.95-3.94-9.15-2.38-13.87c1.44-4.35,5.02-7.86,9.33-9.36C13.33,214.96,12.81,213,11.57,213.43L11.57,213.43z"/>
			</g>
			<g>
				<path d="M19.04,217.35c16.81,4.13,33.87,7.16,51.05,9.24c16.67,2.03,33.45,3.16,50.24,3.61c16.25,0.44,32.52,0.23,48.76-0.41
					c15.97-0.63,31.93-1.6,47.83-3.19c15.87-1.58,31.66-3.81,47.38-6.52c2.11-0.36,4.22-0.74,6.33-1.12
					c1.29-0.23,0.74-2.19-0.54-1.96c-15.9,2.86-31.88,5.28-47.94,7.02c-15.78,1.71-31.61,2.77-47.46,3.49
					c-16,0.73-32.02,1.06-48.03,0.79c-16.64-0.28-33.28-1.21-49.83-2.98c-17.12-1.84-34.16-4.59-50.94-8.44
					c-2.1-0.48-4.2-0.98-6.3-1.5C18.31,215.08,17.77,217.04,19.04,217.35L19.04,217.35z"/>
			</g>
			<g>
				<path d="M90.75,253.09c25.52,2.53,51.21,3.41,76.85,2.72c25.88-0.69,51.73-2.98,77.31-7.03c14.21-2.25,28.33-5.05,42.3-8.48
					c1.27-0.31,0.73-2.27-0.54-1.96c-24.96,6.11-50.38,10.26-75.94,12.76c-25.69,2.51-51.54,3.38-77.34,2.65
					c-14.24-0.4-28.46-1.29-42.64-2.7C89.45,250.92,89.46,252.96,90.75,253.09L90.75,253.09z"/>
			</g>
			<g>
				<path d="M296.04,237.15c3.28-3.05,3.95-8.84,3-13c-1.15-5-5.65-8.92-10.53-10.07c-1.27-0.3-1.82,1.66-0.54,1.96
					c4.23,1,8.11,4.31,9.11,8.65c0.8,3.47,0.27,8.47-2.47,11.02C293.64,236.61,295.09,238.05,296.04,237.15L296.04,237.15z"/>
			</g>
			<g>
				<path d="M38.96,233.1c18.78,3.43,37.79,5.95,56.84,7.35c5.15,0.38,10.31,0.66,15.47,0.8c1.31,0.03,1.31-2,0-2.03
					c-18.97-0.5-37.94-2.69-56.69-5.56c-5.04-0.77-10.06-1.61-15.08-2.52C38.22,230.9,37.68,232.86,38.96,233.1L38.96,233.1z"/>
			</g>
			<g>
				<path d="M23.83,244.71c17.77,2.94,35.6,5.45,53.54,6.99c1.3,0.11,1.3-1.92,0-2.03c-17.77-1.52-35.41-4.01-53-6.91
					C23.09,242.54,22.54,244.5,23.83,244.71L23.83,244.71z"/>
			</g>
			<g>
				<path d="M226.26,234.67c14.8-1.28,29.59-3.13,44.19-5.92c3.99-0.76,7.96-1.61,11.9-2.57c1.27-0.31,0.73-2.27-0.54-1.96
					c-14.3,3.48-28.93,5.62-43.55,7.24c-3.99,0.44-7.99,0.84-12,1.18C224.96,232.75,224.95,234.78,226.26,234.67L226.26,234.67z"/>
			</g>
			<g>
				<path d="M81.98,652.19c22.35,6.22,45.88,8.15,69.02,8.02c22.29-0.12,44.77-2.17,66.56-6.97c9.4-2.07,18.77-4.66,27.58-8.57
					c1.19-0.53,0.16-2.28-1.03-1.76c-7.59,3.36-15.64,5.68-23.71,7.59c-10.16,2.41-20.48,4.11-30.84,5.32
					c-23.13,2.72-46.64,3.21-69.83,1.01c-12.55-1.19-25.06-3.23-37.22-6.61C81.26,649.88,80.72,651.84,81.98,652.19L81.98,652.19z"
					/>
			</g>
			<g>
				<path d="M55.08,643.92c6.05,2.08,12.12,4.08,18.23,5.98c1.25,0.39,1.79-1.57,0.54-1.96c-6.11-1.9-12.18-3.9-18.23-5.98
					C54.38,641.53,53.85,643.5,55.08,643.92L55.08,643.92z"/>
			</g>
			<g>
				<path d="M72.82,143.89c-0.64,4.08-4.31,6.61-7.97,7.89c-4.3,1.5-8.95,1.65-13.19,3.38c-3.9,1.59-7.04,4.55-8.94,8.31
					c-2.17,4.28-2.23,8.92-2.34,13.61c-0.11,4.68-0.66,10.35-4.92,13.21c-1.08,0.73-0.06,2.49,1.03,1.76
					c8.56-5.75,4.28-17.31,7.14-25.54c1.49-4.3,4.7-7.88,8.97-9.55c4.34-1.69,9.13-1.77,13.47-3.47c4.03-1.58,8.01-4.52,8.72-9.07
					C74.99,143.15,73.03,142.6,72.82,143.89L72.82,143.89z"/>
			</g>
		</g>
	</g>
</g>
</svg>
