<?xml version="1.0" encoding="utf-8"?>
<!-- Generator: Adobe Illustrator 26.1.0, SVG Export Plug-In . SVG Version: 6.00 Build 0)  -->
<svg version="1.1" xmlns="http://www.w3.org/2000/svg" xmlns:xlink="http://www.w3.org/1999/xlink" x="0px" y="0px"
	 viewBox="0 0 312.25 616.22" style="enable-background:new 0 0 312.25 616.22;" xml:space="preserve">
<style type="text/css">
	.st0{fill:#391F14;}
	.st1{fill:#682320;}
	.st2{fill:#D26F75;}
	.st3{fill:#FEEAE3;}
	.st4{fill:#F8E2E7;}
	.st5{fill:#E86E78;}
	.st6{fill:#F19299;}
	.st7{fill:#F4C3C9;}
	.st8{fill:#B3203B;}
	.st9{fill:#666633;}
	.st10{fill:#C74E69;}
	.st11{opacity:0.4;}
	.st12{fill:#FFFFFF;}
	.st13{fill:#FAEED5;}
	.st14{fill:#DCA455;}
	.st15{fill:#4F3021;}
	.st16{fill:#D69F53;}
	.st17{fill:#FCE3A2;}
	.st18{fill:#FFD480;}
	.st19{fill:#FBAF3C;}
	.st20{fill:#FDC363;}
	.st21{fill:#754A3C;}
	.st22{opacity:0.3;}
	.st23{fill:#DDEADB;}
	.st24{fill:#BCD3C2;}
	.st25{fill:#A3C6AC;}
	.st26{fill:#D8E5DA;}
	.st27{fill:#233328;}
	.st28{fill:#5C6B63;}
	.st29{fill:#82AD91;}
	.st30{fill:#D2DBD1;}
	.st31{fill:#7AA388;}
	.st32{opacity:0.5;}
	.st33{fill:#6C845F;}
	.st34{fill:#5E7553;}
	.st35{fill:#C1786C;}
	.st36{fill:#E7CCC2;}
	.st37{fill:#F8E7DA;}
	.st38{fill:#EAC8B6;}
	.st39{fill:#E3987F;}
	.st40{fill:#F2C4A8;}
	.st41{fill:#7A4D4B;}
	.st42{fill:#DE998E;}
	.st43{fill:#CC644C;}
	.st44{fill:#D88977;}
	.st45{fill:#D87C60;}
	.st46{fill:#F7E4D6;}
	.st47{fill:#8C4330;}
	.st48{fill:#D4695B;}
	.st49{fill:#F0D6BF;}
	.st50{fill:#C19160;}
	.st51{fill:#D8AA75;}
	.st52{fill:#915A26;}
	.st53{fill:#BC7C48;}
	.st54{fill:#5B361E;}
	.st55{fill:#7E4F23;}
	.st56{fill:#CE9957;}
	.st57{fill:#E2BA84;}
	.st58{fill:#22120A;}
	.st59{fill:#554E26;}
	.st60{fill:#F6ECF5;}
	.st61{fill:#DBB6D1;}
	.st62{fill:#F3E4E0;}
	.st63{fill:#996699;}
	.st64{fill:#E8D4E7;}
	.st65{fill:#C48BBD;}
	.st66{fill:#6F3670;}
	.st67{fill:#8F6191;}
	.st68{fill:#441946;}
	.st69{fill:#F3DAD0;}
	.st70{fill:#741112;}
	.st71{fill:#CC3333;}
	.st72{fill:#DE6D57;}
	.st73{fill:#C75044;}
	.st74{fill:#CA4536;}
	.st75{fill:#D25847;}
	.st76{fill:#F3E4DE;}
	.st77{fill:#E06865;}
	.st78{fill:#CC4746;}
	.st79{fill:#436137;}
	.st80{fill:#9A3332;}
	.st81{fill:#EDA99F;}
	.st82{fill:#CC6666;}
	.st83{fill:#E89B95;}
	.st84{fill:#2C1B10;}
	.st85{fill:#CCAAA2;}
	.st86{fill:#EFDFD9;}
	.st87{fill:#836759;}
	.st88{fill:#D1B7A6;}
	.st89{fill:#674E3D;}
	.st90{fill:#B0806D;}
	.st91{fill:#CDAA96;}
	.st92{fill:#967A67;}
	.st93{fill:#EBBC8B;}
	.st94{fill:#6B3715;}
	.st95{fill:#F7DEBC;}
	.st96{fill:#EFE4DA;}
	.st97{fill:#CC6E28;}
	.st98{fill:#B25827;}
	.st99{fill:#A54924;}
	.st100{fill:#9E6031;}
	.st101{fill:#DDDACC;}
	.st102{fill:#908B47;}
	.st103{fill:#AFAA7A;}
	.st104{fill:#7F7E5F;}
	.st105{fill:#8B693E;}
	.st106{fill:#8E4316;}
	.st107{fill:#DDDAB1;}
	.st108{fill:#8F9C58;}
	.st109{fill:#828E3C;}
	.st110{fill:#8E5852;}
	.st111{fill:#CA887F;}
	.st112{fill:#E3988D;}
	.st113{fill:#F2CAB9;}
	.st114{fill:#EDAB9A;}
	.st115{fill:#F2DDBB;}
	.st116{fill:#AC4D27;}
	.st117{fill:#E69F59;}
	.st118{fill:#F2DAAE;}
	.st119{fill:#DA7B38;}
	.st120{fill:#E9C1A4;}
	.st121{fill:#D58761;}
	.st122{fill:#55150F;}
</style>
<g id="Bg">
</g>
<g id="Graphic">
	<g id="Boba_3">
		<g id="Drink_00000176757082699428680920000016423685558743973817_">
			<g>
				<path class="st101" d="M304.11,210.58c-2.54-1.88-7.09-1.28-8.84-3.91c-0.97-1.46-1.46-3.17-1.97-4.85
					c-7.51-24.85-21.69-47.54-40.29-65.6c-7.05-6.85-14.93-12.8-23.21-18.08c-4.21-2.68-8.52-5.2-12.91-7.59
					c-4.71-2.57-8.71-5.12-14.1-5.92c-5.94-0.88-11.82-2.2-17.84-2.33c-14.91-0.32-29.84-0.37-44.75,0.25
					c-8.89,0.37-17.8,0.85-26.6,2.21c-4.4,0.68-9.14,1.33-13.35,2.82c-3.89,1.38-7.5,3.89-11.07,5.97
					c-5.57,3.25-10.94,6.85-16.05,10.77c-10.24,7.85-19.5,16.98-27.52,27.1c-11.86,14.96-21.01,32.1-26.53,50.39
					c-0.51,1.68-1,3.39-1.97,4.85c-1.75,2.63-6.3,2.03-8.84,3.91c-7.22,5.35-8.41,23.71-6.85,32.56c1,5.68,19.35,10.11,19.35,10.11
					c1.45,9.97,2.91,19.93,4.36,29.9c1.07,7.36,23.19,189.07,36.19,283.83c0.61,4.47,2.56,10.16,7.07,10.06
					c0,0-0.12,20.32,2.3,25.28c2.67,5.46,9.41,7.32,15.38,8.46c23.73,4.56,46.12,4.8,70.09,5.34c23.97-0.54,46.36-0.77,70.09-5.34
					c5.97-1.15,12.71-3,15.38-8.46c2.43-4.96,2.3-25.28,2.3-25.28c4.51,0.09,6.46-5.59,7.07-10.06
					c12.04-87.77,35.12-276.47,36.19-283.83c1.45-9.97,2.91-19.93,4.36-29.9c0,0,18.35-4.43,19.35-10.11
					C312.52,234.3,311.33,215.93,304.11,210.58z"/>
			</g>
			<g>
				<path class="st15" d="M190.56,8.32L158.6,4.35l-42.31,340.79l0.01,0c-0.01,0.04-0.02,0.08-0.02,0.12
					c-0.41,3.32,6.41,6.9,15.23,8c8.83,1.1,16.31-0.71,16.73-4.03c0.01-0.04,0-0.08,0.01-0.13l0.01,0L190.56,8.32z"/>
			</g>
			<g>
				<path class="st102" d="M271.22,227.86c-35.26,6-58.99,8.25-93.03,9.24c-7.14,0.21-14.26,0.64-21.4,0.58
					c-18.15-0.15-36.3-1.06-54.37-2.88c-17.94-1.81-44.1-4.02-60.95-7.9c1.17,12.83,32.32,248.41,34.82,268.44
					c1.99,15.98,2.44,46.46,7.05,61.75c7.47,24.77,74.77,23.03,101.26,20.91c13.36-1.07,32.19-2.87,42.81-12.61
					c8.98-8.23,9.13-50.44,11.01-65.39C245.95,440.11,270.33,240.04,271.22,227.86z"/>
			</g>
			<g>
				<path class="st103" d="M80.39,406.1c-3.12-5.28-6.98-13.74-2.72-19.38c3.38-4.48,10.16-4.48,14.69-1.77
					c5.04,3.02,8.2,8.29,12.07,12.7c3.88,4.41,9.51,8.3,15.24,6.98c7.3-1.68,10.83-10.83,18.03-12.89
					c5.84-1.67,11.88,1.97,16.18,6.25c4.3,4.29,7.92,9.5,13.3,12.31c5.09,2.66,11.44,2.76,16.61,0.26
					c5.17-2.5,9.04-7.54,10.11-13.18c0.65-3.43,0.33-6.99,0.96-10.42s2.59-7,5.95-7.96c6.27-1.79,11.64,6.32,18.15,5.86
					c4.55-0.32,8.32-4.84,12.83-4.13c5.27,0.82,6.75,7.65,6.69,12.98c-0.16,15.21-2.77,30.39-7.71,44.78
					c-0.79,2.31-1.69,4.67-3.4,6.41s-4.46,2.69-6.66,1.63c-3.64-1.75-3.27-6.97-2.49-10.94c1.47-7.52,2.36-15.15,2.65-22.81
					c0.17-4.51-0.17-9.71-3.75-12.47c-3.99-3.09-9.89-1.43-14.05,1.42c-7.99,5.48-13.01,15.04-13.01,24.73
					c0,4.04,0.82,8.13,0.05,12.1c-0.77,3.97-3.82,7.96-7.86,7.95c-5.22-0.02-7.97-5.99-9.79-10.88s-5.74-10.59-10.78-9.25
					c-3.23,0.86-5.03,4.49-5.04,7.83c-0.02,3.34,1.31,6.51,2.32,9.69c1.39,4.34,2.21,9.17,0.49,13.39
					c-1.72,4.23-6.76,7.34-10.96,5.55c-3.77-1.61-5.26-6.25-5.24-10.35s1.1-8.2,0.55-12.27c-0.76-5.62-4.87-10.65-10.22-12.51
					c-5.35-1.86-11.7-0.47-15.78,3.46c-4.79,4.61-6.08,11.64-8.72,17.73c-2.64,6.1-8.46,12.16-14.92,10.62
					c-6.48-1.54-8.95-9.68-8.19-16.3s3.5-13.11,2.65-19.72c-0.26-2-0.84-3.91-1.6-5.75C85.28,413.69,82.65,409.93,80.39,406.1z
					 M81.29,341.74c-1.83,5.57-0.11,13.41,5.68,14.36c4.18,0.68,7.99-2.82,9.77-6.67c1.78-3.85,2.27-8.19,4.03-12.04
					c4.97-10.89,10.89-21.97,22.48-24.94c40.26-10.32,36.47,25.81,60.28,25.81c26.06,0,13.53-23.25,24.49-22.24
					c3.72,0.34,7.5,0.8,10.88,2.37c3.38,1.58,6.35,4.48,7.08,8.14c0.51,2.56-0.1,5.2-0.05,7.82c0.05,2.61,1.07,5.56,3.51,6.48
					c3.8,1.45,7.18-2.82,9.04-6.44c2.64-5.13,5.27-10.26,7.91-15.4c2.12-4.13,4.14-9.5,1.15-13.06c-5.29-6.29-17.63,2.29-23.24-3.73
					c-3.02-3.25-1.74-8.55-3.39-12.67c-2.17-5.42-9.18-7.51-14.83-6.04c-5.65,1.47-10.19,5.57-14.38,9.63
					c-4.19,4.06-8.46,8.35-13.93,10.38c-9.78,3.63-20.48-0.77-30.83-2.09c-7.47-0.95-15.04-0.26-22.56-0.56
					c-7.52-0.31-15.33-1.77-21.28-6.38c-5.26-4.08-8.58-10.26-13.88-14.29c-4.79-3.64-14.12-5.11-17.49,1.23
					c-3.74,7.03,2.87,16.92,6.8,22.3c4.78,6.53,10.18,13.75,9.22,21.78c-0.55,4.59-3.12,8.6-5.08,12.82
					C82.16,339.42,81.68,340.56,81.29,341.74z"/>
			</g>
			<g>
				<path class="st9" d="M190.56,8.32c-0.41,3.32-7.9,5.13-16.73,4.03s-15.65-4.68-15.23-8c0.41-3.32,7.9-5.13,16.73-4.03
					S190.98,5,190.56,8.32z M222.9,527.22c-5.7,7.32-4.88,18.72-13.83,23.6c-2.44,0.81-4.88,0.81-7.32,0
					c-6.51-4.07-12.21-11.39-18.72-7.32c-9.76,5.7-21.97,17.09-34.18,12.21c-4.88-1.63-10.58-1.63-17.09-2.44
					c-4.07,0-11.39,5.7-13.83,0c-5.7-12.21-1.63-25.23-7.32-37.43c-0.81-0.81-1.63-2.44-3.25-1.63c-9.47,4.46-18.95,7.39-28.68,10.1
					c0.95,12.25,2.23,24.66,4.68,32.78c7.47,24.77,74.77,23.03,101.26,20.91c13.36-1.07,32.19-2.87,42.81-12.61
					c6.32-5.8,8.27-28.44,9.52-46.55C231.78,519.86,227,522,222.9,527.22z M83.93,421.64c-4.81,0.67-12.19-3.46-17.83-4.64
					l2.84,23.09c10.91,2.23,12.62-5.68,19.22-9.22c1.17-0.62,2.5-0.83,3.8-1.09c2.8-0.57,5.54-1.47,8.39-1.79
					c9.07-1.04,17.61,3.77,26.09,7.15c3.71,1.48,7.85,2.71,11.65,1.47c3.8-1.25,6.61-6.01,4.47-9.4c-1.97-3.12-6.38-3.15-10.07-3.31
					c-4.72-0.21-9.4-1.22-13.78-2.98c-4.09-1.64-7.91-3.93-12.07-5.36c-4.17-1.43-8.92-1.93-12.87,0.01
					C90.58,417.12,87.54,421.14,83.93,421.64z M200.82,361c0.94-0.27,1.72-0.82,2.22-1.78c0.68-1.33,0.39-2.93,0.06-4.38
					c-1.25-5.37-4.19-11.65-9.7-11.91c-7.24-0.35-10.87,9.94-18.02,11.14c-7.06,1.19-13.34-7.12-20.29-5.43
					c-2.71,0.66-4.81,2.73-6.98,4.49c-5.33,4.33-14.38,4.7-18.86,8.95c-7.39,7.02,4.66,7.87,9.44,7.16
					c9.29-1.38,18.03-5.17,27.02-7.89c8.99-2.72,18.78-4.35,27.7-1.38C195.72,360.75,198.68,361.6,200.82,361z M224.17,328.76
					c-5.31-0.52-10.45-0.29-12.44,2.45c-4.39,6.04,5.24,11.96,10.16,13.19c6.5,1.62,13.81-0.66,18.23-5.68
					c1.66-1.89,3-4.18,5.16-5.47c3.95-2.36,8.99,1.26,13.21,3.07c0.5-4.13,1.57-13.07,2.08-17.19c-8.36-1.11-17.77,5.23-23.25,11.64
					C234.57,330.45,229.29,329.26,224.17,328.76z"/>
			</g>
			<g>
				<path class="st104" d="M226.97,487.35c-10.58,8.14-8.95,26.04-21.97,34.18c-2.44,1.63-8.95-3.26-12.21,0.81
					c-2.44,2.44,1.63,6.51,0,9.76c-0.81,0.81-3.25,0.81-4.88,0c-10.58-7.32-21.16-17.09-33.36-14.65c-2.44,0.81,0,11.39-6.51,13.83
					c-6.51,2.44-8.95-6.51-15.46-6.51c0,3.26-3.25,6.51-6.51,4.88c-7.32-4.88-4.88-15.46-8.95-20.34
					c-5.7-8.14-18.72-9.76-30.11-7.32c-4.07,0.81-2.44,7.32-3.25,11.39c0,1.63-3.25,2.44-4.88,1.63c-0.3-0.13-0.61-0.26-0.91-0.39
					c0.23,3.16,0.46,6.41,0.71,9.68c9.73-2.71,19.21-5.64,28.68-10.1c1.63-0.81,2.44,0.81,3.25,1.63
					c5.7,12.21,1.63,25.23,7.32,37.43c2.44,5.7,9.76,0,13.83,0c6.51,0.81,12.21,0.81,17.09,2.44c12.21,4.88,24.41-6.51,34.18-12.21
					c6.51-4.07,12.21,3.26,18.72,7.32c2.44,0.81,4.88,0.81,7.32,0c8.95-4.88,8.14-16.27,13.83-23.6c4.1-5.21,8.88-7.36,14.03-8.38
					c0.53-7.61,0.93-14.41,1.49-18.83c0.47-3.76,0.94-7.52,1.39-11.28C234.7,486.31,229.94,484.87,226.97,487.35z"/>
			</g>
			<g>
				<path class="st84" d="M121.87,485.72c-1.04,1.55-1.67,3.44-1.42,5.29c0.16,1.12,0.63,2.18,1.27,3.11
					c2.64,3.87,8.29,5.31,12.46,3.17c8.39-4.31,6.24-16.54-3.63-16.31C127.12,481.05,123.78,482.88,121.87,485.72z"/>
				<path class="st84" d="M99.64,548.01c3.76,2.75,9.25,2.96,13.1,0.34s5.66-7.96,4.01-12.31c-0.69-1.82-1.9-3.4-3.29-4.76
					c-2-1.94-4.57-3.49-7.36-3.52c-2.44-0.02-4.77,1.13-6.62,2.72C93.69,535.45,92.93,543.11,99.64,548.01z"/>
				<path class="st84" d="M102.3,506.7c17.68-7.97-0.68-31.02-15.19-20.66c-2.84,2.02-4.9,5.29-4.95,8.77
					c-0.05,3.52,1.94,6.83,4.6,9.13C90.96,507.57,97.23,508.98,102.3,506.7z"/>
				<path class="st84" d="M238.14,429.54c-4.45,2.85-5.11,13.58-0.61,16.71c1.57,1.09,3.67,1.01,5.54,0.62
					c0.68-0.14,1.35-0.33,2-0.56c0.68-5.53,1.38-11.26,2.1-17.13C244.35,427.8,240.8,427.83,238.14,429.54z"/>
				<path class="st84" d="M102.91,439.94c0.78,1.07,1.85,1.91,3.03,2.53c4.87,2.57,11.53,0.94,14.67-3.57
					c6.33-9.09-2.62-20.6-12.75-14.93c-3.51,1.97-5.97,5.7-6.39,9.7C101.24,435.85,101.63,438.16,102.91,439.94z"/>
				<path class="st84" d="M107.79,462.28c-3.37,3.17-3.76,8.94-1.02,12.67c4.79,6.51,17.71,4.86,18.99-3.96
					C127.02,462.27,113.94,456.48,107.79,462.28z"/>
				<path class="st84" d="M73.74,475.54c3.43,0.15,6.97-0.71,9.03-3.27c2.34-2.91,2.2-7.48,0.3-11.07
					c-1.82-3.44-5.14-5.61-8.73-6.46c-1.11-0.26-2.25-0.39-3.38-0.39C72.02,462.34,72.95,469.49,73.74,475.54z"/>
				<path class="st84" d="M228.84,517.58c-0.46,3.39,0.81,6.98,3.32,9.32c1.12,1.04,2.51,1.84,4,2.12
					c0.57-6.72,0.98-13.34,1.37-18.96C233.56,509.78,229.56,512.26,228.84,517.58z"/>
				<path class="st84" d="M216.77,534.26c-3.27,1.03-5.96,3.72-7,6.99c-0.57,1.78-0.65,3.77,0.12,5.47
					c0.46,1.03,1.22,1.91,2.09,2.63c3.62,2.98,9.45,2.77,12.85-0.45C231.66,542.41,226.19,531.28,216.77,534.26z"/>
				<path class="st84" d="M189.29,534.96c2.73,0.98,5.89,1.51,9.46,1.42c20.58-0.55,11.01-42.57-10.74-30.14
					c-8.34,4.77-11.07,11.86-9.44,17.97c-4.35-0.67-9.14,0.43-12.72,2.62c-3.96,2.42-7.43,6.81-6.46,11.35
					c0.47,2.19,1.89,4.03,3.27,5.79c2.04,2.6,4.25,5.32,7.37,6.42c1.58,0.56,3.29,0.64,4.96,0.71c3.86,0.14,8.08,0.06,11.09-2.36
					C189.45,546.04,190.25,540.01,189.29,534.96z"/>
				<path class="st84" d="M131.27,540.76c-5.25,2.73-7.89,9.61-5.82,15.14l0.33,0.56c0.2,2.81,3.24,5.24,6.88,6.17
					c10.72,2.75,21.62-7.31,14.34-17.93C143.66,539.83,136.51,538.03,131.27,540.76z"/>
				<path class="st84" d="M238.56,480.61c-5.78,4.96-6.55,12.58,0.1,17.48c0.68-5.43,1.49-11.89,2.39-19.16
					C240.15,479.39,239.31,479.96,238.56,480.61z"/>
				<path class="st84" d="M190.46,455.27c-3.59,12.44,17.3,16.29,18.98,4.06c0.03-0.21,0.05-0.43,0.06-0.66
					c5.3,2.61,12.83,2.95,16.26-0.6c1.74-1.81,2.08-4.54,1.96-7.05c-0.16-3.3-1.01-6.67-3.03-9.29c-3.52-4.57-10.58-5.93-15.54-3
					c-3.75,2.21-5.93,6.65-5.79,10.96C198.46,447.85,192.19,449.29,190.46,455.27z"/>
				<path class="st84" d="M225.47,466.33c-3.01,0.13-6.03,1.58-7.69,4.04c-0.8,1.18-1.35,2.57-1.37,3.99
					c-0.03,2.46,1.61,4.76,3.77,5.92c2.17,1.17,4.78,1.31,7.19,0.82c2.55-0.51,5.11-1.85,6.27-4.17c1.24-2.5,0.54-5.67-1.26-7.81
					C230.67,467.08,228.07,466.21,225.47,466.33z"/>
				<path class="st84" d="M94.6,552.23c-3.26-3.94-8.42-5.94-13.56-5.89c0.63,4.03,1.39,7.69,2.31,10.74
					c1.58,5.24,5.85,9.3,11.84,12.41C98.98,564.63,98.57,557.03,94.6,552.23z"/>
				<path class="st84" d="M158.96,560.82c-3.96,2.42-7.43,6.81-6.46,11.35c0.47,2.19,1.89,4.03,3.27,5.79
					c0.3,0.38,0.61,0.77,0.92,1.15c9.66-0.02,18.54-0.44,25.34-0.92c1.5-4.82,0.63-11.34-1.78-14.86
					C175.54,556.46,165.32,556.92,158.96,560.82z"/>
				<path class="st84" d="M143.18,454.99c1.68,19.69,37.51,12.53,27.98-5.4c-2.1-3.96-6.33-6.76-10.89-7.86
					C151.77,439.69,142.35,445.32,143.18,454.99z"/>
				<path class="st84" d="M160.7,495.88c-10-5.46-23.62,4.08-21.01,14.81c-3.72-2.54-8.55-3.44-13.06-1.53
					c-3.39,1.44-6.06,4.2-8.16,7.22c-0.98,1.42-1.88,2.95-2.17,4.65c-0.43,2.56,0.6,5.22,2.27,7.21c6.62,7.9,24.55,8.91,27.16-3.32
					c0.45-2.09,0.36-4.13-0.14-6.02C159.42,528.36,178.14,505.41,160.7,495.88z"/>
				<path class="st84" d="M213.1,507.98c3.76,2.75,9.25,2.96,13.1,0.34c3.85-2.62,5.66-7.96,4.01-12.31
					c-0.69-1.82-1.9-3.4-3.29-4.76c-2-1.94-4.57-3.49-7.36-3.52c-2.44-0.02-4.77,1.13-6.62,2.72
					C207.15,495.43,206.39,503.08,213.1,507.98z"/>
				<path class="st84" d="M91.15,515.29c-3.26-3.94-8.43-5.95-13.57-5.89c0.69,9.32,1.35,20,2.46,29.57
					c4.26-0.76,8.41-2.86,11.01-5.6C95.58,528.58,95.35,520.36,91.15,515.29z"/>
				<path class="st84" d="M184.05,498.91c6.29-0.47,11.53-6.79,10.79-13.06c-0.44-3.76-2.73-7.15-5.79-9.39
					c-1.73-1.27-3.75-2.21-5.89-2.42C168.33,472.56,167.38,500.15,184.05,498.91z"/>
			</g>
			<g>
				<path class="st105" d="M243.98,577.05c0,0,0.12,20.32-2.3,25.28c-2.67,5.46-9.41,7.32-15.38,8.46
					c-25.06,4.82-48.62,4.81-74.12,5.43h8.06c-25.51-0.62-49.07-0.61-74.12-5.43c-5.97-1.15-12.71-3-15.38-8.46
					c-2.43-4.96-2.3-25.28-2.3-25.28s20.17,16.21,87.94,15.05C225.09,590.92,243.98,577.05,243.98,577.05z"/>
			</g>
			<g>
				<path class="st106" d="M156.33,452.75c-0.77-1.72-1.68-4.11,0.04-5.59c2.07-1.79,6.54-0.19,8.55,1.03
					c2.4,1.46,4.48,4.01,4.07,6.98C168.22,460.76,159.23,459.22,156.33,452.75z M119.25,435.34c1.21-1.06,1.03-3.28,0.79-4.55
					c-0.26-1.35-1.31-3.88-3.27-4.31c-5.45-1.22-4.16,5.92-2.64,7.83c0.67,0.84,1.76,1.54,3.03,1.62
					C118.11,435.99,118.79,435.75,119.25,435.34z M162.14,510.19c0.75-0.6,1.26-1.63,1.36-3.04c0.2-2.95-1.07-5.93-3.25-7.91
					c-1.68-1.53-5.42-2.83-6.56,0.05c-0.39,0.97-0.29,2.07-0.07,3.1c0.55,2.51,1.91,5.3,3.78,7.09
					C159,511.03,160.89,511.2,162.14,510.19z M205.16,528.1c0.13-0.18,0.25-0.37,0.35-0.57c1.76-3.39,1.55-7.45-0.93-10.4
					c-2.23-2.65-6.41-5.44-9.45-2.33c-1.11,1.13-1.53,2.78-1.57,4.36c-0.06,2.55,0.83,5.12,2.44,7.09
					C198.16,528.89,202.56,531.67,205.16,528.1z M186.28,537.3c0.62-2.17-2-6.11-3.15-7.11c-1.78-1.55-6.78-4.32-8.91-1.87
					c-2.91,3.35,4.47,8.12,7.35,9.65c0.83,0.44,1.77,0.85,2.75,0.74C185.48,538.57,186.07,538.04,186.28,537.3z M177.66,565.4
					c-1.19-2.3-3.71-3.26-6.36-3.49c-2.72-0.24-5.8,0.76-4.98,4.17c0.39,1.62,1.7,2.89,3.18,3.63c1.71,0.85,3.82,1.46,5.72,1.6
					c2.82,0.21,3.51-2.48,2.89-4.75C178,566.14,177.85,565.75,177.66,565.4z M141.41,526.84c0.19-0.24,0.36-0.51,0.52-0.81
					c1.54-3.06-1.71-11.29-5.62-11.23c-4.08,0.06-4.74,8.43-3.24,10.89C134.73,528.44,139.16,529.66,141.41,526.84z M224.78,452.6
					c0.78-1.93-0.01-4.77-0.85-6.46c-1.03-2.09-5.7-7.42-7.54-3.32c-0.98,2.19-0.59,5.49,0.19,7.69c0.93,2.6,5.59,5.83,7.81,2.78
					C224.55,453.08,224.68,452.85,224.78,452.6z"/>
			</g>
			<g>
				<path class="st12" d="M42.52,189.67c1.19-2.22,7.52-6.95,10.49-8.45c4.83-2.45,15.53,2.83,15.53,2.83
					c6.79,0.01,4.73-5.93,7.97-9.19c5.58-5.62,0.81-11.11,8.63-15.66c3.51-2.04,9.32-1.92,13.16-3.73
					c6.41-3.02,4.08-9.35,8.52-13.45c3.55-3.28,10.5-4.39,16.69-5.62c15.23-3.03,48.28-8.27,59.5-15.16
					c10.24,9.29,5.74,16.85,22.54,21.6c9.41,2.66,19.78,4.57,27.28,8.9c8.94,5.17,6.69,9.21,8.18,15.14
					c1.06,4.23,10.11-5.97,15.21,8.99c1.62,4.74,4.15,8.42,8.7,10.55c5.71,2.67,0,12.39,7.96,13.01
					c11.95,0.92,12.25,29.82,1.63,28.32c-6.29-0.89-9.07,10.08-16.72,9.99c-43.72-0.5-30.39,11.77-55.06,12.42
					c-8.26,0.22-14.15-11.59-22.06-10.15c-8.24,1.51-16.34,4.63-24.31,6.59c-10.01,2.45-21.87,2-31.29-1.19
					c-6.34-2.15-15.54-3.65-22.21-5.4c-11.11-2.91-25.5,0.49-37.49,0.88c-29.6,0.96-21.61-5.62-33.89-26.09
					C23.83,202.06,39.65,195,42.52,189.67z"/>
			</g>
			<g>
				<path class="st107" d="M156.85,148.27c2.13-7.39,7.12-8.93,11.54-11.96c5.3-3.63-7.78,16.85-10.48,18.36
					c-5.37,2.98-12.7,3.57-15.72,8.92c-1.22,2.16-1.47,4.77-2.81,6.85c-1.25,1.95-3.31,3.21-4.9,4.9
					c-6.15,6.51-0.25,12.59,6.67,18.28s13.26,12.25,22.22,12.06c5.4-0.11,10.87-0.62,16.15,0.51c5.28,1.13,10.5,4.27,12.45,9.3
					s-0.73,11.84-6.03,12.87c1.53-4.39,2.76-10.05-0.8-13.04c-1.7-1.43-4.05-1.76-6.27-1.92c-5.39-0.4-10.82-0.18-16.16,0.65
					c-2.38,0.37-4.96,0.83-7.08-0.31c-1.41-0.76-2.39-2.13-3.66-3.12c-3.13-2.46-10.59-12.19-14.49-13.02
					c-7.75-1.64-11.27,2.06-13.43-5.57c-2.16-7.63,0.23-16.36,5.97-21.82c2.58-2.46,5.85-4.4,7.41-7.6c0.74-1.53,1.04-3.26,1.96-4.7
					c1.4-2.18,3.94-3.27,6.28-4.38C147.32,152.75,155.29,153.69,156.85,148.27z M175.5,155.65c-3.09,5.6-11.69,13.04-9.53,19.06
					c1.33,3.71,10.91,1.59,14.74,2.54c4.7,1.16,0.91,7.36,9.68,5c9.12-2.45,18.84,0.66,24.95,7.87c7.05,8.33,2.73,8.32,8.27,26.65
					c0.63,2.07-3.3,15.65-1.18,16.07c1.15,0.23,2.41-0.58,2.9-1.65c8.39-18.1,2.64-10.82,0.11-19.63
					c-1.88-6.58-3.29-20.29-8.26-24.99c-4.36-4.12-10.31-6.01-16.04-7.77c-4.98-1.53-9.97-3.06-14.95-4.59
					c-4.53-1.39-9.7-2.73-13.8-0.34c-0.95-2.48,0.66-5.24,2.64-7.01c1.98-1.77,4.43-3.08,5.97-5.25c2.86-4.03,1.71-9.62-0.27-14.14
					c-1.3-2.98-2.17-6.61-4.35-8.97C174.44,144,178.64,149.96,175.5,155.65z M258.01,208.04c-1.03-3.55-3.42-6.55-5.03-9.82
					c-2.21-4.49-4.93-9.04-7.89-12.83c-3.8-4.84-9.81-11.98-16.34-12.97c-1.55-0.24-3.39,0.63-3.65,2.18
					c-0.22,1.38,11.72,6.31,12.32,7.57c9.19,19.24,14.37,13.88,16.55,28.52c0.14,0.96,0.24,1.95,0.72,2.79
					c0.62,1.08,1.16,1.42,1.63,1.3C257.76,214.39,258.43,209.5,258.01,208.04z M121.49,163.06c-3.95-1.17-10.28,5.13-14.25,5.87
					c-2.83,0.52-6.12,0.06-8.21,2.04c-1.68,1.6-1.86,4.16-2.52,6.39c-0.92,3.07-2.99,5.79-5.71,7.49c-0.9,0.56-1.9,1.05-2.46,1.95
					c-0.76,1.21-0.49,2.81-1.03,4.13c-0.47,1.15-1.5,1.97-2.16,3.02c-1.96,3.08-0.41,7.06,0.53,10.58
					c1.61,6.06,1.2,12.64-1.16,18.45c1.47,0.62,3.23-0.08,4.29-1.27c1.06-1.19,1.55-2.76,1.94-4.31c1.22-4.84,1.67-9.88,1.32-14.86
					c-0.31-4.44-1.05-9.5,1.92-12.82c1.16-1.3,2.76-2.13,3.94-3.4c2.73-2.94,2.76-7.57,5.15-10.78c2.52-3.39,7.01-4.46,11-5.82
					C115.81,169.11,127.66,164.88,121.49,163.06z"/>
			</g>
			<g>
				<path class="st105" d="M70.09,169.11c2.46-2.64,6.86-9.79,8.54-12.98c1.14-2.16,14.94-9.03,16-11.22
					c2.25-4.61,7.85-6.29,12.84-7.49c5.33-1.28,10.65-2.57,15.98-3.85c6.99-1.68,16.27-4.1,17.21-11.23
					c2.76-20.93,8.1-16.16,29.32-2.13c5.87,3.88,10.07-2.99,15.97,0.84c5.06,3.28,11.71,10.61,11.47,17.36
					c-0.26,7.41,16.49,18.23,13.34,24.03c-12.5,23.01-16.34-7.63-37.71,1.75c-11.19,4.91,2.61-28.87-21.44-24.95
					c-6.59,8.91-13.51,18.12-24.01,22.39c-2.39,0.97-4.67,2.21-6.64,3.87c-10.32,8.67-0.91,14.28-2.42,22.33
					c-0.24,1.3-1.23,2.29-2.45,2.79c-0.14,0.06-0.28,0.12-0.41,0.19c-2.97,1.55-6.23,2.68-9.47,3.17c-1.07,0.16-2.17-0.38-2.58-1.37
					c0-0.01,0-0.01-0.01-0.02l-0.08-0.19c-0.83-2.06-0.29-4.37,1.26-5.96c1.4-1.43,2.24-3.03,1.93-4.96
					c-1.18-7.41-8.47-14.84-4.51-21.22c-18.71,3.62-24.23,22.83-30.16,18.33C68.84,177.01,67.63,171.74,70.09,169.11z"/>
			</g>
			<g>
				<path class="st9" d="M185.27,216.6c-0.95,0-1.87-0.49-2.38-1.37l-3.48-6.03c-0.76-1.31-0.31-2.99,1-3.75
					c1.31-0.76,2.99-0.31,3.75,1l3.48,6.03c0.76,1.31,0.31,2.99-1,3.75C186.21,216.48,185.74,216.6,185.27,216.6z M197.91,213.33
					c-0.95,0-1.87-0.49-2.38-1.37c-0.76-1.31-0.31-2.99,1-3.75l6.03-3.48c1.31-0.76,2.99-0.31,3.75,1c0.76,1.31,0.31,2.99-1,3.75
					l-6.03,3.48C198.84,213.21,198.37,213.33,197.91,213.33z M135.95,212.97c-0.94,0-1.85-0.48-2.36-1.35l-3.55-5.99
					c-0.77-1.3-0.34-2.99,0.96-3.76c1.3-0.77,2.99-0.34,3.76,0.96l3.55,5.99c0.77,1.3,0.34,2.99-0.96,3.76
					C136.91,212.85,136.43,212.97,135.95,212.97z M78.15,209.02c-0.7,0-1.39-0.26-1.93-0.79l-4.96-4.89
					c-1.08-1.06-1.09-2.8-0.02-3.88s2.8-1.09,3.88-0.02l4.96,4.89c1.08,1.06,1.09,2.8,0.02,3.88
					C79.57,208.74,78.86,209.02,78.15,209.02z M112.87,205.93c-0.47,0-0.94-0.12-1.37-0.37c-1.31-0.76-1.76-2.43-1-3.75l3.48-6.03
					c0.76-1.31,2.43-1.76,3.75-1c1.31,0.76,1.76,2.43,1,3.75l-3.48,6.03C114.74,205.43,113.82,205.93,112.87,205.93z M240.56,204.71
					c-0.47,0-0.94-0.12-1.37-0.37l-6.03-3.48c-1.31-0.76-1.76-2.43-1-3.75c0.76-1.31,2.44-1.76,3.75-1l6.03,3.48
					c1.31,0.76,1.76,2.43,1,3.75C242.42,204.22,241.5,204.71,240.56,204.71z M56.44,203.48c-0.19,0-0.37-0.02-0.56-0.06
					c-1.48-0.31-2.44-1.76-2.13-3.24l1.42-6.82c0.31-1.48,1.76-2.44,3.24-2.13c1.48,0.31,2.44,1.76,2.13,3.24l-1.42,6.82
					C58.86,202.59,57.72,203.48,56.44,203.48z M159.6,198.5c-0.95,0-1.87-0.49-2.38-1.37c-0.76-1.31-0.31-2.99,1-3.75l6.03-3.48
					c1.31-0.76,2.99-0.31,3.75,1c0.76,1.31,0.31,2.99-1,3.75l-6.03,3.48C160.53,198.38,160.06,198.5,159.6,198.5z M245.66,192.08
					c-0.47,0-0.94-0.12-1.37-0.37c-1.31-0.76-1.76-2.43-1-3.75l3.48-6.03c0.76-1.31,2.44-1.76,3.75-1c1.31,0.76,1.76,2.43,1,3.75
					l-3.48,6.03C247.53,191.59,246.6,192.08,245.66,192.08z M87.22,175.5c-0.47,0-0.94-0.12-1.37-0.37l-6.03-3.48
					c-1.31-0.76-1.76-2.43-1-3.75c0.76-1.31,2.44-1.76,3.75-1l6.03,3.48c1.31,0.76,1.76,2.43,1,3.75
					C89.09,175.01,88.17,175.5,87.22,175.5z M207.74,171.19c-0.94,0-1.85-0.48-2.36-1.35l-3.55-5.99c-0.77-1.3-0.34-2.99,0.96-3.76
					c1.3-0.77,2.99-0.34,3.76,0.96l3.55,5.99c0.77,1.3,0.34,2.99-0.96,3.76C208.69,171.06,208.21,171.19,207.74,171.19z
					 M152.51,166.25c-0.47,0-0.94-0.12-1.37-0.37l-6.03-3.48c-1.31-0.76-1.76-2.43-1-3.75s2.43-1.76,3.75-1l6.03,3.48
					c1.31,0.76,1.76,2.43,1,3.75C154.38,165.76,153.46,166.25,152.51,166.25z M220.33,155.37c-0.7,0-1.4-0.27-1.94-0.8
					c-1.07-1.07-1.07-2.81,0-3.88l4.93-4.93c1.07-1.07,2.81-1.07,3.88,0c1.07,1.07,1.07,2.81,0,3.88l-4.93,4.93
					C221.73,155.11,221.03,155.37,220.33,155.37z"/>
			</g>
			<g class="st11">
				<g>
					<path class="st12" d="M304.11,210.6c-2.54-1.88-7.09-1.28-8.84-3.91c-0.97-1.46-1.46-3.17-1.97-4.85
						c-7.51-24.85-21.69-47.54-40.29-65.6c-7.05-6.85-14.93-12.8-23.21-18.08c-4.21-2.68-8.52-5.2-12.91-7.59
						c-4.71-2.57-8.71-5.12-14.1-5.92c-1.63-0.24-3.25-0.52-4.87-0.79c-19.87,14.47-58.17,15.34-82.86,0.71
						c-0.49,0.07-0.97,0.13-1.46,0.21c-4.4,0.68-9.14,1.33-13.35,2.82c-3.89,1.38-7.5,3.89-11.07,5.97
						c-5.57,3.25-10.94,6.85-16.05,10.77c-10.24,7.85-19.5,16.98-27.52,27.1c-11.86,14.96-21.01,32.1-26.53,50.39
						c-0.51,1.68-1,3.39-1.97,4.85c-1.75,2.63-6.3,2.03-8.84,3.91c-7.22,5.35-8.41,23.71-6.85,32.56c1,5.68,19.35,10.11,19.35,10.11
						s33.72,23.27,140.01,23.27c100.74,0,130.81-23.27,130.81-23.27s18.35-4.43,19.35-10.11
						C312.52,234.31,311.33,215.95,304.11,210.6z"/>
				</g>
			</g>
		</g>
		<g id="Stroke_00000124872307491411092200000007236157226296244655_">
			<g>
				<path d="M230.68,593.74c-6.3,2.98-13.17,4.43-20.03,5.42c-1.29,0.19-0.74,2.15,0.54,1.96c7.05-1.03,14.04-2.57,20.51-5.63
					C232.89,594.94,231.86,593.19,230.68,593.74L230.68,593.74z"/>
			</g>
			<g>
				<path d="M116.59,603.02c21.35,2.48,42.89,2.04,64.3,0.72c6.09-0.38,12.17-0.82,18.25-1.29c1.3-0.1,1.31-2.14,0-2.03
					c-21.44,1.66-42.97,3.03-64.49,2.03c-6.04-0.28-12.06-0.76-18.07-1.45C115.29,600.84,115.3,602.88,116.59,603.02L116.59,603.02z
					"/>
			</g>
			<g>
				<path d="M81,596.36c7.75,3.04,15.98,4.36,24.2,5.4c1.3,0.16,1.28-1.87,0-2.03c-8.04-1.02-16.08-2.36-23.66-5.33
					C80.32,593.92,79.79,595.89,81,596.36L81,596.36z"/>
			</g>
			<g>
				<path d="M48.19,359.88c0.21,1.8,0.41,3.59,0.62,5.39c0.56,4.89,1.13,9.78,1.69,14.67c0.84,7.27,1.67,14.54,2.51,21.81
					c1.02,8.83,2.03,17.67,3.05,26.5c1.11,9.67,2.23,19.35,3.34,29.02c1.12,9.77,2.25,19.53,3.37,29.3
					c1.05,9.11,2.1,18.22,3.15,27.32c0.89,7.73,1.78,15.46,2.67,23.18c0.64,5.53,1.27,11.06,1.91,16.59c0.3,2.62,0.59,5.24,0.9,7.86
					c0.01,0.11,0.03,0.22,0.04,0.34c0.15,1.29,2.18,1.3,2.03,0c-0.21-1.8-0.41-3.59-0.62-5.39c-0.56-4.89-1.13-9.78-1.69-14.67
					c-0.84-7.27-1.67-14.54-2.51-21.81c-1.02-8.83-2.03-17.67-3.05-26.5c-1.11-9.67-2.23-19.35-3.34-29.02
					c-1.12-9.77-2.25-19.53-3.37-29.3c-1.05-9.11-2.1-18.22-3.15-27.32c-0.89-7.73-1.78-15.46-2.67-23.18
					c-0.64-5.53-1.27-11.06-1.91-16.59c-0.3-2.62-0.59-5.24-0.9-7.86c-0.01-0.11-0.03-0.22-0.04-0.34
					C50.08,358.59,48.04,358.58,48.19,359.88L48.19,359.88z"/>
			</g>
			<g>
				<path d="M276.94,275.68c-0.47,3.67-0.95,7.35-1.42,11.02c-1.14,8.82-2.28,17.65-3.42,26.47c-1.38,10.67-2.76,21.35-4.13,32.02
					c-1.19,9.23-2.38,18.45-3.57,27.68c-0.39,3.02-0.78,6.04-1.17,9.07c-0.18,1.43-0.53,2.93-0.56,4.37c0,0.06-0.02,0.12-0.02,0.19
					c-0.17,1.29,1.87,1.28,2.03,0c0.47-3.67,0.95-7.35,1.42-11.02c1.14-8.82,2.28-17.65,3.42-26.47
					c1.38-10.67,2.76-21.35,4.13-32.02c1.19-9.23,2.38-18.45,3.57-27.68c0.39-3.02,0.78-6.04,1.17-9.07
					c0.18-1.43,0.53-2.93,0.56-4.37c0-0.06,0.02-0.12,0.02-0.19C279.14,274.39,277.11,274.4,276.94,275.68L276.94,275.68z"/>
			</g>
			<g>
				<path d="M261.27,397.23c-1.07,7.75-2.15,15.49-3.22,23.24c-0.15,1.1-0.31,2.2-0.46,3.3c-0.18,1.28,1.78,1.83,1.96,0.54
					c1.07-7.75,2.15-15.49,3.22-23.24c0.15-1.1,0.31-2.2,0.46-3.3C263.41,396.49,261.45,395.93,261.27,397.23L261.27,397.23z"/>
			</g>
			<g>
				<path d="M36.72,261.65c14.12,4.09,28.57,6.99,43.09,9.24c16.6,2.57,33.34,4.27,50.11,5.24c17.38,1.01,34.82,1.23,52.22,0.57
					c16.66-0.63,33.31-2.07,49.78-4.71c14.39-2.31,28.73-5.53,42.42-10.58c1.5-0.55,2.98-1.13,4.46-1.73
					c1.2-0.49,0.67-2.45-0.54-1.96c-13.17,5.35-27.08,8.8-41.04,11.32c-16.17,2.92-32.55,4.54-48.95,5.36
					c-17.25,0.87-34.54,0.84-51.79,0.04c-16.87-0.78-33.73-2.28-50.45-4.66c-14.81-2.11-29.57-4.86-44.02-8.76
					c-1.58-0.43-3.16-0.87-4.74-1.33C36,259.33,35.47,261.29,36.72,261.65L36.72,261.65z"/>
			</g>
			<g>
				<path d="M25.35,215.78c15.9,5.27,32.36,8.8,48.89,11.43c18.51,2.94,37.21,4.72,55.93,5.64c19.03,0.93,38.11,0.98,57.14,0.09
					c17.59-0.82,35.17-2.42,52.56-5.21c14.37-2.3,28.77-5.35,42.48-10.32c1.42-0.52,2.84-1.06,4.25-1.62
					c1.2-0.48,0.68-2.45-0.54-1.96c-13.03,5.23-26.84,8.45-40.63,10.91c-16.98,3.03-34.19,4.8-51.4,5.82
					c-18.94,1.11-37.94,1.27-56.9,0.56c-18.74-0.7-37.47-2.24-56.03-4.91c-16.83-2.42-33.6-5.73-49.89-10.69
					c-1.78-0.54-3.55-1.11-5.31-1.69C24.65,213.41,24.11,215.37,25.35,215.78L25.35,215.78z"/>
			</g>
			<g>
				<path d="M11.91,208.22c-8.38,1.74-10.88,10.94-11.48,18.3c-0.6,7.34-1.49,15.39,4.35,20.96c3.27,3.12,7.69,4.54,11.91,5.85
					c1.25,0.39,1.79-1.57,0.54-1.96c-3.36-1.04-6.82-2.11-9.69-4.21c-2.73-1.99-4.57-4.93-5.21-8.23c-0.62-3.19-0.26-6.53-0.05-9.75
					c0.26-3.99,0.51-8.11,2.13-11.82c1.5-3.44,4.28-6.39,8.04-7.18C13.73,209.91,13.19,207.95,11.91,208.22L11.91,208.22z"/>
			</g>
			<g>
				<path d="M303.66,249.9c3.26-1.54,6.68-3.42,7.87-7.06c0.66-2.03,0.67-4.34,0.71-6.46c0.05-2.37-0.04-4.74-0.28-7.1
					c-0.44-4.44-1.22-9.09-2.96-13.22c-1.47-3.49-4.14-6.63-8.02-7.37c-1.28-0.24-1.83,1.72-0.54,1.96
					c3.74,0.71,5.96,3.97,7.14,7.36c1.31,3.76,2.03,7.79,2.39,11.75c0.34,3.76,0.64,8.02-0.19,11.73c-0.8,3.58-4.11,5.22-7.15,6.67
					C301.45,248.71,302.48,250.46,303.66,249.9L303.66,249.9z"/>
			</g>
			<g>
				<path d="M43.5,231.76c28.73,6.17,57.91,10.67,87.27,12.32c8.52,0.48,17.05,0.71,25.58,0.64c1.31-0.01,1.31-2.05,0-2.03
					c-29.84,0.25-59.65-3.07-89-8.3c-7.8-1.39-15.57-2.93-23.31-4.59C42.77,229.52,42.22,231.48,43.5,231.76L43.5,231.76z"/>
			</g>
			<g>
				<path d="M146.48,265.99c27.27,0.14,54.71-0.79,81.73-4.67c7.54-1.08,15.05-2.42,22.49-4.06c1.28-0.28,0.74-2.24-0.54-1.96
					c-26.41,5.8-53.49,7.77-80.48,8.44c-7.73,0.19-15.47,0.25-23.21,0.21C145.18,263.95,145.17,265.98,146.48,265.99L146.48,265.99z
					"/>
			</g>
			<g>
				<path d="M116.26,104.26c-6.23,0.17-12.29,2.11-17.97,4.55c-7.28,3.13-14.11,7.28-20.56,11.87c-14.7,10.47-27.8,23.4-38.49,37.94
					c-5.81,7.9-10.88,16.38-14.61,25.46c-0.5,1.21,1.47,1.74,1.96,0.54c6.63-16.17,17.59-30.54,29.77-42.94
					c11.61-11.82,24.98-22.63,40.01-29.78c6.18-2.94,12.96-5.41,19.88-5.6C117.56,106.26,117.57,104.22,116.26,104.26L116.26,104.26
					z"/>
			</g>
			<g>
				<path d="M111.89,250.76c17.37,2.32,34.94,2.92,52.45,2.62c4.76-0.08,9.52-0.23,14.27-0.44c1.3-0.06,1.31-2.09,0-2.03
					c-17.24,0.75-34.55,0.77-51.76-0.6c-5-0.4-9.99-0.92-14.96-1.58C110.6,248.56,110.61,250.59,111.89,250.76L111.89,250.76z"/>
			</g>
			<g>
				<path d="M78.5,258.75c14.2,2.28,28.5,3.86,42.85,4.73c1.31,0.08,1.3-1.96,0-2.03c-14.17-0.86-28.29-2.41-42.31-4.66
					C77.76,256.58,77.21,258.54,78.5,258.75L78.5,258.75z"/>
			</g>
			<g>
				<path d="M205.96,247.57c18.86-1.16,37.64-3.98,55.95-8.67c5.25-1.35,10.46-2.85,15.62-4.5c1.24-0.4,0.71-2.36-0.54-1.96
					c-17.91,5.72-36.39,9.61-55.07,11.71c-5.31,0.6-10.63,1.05-15.96,1.38C204.66,245.61,204.65,247.65,205.96,247.57L205.96,247.57
					z"/>
			</g>
			<g>
				<path d="M255.92,137.36c-3.6-3.74-7.38-7.34-11.66-10.3c-1.08-0.74-2.1,1.02-1.03,1.76c4.14,2.85,7.77,6.37,11.25,9.98
					C255.39,139.75,256.83,138.31,255.92,137.36L255.92,137.36z"/>
			</g>
			<g>
				<path d="M288.66,186.17c-7.14-15.61-15.89-31.2-28.05-43.49c-0.92-0.93-2.36,0.51-1.44,1.44
					c12.03,12.17,20.66,27.63,27.73,43.08C287.45,188.39,289.2,187.36,288.66,186.17L288.66,186.17z"/>
			</g>
		</g>
	</g>
</g>
</svg>
