<?xml version="1.0" encoding="utf-8"?>
<!-- Generator: Adobe Illustrator 26.1.0, SVG Export Plug-In . SVG Version: 6.00 Build 0)  -->
<svg version="1.1" xmlns="http://www.w3.org/2000/svg" xmlns:xlink="http://www.w3.org/1999/xlink" x="0px" y="0px"
	 viewBox="0 0 326.06 652.83" style="enable-background:new 0 0 326.06 652.83;" xml:space="preserve">
<style type="text/css">
	.st0{fill:#391F14;}
	.st1{fill:#682320;}
	.st2{fill:#D26F75;}
	.st3{fill:#FEEAE3;}
	.st4{fill:#F8E2E7;}
	.st5{fill:#E86E78;}
	.st6{fill:#F19299;}
	.st7{fill:#F4C3C9;}
	.st8{fill:#B3203B;}
	.st9{fill:#666633;}
	.st10{fill:#C74E69;}
	.st11{opacity:0.4;}
	.st12{fill:#FFFFFF;}
	.st13{fill:#FAEED5;}
	.st14{fill:#DCA455;}
	.st15{fill:#4F3021;}
	.st16{fill:#D69F53;}
	.st17{fill:#FCE3A2;}
	.st18{fill:#FFD480;}
	.st19{fill:#FBAF3C;}
	.st20{fill:#FDC363;}
	.st21{fill:#754A3C;}
	.st22{opacity:0.3;}
	.st23{fill:#DDEADB;}
	.st24{fill:#BCD3C2;}
	.st25{fill:#A3C6AC;}
	.st26{fill:#D8E5DA;}
	.st27{fill:#233328;}
	.st28{fill:#5C6B63;}
	.st29{fill:#82AD91;}
	.st30{fill:#D2DBD1;}
	.st31{fill:#7AA388;}
	.st32{opacity:0.5;}
	.st33{fill:#6C845F;}
	.st34{fill:#5E7553;}
	.st35{fill:#C1786C;}
	.st36{fill:#E7CCC2;}
	.st37{fill:#F8E7DA;}
	.st38{fill:#EAC8B6;}
	.st39{fill:#E3987F;}
	.st40{fill:#F2C4A8;}
	.st41{fill:#7A4D4B;}
	.st42{fill:#DE998E;}
	.st43{fill:#CC644C;}
	.st44{fill:#D88977;}
	.st45{fill:#D87C60;}
	.st46{fill:#F7E4D6;}
	.st47{fill:#8C4330;}
	.st48{fill:#D4695B;}
	.st49{fill:#F0D6BF;}
	.st50{fill:#C19160;}
	.st51{fill:#D8AA75;}
	.st52{fill:#915A26;}
	.st53{fill:#BC7C48;}
	.st54{fill:#5B361E;}
	.st55{fill:#7E4F23;}
	.st56{fill:#CE9957;}
	.st57{fill:#E2BA84;}
	.st58{fill:#22120A;}
	.st59{fill:#554E26;}
	.st60{fill:#F6ECF5;}
	.st61{fill:#DBB6D1;}
	.st62{fill:#F3E4E0;}
	.st63{fill:#996699;}
	.st64{fill:#E8D4E7;}
	.st65{fill:#C48BBD;}
	.st66{fill:#6F3670;}
	.st67{fill:#8F6191;}
	.st68{fill:#441946;}
	.st69{fill:#F3DAD0;}
	.st70{fill:#741112;}
	.st71{fill:#CC3333;}
	.st72{fill:#DE6D57;}
	.st73{fill:#C75044;}
	.st74{fill:#CA4536;}
	.st75{fill:#D25847;}
	.st76{fill:#F3E4DE;}
	.st77{fill:#E06865;}
	.st78{fill:#CC4746;}
	.st79{fill:#436137;}
	.st80{fill:#9A3332;}
	.st81{fill:#EDA99F;}
	.st82{fill:#CC6666;}
	.st83{fill:#E89B95;}
	.st84{fill:#2C1B10;}
	.st85{fill:#CCAAA2;}
	.st86{fill:#EFDFD9;}
	.st87{fill:#836759;}
	.st88{fill:#D1B7A6;}
	.st89{fill:#674E3D;}
	.st90{fill:#B0806D;}
	.st91{fill:#CDAA96;}
	.st92{fill:#967A67;}
	.st93{fill:#EBBC8B;}
	.st94{fill:#6B3715;}
	.st95{fill:#F7DEBC;}
	.st96{fill:#EFE4DA;}
	.st97{fill:#CC6E28;}
	.st98{fill:#B25827;}
	.st99{fill:#A54924;}
	.st100{fill:#9E6031;}
	.st101{fill:#DDDACC;}
	.st102{fill:#908B47;}
	.st103{fill:#AFAA7A;}
	.st104{fill:#7F7E5F;}
	.st105{fill:#8B693E;}
	.st106{fill:#8E4316;}
	.st107{fill:#DDDAB1;}
	.st108{fill:#8F9C58;}
	.st109{fill:#828E3C;}
	.st110{fill:#8E5852;}
	.st111{fill:#CA887F;}
	.st112{fill:#E3988D;}
	.st113{fill:#F2CAB9;}
	.st114{fill:#EDAB9A;}
	.st115{fill:#F2DDBB;}
	.st116{fill:#AC4D27;}
	.st117{fill:#E69F59;}
	.st118{fill:#F2DAAE;}
	.st119{fill:#DA7B38;}
	.st120{fill:#E9C1A4;}
	.st121{fill:#D58761;}
	.st122{fill:#55150F;}
</style>
<g id="Bg">
</g>
<g id="Graphic">
	<g id="Boba_4">
		<g id="Drink_00000147201025646979222820000004907570056668430746_">
			<g>
				<g>
					<polygon class="st93" points="179.54,131.78 210.98,8.53 184.71,2.34 153.39,125.13 					"/>
				</g>
				<g>
					<path class="st94" d="M204.7,32.96c-9.02,0.99-18.34,0.07-27.45-1.59l3.17-12.39c9.11,1.61,18.45,2.51,27.46,1.54L204.7,32.96z
						 M201.73,44.73c-9.01,0.97-18.35,0.07-27.46-1.54l-3.17,12.39c9.1,1.66,18.43,2.58,27.45,1.59L201.73,44.73z M195.58,68.94
						c-9.01,0.97-18.35,0.07-27.46-1.54l-3.17,12.39c9.1,1.66,18.43,2.58,27.45,1.59L195.58,68.94z M189.43,93.16
						c-9.01,0.97-18.35,0.07-27.46-1.54l-3.17,12.39c9.1,1.66,18.43,2.58,27.45,1.59L189.43,93.16z M198.92,0.97
						c-7.26-1.71-13.65-1.1-14.27,1.35c-0.63,2.46,4.75,5.83,12,7.54s13.65,1.1,14.27-1.35S206.18,2.68,198.92,0.97z"/>
				</g>
				<g>
					<polygon class="st93" points="188.45,137.69 247.02,24.78 222.83,12.8 164.48,125.29 					"/>
				</g>
				<g>
					<path class="st94" d="M235.36,47.15c-9.01-1.08-17.88-4.09-26.37-7.78l5.9-11.35c8.51,3.63,17.41,6.63,26.4,7.73L235.36,47.15z
						 M229.8,57.94c-8.99-1.1-17.89-4.09-26.4-7.73l-5.9,11.35c8.49,3.68,17.36,6.7,26.37,7.78L229.8,57.94z M218.32,80.13
						c-8.99-1.1-17.89-4.09-26.4-7.73l-5.9,11.35c8.49,3.68,17.36,6.7,26.37,7.78L218.32,80.13z M206.84,102.32
						c-8.99-1.1-17.89-4.09-26.4-7.73l-5.9,11.35c8.49,3.68,17.36,6.7,26.37,7.78L206.84,102.32z M236.99,14.69
						c-6.68-3.31-13.04-4.17-14.21-1.92s3.3,6.76,9.98,10.07c6.68,3.31,13.04,4.17,14.21,1.92S243.66,18,236.99,14.69z"/>
				</g>
				<g>
					<path class="st95" d="M162.7,86.26c-0.51-1.4-1.3-2.63-2.29-3.66c-2.21-2.23-5.01-3.17-7.79-3.1c0.23-0.2,0.46-0.41,0.68-0.64
						c3.12-3.94,4.71-9.09,2.3-13.53c-0.63-1.41-1.49-2.65-2.5-3.7c-1.87-2.11-4.33-3.36-6.88-3.77c0.5-0.56,0.95-1.17,1.33-1.86
						c1.66-3.51,3.14-7.56,1.17-11.08c-0.51-1.4-1.3-2.63-2.29-3.66c-3.99-4.02-9.9-3.85-14.17-1.13c-0.73-2.26-2.07-4.33-3.87-5.86
						c-5.33-3.92-14.07-2.68-17.13,3.5c-0.41,0.98-0.68,1.99-0.83,3.01c-0.93-0.87-2.04-1.6-3.34-2.1
						c-7.54-2.48-14.72,2.74-16.7,10.12c-0.05,0.39-0.08,0.77-0.1,1.14c-0.57-0.78-1.22-1.51-1.96-2.13
						c-5.33-3.92-14.07-2.68-17.13,3.5c-0.41,0.98-0.68,1.99-0.83,3.01c-0.93-0.87-2.04-1.6-3.34-2.1
						c-7.54-2.48-14.72,2.74-16.7,10.12c-0.05,0.39-0.08,0.77-0.1,1.14c-0.57-0.78-1.22-1.51-1.96-2.13
						c-5.33-3.92-14.07-2.68-17.13,3.5c-1.57,3.79-1.22,8.09,0.91,11.3c-2.61,0.64-5.05,2.09-6.78,4.12
						c-3.92,5.33-2.68,14.07,3.5,17.13c0.98,0.41,1.99,0.68,3.01,0.83c-0.87,0.93-1.6,2.04-2.1,3.34
						c-2.48,7.54,2.74,14.72,10.12,16.7c0.39,0.05,0.77,0.08,1.14,0.1c-0.78,0.57-1.51,1.22-2.13,1.96
						c-3.92,5.33-2.68,14.07,3.5,17.13c0.98,0.41,1.99,0.68,3.01,0.83c-0.87,0.93-1.6,2.04-2.1,3.34
						c-2.48,7.54,2.74,14.72,10.12,16.7c0.39,0.05,0.77,0.08,1.14,0.1c-0.78,0.57-1.51,1.22-2.13,1.96
						c-3.92,5.33-2.68,14.07,3.5,17.13c3.73,1.55,7.96,1.23,11.15-0.81c0.49,3.19,2.23,6.11,5.17,7.82
						c3.44,1.7,7.39,3.23,10.79,1.29c1.35-0.5,2.54-1.27,3.54-2.25c2.14-2.19,3.02-4.98,2.93-7.77c0.2,0.23,0.4,0.46,0.63,0.69
						c3.86,3.16,8.89,4.82,13.18,2.45c1.36-0.62,2.56-1.46,3.57-2.46c2.03-1.85,3.22-4.3,3.59-6.85c0.55,0.51,1.15,0.96,1.83,1.35
						c3.44,1.7,7.38,3.23,10.79,1.29c1.35-0.5,2.54-1.27,3.54-2.25c2.14-2.19,3.02-4.98,2.93-7.77c0.2,0.23,0.4,0.46,0.63,0.69
						c3.86,3.16,8.89,4.82,13.18,2.45c1.36-0.62,2.56-1.46,3.57-2.46c2.03-1.85,3.22-4.3,3.59-6.85c0.55,0.51,1.15,0.96,1.83,1.35
						c3.44,1.7,7.38,3.23,10.79,1.29c1.35-0.5,2.54-1.27,3.54-2.25c3.43-3.5,3.63-8.55,1.76-12.65c2.93-0.59,5.55-2.32,7.12-5.13
						c1.66-3.51,3.14-7.56,1.17-11.08c-0.51-1.4-1.3-2.63-2.29-3.66c-2.21-2.23-5.01-3.17-7.79-3.1c0.23-0.2,0.46-0.41,0.68-0.64
						c3.12-3.94,4.71-9.09,2.3-13.53c-0.63-1.41-1.49-2.65-2.5-3.7c-1.87-2.11-4.33-3.36-6.88-3.77c0.5-0.56,0.95-1.17,1.33-1.86
						C163.19,93.83,164.67,89.79,162.7,86.26z M48.45,115.84c-0.1,0-0.2,0-0.3,0c0.08-0.07,0.15-0.14,0.23-0.21L48.45,115.84z
						 M61.99,155.89c-0.1,0-0.2,0-0.3,0c0.08-0.07,0.15-0.14,0.23-0.21L61.99,155.89z"/>
				</g>
				<g>
					<path class="st93" d="M59.76,92.6c-0.8,0.91-2.03,1.4-3.53,1.4c-0.3,0-0.61-0.02-0.93-0.06c-1.71,0.09-3.21-1.3-3.62-3.35
						c-0.34-1.69,0.11-4.06,2.38-5.65l0.2-0.1c2.44-0.88,5.19,0.49,6.11,3.05l0.02,0.06C61.08,90.4,60.43,91.83,59.76,92.6z
						 M66.51,112.01c0.61-0.73,1.2-2.05,0.58-4.25l-0.02-0.06c-0.87-2.4-3.57-3.65-6.02-2.78l-0.19,0.1
						c-2.29,1.55-2.78,3.8-2.48,5.39c0.37,1.94,1.86,3.21,3.58,3.06c0.26,0.02,0.51,0.03,0.75,0.03
						C64.37,113.5,65.7,112.99,66.51,112.01z M72.71,132.88c0.95-1.25,1.28-3.04,0.91-4.92l-0.03-0.1
						c-0.46-1.38-1.43-2.53-2.67-3.14c-1.1-0.54-2.33-0.63-3.44-0.24l-0.25,0.09l-0.16,0.22c-1.41,1.95-2.33,5.1-1.36,7.37
						c0.41,0.97,1.35,2.18,3.5,2.48l0.09,0.01l0.09-0.01C70.77,134.53,71.92,133.92,72.71,132.88z M77.95,145.49
						c-1.11-0.53-2.34-0.6-3.46-0.19l-0.2,0.1c-2.38,1.65-2.72,4.79-1.84,6.9c0.77,1.84,2.32,2.89,4.19,2.89
						c0.32,0,0.64-0.03,0.97-0.09l0.12-0.03c1.31-0.44,2.28-1.26,2.82-2.37c0.58-1.2,0.61-2.67,0.09-4.14
						C80.17,147.2,79.19,146.08,77.95,145.49z M79.54,85.74c0.32,0.04,0.63,0.06,0.93,0.06c1.5,0,2.73-0.48,3.53-1.4
						c0.67-0.77,1.32-2.2,0.63-4.66l-0.02-0.06c-0.92-2.56-3.66-3.93-6.11-3.05l-0.2,0.1c-2.27,1.59-2.72,3.96-2.38,5.65
						C76.33,84.44,77.81,85.82,79.54,85.74z M90.75,103.81c0.61-0.73,1.2-2.05,0.58-4.25l-0.02-0.06c-0.87-2.4-3.57-3.65-6.02-2.79
						l-0.19,0.1c-2.29,1.55-2.78,3.8-2.48,5.39c0.37,1.94,1.89,3.22,3.58,3.06c0.26,0.02,0.51,0.03,0.75,0.03
						C88.6,105.31,89.93,104.79,90.75,103.81z M96.94,124.69c0.95-1.25,1.28-3.04,0.91-4.92l-0.03-0.1
						c-0.46-1.38-1.43-2.53-2.67-3.14c-1.1-0.54-2.33-0.63-3.44-0.24l-0.25,0.09l-0.16,0.22c-1.41,1.95-2.33,5.1-1.36,7.37
						c0.41,0.97,1.35,2.18,3.5,2.48l0.09,0.01l0.09-0.01C95.01,126.34,96.15,125.73,96.94,124.69z M102.19,137.3
						c-1.11-0.53-2.34-0.6-3.46-0.19l-0.2,0.1c-2.38,1.65-2.72,4.79-1.84,6.9c0.77,1.84,2.32,2.89,4.19,2.89
						c0.32,0,0.64-0.03,0.97-0.09l0.12-0.03c1.31-0.44,2.29-1.26,2.82-2.37c0.58-1.2,0.61-2.67,0.09-4.14
						C104.4,139,103.42,137.89,102.19,137.3z M109.63,75.33l-0.02-0.06c-0.92-2.56-3.67-3.93-6.11-3.05l-0.2,0.1
						c-2.27,1.59-2.72,3.96-2.38,5.65c0.41,2.04,1.89,3.43,3.62,3.35c0.32,0.04,0.63,0.06,0.93,0.06c1.5,0,2.73-0.48,3.53-1.4
						C109.66,79.22,110.31,77.79,109.63,75.33z M115.75,99.4c0.61-0.73,1.2-2.05,0.58-4.25l-0.02-0.06
						c-0.87-2.4-3.57-3.65-6.02-2.79l-0.19,0.1c-2.29,1.55-2.78,3.8-2.48,5.39c0.37,1.94,1.86,3.21,3.58,3.07
						c0.26,0.02,0.51,0.03,0.75,0.03C113.6,100.9,114.93,100.38,115.75,99.4z M121.94,120.27c0.94-1.25,1.28-3.04,0.91-4.92
						l-0.03-0.1c-0.46-1.38-1.43-2.53-2.67-3.14c-1.1-0.54-2.33-0.63-3.44-0.24l-0.25,0.09l-0.16,0.22
						c-1.41,1.95-2.33,5.1-1.36,7.37c0.41,0.97,1.35,2.18,3.5,2.48l0.09,0.01l0.09-0.01C120,121.92,121.15,121.32,121.94,120.27z
						 M127.19,132.89c-1.11-0.53-2.34-0.6-3.46-0.19l-0.2,0.1c-2.38,1.65-2.72,4.79-1.84,6.9c0.77,1.84,2.32,2.89,4.19,2.89
						c0.32,0,0.64-0.03,0.97-0.09l0.12-0.03c1.31-0.44,2.29-1.26,2.82-2.37c0.58-1.2,0.61-2.67,0.09-4.14
						C129.4,134.59,128.42,133.47,127.19,132.89z M126.62,70.96c0.32,0.04,0.63,0.06,0.93,0.06c1.5,0,2.73-0.48,3.53-1.4
						c0.67-0.77,1.32-2.2,0.63-4.66l-0.02-0.06c-0.92-2.56-3.67-3.93-6.11-3.05l-0.2,0.1c-2.27,1.59-2.72,3.96-2.38,5.65
						C123.41,69.65,124.91,71.04,126.62,70.96z M137.83,89.03c0.61-0.73,1.2-2.05,0.58-4.25l-0.02-0.06
						c-0.87-2.39-3.57-3.65-6.02-2.79l-0.19,0.1c-2.29,1.55-2.78,3.8-2.48,5.39c0.37,1.94,1.88,3.22,3.58,3.06
						c0.26,0.02,0.51,0.03,0.75,0.03C135.68,90.53,137.01,90.01,137.83,89.03z M144.02,109.9c0.95-1.25,1.28-3.04,0.91-4.92
						l-0.03-0.1c-0.46-1.38-1.43-2.53-2.67-3.14c-1.1-0.54-2.32-0.63-3.44-0.24l-0.25,0.09l-0.16,0.22
						c-1.41,1.95-2.33,5.1-1.36,7.37c0.41,0.97,1.35,2.18,3.5,2.48l0.09,0.01l0.09-0.01C142.09,111.55,143.23,110.94,144.02,109.9z
						 M151.96,125.57c-0.47-1.36-1.45-2.47-2.69-3.06c-1.11-0.53-2.34-0.6-3.46-0.19l-0.2,0.1c-2.38,1.65-2.72,4.79-1.84,6.9
						c0.77,1.84,2.32,2.89,4.19,2.89c0.32,0,0.64-0.03,0.97-0.09l0.12-0.03c1.31-0.44,2.29-1.26,2.82-2.37
						C152.45,128.51,152.48,127.04,151.96,125.57z"/>
				</g>
			</g>
			<g>
				<path class="st96" d="M311.68,204.67c-20.22-16.54-46.12-22.47-71.28-26.07c-56.08-8.03-113.3-6.65-168.99,4.07
					c-19.23,3.7-38.89,8.8-54.59,21.34c-1.22,0.97-2.54,2.6-1.8,4.02c32.32,14.35,70.25,17.87,105.12,20.49
					C183.65,233.29,252.97,237.08,311.68,204.67z"/>
			</g>
			<g>
				<path class="st96" d="M323.21,208.34c3.62,5.99-1.18,15.77-1.18,15.77c-1.71,11.58-3.41,33.5-5.12,45.08
					c-0.86,5.85-0.88,11.88-1.25,17.76c-1.17,18.69-2.26,37.39-3.34,56.09c-1.48,25.61-2.94,51.23-4.39,76.84
					c-1.5,26.54-2.99,53.08-4.47,79.62c-1.2,21.48-7.01,87.42-9.93,101.14c-3.67,17.2-12.31,28.25-27.53,34.28
					c-30.04,11.9-62.92,17.59-95.61,17.9c-30.63,0.3-60.65-3.92-89.86-11.87c-21.19-5.77-49.22-25.47-50.51-48.63
					c0,0-3.43-27.7-4.05-38.64c-1.16-20.5-1.91-33.59-3.07-54.09c-1.43-25.02-2.86-50.04-4.3-75.07c-1.41-24.5-2.83-49-4.27-73.5
					c-1.11-18.94-2.23-37.88-3.41-56.82c-1.04-16.64-2.64-33.11-4.55-49.69c-0.27-2.31-0.47-14.98-0.81-17.28
					c0,0-6.97-12.93-2.67-18.35c12.01-15.13,21.25-0.17,60.06,3.49c0.45,0.04,0.9,0.08,1.35,0.13
					c55.26,5.16,110.93,5.67,166.31,1.67c8.72-0.63,17.76-1.24,26.8-1.8C292.58,210.22,312.41,190.48,323.21,208.34z"/>
			</g>
			<g>
				<path class="st97" d="M168.72,222.63c-79.26-0.95-136.46,14.94-136.46,14.94c4.06,44.16,3.2,53.43,6.2,97.66
					c3.8,56.06,7.37,112.13,11.25,168.18c1.83,26.4,1.41,53.14,7.38,79.09c11.26,48.97,109.24,45.35,150.54,40.68
					c15.1-1.71,30.28-5.35,43.54-12.32c17.2-9.03,18.6-24.91,21-41.33c0.47-3.21,17.26-264.94,22.12-330.78
					C294.29,238.75,247.99,223.58,168.72,222.63z"/>
			</g>
			<g>
				<path class="st98" d="M137.53,293.47c-0.17,1.81-0.92,3.51-2.02,4.95c-5.9,7.71-14.99,12.85-24.62,14.02
					c-8.85,1.07-18.08-1.23-25.39-6.34c-2.93-2.05-5.57-4.53-8.73-6.19c-3.16-1.66-7.1-2.4-10.27-0.75
					c-2.26,1.18-3.79,3.36-5.27,5.44s1.19,8.72-5.26,10.37c-2.77,0.71-4.25-0.84-5.18-2.78c-0.93-1.94-3.18-2.79-5.13-1.89
					c-3.72,1.71-8.58,2.39-8.58,2.39l-2.21-35.14c0,0-1.35-20.06,4.97-15.45c0.62,0.45,1.1,1.04,1.44,1.72
					c1.49,2.94,0.5,6.33,1.44,9.36c1.31,4.24,6.06,6.54,10.49,6.83s8.81-0.92,13.23-1.28c19.12-1.55,37.48,12.66,56.31,9
					c2.43-0.47,4.83-1.24,7.31-1.3c1.06-0.02,2.17,0.12,3.19,0.44C135.82,287.72,137.88,289.76,137.53,293.47z M43.09,404.74
					l1.22,18.46c-0.18-0.26,5.89,3.84,8.88,4.45c3.76,0.77,7.23-1.92,10.56-3.81c7.14-4.06,16.05-4.85,23.79-2.11
					c3.24,1.15,6.95,2.86,9.89,1.06c3.23-1.98,3.03-6.62,4.25-10.2c1.4-4.12,5.28-7.28,9.59-7.83c1.9-0.24,3.86-0.02,5.73-0.44
					c1.87-0.43,3.76-1.79,3.9-3.7c0.11-1.5-0.92-2.91-2.22-3.65c-1.31-0.74-2.85-0.94-4.35-1.01c-8.03-0.42-15.91,2.01-23.92,2.67
					c-8.01,0.66-17.06-0.99-21.81-7.48c-1.35-1.85-2.27-3.98-3.61-5.84c-1.34-1.86-3.28-3.49-5.57-3.62
					c-2.51-0.14-4.82,1.62-6.06,3.8s-1.61,4.74-1.93,7.23c-0.03-0.01-0.05-0.02-0.08-0.03C45.19,390.22,43.09,404.74,43.09,404.74z
					 M257.57,317.65c-2.38,0.33-4.87,0.27-7.24,0c-5.14-0.56-10.27-1.87-15.4-1.26c-14.07,1.69-23.49,17-37.53,18.89
					c-7.47,1-14.97-2.04-22.49-1.48c-10.16,0.75-7.51,9.23-15.97,14.9c-5.26,3.53-13.58,2.35-19.57,2.65
					c-5.16,0.25-11,0.71-15.55,3.38c-2.91,1.71-4.88,5.35-4.57,8.73c0.48,5.16,4.94,5.42,9.28,5.1c12.01-0.89,23.92-3.14,35.43-6.71
					c6.67-2.07,13.25-4.58,20.15-5.63s14.33-0.52,20.26,3.17c8.16,5.07,11.88,14.9,14.36,24.18c0.71,2.66,1.39,5.39,2.94,7.66
					c1.54,2.27,4.18,4.03,6.91,3.72c2.7-0.31,4.85-2.58,5.87-5.11c1.02-2.53,1.13-5.31,1.33-8.02c0.56-7.72,1.87-15.38,3.92-22.85
					c1.65-6.03,4.49-12.65,10.4-14.67c7.12-2.43,14.67,3.47,17.75,10.33c1.29,2.88,2.12,6.02,4.05,8.51
					c1.93,2.49,5.47,4.16,8.27,2.73c2.28-1.17,6.02-8.06,6.02-8.06l2.41-36.29c0,0-0.67-11-2.41-14.07
					c-1.74-3.08-5.15-5.46-8.64-4.96c-5.87,0.84-7.93,8.25-12.46,12.06C262.95,316.34,260.34,317.27,257.57,317.65z"/>
			</g>
			<g>
				<path class="st99" d="M260.16,505.94c2.72-2.59,5.58-5.03,8.57-7.3c1.06-0.8,8.52-4.87,8.58-5.78
					c-2.88,43.83-4.97,75.56-5.13,76.66c-2.4,16.42-3.81,32.3-21,41.33c-13.26,6.96-28.44,10.61-43.54,12.32
					c-41.3,4.67-139.28,8.3-150.54-40.68c-4.61-20.05-5.41-40.57-6.38-61.04c8.43-2.33,17.7-5.74,22.99,2.89
					c4.6,7.5,9.99,7.14,16.46,1.74c8.02-6.7,11.98-1.65,20.6-0.33c1.94,0.3,4.25,0.23,5.44,1.79c0.78,1.01,0.79,2.47,0.26,3.64
					c-1.2,2.66-4.18,3.51-6.58,4.69c-5.69,2.78-4.59,7.68-2.14,12.42c2.08,4.02,3.2,11.15,8.09,12.46
					c4.92,1.32,9.78-3.92,12.22-7.61c2.52-3.81,3.96-8.24,6.17-12.23c3.32-5.99,8.17-9.67,12.61-14.63c1.9-2.12,3.86-4.28,6.4-5.55
					c7.69-3.86,11.54,4.8,13.03,10.87c1.29,5.29,3.07,15.07,10.84,11.88c2.02-0.83,3.71-2.29,5.55-3.48
					c7.09-4.57,14.98-4.72,21.77-0.19c5.06,3.37,10.77,5.94,16.6,7.64c11.17,3.24,25.44,2.78,28.15-11.07
					c1.1-5.64-0.04-11.1,1.95-16.75c0.29-0.84,0.62-1.66,0.99-2.47C254.01,512.93,256.81,509.13,260.16,505.94z M150.55,352.71
					c0.84,0.26,1.76,0.33,2.72,0.16c1.94-0.35,3.64-1.49,5.21-2.7c3.51-2.7,6.7-5.84,10.38-8.3c3.69-2.47,8.05-4.26,12.46-3.83
					c4,0.39,7.57,2.54,11.24,4.18c3.67,1.64,7.97,2.78,11.64,1.14c3.62-1.62,5.62-5.47,7.34-9.05c1.58-3.28,3.16-7.16,1.5-10.39
					c-1.17-2.29-3.66-3.55-5.98-4.66c-2.29-1.09-4.81-2.21-7.27-1.6c-4.72,1.18-5.92,7.59-10.02,10.21
					c-3.09,1.97-7.08,1.37-10.73,1.11c-8.89-0.62-17.94,1.31-25.8,5.51c-3.07,1.64-6.1,3.78-7.55,6.95
					C143.88,345.42,146.35,351.41,150.55,352.71z M67.79,418.99c-3.02,1.49-6.48,2.7-4.5,6.51c1.47,2.83,4.94,4.5,8.01,4.71
					c4.23,0.29,8.31-1.36,12.34-2.68c4.03-1.32,8.49-2.31,12.43-0.75c2.74,1.08,4.86,3.26,7.14,5.12c2.28,1.86,5.07,3.5,7.99,3.16
					c4.37-0.5,6.94-4.95,9.91-8.2c7.08-7.77,19.87-9.53,28.79-3.96c1.93,1.2,3.67,2.69,5.68,3.74c2.01,1.05,4.43,1.63,6.56,0.85
					c3.23-1.18,4.7-5.29,3.76-8.6c-0.94-3.31-3.74-5.81-6.8-7.37c-3.07-1.56-6.45-2.36-9.71-3.46c-6.72-2.26-12.98-5.86-18.32-10.52
					c-2.53-2.21-5.42-4.84-8.73-4.26c-3.52,0.63-5.39,4.57-8.53,6.28c-1.92,1.04-4.17,1.18-6.3,1.64c-2.13,0.47-4.38,1.46-5.28,3.45
					c-0.78,1.73-0.35,3.83-1.19,5.53c-1.42,2.86-5.35,3-8.55,3.01c-1.85,0-3.71,0.1-5.55,0.29
					C80.3,414.17,73.78,416.04,67.79,418.99z"/>
			</g>
			<g>
				<path class="st93" d="M20.1,189.69c-0.94-5.07,0.25-11.22,4.83-13.58c3.44-1.77,8.19-1.09,10.7-4.05
					c3.61-4.25-0.57-12.49,4.06-15.59c1.17-0.78,2.64-0.96,4.05-1.04c10.67-0.6,23.08,2.74,30.87-4.58c1.71-1.6,3.15-3.71,5.4-4.37
					c6.25-1.83,10.94,8.72,17.28,7.2c5.32-11.05,10.65-22.1,15.97-33.15c0.93-1.93,1.93-3.95,3.67-5.2c1.91-1.37,4.4-1.61,6.75-1.67
					c8.07-0.21,16.17,1.03,23.8,3.66c6.27,2.15,13.02,5.25,19.21,2.9c4.88-1.85,8.04-6.69,12.72-9c8.33-4.12,18.08,0.84,27.36,1.33
					c11.53,0.61,23.06-6.68,27.46-17.36c3.66-8.9,3.34-20.46,11.26-25.92c7.58,2.14,11.63,10.27,14.01,17.78
					c2.38,7.51,4.38,15.82,10.55,20.71c5.91,4.7,14.96,5.58,18.81,12.08c4.24,7.15-0.52,16-1.76,24.22
					c-1.98,13.09,5.4,25.71,13.6,36.1c3.08,3.9,6.4,7.82,7.84,12.58c1.46,4.84,0.83,10.04,0.18,15.06
					c-1.28,9.85-6.62,47-15.34,51.76c-34.83,19.02-53.55-6.9-63.56-2.45c-7.07,3.15-11.31,11.25-15.99,17.42
					c-18.23,24.07-26.76,4.48-39.27,5.3c-21.83,1.44-4.36-25.31-25.26-18.84c-40.27,12.46-49.98-21.86-54.33-7.58
					c-4.82,15.82-6.41,17.17-24.23,8.54c-6.32-3.06,0.15,2.56-25.21,7.35c-27.65,5.22-17.1-24.13-21.32-54.16
					C22.87,205.78,21.8,198.8,20.1,189.69z"/>
			</g>
			<g>
				<path class="st97" d="M249.59,188.21c-1.78,1.64-5.17,2.56-7.91,1.74c-1.8-0.53-3.03-1.68-4.07-2.81
					c-1.96-2.15-4.85-5.27-5.19-7.85c-0.29-2.16,1.58-3.94,3.42-5.76c3.86-3.81,9.18-6.95,15.31-8.96c1.9-0.62,3.92-1.17,5.44-2.17
					c1.51-1,2.38-2.63,1.39-3.9c-0.93-1.19-3.35-1.97-3.13-3.32c0.2-1.23,2.49-1.71,4.3-1.61c1.81,0.1,3.78,0.46,5.35-0.16
					c2.36-0.94,2.06-3.28,1.46-5.09c-1.51-4.52-2.44-9.48-4.81-13.81c1.3-0.54,3.73-0.47,5.23-0.01c1.9,0.59,3.51,1.74,4.44,3
					c0.97,1.32,1.41,2.76,1.61,4.23c0.16,1.18,0.17,2.39,0.19,3.57c0.04,2.66,0.2,5.45,2.2,7.73c1.3,1.48,3.29,2.64,4.62,4.1
					c1.34,1.47,1.87,3.53,0.2,4.83c-1.86,1.45-5.19,1.15-8.02,1.19c-9.49,0.14-17,5.25-23.41,10c-1.81,1.34-3.66,2.72-4.61,4.42
					s-0.82,3.81,1.03,5.12L249.59,188.21z M61.1,185.27c3.87,10.19,12.8,1.89,11.59-6.69c-0.57-4.01-2.6-7.64-4.6-11.15
					c-1.75-3.08-3.31-7.47-0.55-9.7c1.3-1.05,3.12-1.12,4.79-1.14c10.01-0.12,22.09,0.94,26.65,9.85c1.54,3.02,1.91,6.52,3.36,9.59
					c1.45,3.07,4.71,5.81,7.97,4.86c4.32-1.25,4.64-7.13,4.38-11.62c-0.51-8.82,0.14-17.71,1.94-26.36
					c0.32-1.53,0.78-3.21,2.12-4.03c1.45-0.89,3.3-0.38,5-0.27c6.7,0.42,12.46-5.81,19.16-5.42c7.82,0.45,12.53,7.03,18.84,11.67
					c4.62,3.4-0.84,3.58,2.02,8.55c1.16,2.02,10.18,1.47,10.59,3.76c1.99,11.07,0.72,6.75-2.6,17.49
					c-1.15,3.71-10.47,9.39-9.75,13.21c0.72,3.82-0.32,14.54,7.51,8.91c1.66-1.19,11.62-9.02,12.46-12.95
					c2.24-10.44-2.75-8.25-0.96-16.8c1.76-8.39,8.96-8.88,7.84-17.38c-0.98-7.5-3.78-9.11-10.29-12.96
					c-4.04-2.38-9.65-4.35-7.34-8.43c1.02-1.79,3.16-2.56,5.13-3.17c13.7-4.17,27.84-6.92,42.1-8.18c1.85-0.16,3.8-0.33,5.33-1.38
					c1.54-1.04,2.43-3.29,1.38-4.81c-0.88-1.28-2.64-1.52-4.19-1.65c-11.02-0.9-20.96-4.28-31.98-5.19
					c-4.64-0.38-15.55-3.16-19.66-0.96c-4.65,2.49-3.39,13.05-8.62,12.35c-2.58-0.35-4.64-2.23-6.82-3.65
					c-9.95-6.44-23.02-3.34-34.4-0.02c-4.38,1.28-9.03,2.72-11.98,6.2c-2.66,3.14-3.48,7.4-4.29,11.44
					c-0.81,4.04-1.82,8.3-4.74,11.21s-8.36,3.66-10.94,0.44c-0.8-1-1.25-2.28-2.2-3.14c-2.87-2.63-7.29,0.18-10.29,2.66
					c-7.31,6.04-12.09,13.17-25.15,14.98C56.55,165.97,56.96,174.37,61.1,185.27z"/>
			</g>
			<g>
				<path class="st98" d="M100.74,121.96c0.73-3.61,1.34-7.6,4.13-10c3.17-2.72,7.86-2.31,11.91-3.32c5.2-1.3,9.55-5.07,14.78-6.23
					c14.31-3.18,17.27,3.38,31.68,0.7c2.79-0.52,3.67-2.91,7.96-3.81c3.86-0.81,7.89,0.25,11,2.69c4.93,3.88,9.05,6.62,5.38,10.39
					c-1.2,1.23-3.35,0.61-5.07,0.67c-3.96,0.16-11.75-0.3-15.36,1.32c-5.26,2.35-7.92,10.35-12.89,7.42
					c-2.45-1.45-5.12-5.72-7.14-7.73c-3.67-3.66-9.41-4.56-14.5-3.59s-9.71,3.56-14.22,6.1c-3.72,2.09-7.7,4.48-9.26,8.45
					c-1.47,3.75-0.42,8.09-1.69,11.9c-1.2,3.61-4.28,6.23-7.22,8.65c-2.19,1.8-4.37,3.6-6.56,5.4c-1.43,1.18-5.71,3.94-6.76,0.97
					c-0.59-1.68,3.73-5.61,4.58-6.86C96.11,138.26,99.12,130.01,100.74,121.96z M248.89,104.91c-2.62,4.11-2.41,9.48-4.66,13.81
					c-1.73,3.34-4.95,5.88-8.6,6.8c-2.24,0.56-4.82,0.65-6.38,2.34c-1.01,1.09-1.36,2.64-2.18,3.88c-1.84,2.78-5.52,3.49-8.45,5.08
					c-4.03,2.18-6.75,6.17-8.85,10.25c-2.1,4.07-3.76,8.41-6.46,12.12c-1.81,2.5-4.2,5.03-4.02,8.11c0.17,2.98,2.66,5.2,4.46,7.59
					c3.56,4.72,4.66,11.19,2.86,16.82c-1.81,5.63-6.47,10.25-12.11,12.01c-1.02,0.32-2.09,0.56-2.97,1.15
					c-0.89,0.6-1.56,1.67-1.31,2.71c5.9,0.53,12.7,0.74,16.74-3.59c1.39-1.49,2.27-3.37,3.07-5.24c3.42-8.06,5.5-17.56,1.58-25.38
					c-1.07-2.14-2.61-4.23-2.53-6.62c0.09-2.72,2.22-4.87,4.25-6.68c2.95-2.61,6.05-5.2,7.95-8.65c1.38-2.52,2.24-5.62,4.76-7.01
					c3.57-1.97,7.76,0.73,11.4,2.57c1.17,0.59,2.46,1.11,3.76,0.92c2.16-0.32,3.55-2.43,4.48-4.41c3.04-6.51,4.16-13.91,3.19-21.03
					c-0.31-2.24-0.58-5.04,1.33-6.26c0.55-0.35,1.22-0.5,1.74-0.9c0.8-0.6,1.11-1.63,1.33-2.6c1.32-5.79,1-11.94-0.91-17.56
					c-1.51,1.64-2.67,3.61-3.38,5.74L248.89,104.91z M150.96,130.08c-7.59,1.51,7.77,15.43,9.56,20.17
					c2.74,7.28-11.65,6.29-4.52,18.24c0.59,0.99,1.33,2.39,2.37,1.92c4.11-1.36,2.31-7.14,5.23-7.2c2.92-0.06,7.63,3.4,10.11,1.86
					c3.09-1.91,3.67-6.08,3.87-9.71c0.06-1.03,0.1-2.1-0.3-3.05c-0.78-1.86-3.04-2.82-3.65-4.73c-0.33-1.02-0.11-2.15-0.37-3.19
					c-0.68-2.82-4.11-3.73-6.83-4.73C161.31,137.8,156.33,129.02,150.96,130.08z"/>
			</g>
			<g>
				<g>
					<path class="st94" d="M141.99,177.43c-7.56,6.83-14.14,14.78-21.36,22.18c2.59,7.29,5.4,14.96,7.42,22.77
						c0.75-0.3,1.43-0.83,2.05-1.37c6.4-5.58,11.17-13.99,19.45-15.85c0.8-0.18,1.77-0.42,2.01-1.2c0.12-0.38,0.01-0.79-0.09-1.18
						c-1.54-5.76-3.09-11.51-4.63-17.27c-0.49-1.81-0.99-3.66-2.03-5.23C144.04,179.18,143.05,178.26,141.99,177.43z"/>
				</g>
				<g>
					<path class="st94" d="M312.91,192.05c-11.4-1.56-23.03,0.65-34.31,1.09c0,0-2.86,12.76-3.49,16.94
						c-0.49,3.26-0.94,7.9-1.12,9.78c1.22,0.25,2.55-0.67,3.62-1.47c3.84-2.86,8.48-4.65,13.25-5.11c2.29-0.22,4.76-0.19,6.65-1.51
						c1.88-1.31,2.71-3.63,3.74-5.67c1.88-3.7,4.78-6.88,8.3-9.09c1.39-0.87,3.02-1.78,3.39-3.39
						C313.06,193.1,313.03,192.57,312.91,192.05z"/>
				</g>
				<g>
					<path class="st94" d="M268.03,187.19c-0.01-0.02-0.04-0.04-0.05-0.06c-5.58,4.59-10.87,10.05-17.7,10.48
						c1.28,7.31,3.14,14.48,4.98,21.65c0.19-0.14,0.37-0.3,0.53-0.46c2.91-2.82,5.88-6.02,10.01-7.02c1.41-0.34,3.14-0.56,3.78-1.71
						c0.29-0.52,0.26-1.1,0.21-1.65c-0.6-6.4-3.93-12.68-1.88-19.02C268.16,188.65,268.46,187.82,268.03,187.19z"/>
				</g>
				<g>
					<path class="st94" d="M66.87,199.26c-2.36-4.08-3.77-8.7-4.1-13.4c-0.04-0.5-0.07-1.01-0.15-1.5
						c-3.77,3.59-7.36,7.23-11.72,8.17c-0.29,0.07-0.59,0.13-0.88,0.19c-0.33,8.69,1.49,17.04,5.45,24.66
						c0.14-0.14,0.28-0.27,0.42-0.41c3.9-3.91,7.6-8,11.1-12.27c0.41-0.5,0.82-1.02,1-1.64C68.34,201.75,67.55,200.44,66.87,199.26z
						"/>
				</g>
				<g>
					<path class="st94" d="M100.74,214.69c2.22-1.66,4.75-3.29,5.8-5.94c0.88-2.23,0.48-4.65,0.07-6.9
						c-0.48-2.63-0.96-5.26-1.44-7.89c-0.07-0.36-0.14-0.72-0.26-1.06c-4.15,6.96-7.96,13.99-13.58,15.58
						c-1.07,6.37-2.36,12.65-3.83,18.92C92.4,225.79,95.04,218.96,100.74,214.69z"/>
				</g>
				<g>
					<path class="st94" d="M245.43,114.38c-7.07,1.3-13.95,3.64-21.03,5.41c-1.14,5.33-2.29,10.98-3.97,16.41
						c0.56,0.1,1.16,0.03,1.73-0.06c5.9-0.98,11.88-4.27,17.54-2.32c0.55,0.19,1.22,0.4,1.65,0.02c0.21-0.19,0.3-0.47,0.38-0.74
						c1.2-4.03,2.4-8.05,3.61-12.08c0.38-1.27,0.76-2.57,0.71-3.89C246.01,116.19,245.76,115.27,245.43,114.38z"/>
				</g>
				<g>
					<path class="st100" d="M141.99,177.43c-0.58-0.46-1.19-0.89-1.79-1.32c-5.84-4.16-11.67-8.32-17.51-12.48
						c-5.84,7.82-13.03,14.62-21.16,20.02c-0.28,0.19-0.56,0.38-0.85,0.58c-1.28,0.91-2.5,1.98-2.76,3.49
						c-0.17,0.97,0.11,1.96,0.39,2.91c1.36,5.79,2.71,16.06,6.06,20.95c4.04,5.89,13.33,7.72,19.78,10.36
						c0.95,0.39,1.95,0.79,2.97,0.68c0.32-0.04,0.62-0.12,0.92-0.24c-2.02-7.81-4.83-15.48-7.42-22.77
						C127.85,192.21,134.42,184.26,141.99,177.43z"/>
				</g>
				<g>
					<path class="st100" d="M312.41,190.48c-2.23-5.88-4.47-11.76-6.7-17.65c-0.19-0.51-0.41-1.05-0.88-1.33
						c-0.42-0.25-0.95-0.23-1.44-0.2c-11.02,0.69-22.05,1.39-33.07,2.08c-0.38,0.02-0.75,0.05-1.13,0.07
						c-0.46,0.03-0.96,0.07-1.32,0.35c-0.38,0.29-0.55,0.79-0.69,1.25c-1.29,4.19-2.57,8.38-3.86,12.57
						c-0.81,2.65-3.51,7.02-3.48,9.7c0.07,5.94,9.14,15.78,12.29,20.85c0.36,0.58,0.75,1.18,1.35,1.5c0.17,0.09,0.34,0.15,0.52,0.18
						c0.17-1.89,0.62-6.53,1.12-9.78c0.63-4.18,3.49-16.94,3.49-16.94c11.28-0.43,22.91-2.64,34.31-1.09
						C312.8,191.51,312.6,190.99,312.41,190.48z"/>
				</g>
				<g>
					<path class="st100" d="M266.97,186.45c-6.65-3.2-13.59-5.97-20.77-8.29c-1.33-0.43-2.74-0.85-4.2-0.66
						c-1.68,0.23-3.13,1.23-4.47,2.2c-3.46,2.48-6.91,4.96-10.37,7.44c-0.17,0.12-0.34,0.24-0.51,0.36
						c-0.45,0.32-0.93,0.68-1.11,1.15c-0.2,0.51-0.02,1.05,0.15,1.54c2.01,5.52,3.91,11.16,6.04,16.61
						c1.96,5.01,5.26,6.36,10.97,8.56c3.5,1.35,7,2.69,10.5,4.04c0.38,0.15,0.79,0.3,1.22,0.24c0.31-0.04,0.58-0.18,0.82-0.36
						c-1.85-7.17-3.7-14.34-4.98-21.65c6.82-0.43,12.12-5.89,17.7-10.48C267.73,186.83,267.35,186.63,266.97,186.45z"/>
				</g>
				<g>
					<path class="st100" d="M50.01,192.72c-0.24,0.05,0.36-0.07,0.88-0.19c4.36-0.93,7.95-4.58,11.72-8.17
						c-0.1-0.59-0.28-1.15-0.65-1.61c-0.59-0.75-1.55-1.09-2.46-1.37c-5.87-1.83-12.03-2.69-18.17-2.55
						c-1.31,0.03-2.68,0.12-3.83,0.74c-0.99,0.53-1.75,1.41-2.47,2.28c-3.35,4.03-6.24,6.82-6.58,11.24
						c-0.08,1.04-0.02,2.16,0.21,3.42c1.31,7.16,3.38,14.17,6.21,20.88c0.14,0.33,0.29,0.68,0.59,0.88
						c0.28,0.19,0.64,0.22,0.99,0.24c4.48,0.27,8.95,0.54,13.43,0.82c1.02,0.06,2.06,0.12,3.03-0.2c0.99-0.33,1.81-1.01,2.56-1.75
						C51.5,209.76,49.68,201.41,50.01,192.72z"/>
				</g>
				<g>
					<path class="st100" d="M104.91,192.89c-0.08-0.24-0.19-0.46-0.34-0.65c-0.36-0.44-0.89-0.66-1.41-0.86
						c-6.42-2.51-12.84-5.02-19.26-7.53c-1.57-0.61-3.13-1.22-4.7-1.84c-0.43-0.17-0.89-0.33-1.35-0.17
						c-0.61,0.22-0.95,0.93-1.23,1.56c-2.44,5.03-5.55,10.3-8.19,15.36c-3.21,6.12-5.73,11.91-5.53,16.52
						c0.24,5.72,14.32,10.07,19.14,11.82c2.16,0.79,3.93,0.8,5.47,0.29c1.46-6.27,2.75-12.55,3.83-18.92c0,0,0,0,0,0
						C96.95,206.88,100.76,199.85,104.91,192.89z"/>
				</g>
				<g>
					<path class="st100" d="M244.84,112.93c-1.96-4.66-3.93-9.31-5.89-13.97c-6.4,2.53-13.23,3.95-20.11,4.19
						c-0.24,0.01-0.48,0.02-0.72,0.03c-1.11,0.07-2.23,0.26-2.94,1.07c-0.46,0.52-0.66,1.22-0.85,1.89
						c-1.33,3.98-4.31,10.64-4.11,14.82c0.24,5.03,5.15,9.56,8.04,13.54c0.43,0.59,0.88,1.2,1.53,1.51c0.2,0.1,0.42,0.16,0.64,0.2
						c1.68-5.43,2.83-11.08,3.97-16.41c7.08-1.77,13.96-4.11,21.03-5.41C245.25,113.89,245.04,113.41,244.84,112.93z"/>
				</g>
			</g>
			<g class="st11">
				<g>
					<path class="st12" d="M322.03,224.11c0,0,4.8-9.78,1.18-15.77c-10.8-17.86-30.62,1.88-65.82,4.04
						c-9.03,0.55-18.08,1.17-26.8,1.8c-55.38,4-111.04,3.49-166.31-1.67c-0.45-0.04-0.9-0.08-1.35-0.13
						c-38.82-3.66-48.05-18.62-60.06-3.49c-4.3,5.41,2.67,18.35,2.67,18.35s65,15.37,161.52,15.85
						C271.03,243.6,322.03,224.11,322.03,224.11z"/>
				</g>
			</g>
			<g>
				<path class="st84" d="M278.32,470.28c-3.63-3.91-7.82-4.81-12.77-2.83c-3.11,1.24-6.05,3.06-8.12,5.69
					c-2.07,2.62-3.18,6.12-2.47,9.39c0.86,3.96,4.14,7.02,7.74,8.88c4.88,2.52,10.92,0.64,14.92-3.25
					c0.37-5.62,0.75-11.42,1.14-17.37C278.61,470.62,278.48,470.45,278.32,470.28z"/>
				<path class="st84" d="M112.54,569.51c-5.04-1.65-10.48-2.42-15.67-1.33c-5.19,1.09-10.09,4.22-12.55,8.92
					c-2.97,5.7-2.09,12.75,0.41,18.67c7.27,17.25,41.79,15.29,40.48-9.84C124.78,577.48,120.59,572.13,112.54,569.51z
					 M112.33,593.99c-4.79,1.04-11.14-4.4-12.87-8.49c-0.62-1.46-0.88-3.07-0.77-4.62c0.14-1.89,0.84-3.7,2.13-5.06
					c3.97-4.18,12.01-1.56,15.31,2.58C120.45,584.49,119.26,592.49,112.33,593.99z"/>
				<path class="st84" d="M211.39,490.48c4.91,5.29,10.21,6.77,16.18,4.65c3.74-1.33,7.21-3.42,9.52-6.6
					c2.31-3.18,3.34-7.55,2.12-11.78c-1.48-5.12-5.87-9.29-10.54-11.95C215.07,457.05,196.78,474.76,211.39,490.48z"/>
				<path class="st84" d="M138.25,548.37c-8.96,0-13.94,8.96-11.95,17.93c2.99,7.97,11.95,12.95,19.92,10.96
					c6.97-1.99,10.96-9.96,11.17-17.31c-0.1-2.19-0.85-4.17-2.06-5.86C151.2,548.37,144.23,547.37,138.25,548.37z"/>
				<path class="st84" d="M170.45,477.86c-1.31,4.5-0.09,8.05,3.63,10.89c2.33,1.78,5.03,3.17,7.94,3.55
					c2.91,0.38,6.04-0.37,8.18-2.37c2.59-2.43,3.41-6.28,3.19-9.83C192.73,469.76,174.34,464.5,170.45,477.86z"/>
				<path class="st84" d="M149.29,500.76c-3.53,0.63-7.19,2.46-9.89,4.83c-1.96,1.71-3.66,3.68-5.03,5.8
					c-3.67-4.68-10.89-6.29-17.79-4.85c-10.33,2.16-15.02,17.82-8.36,25.42c4.71,4.71,15.41,7.49,22.17,3.73
					c1.33-0.74,2.43-1.75,3.35-2.93c9.15,12.74,29.78,12.28,38.94-0.55c4.79-6.71,3.93-15.02-0.94-21.42
					c-1.99-2.61-4.75-5.01-7.88-6.83C159.36,501.33,154.09,499.9,149.29,500.76z M169.36,524.62c-0.99,3.51-4.52,6.36-8.14,5.88
					c-2.24-0.3-4.17-1.74-5.65-3.44c-4.46-5.13-5.18-17.56,0.38-19.51c1.7-0.59,3.98-0.21,6.92,1.65
					C167.73,512.28,170.97,518.92,169.36,524.62z"/>
				<path class="st84" d="M108.89,487.56c4.75-6.66,3.9-14.91-0.94-21.26c-1.97-2.59-4.71-4.97-7.82-6.78
					c-4.47-2.61-9.7-4.03-14.47-3.17c-3.51,0.63-7.13,2.45-9.82,4.79c-7.55,6.61-11.33,16.99-6.61,25.48
					C77.74,500.77,99.45,500.77,108.89,487.56z M102.94,481.89c-3.39,1.61-9,0.32-13.25-3.07c-4.18-3.33-6.07-7.44-5.99-10.81
					c0.11-4.32,3.49-7.41,9.47-6.02c4.72,1.09,9.77,5.11,11.92,9.49C107.24,475.87,106.33,480.27,102.94,481.89z"/>
				<path class="st84" d="M170.79,603.12c0.64-4.38-1.54-8.77-4.5-12.06c-8.65-9.57-30.67-0.46-24.11,15.59
					c2.21,5.4,6.14,7.93,11.98,7.81c3.65-0.07,7.37-0.81,10.5-2.69S170.26,606.73,170.79,603.12z"/>
				<path class="st84" d="M204.62,566.67c-1.75-2.3-4.18-4.41-6.94-6.02c-3.97-2.31-8.61-3.57-12.84-2.82
					c-3.11,0.56-6.33,2.17-8.71,4.25c-6.7,5.86-10.05,15.08-5.86,22.62c7.54,12.57,26.81,12.57,35.19,0.84
					C209.67,579.64,208.91,572.32,204.62,566.67z M199.02,584.14c-6.07,2.7-12.82-3.37-14.37-8.91c-0.23-0.97-0.33-2-0.24-3.06
					c2.47-6.25,10.56-8.95,15.96-4.23C205.09,572.68,205.09,580.77,199.02,584.14z"/>
				<path class="st84" d="M127.03,452.51c-13.63,10.11-4.01,35.45,17.96,27.69C170.26,471.27,149.42,435.9,127.03,452.51z"/>
				<path class="st84" d="M85.9,564.16c4.06-1.6,7.87-4,10.45-7.5c2.58-3.5,3.82-8.21,2.63-12.64c-1.44-5.38-6.04-9.6-10.99-12.2
					c-14.42-7.58-34.65,12.21-19.38,28.21C73.75,565.41,79.41,566.72,85.9,564.16z"/>
				<path class="st84" d="M207.73,431.58c-3.87-1.26-8.04-1.85-12.02-1.02s-7.74,3.23-9.62,6.84c-2.28,4.37-1.6,9.78,0.31,14.32
					c5.58,13.23,32.06,11.72,31.05-7.55C217.12,437.69,213.91,433.59,207.73,431.58z M208.81,449.7c-3.26,0.71-7.58-2.99-8.77-5.78
					c-0.42-0.99-0.6-2.09-0.52-3.15c0.09-1.29,0.57-2.52,1.45-3.45c2.7-2.84,8.18-1.06,10.43,1.76
					C214.33,443.23,213.52,448.68,208.81,449.7z"/>
				<path class="st84" d="M212.87,591.36c-1.31,4.5-0.09,8.05,3.63,10.89c2.33,1.78,5.03,3.17,7.94,3.55
					c2.91,0.38,6.04-0.37,8.18-2.37c2.59-2.43,3.41-6.28,3.19-9.83C235.15,583.25,216.76,577.99,212.87,591.36z"/>
				<path class="st84" d="M255.36,525.64c1.75-6.16,0.06-11.01-5.06-14.86c-3.21-2.41-6.92-4.29-10.9-4.78
					c-3.98-0.49-8.26,0.55-11.17,3.32c-2.15,2.05-3.39,4.81-3.96,7.75c-2.46-3.73-6.33-6.77-11.81-8.36
					c-15.75-4.58-32.89,14.18-22.48,30.19c2.31,3.56,5.64,6.32,9.34,8.09c4.48,2.15,9.51,2.84,13.94,1.73
					c8.31-2.07,13.46-9.79,14.24-18C234.83,538.77,251.27,540.03,255.36,525.64z M214.08,536.89c-4.55-0.75-8.8-7.9-9.28-12.2
					c-0.17-1.54,0.01-3.08,0.52-4.45c0.62-1.66,1.71-3.05,3.22-3.82c4.63-2.37,11.13,2.83,13,7.73
					C223.79,531.17,220.65,537.98,214.08,536.89z"/>
				<path class="st84" d="M76.5,512.28c-0.03-0.26-0.06-0.52-0.1-0.78c-2.01-13.07-20.18-15.13-26.52-5.49
					c0.34,5.37,0.61,10.76,0.87,16.15c0.76,1.01,1.66,1.92,2.67,2.69C62.96,532.06,77.67,524.27,76.5,512.28z"/>
				<path class="st84" d="M235.91,564.84c-2.22,7.64-0.16,13.67,6.17,18.49c3.96,3.02,8.55,5.38,13.49,6.02
					c4.94,0.64,10.26-0.62,13.89-4.03c0.03-0.03,0.06-0.06,0.09-0.09c0.61-2.67,1.1-5.41,1.53-8.2c-1.26,1.64-3.09,2.84-5.42,3.2
					c-4.23,0.65-8.36-4.25-8.93-7.8c-0.2-1.26-0.07-2.64,0.36-3.95c0.53-1.59,1.5-3.09,2.87-4.18c4.22-3.34,10.38-0.74,12.25,2.92
					c0.05,0.12,0.08,0.24,0.13,0.35c0.1-1.31,0.23-3.26,0.41-5.78C265.42,549.19,241.59,545.34,235.91,564.84z"/>
				<path class="st94" d="M155.95,507.54c-5.56,1.95-4.84,14.37-0.38,19.51c1.48,1.7,3.42,3.15,5.65,3.44
					c3.62,0.48,7.15-2.37,8.14-5.88c1.61-5.69-1.63-12.34-6.49-15.42C159.93,507.33,157.65,506.95,155.95,507.54z"/>
				<path class="st94" d="M200.97,437.33c-0.88,0.92-1.35,2.16-1.45,3.45c-0.08,1.06,0.1,2.16,0.52,3.15
					c1.18,2.79,5.5,6.49,8.77,5.78c4.71-1.02,5.52-6.47,2.59-10.62C209.15,436.27,203.67,434.48,200.97,437.33z"/>
				<path class="st94" d="M184.42,572.18c-0.09,1.06,0.01,2.08,0.24,3.06c1.55,5.53,8.3,11.6,14.37,8.91
					c6.07-3.37,6.07-11.47,1.35-16.19C194.98,563.23,186.88,565.93,184.42,572.18z"/>
				<path class="st94" d="M100.82,575.82c-1.29,1.36-1.99,3.17-2.13,5.06c-0.11,1.56,0.15,3.17,0.77,4.62
					c1.73,4.09,8.08,9.53,12.87,8.49c6.92-1.5,8.11-9.5,3.8-15.59C112.84,574.26,104.79,571.64,100.82,575.82z"/>
				<path class="st94" d="M93.16,461.99c-5.98-1.38-9.35,1.7-9.47,6.02c-0.09,3.36,1.8,7.47,5.99,10.81
					c4.25,3.38,9.86,4.68,13.25,3.07c3.39-1.61,4.3-6.02,2.15-10.4C102.93,467.1,97.89,463.08,93.16,461.99z"/>
				<path class="st94" d="M259.96,564.3c-1.37,1.09-2.35,2.58-2.87,4.18c-0.43,1.31-0.56,2.68-0.36,3.95
					c0.57,3.54,4.7,8.44,8.93,7.8c2.33-0.36,4.17-1.56,5.42-3.2c0.38-2.47,0.73-4.98,1.1-7.49c0.02-0.14,0.08-0.81,0.16-1.96
					c-0.04-0.12-0.08-0.24-0.13-0.35C270.34,563.56,264.18,560.96,259.96,564.3z"/>
				<path class="st94" d="M208.54,516.42c-1.51,0.77-2.6,2.16-3.22,3.82c-0.51,1.36-0.69,2.91-0.52,4.45
					c0.48,4.31,4.73,11.45,9.28,12.2c6.57,1.09,9.71-5.72,7.45-12.74C219.66,519.25,213.17,514.05,208.54,516.42z"/>
			</g>
		</g>
		<g id="Stroke_00000173153676627661900750000003848430046623352245_">
			<g>
				<path d="M33.46,445.53c-2.07-29.88-3.96-59.78-5.64-89.68c-0.48-8.47-0.94-16.95-1.39-25.42c-0.07-1.27-2.04-1.27-1.98,0
					c1.58,29.91,3.35,59.81,5.31,89.7c0.56,8.47,1.13,16.94,1.72,25.4C31.57,446.8,33.55,446.81,33.46,445.53L33.46,445.53z"/>
			</g>
			<g>
				<path d="M32.42,470.51c0.44,6.34,0.88,12.68,1.32,19.02c0.92,13.28,1.84,26.56,2.76,39.83c0.8,11.59,1.61,23.19,2.41,34.78
					c0.17,2.47,0.32,4.94,0.51,7.4c0.68,8.64,1.63,17.69,4.7,25.84c1.92,5.1,4.73,9.93,8.48,13.91c3.21,3.41,7.02,6.28,10.97,8.78
					c9.87,6.27,21.06,10.6,32.4,13.33c3.08,0.74,6.18,1.35,9.31,1.83c1.25,0.19,1.78-1.71,0.53-1.91
					c-12.09-1.88-24.01-5.61-34.86-11.29c-8.89-4.65-17.29-10.61-22.28-19.52c-5.19-9.27-6.35-20.3-7.25-30.72
					c-0.17-1.94-0.27-3.88-0.4-5.82c-0.76-10.91-1.51-21.81-2.27-32.72c-0.93-13.35-1.85-26.69-2.78-40.04
					c-0.52-7.46-0.94-14.94-1.55-22.39c-0.01-0.11-0.02-0.22-0.02-0.34C34.31,469.25,32.33,469.24,32.42,470.51L32.42,470.51z"/>
			</g>
			<g>
				<path d="M212.56,638.61c13.82-2.13,27.61-5.56,40.63-10.7c5.6-2.21,11.18-4.75,16.15-8.19c4.9-3.39,8.42-7.8,11.04-13.17
					c3.21-6.58,4.59-13.76,5.47-20.98c0.38-3.07,0.79-6.17,1-9.26c0.23-3.39,0.46-6.78,0.69-10.17c0.44-6.52,0.89-13.05,1.33-19.57
					c0.57-8.44,1.15-16.88,1.72-25.31c0.61-9,1.23-18,1.84-27c0.57-8.37,1.14-16.73,1.71-25.1c0.43-6.38,0.87-12.77,1.3-19.15
					c0.22-3.18,0.53-6.36,0.65-9.54c0.01-0.14,0.02-0.28,0.03-0.42c0.09-1.27-1.89-1.27-1.98,0c-0.15,2.17-0.29,4.33-0.44,6.5
					c-0.38,5.63-0.77,11.26-1.15,16.89c-0.54,7.9-1.08,15.8-1.61,23.7c-0.6,8.86-1.21,17.73-1.81,26.59
					c-0.59,8.66-1.18,17.32-1.77,25.98c-0.49,7.14-0.97,14.28-1.46,21.42c-0.3,4.44-0.6,8.88-0.91,13.32
					c-0.44,6.4-1.1,12.86-2.4,19.15c-1.47,7.09-4.16,14.37-9,19.88c-3.4,3.87-8.08,6.55-12.63,8.84
					c-12.23,6.15-25.8,9.89-39.16,12.63c-3.24,0.67-6.5,1.25-9.77,1.76C210.78,636.9,211.31,638.8,212.56,638.61L212.56,638.61z"/>
			</g>
			<g>
				<path d="M297.01,423.07c0.3-5.06,0.6-10.12,0.9-15.18c0.72-12.15,1.45-24.3,2.17-36.45c0.87-14.69,1.75-29.38,2.62-44.08
					c0.75-12.63,1.5-25.26,2.26-37.88c0.25-4.21,0.5-8.41,0.75-12.62c0.12-1.96,0.33-3.95,0.35-5.91c0-0.09,0.01-0.17,0.02-0.26
					c0.08-1.27-1.9-1.27-1.98,0c-0.3,5.06-0.6,10.12-0.9,15.18c-0.72,12.15-1.45,24.3-2.17,36.45c-0.87,14.69-1.75,29.38-2.62,44.08
					c-0.75,12.63-1.5,25.26-2.26,37.88c-0.25,4.21-0.5,8.41-0.75,12.62c-0.12,1.96-0.33,3.94-0.35,5.91c0,0.09-0.01,0.17-0.02,0.26
					C294.96,424.34,296.94,424.33,297.01,423.07L297.01,423.07z"/>
			</g>
			<g>
				<path d="M14.03,201.18c-2.81,0.01-5.8,1.12-8.06,2.73c-5,3.55-7.13,9.74-5.34,15.59c0.98,3.22,2.84,6.48,5.52,8.57
					c0.99,0.77,2.4-0.62,1.4-1.4c-2.71-2.12-4.54-5.47-5.31-8.79c-0.86-3.7,0.12-7.41,2.59-10.3c2.21-2.59,5.81-4.42,9.2-4.43
					C15.3,203.16,15.3,201.18,14.03,201.18L14.03,201.18z"/>
			</g>
			<g>
				<path d="M15.89,229.9c13.62,2.92,27.34,5.36,41.11,7.39c14.78,2.18,29.62,3.9,44.5,5.2c15.63,1.36,31.3,2.25,46.99,2.64
					c15.83,0.39,31.67,0.28,47.48-0.42c15.49-0.69,30.95-1.95,46.33-3.94c1.78-0.23,3.56-0.47,5.34-0.72
					c1.26-0.18,0.72-2.08-0.53-1.91c-15.2,2.13-30.51,3.51-45.83,4.33c-15.65,0.83-31.32,1.07-46.99,0.8
					c-15.59-0.26-31.16-1.03-46.7-2.26c-15.1-1.19-30.16-2.83-45.16-4.93c-13.82-1.94-27.58-4.27-41.25-7.09
					c-1.59-0.33-3.18-0.66-4.76-1C15.17,227.73,14.64,229.63,15.89,229.9L15.89,229.9z"/>
			</g>
			<g>
				<path d="M156.41,218.35c16.07,0.13,32.14-0.22,48.18-1.13c16.6-0.94,33.17-2.46,49.69-4.43c9.9-1.18,19.78-2.52,29.64-3.98
					c1.25-0.19,0.72-2.09-0.53-1.91c-17.21,2.54-34.48,4.71-51.8,6.31c-15.96,1.47-31.96,2.46-47.98,2.9
					c-9.06,0.25-18.13,0.33-27.2,0.25C155.14,216.36,155.13,218.33,156.41,218.35L156.41,218.35z"/>
			</g>
			<g>
				<path d="M322.39,225.22c1.56-2.33,2.88-4.71,3.39-7.5c0.48-2.63,0.37-5.39-0.52-7.93c-1.56-4.47-5.4-8.03-10.06-9.01
					c-1.24-0.26-1.77,1.64-0.53,1.91c4.11,0.87,7.52,3.98,8.8,7.99c0.71,2.22,0.8,4.61,0.32,6.89c-0.52,2.48-1.72,4.56-3.11,6.65
					C319.97,225.28,321.69,226.28,322.39,225.22L322.39,225.22z"/>
			</g>
			<g>
				<path d="M122.71,234.49c20.3,1.84,40.85,1.53,61.2,0.85c23.14-0.77,46.3-2.31,69.27-5.18c10.3-1.29,20.61-2.81,30.73-5.16
					c1.24-0.29,0.71-2.2-0.53-1.91c-19.73,4.59-40.15,6.52-60.31,8.1c-22.98,1.8-46.07,2.76-69.13,2.6
					c-10.42-0.07-20.86-0.34-31.24-1.29C121.44,232.4,121.45,234.37,122.71,234.49L122.71,234.49z"/>
			</g>
			<g>
				<path d="M72.37,230.89c12.37,1.61,24.8,2.74,37.28,3c1.27,0.03,1.27-1.95,0-1.98c-12.47-0.26-24.91-1.38-37.28-3
					C71.12,228.74,71.13,230.72,72.37,230.89L72.37,230.89z"/>
			</g>
			<g>
				<path d="M50.29,220.45c10.38,1.66,20.72,3.32,31.2,4.19c4.23,0.35,8.47,0.63,12.7,0.86c1.27,0.07,1.27-1.91,0-1.98
					c-11.62-0.66-23.16-1.74-34.65-3.57c-2.91-0.46-5.81-0.94-8.72-1.41C49.57,218.35,49.04,220.25,50.29,220.45L50.29,220.45z"/>
			</g>
			<g>
				<path d="M119.25,637.76c8.72,1.61,17.61,2.34,26.45,2.87c9.86,0.59,19.76,0.83,29.64,0.58c4.63-0.12,9.26-0.34,13.86-0.84
					c1.25-0.14,1.27-2.12,0-1.98c-8.73,0.95-17.56,1.02-26.33,0.89c-9.77-0.14-19.54-0.62-29.26-1.58
					c-4.63-0.45-9.25-1.01-13.83-1.86C118.53,635.63,118,637.53,119.25,637.76L119.25,637.76z"/>
			</g>
			<g>
				<path d="M289.44,158.2c-2.49-4.82-1.65-10.54-0.65-15.65c0.84-4.3,1.95-8.57,2.17-12.97c0.21-4.2-0.56-8.5-3.3-11.81
					c-3.23-3.91-8.25-5.41-12.5-7.88c-5.09-2.97-8.9-7.72-11.44-12.98c-0.55-1.15-2.26-0.14-1.71,1c2.19,4.55,5.3,8.64,9.3,11.75
					c4.02,3.13,9.17,4.42,13.09,7.67c7.53,6.22,3.96,16.94,2.41,25.02c-1.07,5.58-1.8,11.61,0.91,16.85
					C288.32,160.33,290.02,159.33,289.44,158.2L289.44,158.2z"/>
			</g>
			<g>
				<path d="M21.1,188.47c-0.03-3.89,0.82-8.06,3.91-10.7c2.5-2.14,5.67-1.84,8.61-2.85c3.08-1.06,4.1-3.59,4.35-6.68
					c0.1-1.29-0.07-2.59-0.08-3.89c-0.02-2,0.3-3.88,1.04-5.74c0.47-1.18-1.44-1.7-1.91-0.53c-0.71,1.78-1.07,3.64-1.11,5.55
					c-0.03,1.36,0.14,2.73,0.11,4.09c-0.04,1.56-0.3,3.68-1.66,4.67c-1.16,0.84-2.78,1.04-4.15,1.28c-3.22,0.56-5.93,1.56-8.02,4.22
					c-2.36,3.01-3.09,6.83-3.06,10.58C19.13,189.74,21.1,189.74,21.1,188.47L21.1,188.47z"/>
			</g>
		</g>
	</g>
</g>
</svg>
