<?xml version="1.0" encoding="utf-8"?>
<!-- Generator: Adobe Illustrator 26.1.0, SVG Export Plug-In . SVG Version: 6.00 Build 0)  -->
<svg version="1.1" xmlns="http://www.w3.org/2000/svg" xmlns:xlink="http://www.w3.org/1999/xlink" x="0px" y="0px"
	 viewBox="0 0 354.58 649.85" style="enable-background:new 0 0 354.58 649.85;" xml:space="preserve">
<style type="text/css">
	.st0{fill:#391F14;}
	.st1{fill:#682320;}
	.st2{fill:#D26F75;}
	.st3{fill:#FEEAE3;}
	.st4{fill:#F8E2E7;}
	.st5{fill:#E86E78;}
	.st6{fill:#F19299;}
	.st7{fill:#F4C3C9;}
	.st8{fill:#B3203B;}
	.st9{fill:#666633;}
	.st10{fill:#C74E69;}
	.st11{opacity:0.4;}
	.st12{fill:#FFFFFF;}
	.st13{fill:#FAEED5;}
	.st14{fill:#DCA455;}
	.st15{fill:#4F3021;}
	.st16{fill:#D69F53;}
	.st17{fill:#FCE3A2;}
	.st18{fill:#FFD480;}
	.st19{fill:#FBAF3C;}
	.st20{fill:#FDC363;}
	.st21{fill:#754A3C;}
	.st22{opacity:0.3;}
	.st23{fill:#DDEADB;}
	.st24{fill:#BCD3C2;}
	.st25{fill:#A3C6AC;}
	.st26{fill:#D8E5DA;}
	.st27{fill:#233328;}
	.st28{fill:#5C6B63;}
	.st29{fill:#82AD91;}
	.st30{fill:#D2DBD1;}
	.st31{fill:#7AA388;}
	.st32{opacity:0.5;}
	.st33{fill:#6C845F;}
	.st34{fill:#5E7553;}
	.st35{fill:#C1786C;}
	.st36{fill:#E7CCC2;}
	.st37{fill:#F8E7DA;}
	.st38{fill:#EAC8B6;}
	.st39{fill:#E3987F;}
	.st40{fill:#F2C4A8;}
	.st41{fill:#7A4D4B;}
	.st42{fill:#DE998E;}
	.st43{fill:#CC644C;}
	.st44{fill:#D88977;}
	.st45{fill:#D87C60;}
	.st46{fill:#F7E4D6;}
	.st47{fill:#8C4330;}
	.st48{fill:#D4695B;}
	.st49{fill:#F0D6BF;}
	.st50{fill:#C19160;}
	.st51{fill:#D8AA75;}
	.st52{fill:#915A26;}
	.st53{fill:#BC7C48;}
	.st54{fill:#5B361E;}
	.st55{fill:#7E4F23;}
	.st56{fill:#CE9957;}
	.st57{fill:#E2BA84;}
	.st58{fill:#22120A;}
	.st59{fill:#554E26;}
	.st60{fill:#F6ECF5;}
	.st61{fill:#DBB6D1;}
	.st62{fill:#F3E4E0;}
	.st63{fill:#996699;}
	.st64{fill:#E8D4E7;}
	.st65{fill:#C48BBD;}
	.st66{fill:#6F3670;}
	.st67{fill:#8F6191;}
	.st68{fill:#441946;}
	.st69{fill:#F3DAD0;}
	.st70{fill:#741112;}
	.st71{fill:#CC3333;}
	.st72{fill:#DE6D57;}
	.st73{fill:#C75044;}
	.st74{fill:#CA4536;}
	.st75{fill:#D25847;}
	.st76{fill:#F3E4DE;}
	.st77{fill:#E06865;}
	.st78{fill:#CC4746;}
	.st79{fill:#436137;}
	.st80{fill:#9A3332;}
	.st81{fill:#EDA99F;}
	.st82{fill:#CC6666;}
	.st83{fill:#E89B95;}
	.st84{fill:#2C1B10;}
	.st85{fill:#CCAAA2;}
	.st86{fill:#EFDFD9;}
	.st87{fill:#836759;}
	.st88{fill:#D1B7A6;}
	.st89{fill:#674E3D;}
	.st90{fill:#B0806D;}
	.st91{fill:#CDAA96;}
	.st92{fill:#967A67;}
	.st93{fill:#EBBC8B;}
	.st94{fill:#6B3715;}
	.st95{fill:#F7DEBC;}
	.st96{fill:#EFE4DA;}
	.st97{fill:#CC6E28;}
	.st98{fill:#B25827;}
	.st99{fill:#A54924;}
	.st100{fill:#9E6031;}
	.st101{fill:#DDDACC;}
	.st102{fill:#908B47;}
	.st103{fill:#AFAA7A;}
	.st104{fill:#7F7E5F;}
	.st105{fill:#8B693E;}
	.st106{fill:#8E4316;}
	.st107{fill:#DDDAB1;}
	.st108{fill:#8F9C58;}
	.st109{fill:#828E3C;}
	.st110{fill:#8E5852;}
	.st111{fill:#CA887F;}
	.st112{fill:#E3988D;}
	.st113{fill:#F2CAB9;}
	.st114{fill:#EDAB9A;}
	.st115{fill:#F2DDBB;}
	.st116{fill:#AC4D27;}
	.st117{fill:#E69F59;}
	.st118{fill:#F2DAAE;}
	.st119{fill:#DA7B38;}
	.st120{fill:#E9C1A4;}
	.st121{fill:#D58761;}
	.st122{fill:#55150F;}
</style>
<g id="Bg">
</g>
<g id="Graphic">
	<g id="Boba_5">
		<g id="Drink_00000157295080316037781080000004543508898862907539_">
			<g>
				<path class="st85" d="M51.88,565.53l0.09,0.03l0.05,29.38c0.02,12.45,4.13,32.5,10.56,35.36
					c56.28,25.04,180.5,27.11,228.39-0.02c6.23-3.53,11.32-22.95,11.32-35.43l0-29.25L51.88,565.53z"/>
			</g>
			<g>
				<path class="st86" d="M1.01,176.36c4.96,23.76,13.5,35,13.5,35s12.5,230.01,24.74,339.59c6.21,68.45,259.42,70.57,272.51,8.12
					c14.13-96.08,27.02-343.47,27.02-343.47s9.5-15.48,14.38-39.24C353.16,176.36,1.01,176.36,1.01,176.36z"/>
			</g>
			<g>
				<path class="st87" d="M43.49,244.27c0,0,25.44-14.55,133.95-14.55c108.33,0,134.75,15.62,134.75,15.62
					s-49.04,15.95-134.35,15.95C94.54,261.28,43.49,244.27,43.49,244.27z"/>
			</g>
			<g>
				<path class="st58" d="M250.39,170.39c-14.89,3.26-30.2,4.18-45.53,3.55l9.32,79.55c15.21-0.33,30.4-1.14,45.37-4.04
					L250.39,170.39z"/>
			</g>
			<g>
				<path class="st88" d="M339.13,216.51c0,0,9.5-15.48,14.38-39.24c0,0-352.15,0-352.15,0c4.96,23.76,13.5,35,13.5,35
					s44.98,26.09,162.21,26.09C298.79,238.37,339.13,216.51,339.13,216.51z"/>
			</g>
			<g>
				<path class="st89" d="M312.19,245.34c-33.23,8.83-63.11,13.31-104.09,14.35c-8.59,0.22-17.18,0.68-25.77,0.61
					c-21.86-0.16-43.71-1.12-65.46-3.04c0,0-38.22-2.56-73.38-12.99c4.16,40.08,15.56,273.51,21.68,297.07
					c11.55,44.45,115.81,41.16,158.16,36.92c15.49-1.55,32.56-4.86,46.16-11.18c17.64-8.2,19.08-22.61,21.54-37.51
					C291.51,526.66,307.21,305.09,312.19,245.34z"/>
			</g>
			<g>
				<ellipse class="st90" cx="177.44" cy="177.27" rx="176.08" ry="45.81"/>
			</g>
			<g>
				<ellipse class="st91" cx="177.44" cy="169.16" rx="138.3" ry="27.52"/>
			</g>
			<g>
				<g>
					<path class="st58" d="M250.39,170.39L229.82,3.65l-45.2,6.27l20.24,164.02C220.19,174.56,235.49,173.65,250.39,170.39z"/>
				</g>
				<g>
					
						<ellipse transform="matrix(0.9904 -0.1385 0.1385 0.9904 1.0564 28.7555)" class="st87" cx="207.22" cy="6.78" rx="22.81" ry="6.06"/>
				</g>
			</g>
			<g>
				<path class="st90" d="M121.92,458.41c-1.44,1.5-3.91,0.62-5.22,2.18c-1.47,1.22-1.57,2.9-1.61,4.48
					c-0.02,0.88-0.1,1.49-0.81,2.04c-0.55,0.43-1.34,1.02-0.57,1.78c0.62,0.61,1.57,0.69,2.18-0.04c0.69-0.81,1.44-0.86,2.35-0.65
					c2.31,0.53,4.51,0.41,6.18-1.53c1.52-1.77,0.73-3.82,0.13-5.58C124.17,460.03,122.83,459.29,121.92,458.41z"/>
				<path class="st90" d="M102.49,486.75c-0.95-1.51-4.67-1.2-6.26,0.54c-0.09,0.69-0.96,0.69-1.16,1.46
					c-0.54,1.97,1.65,4.14,4.22,4.01C102.32,492.61,104.09,489.3,102.49,486.75z"/>
				<path class="st90" d="M74.05,540.33c0.25,0.26,0.67,0.7,0.89,0.42c1-1.27,3.01-0.71,3.78-2.22c1.25-0.75,1.9-1.79,1.44-3.23
					c-0.25-0.76-4.03-2.6-4.78-2.38c-0.27,0.08-0.5,0.29-0.74,0.46C72.61,534.84,72.3,538.51,74.05,540.33z"/>
				<path class="st90" d="M106.82,508.74c0.6,0.28,1.66,0.41,2.07-0.21c1.25-1.89,2.78-1.44,4.52-0.97c0.69,0.19,1.89,0.41,2.3-0.7
					c0.38-1.06,0.54-2.18-0.68-3.02c-0.79-1.29-1.74-1.34-2.75-0.12c-0.56,0.67-1.27,1.07-2.13,0.83c-2.2-0.6-3.36,0.12-3.28,2.48
					C106.9,507.62,105.88,508.3,106.82,508.74z"/>
				<path class="st90" d="M85.16,445.8c-0.57-0.56-4.33-0.36-4.96,0.27c-0.56,0.55-0.37,4.48,0.25,5.15
					c0.61,0.66,3.54,0.64,4.3-0.04C86.03,450.05,86.27,446.89,85.16,445.8z"/>
				<path class="st90" d="M104.18,536.26c1.31-0.9,1.15-3.52-0.11-4.91c-0.75-0.83-3.18-0.85-4.04-0.04
					c-1.02,0.96-0.92,3.67,0.2,4.78C101.48,537.35,102.94,537.11,104.18,536.26z"/>
				<path class="st90" d="M115.26,526.01c0.45-0.44,0.1-3.47-0.45-3.95c-0.85-0.74-3.96-0.36-5.14,0.77c-0.67,1.02-1,2.14,0.27,3.31
					C111.16,527.26,114.02,527.24,115.26,526.01z"/>
				<path class="st90" d="M85.07,524.79c0.64-1.17,0.58-2.56-0.05-3.76c-0.42-0.8-3.73-1.23-4.38-0.68
					c-0.77,0.64-0.73,3.34,0.07,4.27C81.41,525.43,84.59,525.67,85.07,524.79z"/>
				<path class="st90" d="M112,452.26c0.94-0.88,0.76-3.01-0.35-4.18c-0.64-0.68-3.07-1.03-3.6-0.52c-0.52,0.5-0.61,3.75-0.12,4.33
					C108.6,452.67,111.29,452.92,112,452.26z"/>
				<path class="st90" d="M126.88,481.29c-1.17-1.18-2.44-1.67-3.82,0.02c-2.22,1.15-0.58,2.52,0.16,3.64
					c1.02,1.56,2.55,0.84,3.49-0.03C127.73,483.98,128.1,482.52,126.88,481.29z"/>
				<path class="st90" d="M106.48,483.15c0.65-0.62,1.21-1.29,0.85-2.29c-0.31-0.88-1.24-0.79-1.77-1.15
					c-1.24-0.85-2.68,0.9-3.73-0.58c-0.18-0.25-0.65,0.34-0.5,0.86c0.16,0.55,0.48,1.12,0.44,1.66c-0.1,1.41,1.09,1.72,1.89,2.07
					C104.54,484.1,105.69,484.12,106.48,483.15z"/>
				<path class="st90" d="M95.34,569.3c0.26,0.1,0.52,0.21,0.79,0.31C95.88,569.39,95.61,569.3,95.34,569.3z"/>
				<path class="st90" d="M118.45,512.25c1.03-0.74,1.38-2.07,0.35-3.01c-1.44-1.31-2.66,0.4-3.86,0.84c-0.58,0.21-2,1.62-0.43,2.89
					C116.08,514.43,117.32,513.06,118.45,512.25z"/>
				<path class="st90" d="M95.23,565.23c0.73-0.73,1.22-2.38,0.26-3.17c-0.77-0.64-2.2-1.44-3.39-0.07
					c-1.01,0.88-1.35,1.87-0.23,2.97C92.92,566,94.31,566.15,95.23,565.23z"/>
				<path class="st90" d="M62.88,499.09c1.08-0.83,1.26-1.86,0.49-2.82c-0.86-1.06-1.93-0.8-2.9,0.17c-0.08,0.06-0.14,0.13-0.21,0.2
					c0.08,1.05,0.17,2.1,0.25,3.12C61.31,500.27,62.1,499.7,62.88,499.09z"/>
				<path class="st90" d="M100.91,470.72c-1.06,0.66-0.32,1.35,0.33,2.11c0.91,1.74,2.35,0.46,3.49,0.12
					c0.53-0.16,0.88-1.45,0.03-2.06C103.57,470.03,102.17,469.94,100.91,470.72z"/>
				<path class="st90" d="M120.62,477.62c0.59-0.71,1.21-1.91-0.05-2.86c-0.67-1.05-1.5-0.96-2.31-0.18
					c-0.81,0.79-1.08,1.84-0.3,2.71C118.65,478.06,119.87,478.52,120.62,477.62z"/>
				<path class="st90" d="M97.38,504.19c0.71-0.45,0.26-1.25-0.13-1.7c-0.62-0.7-0.61-1.62-1.08-2.36
					c-0.23-0.37-0.36-0.81-0.92-0.75c-0.64,0.08-1.05,0.47-1.29,1.04c-0.2,0.47,0.01,1.04,0.38,1.12c1.06,0.22,1.19,1.16,1.61,1.8
					C96.56,503.56,96.74,504.6,97.38,504.19z"/>
				<path class="st90" d="M115.21,454.21c-1.05,0.85-0.76,1.53-0.15,2.21c0.51,0.57,0.97,1.12,1.82,0.41
					c0.83-0.69,0.95-1.62,0.47-2.35C116.81,453.65,115.84,453.94,115.21,454.21z"/>
				<path class="st90" d="M122.42,495.99c0.47-0.66,0.46-1.66-0.38-2.33c-0.51-0.47-1.04-1.34-1.77-0.49
					c-0.74,0.86,0.17,1.83,0.27,2.73C120.59,496.36,122.03,496.53,122.42,495.99z"/>
				<path class="st90" d="M66.25,539.8c0.86-0.63,0.1-1.33,0.15-2.02c-0.67-0.38-1.34-0.49-1.99-0.2c0.15,0.89,0.29,1.69,0.43,2.38
					C65.26,540.18,65.71,540.19,66.25,539.8z"/>
				<path class="st90" d="M90.68,514.37c0.68-0.65,0.57-1.22-0.04-1.86c-0.57-0.6-1.08-0.66-1.73,0.02c-0.76,0.49-0.33,1,0.15,1.52
					C89.53,514.56,89.98,515.04,90.68,514.37z"/>
				<path class="st90" d="M131.14,490.51c0.7-0.61,0.57-1.27,0.02-1.89c-0.51-0.58-1.1-0.64-1.72-0.16
					c-0.64,0.58-0.46,1.16,0.04,1.7C129.93,490.64,130.44,491.11,131.14,490.51z"/>
				<path class="st90" d="M88.62,519.37c0.57-0.54,0.81-0.97,0.19-1.65c-0.59-0.65-1.09-0.65-1.63-0.01
					c-0.66,0.47-0.85,1.03-0.26,1.67C87.47,519.97,88.01,519.95,88.62,519.37z"/>
				<path class="st90" d="M62.38,428.82c1.43-1.58,0.71-4.18-1.33-5.73c-2.12-1.61-4.21-1.44-5.65,0.47
					c-0.1,0.13-0.16,0.28-0.23,0.43c0.09,1.41,0.18,2.81,0.27,4.21c0.29,0.59,0.67,1.12,1.12,1.51
					C58.19,431.07,60.9,430.47,62.38,428.82z"/>
				<path class="st90" d="M90.38,432.07c0.41-0.42,0.72-0.93,1.08-1.39c0.01,0,0.01,0.01,0.02,0.01c0.22-0.29,0.41-0.62,0.67-0.87
					c1.36-1.29,1.3-2.87,0.35-4.15c-0.95-1.29-2.29-2.08-4.2-1.37c-2.39,0.89-3.46,3.82-2.28,6.96
					C86.79,433.3,88.8,433.69,90.38,432.07z"/>
				<path class="st90" d="M96.11,473.05c1.07-1.17,1.59-2.47-0.14-3.76c-1.45-1.09-4.39-0.79-5.36,0.55c-1.14,1.58-0.81,3,1.02,4.41
					C93.26,475.51,94.44,475.23,96.11,473.05z"/>
				<path class="st90" d="M61.12,402.85c-0.19,0.51-1.33,1.17-0.48,1.72c1.17,0.77,1.81-0.74,2.68-1.22
					c0.51-0.28,0.71-0.99-0.02-1.43C62.25,401.27,61.69,401.95,61.12,402.85z"/>
				<path class="st90" d="M64.24,373.76c0.61-0.7,0.49-1.39-0.15-1.93c-0.77-0.64-1.15,0.12-1.59,0.59
					c-0.31,0.53-1.08,1.07-0.23,1.66C62.94,374.55,63.68,374.41,64.24,373.76z"/>
				<path class="st90" d="M124.14,525.25c-0.67,0.58-0.39,1.16,0,1.78c0.4,0.34,0.89,0.6,1.32,0.1c0.43-0.5,0.77-1.14,0.22-1.78
					C125.21,524.83,124.69,524.77,124.14,525.25z"/>
				<path class="st90" d="M65.43,485.8c0.38-0.61,0.61-1.36,0.06-1.99c-0.61-0.69-1,0.02-1.41,0.34c-0.64,0.49-0.71,1.04-0.11,1.62
					C64.45,486.13,65,486.49,65.43,485.8z"/>
				<path class="st90" d="M135.61,452.31c-0.61,0.48-0.81,1.04-0.17,1.66c0.5,0.49,1.02,0.48,1.56,0.02
					c0.75-0.64,0.33-1.32,0.09-1.99C136.42,451.35,136.04,451.97,135.61,452.31z"/>
				<path class="st90" d="M67.7,473.68c0.56-0.5,0.68-1.1,0.17-1.73c-0.62-0.76-1.42-0.39-1.99-0.09c-0.91,0.48,0,0.91,0.2,1.34
					C66.56,473.63,66.94,474.36,67.7,473.68z"/>
				<path class="st90" d="M82.96,476.51c0.61-0.47,0.46-0.96-0.05-1.43c-0.46-0.42-0.92-0.74-1.64,0.09
					c-0.33,0.45-0.35,1.1,0.26,1.7C82.18,477.51,82.55,476.83,82.96,476.51z"/>
				<path class="st90" d="M70.26,487.56c-0.6,0.41-0.52,0.78-0.16,1.15c0.44,0.47,0.86,1.11,1.6,0.42c0.36-0.34,0.93-0.74,0.45-1.24
					C71.62,487.35,70.85,487.41,70.26,487.56z"/>
				<path class="st90" d="M69.23,457.85c-0.8-0.19-1.51-0.92-2.39-0.59c-0.33,0.56-0.04,0.9,0.26,1.23c0.67,0.73,1.5,0.4,2.22,0.21
					C69.66,458.61,69.63,457.94,69.23,457.85z"/>
				<path class="st90" d="M105.63,452.65c0.42-0.4,0.59-0.81,0.11-1.34c-0.68-0.24-1.45-0.23-1.98,0.25
					c-0.43,0.39-0.03,0.95,0.35,1.29C104.68,453.35,105.17,453.09,105.63,452.65z"/>
				<path class="st90" d="M77.4,470.67c0.42-0.37,0.76-0.78,0.21-1.28c-0.58-0.53-1.24-0.18-1.84-0.11
					c-0.49,0.4-0.38,0.79-0.07,1.18C76.19,471.09,76.75,471.23,77.4,470.67z"/>
				<path class="st90" d="M74.02,487.9c-0.75,0.7-0.59,1.64-0.18,2.74c0.5-0.61,0.88-1.11,1.31-1.58c0.29-0.32,0.76-0.69,0.28-1.03
					C75.08,487.79,74.26,487.68,74.02,487.9z"/>
				<path class="st90" d="M246.25,390.19c-2.47-1.2-5.34-0.18-6.56,2.32c-0.92,1.9,0.15,5.48,1.88,6.29
					c2.01,0.94,5.16-0.44,6.28-2.76C248.97,393.72,248.28,391.18,246.25,390.19z"/>
				<path class="st90" d="M264.34,403.58c0.82-1.11,2.63-1.47,2.41-3.6c-0.2-2.01-0.49-3.88-1.29-5.73c-0.29-0.68-0.83-1.41-1.34-1
					c-1.17,0.95-2.85,1.21-3.9,3.01c-0.71,0.48,0.26,1.66-0.31,2.66c-0.79,1.36-0.03,3.41,1.25,4.34
					C262.2,404.03,263.92,404.15,264.34,403.58z"/>
				<path class="st90" d="M253.65,478.5c0.02-0.01,0.04-0.01,0.04-0.01c0,0,0,0,0,0c-0.02,0.01-0.05,0.02-0.07,0.03l-0.01,0
					c0.01,0,0.02,0.01,0.03,0.01c0.02-0.02,0.03-0.02,0.05-0.04L253.65,478.5z"/>
				<path class="st90" d="M250.11,486.16c1.11,0.93,2.67,0.24,3.82,1.07c0.04,0.03,0.41-0.35,0.59-0.58
					c0.28-0.37,0.48-0.81,0.79-1.15c2.15-2.31,1.33-5.77-1.66-6.97c-0.25,0.25-0.58,0.19-0.89,0.26c-3.57,0.77-5.01,1.19-3.96,5.21
					C249.01,484.84,249.42,485.58,250.11,486.16z"/>
				<path class="st90" d="M244.52,448.51c-2.28-1.16-3.89-0.72-4.93,1.42c-0.35,0.72-1.27,1.75-0.77,2.18
					c1.18,1.02,1.19,2.83,2.69,3.54c2.07,0.97,4.56,0.03,5.73-2.2C248.15,451.73,247.1,449.82,244.52,448.51z"/>
				<path class="st90" d="M268.33,344.48c0.77-1.58-0.32-5-1.83-5.69c-1.77-0.81-4.17,0.35-5.24,2.55
					c-1.05,2.14-0.15,4.68,2.08,5.84C264.54,347.81,267.49,346.21,268.33,344.48z"/>
				<path class="st90" d="M291.08,297.29c0.53-1.2-0.63-4.01-1.86-4.48c-1.19-0.46-3.09,0.17-3.52,1.15
					c-0.6,1.39,0.14,4.21,1.24,4.72C288.52,299.43,290.41,298.8,291.08,297.29z"/>
				<path class="st90" d="M286.25,305.92c-1.58-0.71-2.73-0.22-3.52,1.49c-0.78,1.67-0.15,3.77,1.34,4.49
					c1.2,0.58,2.96-0.18,3.62-1.56C288.42,308.78,287.7,306.57,286.25,305.92z"/>
				<path class="st90" d="M272.33,467.64c1.24,0.36,1.42,2.03,2.77,2.15c0.93,0.7,1.89,0.88,2.82,0.11
					c0.49-0.41,0.74-3.77,0.35-4.26c-0.14-0.17-0.36-0.29-0.56-0.41c-1.69-1.08-4.51-0.22-5.34,1.62
					C272.25,467.12,272.05,467.56,272.33,467.64z"/>
				<path class="st90" d="M295.05,404.35c0.51,0.74,0.97,1.73,2.05,1.57c0.74-0.11,1.72-0.14,1.9-1.04
					c0.59-1.26-0.04-2.05-0.61-2.88c-0.61-0.89-1.45-0.46-2.07-0.22c-0.89,0.33-1.5,0.76-1.97-0.56c-0.2-0.57-1.12-1.07-1.78-0.56
					c-0.5,0.39-1.08,1.18-0.61,1.82c0.35,0.48,0.82,1.71,1.44,1.19C294.71,402.56,294.64,403.74,295.05,404.35z"/>
				<path class="st90" d="M293.95,330.09c-0.75,1.08,0.27,3.74,1.5,4.27c0.85,0.37,2.78-0.43,3.22-1.33
					c0.59-1.2-0.23-3.07-1.79-3.81C295.67,328.21,294.68,329.04,293.95,330.09z"/>
				<path class="st90" d="M302.92,318.96c-0.39,0.8,0.21,3.29,0.74,3.15c0.88-0.23,1.89,0.67,2.58,0.62
					c0.12-1.65,0.24-3.29,0.37-4.92c-0.13-0.07-0.25-0.15-0.4-0.21C305.02,317.07,303.54,317.69,302.92,318.96z"/>
				<path class="st90" d="M284.34,488.03c1.06,0.71,2.95-0.19,3.62-1.54c0.39-0.8-0.31-2.62-1.17-3.01c-1.02-0.47-3,0.41-3.49,1.57
					C282.73,486.35,283.34,487.36,284.34,488.03z"/>
				<path class="st90" d="M293.57,489.32c-0.26,0.69-0.1,1.64,0.3,2.45c0.08-1.08,0.16-2.18,0.24-3.3
					C293.9,488.67,293.72,488.93,293.57,489.32z"/>
				<path class="st90" d="M272.12,456.15c0.26-0.54-0.05-0.78-0.46-0.92c-1.22-0.42-1.82-1.42-2.41-2.45
					c-0.35-0.62-0.72-0.73-1.09-0.03c-0.19,0.36-0.36,0.74-0.54,1.1c-0.05,0.1-0.1,0.21-0.15,0.32c-0.59,1.26-0.12,3.03,0.95,3.57
					C269.04,458.07,271.76,456.88,272.12,456.15z"/>
				<path class="st90" d="M267.57,332.14c0.37-0.81-0.42-2.69-1.3-3.12c-0.93-0.45-2.91,0.13-3.09,1.07
					c-0.22,1.17,0.07,2.36,1.2,3.05C265.21,333.64,267.19,332.96,267.57,332.14z"/>
				<path class="st90" d="M289.17,465.82c-0.71-0.38-2.7,0.45-3.15,1.32c-0.4,0.77,0.37,3.2,1.16,3.29
					c1.06,0.13,2.07-0.33,2.78-1.15C290.44,468.72,289.77,466.14,289.17,465.82z"/>
				<path class="st90" d="M305.93,287.79c-1.16-0.55-2.33-0.36-2.65,0.27c-0.57,1.13-0.28,4.14,0.44,4.48
					c0.6,0.28,2.6-1.2,3.08-2.31C307.35,288.98,306.69,288.23,305.93,287.79z"/>
				<path class="st90" d="M261.75,374.24c1.18,0.58,2.05,0,2.71-1.18c0.84-1.5-0.4-2.29-1.12-2.83c-0.74-0.56-1.9-0.22-2.24,0.81
					C260.48,372.41,260.46,373.6,261.75,374.24z"/>
				<path class="st90" d="M255.72,475.88c-0.33-1.27-1.36-1.59-2.34-1.76c-0.84-0.15-1.31,0.65-1.53,1.41
					c-0.45,1.63,0.53,2.41,1.84,2.96c0.41-0.16,0.86-0.27,1.19-0.53C255.53,477.45,255.97,476.85,255.72,475.88z"/>
				<path class="st90" d="M281.97,422.4c0.64-1.22,0.32-2.11-0.55-2.58c-0.94-0.51-1.86-0.09-2.15,0.96
					c-0.31,1.12-2.2,2.41-0.26,3.4C280.65,425.02,280.91,422.65,281.97,422.4z"/>
				<path class="st90" d="M254.49,493.62c0.98,0.6,1.93,0.26,2.28-1.05c1.25-1.27-0.27-2.13-0.85-2.34
					c-0.87-0.32-2.17-0.35-2.77,0.96C252.51,492.6,253.71,493.14,254.49,493.62z"/>
				<path class="st90" d="M293.13,351.88c0.73-0.99,0.68-2.06-0.41-2.58c-0.74-0.35-1.78-0.23-2.28,0.88
					c-0.51,1.14-0.61,2.33,0.47,2.94C291.88,353.68,292.79,353.06,293.13,351.88z"/>
				<path class="st90" d="M225.3,343.32c-0.43,0.95-1.03,1.81,0.02,2.47c0.86,0.55,2.52-0.13,3-1.02c0.64-1.2-0.16-2.13-0.89-2.54
					C226.43,341.68,225.52,342.27,225.3,343.32z"/>
				<path class="st90" d="M260.16,489.98c0.76,0.32,2.13,0.2,2.43-0.75c0.24-0.76,0.42-2.06-0.95-2.54
					c-0.95-0.49-1.79-0.45-2.28,0.71C258.91,488.5,259.21,489.57,260.16,489.98z"/>
				<path class="st90" d="M260.4,335.36c0.46-1.03-0.17-1.83-1.19-2.34c-1.04-0.52-1.88-0.32-2.36,0.66
					c-0.56,1.16,0.07,1.88,0.82,2.16C258.99,336.48,259.98,336.29,260.4,335.36z"/>
				<path class="st90" d="M248.57,432.46c0.85,0.18,1.32,0.35,1.41,1.32c0.04,0.47,0.58,0.12,0.9,0.1c0.49-0.04,0.85-0.38,0.7-0.81
					c-0.3-0.92-0.6-1.89-1.6-2.45c-0.62,0.3-1.27-1.03-1.97,0.15C247.47,431.67,248.13,432.36,248.57,432.46z"/>
				<path class="st90" d="M285.22,427.74c0.03,0.65,0.25,1.28,0.94,1.25c0.65-0.02,1.41-0.13,1.72-0.92
					c0.37-0.87-0.26-1.91-1.23-1.9c-0.34,0-0.69,0.27-0.79-0.26c-0.07-0.42-0.24-0.69-0.68-0.52c-0.59,0.23-0.28,0.59-0.13,0.99
					C285.22,426.79,285.2,427.28,285.22,427.74z"/>
				<path class="st90" d="M224.09,430.72c0.45-0.86,0.16-1.44-0.66-1.86c-0.9-0.42-1.6-0.09-2.05,0.69
					c-0.42,0.75-0.05,1.39,0.64,1.73C222.81,431.66,223.6,431.66,224.09,430.72z"/>
				<path class="st90" d="M276.38,444.35c0.19-0.71,0.01-1.51-0.88-1.84c-0.82-0.3-1.5-0.07-1.89,0.67c-0.38,0.7,0.02,1.3,0.45,1.91
					C274.84,444.67,276.03,445.63,276.38,444.35z"/>
				<path class="st90" d="M301.47,343.37c0.3-0.89,0.08-1.77-0.86-2.23c-0.76-0.37-1.35-0.1-1.7,0.68
					c-0.41,0.92-0.04,1.44,1.16,1.81C300.36,343.69,301.1,344.51,301.47,343.37z"/>
				<path class="st90" d="M273.07,347.74c0.43-0.82-0.09-1.47-0.98-1.88c-0.9-0.4-1.3-0.08-1.56,0.72
					c-0.55,0.79-0.21,1.26,0.54,1.65C271.93,348.69,272.74,348.38,273.07,347.74z"/>
				<path class="st90" d="M259.45,460.35c-0.49,0.77,0.2,1.25,0.98,1.63c0.58,0.34,1.34,0.47,1.61-0.41
					c0.17-0.55,0.32-1.38-0.52-1.78C260.68,459.39,259.87,459.7,259.45,460.35z"/>
				<path class="st90" d="M289.48,329.97c-0.85-0.34-1.47-0.07-1.87,0.76c-0.41,0.85,0.03,1.32,0.71,1.71
					c0.89,0.5,1.29-0.02,1.56-0.77C290.33,330.97,290.4,330.34,289.48,329.97z"/>
				<path class="st90" d="M279.21,286.21c-0.11,0.37-0.69,1.01,0.13,1.35c0.85,0.35,1.78,0.16,2.29-0.69
					c0.37-0.62,0.19-1.22-0.57-1.55C280.17,284.92,279.6,285.2,279.21,286.21z"/>
				<path class="st90" d="M300.89,374.82c0.24-0.73,0.07-1.38-0.58-1.86c-0.88-0.26-1.37,0.22-1.68,0.92
					c-0.33,0.74-0.11,1.56,0.56,1.81C299.81,375.93,300.62,375.63,300.89,374.82z"/>
				<path class="st90" d="M301.55,348.05c0.71,0.21,1.51,0.96,2.16-0.09c0.34-0.54,0.43-1.01-0.32-1.43
					c-1.01-0.57-1.48,0.6-2.25,0.43C300.86,347.6,301.17,347.94,301.55,348.05z"/>
				<path class="st90" d="M262.5,408.09c0.44-0.82,0.15-1.58-0.49-1.92c-0.47-0.25-1.24-0.04-1.6,0.63
					c-0.41,0.77-0.01,1.19,0.64,1.51C261.58,408.59,262.09,408.86,262.5,408.09z"/>
				<path class="st90" d="M256.65,469.68c-0.72-0.35-1.08,0.07-1.32,0.68c-0.35,0.61-0.53,1.2,0.26,1.62
					c0.68,0.36,1.46,0.03,1.69-0.42C257.59,470.94,257.48,470.09,256.65,469.68z"/>
				<path class="st90" d="M271.94,448.64c0.7,0.32,1.33,0.48,1.82-0.31c0.47-0.76-0.3-1.13-0.54-1.71c-0.6,0.06-1.27-0.23-1.64,0.6
					C271.31,447.84,271.2,448.3,271.94,448.64z"/>
				<path class="st90" d="M287.52,413.91c-0.59,0.05-1.43-0.1-1.62,0.62c-0.18,0.65,0.2,1.39,0.88,1.73
					c0.59,0.29,0.99-0.05,1.22-0.63C288.27,414.94,288.24,414.36,287.52,413.91z"/>
				<path class="st90" d="M270.45,460.91c0.72,0.45,1.01-0.32,1.54-0.48c0.1-0.7-0.05-1.31-0.63-1.72
					c-0.63-0.44-0.95-0.02-1.21,0.51C269.85,459.86,269.72,460.45,270.45,460.91z"/>
				<path class="st90" d="M293.44,337.78c-0.69-0.31-1.16-0.26-1.46,0.34c-0.42,0.83,0.15,1.2,0.74,1.51
					c0.4,0.21,0.96,0.5,1.22-0.11C294.26,338.8,293.93,338.18,293.44,337.78z"/>
				<path class="st90" d="M265.83,452.7c0.71,0.53,0.81-0.31,1.07-0.66c0.24-0.56,0.64-1.11-0.17-1.52
					c-0.59-0.3-0.98-0.12-1.28,0.46C265.08,451.68,265.34,452.32,265.83,452.7z"/>
				<path class="st90" d="M297.15,296.31c0.31-0.59,0.13-1.13-0.45-1.45c-0.57-0.26-1.02-0.25-1.37,0.34
					c-0.39,0.64-0.02,0.98,0.46,1.25C296.26,296.69,296.82,296.95,297.15,296.31z"/>
				<path class="st90" d="M291.76,470.19c-0.28,0.59-0.1,0.98,0.51,1.26c0.57,0.26,0.96,0.31,1.28-0.35c0.3-0.63,0.16-1-0.48-1.21
					C292.53,469.54,292.06,469.57,291.76,470.19z"/>
				<path class="st90" d="M283.64,381.16c-0.25,0.57-0.13,1.1,0.45,1.44c0.49,0.29,0.85,0.06,1.11-0.42
					c0.34-0.63,0.27-1.06-0.42-1.39C284.29,380.56,283.91,380.56,283.64,381.16z"/>
				<path class="st90" d="M233.78,380.24c-0.19,1.09,0.12,2.37,1.3,2.65c0.66,0.16,2.02,0.22,2.21-1.08
					c0.16-1.11-0.37-1.98-1.6-2.68C235.25,379.8,233.97,379.12,233.78,380.24z"/>
				<path class="st90" d="M289.53,350.47c0.23-0.3,0.11-0.72-0.46-1.06c-0.47-0.29-0.81-0.36-1.12,0.23
					c-0.38,0.71,0.21,1.11,0.53,1.47C288.89,351.56,289.17,351.07,289.53,350.47z"/>
				<path class="st90" d="M304.02,352.72c0.01-0.08,0.01-0.16,0.02-0.23C304.02,352.57,304.01,352.65,304.02,352.72z"/>
				<path class="st90" d="M269.62,328c0.28-0.47,0.32-0.89-0.19-1.05c-0.54-0.2-1.07-0.31-1.15,0.21c-0.07,0.46-0.02,1.08,0.49,1.39
					C269.35,328.9,269.43,328.32,269.62,328z"/>
				<path class="st90" d="M284.78,367.24c0.36,0.1,0.78,0.1,0.88-0.32c0.12-0.52,0.06-1.06-0.46-1.35c-0.62-0.22-0.75,0.24-0.92,0.6
					C284.02,366.71,284.21,367.08,284.78,367.24z"/>
			</g>
			<g>
				<path class="st87" d="M281.95,455.19c1.43-2.1,15.34-10.27,15.27-9.39c-3.39,46.63-6.04,82.61-6.2,83.77
					c-2.5,18.46-6.23,30.4-21.54,37.51c-13.6,6.32-30.67,9.63-46.16,11.18c-42.35,4.24-146.61,7.53-158.16-36.92
					c-1.68-6.47-3.76-28.8-5.98-58.6c8.61-1.98,6.86-14.82,9.13-26.48c1.53-7.85,11.17-9.9,16.19-3.9
					c2.91,3.47,3.85,8.12,5.09,12.47c1.29,4.53,3.03,9.02,5.94,12.72c6.17,7.87,15.27,6.88,24.19,6.42
					c7.65-0.39,19.45-0.97,20.14,9.31c0.54,7.99-3.08,15.67,6.03,20.35c4.1,2.11,9,2.18,13.49,1.14c7.8-1.8,15.39-9.2,21.87-1.7
					c1.58,1.83,8.97,16.34,11.12,8.26c0.29-1.11,0.32-2.28,0.67-3.37c1.22-3.75,4.14-5.38,8.08-2.82c0.98,0.64,1.83,1.45,2.59,2.35
					c5.08,6.03,9.7,12.46,13.78,19.21c2.78,4.6,4.47,9.53,11.17,8.07c2.75-0.6,5.22-2.11,7.12-4.18
					c8.46-9.21,5.39-14.85,11.98-25.16c5.64-8.81,14.8-2.47,22.79-3.5c12.49-1.62,8.41-17.57,7.29-26.29
					c-0.9-7.07-1.55-14.41,0.15-21.41C278.77,461.05,280.02,458.02,281.95,455.19z M216.9,346.93c0.27,0.05,0.55,0.1,0.82,0.17
					c3.68,0.88,7.2,3.49,10.83,2.48c4.02-1.12,4.81-5.68,4.88-9.35c0.07-3.41-0.09-7.28-3.05-9.52c-3.61-2.74-9.11-1.47-13.79-0.58
					c-8.69,1.67-17.85,1.5-26.45-0.48c-4.11-0.95-8.11-2.31-12.31-2.92c-4.2-0.61-8.77-0.38-12.33,1.65
					c-3.64,2.06-5.68,5.62-8.01,8.81c-2.33,3.19-5.56,6.37-9.89,6.77c-3.6,0.33-7.12-1.43-9.47-3.82c-2.35-2.39-3.75-5.36-5.15-8.26
					c-4.3-8.91-8.91-17.71-13.84-26.38c-1.63-2.88-3.35-5.8-6.02-8.01c-2.67-2.22-6.5-3.63-10.09-2.86
					c-4.83,1.04-7.53,5.48-8.92,9.63c-1.38,4.15-2.19,8.69-5.54,11.89c-4.25,4.06-10.9,4.83-16.47,6.85
					c-5.73,2.07-7.64,7.1-7.54,12.45c0.09,4.6,1.68,9.07,2.93,13.54c1.74,6.17,2.12,13.05,2.02,19.39
					c-0.11,6.31-0.68,12.28,0.46,18.57c0.44,2.45,5.64,7.43,7.27,9.46c1.63,2.03,4.78,3.37,7.41,2.41c2.73-1.01,3.73-3.92,3.93-6.5
					s-0.04-5.32,1.47-7.54c3.12-4.58,11.43-4.11,15.44-8.13c3.25-3.26,2.51-8.21,4.22-12.27c2.9-6.9,13.11-10.04,21.12-7.7
					c8.02,2.34,13.65,8.92,16.06,15.96c1.4,4.1,2.66,9.21,7.38,10.44c3.95,1.03,8.15-1.65,9.75-4.95c1.61-3.3,1.34-7.03,1.23-10.61
					c-0.1-3.58,0.07-7.4,2.36-10.38c3.02-3.92,8.9-5.34,14.32-5.57c5.42-0.23,10.95,0.42,16.23-0.67
					C204.51,349.6,210.65,345.87,216.9,346.93z M230.26,376.19c-5.43-1.12-10.75-1.89-15.6,0.48c-6.5,3.18-10.01,11.26-16.99,13.15
					c-2.38,0.65-4.92,0.47-7.34,0.97c-4.94,1.02-5.69,13.62,0.09,16.31c1.94,0.9,4.17,0.92,6.29,0.68
					c10.34-1.18,19.24-7.99,29.43-10.09c13.39-2.76,27.31,3.06,37.86,11.74c2.18,1.8,4.3,3.74,6.85,4.95
					c2.55,1.21,5.7,1.58,8.15,0.16c3.37-1.95,1.78-13.29,2.26-17.15c1.43-11.48,2.5-23,3.23-34.54c0.18-2.91,0.14-6.3-2.15-8.11
					c-2.88-2.27-7.13-0.4-9.95,1.94c-4.31,3.58-7.69,8.14-11.55,12.21s-8.48,7.77-13.98,8.87
					C241.47,378.85,235.81,377.34,230.26,376.19z M156.81,288.14c-6.32,7.8,9.81,10.94,16.33,9.15c6.97-1.91,13.01-6.3,19.87-8.59
					c19.43-6.51,41.05,4.81,60.98,0.02c8.13-1.95,16.9-6.47,24.26-2.52c4.93,2.65,8.94,8.92,14.35,7.49
					c3.44-0.91,5.31-4.89,5.04-8.44c-0.27-3.55-2.14-6.75-3.97-9.8c-2.07-3.45-4.21-7-7.44-9.4s-7.85-3.39-11.3-1.31
					c-3.4,2.05-4.68,6.28-7.17,9.38c-3.2,3.98-8.37,5.94-13.45,6.41s-10.18-0.37-15.24-1.05c-17.52-2.36-36.11-2.89-54.04-1.43
					c-9.03,0.73-19.63,2.19-26.67,8.49C157.74,287.1,157.23,287.63,156.81,288.14z"/>
			</g>
			<g>
				<path class="st92" d="M105.07,462.76c2.63,0.13,5.24,0.53,7.78,1.23c6.37,1.75,12.2,5.09,18.48,7.15
					c6.28,2.06,13.57,2.67,19.17-0.84c5.13-3.22,7.92-9.31,13.04-12.55c4.14-2.62,9.6-3.02,14.08-1.03
					c4.48,1.99,7.83,6.32,8.65,11.16c0.66,3.89-0.24,7.9,0.26,11.82s0.49,8.9,4.43,8.82c4.66-0.1,6.19-3.44,9.76-6.43
					c7.53-6.32,16.72-8.59,22.24-5.93c9.58,4.62,18.3,14.71,27.88,19.32c7.51,3.62,15.84,8.21,17.82,16.32
					c1.43,5.88-1.1,12.18-5.17,16.67c-4.07,4.49-9.49,7.48-14.88,10.25c-22.55,11.56-46.75,20.64-71.99,22.93
					c-25.24,2.29-51.68-2.66-72.49-17.11c-13.43-9.33-24.14-22.81-29.77-38.2c-2.7-7.38-4.9-16.17-4.22-24.1
					c0.59-6.87,9.84-12.72,15.58-15.48C91.7,463.87,98.43,462.43,105.07,462.76z M66.2,331.51c4.58-0.31,8.53-5.01,12.06-7.53
					c9.21-6.57,20.29-10.48,31.58-11.16c4.67-0.28,9.58-0.07,13.76-2.17s7.1-7.66,4.54-11.57c-2.15-3.28-6.9-3.69-10.66-2.59
					c-3.77,1.1-7.16,3.31-11,4.13c-6.54,1.41-13.21-1.42-19.13-4.54c-5.92-3.12-12.48-9.49-18.65-6.91
					c-11.6,4.85-1.62,9.65-3.86,20.74c-0.66,3.29-2.6,6.18-3.78,9.3c-1.36,3.61-2.01,8.58,0.46,10.96
					C62.51,331.11,64.02,331.65,66.2,331.51z"/>
			</g>
			<g>
				<g>
					<path class="st58" d="M143.29,540.74c0.51,3.5,0.33,7.23-1.35,10.36c-1.39,2.58-3.71,4.58-6.24,6.11
						c-6.91,4.17-15.91,5.03-23.33,1.81c-7.42-3.21-12.94-10.56-13.44-18.52c-0.5-7.96,4.29-16.1,11.74-19.27
						C127.63,514.03,140.86,523.98,143.29,540.74z"/>
				</g>
				<g>
					<path class="st58" d="M166.32,514.61c-12.71-19.78-44.73-1.61-32.46,17.44C144.8,549.02,180.31,536.39,166.32,514.61z
						 M251.76,418.14c5.78,10.76,19.71,11.81,28.23,3.43c10.6-10.42,1.44-27.56-13.06-27.95
						C254.37,393.28,246.05,407.5,251.76,418.14z M227.26,458.33c6.75,12.58,23.04,13.81,33.01,4.01
						c12.39-12.18,1.69-32.22-15.26-32.68C230.32,429.27,220.59,445.89,227.26,458.33z M73.31,502.04
						c5.52,10.28,18.82,11.28,26.97,3.28c10.13-9.95,1.38-26.33-12.47-26.7C75.81,478.3,67.86,491.88,73.31,502.04z M74.16,313.7
						c6.47,12.05,22.07,13.22,31.61,3.84c11.87-11.67,1.61-30.86-14.62-31.3C77.09,285.87,67.77,301.79,74.16,313.7z M100.07,293.11
						c5.11,9.52,17.43,10.45,24.97,3.03c9.38-9.22,1.28-24.38-11.55-24.73C102.38,271.12,95.02,283.7,100.07,293.11z M252.45,494.79
						c5.52,10.28,18.82,11.28,26.97,3.28c10.13-9.95,1.38-26.33-12.47-26.7C254.95,471.05,247,484.63,252.45,494.79z M204.34,302.38
						c11.66,0.15,18.98-11.02,15.92-22.02c-3.81-13.68-22.37-13.94-29.4-2.01C184.77,288.71,192.81,302.24,204.34,302.38z
						 M177.9,550.94c6.1,11.37,20.83,12.48,29.84,3.63c11.2-11.01,1.52-29.13-13.8-29.55C180.66,524.67,171.86,539.7,177.9,550.94z
						 M73.85,459.28c7.22,13.45,24.63,14.76,35.29,4.29c13.25-13.02,1.8-34.45-16.32-34.94C77.12,428.21,66.71,445.98,73.85,459.28z
						 M154.73,443.89c5.52,10.28,18.82,11.28,26.97,3.28c10.13-9.95,1.38-26.33-12.47-26.7
						C157.23,420.14,149.28,433.72,154.73,443.89z M235.25,540.46c6.01,11.2,20.51,12.29,29.39,3.57
						c11.03-10.84,1.5-28.69-13.59-29.1C237.97,514.59,229.3,529.39,235.25,540.46z M176.37,461.05
						c6.67,12.44,22.78,13.65,32.63,3.96c12.25-12.04,1.67-31.86-15.09-32.31C179.39,432.32,169.77,448.76,176.37,461.05z
						 M230.39,487.62c-7.33-8.69-21.06-6.78-30.51,1.06c-6.7,5.56-8.82,14.14-4.46,21.98c3.54,6.38,8.77,9.49,14.29,10.22
						C225.94,523.02,244.66,504.52,230.39,487.62z M151.7,487.01c10.75-8.07,5.73-24.72-4.51-30.43c-7.11-3.97-16-3.26-22.53,2.6
						c-5.31,4.77-7.02,10.01-6.34,14.8C120.31,487.83,137.98,497.32,151.7,487.01z M240.92,275.66c-4.62-5.47-13.26-4.27-19.21,0.66
						c-4.22,3.5-5.55,8.9-2.81,13.84c2.23,4.01,5.52,5.98,9,6.43C238.11,297.95,249.9,286.3,240.92,275.66z M99.66,348.23
						c0.6-7.13-6.36-12.4-14.05-13.11c-5.46-0.51-10.22,2.37-11.77,7.8c-1.26,4.42-0.32,8.13,1.81,10.91
						C81.92,362.01,98.49,362.1,99.66,348.23z M166.52,308.54c13.12-2.93,15.4-20.17,8.42-29.59c-4.85-6.54-13.24-9.56-21.6-6.91
						c-6.81,2.16-10.52,6.23-11.87,10.87C137.58,296.36,149.77,312.27,166.52,308.54z M284,306.44c8.92-6.69,4.75-20.5-3.75-25.25
						c-5.9-3.29-13.27-2.71-18.69,2.16c-4.41,3.96-5.83,8.3-5.26,12.27C257.95,307.12,272.61,314.98,284,306.44z"/>
				</g>
				<g>
					<path class="st54" d="M207.96,444.58c1.87,2.88,3.2,13.2-3.42,13.7c-4.1,0.31-8.01-2.04-10.72-5.09
						c-2.14-2.41-3.77-5.74-2.68-8.75C193.76,437.21,205.25,440.42,207.96,444.58z M122.6,526.45c-0.97,0.12-1.96,0.37-2.72,0.94
						c-1.04,0.79-1.48,2.06-1.69,3.28c-1.12,6.36,3,13.18,9.5,15.73c2.77,1.09,6.37,1.31,8.49-0.65c1.28-1.19,1.74-2.93,1.76-4.6
						C138.02,534.02,131.33,525.41,122.6,526.45z M230.33,501.48c1.35-6.26-1.53-13.64-8.93-12.96c-16.4,1.5,4.75,28.27,8.75,13.7
						C230.22,501.98,230.28,501.73,230.33,501.48z M240.88,284.38c0.85-3.94-0.96-8.59-5.62-8.16c-10.33,0.94,2.99,17.8,5.51,8.63
						C240.81,284.7,240.85,284.55,240.88,284.38z M91.59,448.56c1.79,4.74,8,9.99,13.3,7.16c3.88-2.06,6.13-8.04,4.38-12.03
						c-1.65-3.76-7.51-7.41-11.52-7.94C90.93,434.85,89.79,443.79,91.59,448.56z M252.87,436.7c-2.11-0.68-4.63-0.48-6.3,0.96
						c-2.12,1.84-2.3,5.04-1.76,7.76c0.72,3.67,2.87,7.48,6.52,8.51c3.18,0.9,6.85-0.78,8.37-3.67
						C262.5,444.97,258.13,438.4,252.87,436.7z M139.26,462.19c-1.19,0.66-1.95,1.78-2.38,2.94c-1.17,3.21,0.02,6.79,2.28,9.54
						c1.34,1.63,3.11,3.07,5.31,3.72c2.2,0.65,4.86,0.37,6.5-1.04c1.8-1.54,2.02-4,1.46-6.13
						C151.35,467.14,145.51,458.73,139.26,462.19z M165.4,280.79c-1.36,0.11-2.51,0.81-3.38,1.7c-2.39,2.44-2.78,6.2-1.85,9.63
						c0.55,2.04,1.57,4.08,3.31,5.58c1.74,1.5,4.27,2.33,6.35,1.73c2.27-0.66,3.49-2.81,3.85-4.98
						C174.38,290.28,172.52,280.21,165.4,280.79z M273.67,285.84c-0.99,0.55-1.62,1.47-1.97,2.44c-0.97,2.66,0.02,5.63,1.89,7.91
						c1.11,1.35,2.58,2.55,4.41,3.09c1.82,0.54,4.03,0.3,5.4-0.86c1.49-1.27,1.68-3.32,1.21-5.08
						C283.7,289.95,278.86,282.97,273.67,285.84z"/>
				</g>
			</g>
		</g>
		<g id="Stroke_00000044875824558221407890000000886230127235682723_">
			<g>
				<path d="M43.44,389.89c0.02,0.31-0.1,0.55,0.06,0.16c0.23-0.23,0.47-0.47,0.7-0.7c0,0,0,0,0,0c0.33,0.09,0.65,0.17,0.98,0.26
					c0.29,0.34,0.31,1,0.26,0.33c-0.03-0.43-0.07-0.87-0.1-1.3c-0.17-2.19-0.34-4.39-0.51-6.58c-0.96-12.48-1.93-24.97-2.89-37.45
					c-1.07-13.79-2.13-27.59-3.2-41.38c-0.1-1.28-2.11-1.29-2.01,0c1.63,21.06,3.26,42.13,4.89,63.19
					c0.56,7.31,1.12,14.61,1.69,21.92c0.06,0.74-0.06,2.09,0.46,2.7c0.21,0.24,0.68,0.38,0.98,0.26c0.73-0.3,0.75-0.79,0.72-1.4
					C45.38,388.6,43.37,388.59,43.44,389.89L43.44,389.89z"/>
			</g>
			<g>
				<path d="M37.5,287.38c-0.66-8.48-1.31-16.95-1.97-25.43c-0.1-1.28-2.11-1.29-2.01,0c0.66,8.48,1.31,16.95,1.97,25.43
					C35.58,288.66,37.6,288.67,37.5,287.38L37.5,287.38z"/>
			</g>
			<g>
				<path d="M39.35,457.41c0.62,8.38,1.23,16.75,1.85,25.13c0.99,13.39,1.97,26.79,2.96,40.18c0.23,3.06,0.45,6.12,0.68,9.18
					c0.09,1.28,2.11,1.29,2.01,0c-0.62-8.38-1.23-16.75-1.85-25.13c-0.99-13.39-1.97-26.79-2.96-40.18
					c-0.23-3.06-0.45-6.12-0.68-9.18C41.26,456.12,39.25,456.11,39.35,457.41L39.35,457.41z"/>
			</g>
			<g>
				<path d="M31.29,347.81c0.24,3.33,0.49,6.66,0.73,9.99c0.59,8,1.18,15.99,1.76,23.99c0.71,9.63,1.42,19.26,2.12,28.89
					c0.62,8.36,1.23,16.73,1.85,25.09c0.3,4.05,0.41,8.16,0.9,12.19c0.01,0.06,0.01,0.11,0.01,0.17c0.09,1.28,2.11,1.29,2.01,0
					c-0.24-3.33-0.49-6.66-0.73-9.99c-0.59-8-1.18-15.99-1.76-23.99c-0.71-9.63-1.42-19.26-2.12-28.89
					c-0.62-8.36-1.23-16.73-1.85-25.09c-0.3-4.05-0.41-8.16-0.9-12.19c-0.01-0.06-0.01-0.11-0.01-0.17
					C33.2,346.53,31.19,346.52,31.29,347.81L31.29,347.81z"/>
			</g>
			<g>
				<path d="M264.2,582.67c6.79-2.63,13.82-4.86,20.12-8.59c5.61-3.32,10.22-7.81,13.39-13.52c6.12-11.03,7.68-24.19,8.77-36.55
					c1.24-14.03,2.22-28.09,3.25-42.13c1.18-16.1,2.31-32.21,3.47-48.31c1.12-15.59,2.24-31.18,3.47-46.76
					c0.14-1.81,0.29-3.63,0.43-5.44c0.1-1.29-1.91-1.28-2.01,0c-1.21,15.1-2.32,30.2-3.4,45.3c-1.14,15.85-2.25,31.69-3.4,47.54
					c-1.05,14.48-2.18,28.95-3.29,43.43c-0.94,12.28-1.93,24.96-6.48,36.53c-2.26,5.75-5.59,10.95-10.41,14.89
					c-5.65,4.61-12.58,7.25-19.34,9.77c-1.7,0.63-3.41,1.27-5.1,1.92C262.47,581.19,262.99,583.13,264.2,582.67L264.2,582.67z"/>
			</g>
			<g>
				<path d="M69.74,618.52c17.53,5.44,35.46,9.58,53.61,12.36c18.1,2.77,36.4,4.21,54.72,4.25c10.33,0.03,20.66-0.39,30.95-1.24
					c1.28-0.11,1.29-2.12,0-2.01c-18.15,1.49-36.41,1.64-54.59,0.41c-18.27-1.23-36.44-3.84-54.31-7.79
					c-10.05-2.22-20.01-4.87-29.85-7.92C69.04,616.2,68.51,618.14,69.74,618.52L69.74,618.52z"/>
			</g>
			<g>
				<path d="M138.25,622.09c19.61,2.17,39.37,2.84,59.08,2c19.65-0.84,39.24-3.18,58.54-6.97c10.92-2.15,21.75-4.77,32.45-7.84
					c1.24-0.36,0.71-2.3-0.53-1.94c-19,5.45-38.41,9.48-58.02,11.98c-19.33,2.46-38.85,3.47-58.33,3
					c-11.09-0.27-22.16-1.02-33.19-2.24C136.97,619.94,136.98,621.95,138.25,622.09L138.25,622.09z"/>
			</g>
			<g>
				<path d="M58.73,212.19c18.58,3.14,37.27,5.65,56.03,7.44c17.38,1.66,34.83,2.72,52.28,3.1c15.99,0.35,32,0.15,47.98-0.68
					c14.49-0.75,28.95-2.01,43.34-3.85c12.9-1.65,25.75-3.76,38.48-6.43c1.45-0.3,2.91-0.62,4.36-0.94
					c1.26-0.28,0.73-2.22-0.53-1.94c-12.43,2.73-24.97,4.93-37.58,6.67c-14.1,1.94-28.28,3.3-42.48,4.17
					c-15.72,0.96-31.47,1.31-47.22,1.1c-17.12-0.22-34.24-1.09-51.3-2.55c-18.65-1.6-37.23-3.9-55.71-6.86
					c-2.37-0.38-4.74-0.77-7.11-1.17C57.99,210.04,57.45,211.97,58.73,212.19L58.73,212.19z"/>
			</g>
			<g>
				<path d="M0.01,176.36c1.7,14.87,17.51,22.23,29.83,27.01c5.09,1.98,10.25,3.72,15.48,5.26c1.24,0.37,1.78-1.57,0.53-1.94
					c-7.71-2.27-15.39-4.91-22.69-8.31c-6.17-2.87-12.39-6.47-16.73-11.83c-2.37-2.93-3.99-6.44-4.42-10.2
					C1.87,175.09-0.14,175.08,0.01,176.36L0.01,176.36z"/>
			</g>
			<g>
				<path d="M319.96,205.02c11.23-3.25,24.13-7.91,30.98-18.03c1.97-2.91,3.17-6.2,3.63-9.68c0.17-1.28-1.85-1.27-2.01,0
					c-1.59,12.24-14.01,19.01-24.43,22.92c-2.86,1.07-5.77,2-8.7,2.85C318.19,203.44,318.71,205.38,319.96,205.02L319.96,205.02z"/>
			</g>
			<g>
				<path d="M197.93,174.73c15.62,1.78,31.58,1.23,46.92-2.35c4.16-0.97,8.26-2.18,12.28-3.62c1.21-0.43,0.69-2.38-0.53-1.94
					c-14.35,5.14-29.67,7.18-44.88,6.84c-4.61-0.1-9.2-0.43-13.78-0.95C196.65,172.57,196.66,174.58,197.93,174.73L197.93,174.73z"
					/>
			</g>
			<g>
				<path d="M160.79,130.86c-16.59,0.27-33.18,1.19-49.68,2.93c-13.06,1.38-26.07,3.27-38.96,5.79c-5.89,1.15-11.74,2.44-17.57,3.89
					c-1.26,0.31-0.72,2.25,0.53,1.94c10.93-2.71,21.98-4.88,33.11-6.62c14.42-2.26,28.95-3.79,43.51-4.75
					c9.67-0.64,19.36-1.01,29.06-1.17C162.09,132.85,162.09,130.84,160.79,130.86L160.79,130.86z"/>
			</g>
			<g>
				<path d="M64.07,152.91c-5.28,1.06-10.54,3.11-15.37,5.46c-2.69,1.31-5.34,2.82-7.6,4.81c-1.71,1.51-3.33,3.5-3.44,5.88
					c-0.12,2.56,1.67,4.52,3.5,6.05c2.5,2.08,5.34,3.71,8.27,5.11c7.03,3.37,14.57,5.65,22.11,7.59c6.8,1.75,13.67,3.15,20.57,4.44
					c1.26,0.24,1.81-1.7,0.53-1.94c-12.84-2.4-25.83-5.09-37.98-9.98c-3.15-1.27-6.25-2.72-9.12-4.53c-1.98-1.25-4.7-2.92-5.61-5.21
					c-0.74-1.84,0.31-3.63,1.55-4.97c1.87-2.01,4.31-3.46,6.72-4.74c5.08-2.69,10.76-4.9,16.42-6.03
					C65.87,154.59,65.33,152.65,64.07,152.91L64.07,152.91z"/>
			</g>
			<g>
				<path d="M190.38,197.75c26.71-1.13,53.48-2.09,79.83-7.01c7-1.31,13.97-2.86,20.81-4.88c6.78-2,14.02-4.35,19.72-8.66
					c2.23-1.69,4.45-3.9,5.04-6.75c0.65-3.11-0.86-5.95-2.88-8.22c-0.86-0.97-2.28,0.46-1.42,1.42c9.74,10.93-13.3,17.95-20.3,20.06
					c-15.66,4.72-32.13,7.28-48.36,8.92c-17.43,1.77-34.95,2.37-52.44,3.11C189.09,195.79,189.09,197.8,190.38,197.75L190.38,197.75
					z"/>
			</g>
			<g>
				<path d="M279.47,149.39c-7.42-1.56-14.9-2.86-22.41-3.9c-1.27-0.18-1.81,1.76-0.53,1.94c7.51,1.04,14.99,2.34,22.41,3.9
					C280.2,151.6,280.74,149.66,279.47,149.39L279.47,149.39z"/>
			</g>
		</g>
	</g>
</g>
</svg>
