<?xml version="1.0" encoding="utf-8"?>
<!-- Generator: Adobe Illustrator 26.1.0, SVG Export Plug-In . SVG Version: 6.00 Build 0)  -->
<svg version="1.1" xmlns="http://www.w3.org/2000/svg" xmlns:xlink="http://www.w3.org/1999/xlink" x="0px" y="0px"
	 viewBox="0 0 329.36 661.97" style="enable-background:new 0 0 329.36 661.97;" xml:space="preserve">
<style type="text/css">
	.st0{fill:#391F14;}
	.st1{fill:#682320;}
	.st2{fill:#D26F75;}
	.st3{fill:#FEEAE3;}
	.st4{fill:#F8E2E7;}
	.st5{fill:#E86E78;}
	.st6{fill:#F19299;}
	.st7{fill:#F4C3C9;}
	.st8{fill:#B3203B;}
	.st9{fill:#666633;}
	.st10{fill:#C74E69;}
	.st11{opacity:0.4;}
	.st12{fill:#FFFFFF;}
	.st13{fill:#FAEED5;}
	.st14{fill:#DCA455;}
	.st15{fill:#4F3021;}
	.st16{fill:#D69F53;}
	.st17{fill:#FCE3A2;}
	.st18{fill:#FFD480;}
	.st19{fill:#FBAF3C;}
	.st20{fill:#FDC363;}
	.st21{fill:#754A3C;}
	.st22{opacity:0.3;}
	.st23{fill:#DDEADB;}
	.st24{fill:#BCD3C2;}
	.st25{fill:#A3C6AC;}
	.st26{fill:#D8E5DA;}
	.st27{fill:#233328;}
	.st28{fill:#5C6B63;}
	.st29{fill:#82AD91;}
	.st30{fill:#D2DBD1;}
	.st31{fill:#7AA388;}
	.st32{opacity:0.5;}
	.st33{fill:#6C845F;}
	.st34{fill:#5E7553;}
	.st35{fill:#C1786C;}
	.st36{fill:#E7CCC2;}
	.st37{fill:#F8E7DA;}
	.st38{fill:#EAC8B6;}
	.st39{fill:#E3987F;}
	.st40{fill:#F2C4A8;}
	.st41{fill:#7A4D4B;}
	.st42{fill:#DE998E;}
	.st43{fill:#CC644C;}
	.st44{fill:#D88977;}
	.st45{fill:#D87C60;}
	.st46{fill:#F7E4D6;}
	.st47{fill:#8C4330;}
	.st48{fill:#D4695B;}
	.st49{fill:#F0D6BF;}
	.st50{fill:#C19160;}
	.st51{fill:#D8AA75;}
	.st52{fill:#915A26;}
	.st53{fill:#BC7C48;}
	.st54{fill:#5B361E;}
	.st55{fill:#7E4F23;}
	.st56{fill:#CE9957;}
	.st57{fill:#E2BA84;}
	.st58{fill:#22120A;}
	.st59{fill:#554E26;}
	.st60{fill:#F6ECF5;}
	.st61{fill:#DBB6D1;}
	.st62{fill:#F3E4E0;}
	.st63{fill:#996699;}
	.st64{fill:#E8D4E7;}
	.st65{fill:#C48BBD;}
	.st66{fill:#6F3670;}
	.st67{fill:#8F6191;}
	.st68{fill:#441946;}
	.st69{fill:#F3DAD0;}
	.st70{fill:#741112;}
	.st71{fill:#CC3333;}
	.st72{fill:#DE6D57;}
	.st73{fill:#C75044;}
	.st74{fill:#CA4536;}
	.st75{fill:#D25847;}
	.st76{fill:#F3E4DE;}
	.st77{fill:#E06865;}
	.st78{fill:#CC4746;}
	.st79{fill:#436137;}
	.st80{fill:#9A3332;}
	.st81{fill:#EDA99F;}
	.st82{fill:#CC6666;}
	.st83{fill:#E89B95;}
	.st84{fill:#2C1B10;}
	.st85{fill:#CCAAA2;}
	.st86{fill:#EFDFD9;}
	.st87{fill:#836759;}
	.st88{fill:#D1B7A6;}
	.st89{fill:#674E3D;}
	.st90{fill:#B0806D;}
	.st91{fill:#CDAA96;}
	.st92{fill:#967A67;}
	.st93{fill:#EBBC8B;}
	.st94{fill:#6B3715;}
	.st95{fill:#F7DEBC;}
	.st96{fill:#EFE4DA;}
	.st97{fill:#CC6E28;}
	.st98{fill:#B25827;}
	.st99{fill:#A54924;}
	.st100{fill:#9E6031;}
	.st101{fill:#DDDACC;}
	.st102{fill:#908B47;}
	.st103{fill:#AFAA7A;}
	.st104{fill:#7F7E5F;}
	.st105{fill:#8B693E;}
	.st106{fill:#8E4316;}
	.st107{fill:#DDDAB1;}
	.st108{fill:#8F9C58;}
	.st109{fill:#828E3C;}
	.st110{fill:#8E5852;}
	.st111{fill:#CA887F;}
	.st112{fill:#E3988D;}
	.st113{fill:#F2CAB9;}
	.st114{fill:#EDAB9A;}
	.st115{fill:#F2DDBB;}
	.st116{fill:#AC4D27;}
	.st117{fill:#E69F59;}
	.st118{fill:#F2DAAE;}
	.st119{fill:#DA7B38;}
	.st120{fill:#E9C1A4;}
	.st121{fill:#D58761;}
	.st122{fill:#55150F;}
</style>
<g id="Bg">
</g>
<g id="Graphic">
	<g id="Boba_6">
		<g id="Drink_00000026864621797754702900000017263730682154869669_">
			<g>
				<path class="st69" d="M321.53,242.02c-2.74-1.87-4.9-2.28-6.79-4.9l-43.52-109.76l-0.46-0.07c-70.18-10.01-141.6-10-211.78,0.02
					l-0.29,0.04L14.75,238.36c-1.89,2.62-1.95,1.01-4.69,2.88c-7.79,5.32-9.73,18.48-8.04,27.28c1.08,5.65,15.27,8.01,15.27,8.01
					c1.57,9.92,4.56,21.3,6.13,31.21c1.16,7.32,15.89,188.08,29.92,282.35c0.66,4.44,3.15,7.94,7.63,10.01c0,0-3,12.93,36.75,17.58
					c39.75,4.65,109.85,3.1,109.85,3.1s49.51-1.08,61.2-20.67c4.83-2.49,6.97-5.57,7.63-10.01c13-87.3,28.75-274.94,29.92-282.35
					c1.57-9.92,2.21-22.3,3.78-32.22c0,0,17.06-3.4,18.14-9.05C329.93,257.69,329.32,247.35,321.53,242.02z"/>
			</g>
			<g>
				<g>
					<path class="st70" d="M220.83,10.81l-33.08-7.22l-76.98,352.77l0.01,0c-0.01,0.04-0.03,0.08-0.04,0.13
						c-0.75,3.44,6.05,7.84,15.18,9.84s17.15,0.82,17.9-2.62c0.01-0.04,0.01-0.09,0.02-0.13l0.01,0L220.83,10.81z"/>
				</g>
				<g>
					
						<ellipse transform="matrix(0.2132 -0.977 0.977 0.2132 153.7061 205.2572)" class="st71" cx="204.29" cy="7.2" rx="6.37" ry="16.93"/>
				</g>
			</g>
			<g>
				<path class="st72" d="M259.3,237.97c-49.03-14.39-96.05-15.57-146.82-9.45c-24.12,2.91-49.97,9.84-71.49,20.95
					c0,0,30.16,313.25,35.13,328.46c8.07,24.64,90.77,22.91,119.36,20.8c14.42-1.06,42.06-2.86,53.52-12.54
					c0.89-0.75,3.78-4.18,4.97-9.79c11.84-55.65,35-325.97,35-325.97C280.6,247.31,267.91,240.5,259.3,237.97z"/>
			</g>
			<g>
				<g>
					<path class="st73" d="M260.07,363.53c-4.58,1.68-8.55,5.25-13.13,6.88c-9.46,3.37-20.65,2.48-28.56-4.87
						c-6.56-6.1-17.58-7.2-26.57-9.86c-4.15-1.23-8.83-0.89-12.66,1.19c-6.67,3.62-6.56,11.91-15.35,6.25
						c-2.41-1.55-8.08,0.18-9.42,3.32c-6.29,14.7,20.76,9.45,26.34,9.58c3.34,0.08,7.07,0.96,8.81,3.81
						c2.85,4.66-0.81,12.55-2.3,17.26c-1.43,4.51-2.52,9.36-0.09,13.76c0.96,1.73,2.56,3.18,4.49,3.59
						c2.59,0.54,5.23-0.88,7.13-2.72c6.14-5.95,9.17-9.72,18.27-10.48c4.39-0.36,8.7-1.5,12.63-3.51c3.9-2,6.98-7.3,11.31-8.29
						c4.47-1.02,8.54,0.99,12.76,2.11c1.59,0.42,22.11,1.94,22.1,1.98c0.9-10.26,2.38-23.82,3.27-34.08
						C270.68,358.53,267.97,360.64,260.07,363.53z"/>
				</g>
				<g>
					<path class="st74" d="M45.95,300.42c-3-30.59-4.96-50.95-4.96-50.95c21.52-11.11,47.36-18.04,71.49-20.95
						c50.77-6.12,97.79-4.95,146.82,9.45c8.61,2.53,21.3,9.33,29.68,12.46c0,0-2.08,24.28-5.31,59.77
						c-4.46,2.04-9.19,4.69-14.01,2.42c-3.41-1.61-5.8-4.87-9.58-5.56c-8.42-1.53-11.65,8.77-13.14,13.79
						c-2.17,7.32,4.21,29.08-11.29,26.84c-16.25-2.35-5.04-22.78-7.37-30.64c-0.64-2.17-2.62-3.76-4.88-3.88
						c-3.51-0.19-5.75,3.35-8.35,5.66c-4.16,3.69-10.69,4.41-15.56,1.72c-6.49-3.58-11.12-29.82-23.45-15.49
						c-1.5,1.75-2.34,4.01-3.99,5.62c-3.59,3.51-7.56,0.33-8.62-3.57c-0.73-2.69-0.44-5.55-0.87-8.3c-0.97-6.1-5.76-7.7-11.22-6.15
						c-2.96,0.84-5.85,2.22-8.92,2.22c-6.18-0.01-11.38-15.21-16.8-10.12c-3.19,3-0.3,14.9-0.03,18.77
						c0.67,9.81,1.53,20.52-4.2,29.13c-4.05,6.75-18.07,1.95-21.19-3.11c-5.71-9.28,7.19-18.51,1.08-27.06
						c-9.77-13.67-20.83,0.33-28.51,6.03c-3.19,2.37-8.86,3.15-14.16,2.26C52.32,309.72,46.53,306.32,45.95,300.42z M240.49,497.77
						c-9.89,0.22-20.1,6.29-24.32,14.93c-2.18,4.45-4.96,9.44-9.81,10.42c-7.07,1.43-13.04-8.28-19.05-10.9
						c-5.61-2.45-12.65-2.59-17.41,1.27c-6.99,5.68-2.9,12.75-2.28,19.94c1.61,18.49-18.31,1.33-24.47-0.04
						c-6.26-1.39-11.67-0.47-17.48-3.28c-5.79-2.8-11.99-4.97-17.66-7.96c-3.83-2.02-7.27-6.18-6.03-10.33
						c0.85-2.82,3.53-4.59,5.74-6.53c5.57-4.88,8.93-12.2,8.99-19.61c0.04-5.14-2.64-9.57-7.73-6.57c-3.9,2.3-5.41,8.18-8.04,11.62
						c-5.41,7.06-11.58,13.86-19.66,17.9c-8.43,4.97-9.93,12.18-11.61,21.63c0,0,5.6,45.07,6.45,47.66
						c8.07,24.64,90.77,22.91,119.36,20.8c14.42-1.06,42.06-2.86,53.52-12.54c0.89-0.75,3.78-4.18,4.97-9.79
						c2.1-9.87,4.56-26.51,7.18-47.19c-10.58-0.39,0-17.97-7.22-27.28C250.1,499,245.28,497.66,240.49,497.77z"/>
				</g>
				<g>
					<path class="st75" d="M236.3,410.91c2.7,3.23,3.83,7.51,4.16,11.71c0.44,5.57-0.58,11.59-4.38,15.69
						c-6.46,6.98-19.97,3.63-27.75,1.5c-4.36-1.2-23.88-14.8-27.03,1.73c-0.87,4.6,0.46,9.41-0.4,14.01
						c-0.86,4.6,1.01,16.44-3.66,16.74c-5.36,0.34-9.26-5.04-11.07-10.1c-1.81-5.06-2.95-10.83-7.16-14.16
						c-4.8-3.79-11.77-2.9-17.55-0.9s-11.48,4.96-17.59,4.74c-4.86-0.18-12.02-4.25-11.3-9.88c0.63-4.96,8.11-8.8,12.2-10.05
						c5.78-1.76,11.93-1.66,17.97-2.06c11.86-0.78,27.48,3.18,30.74-9.44c0.92-3.58,1.13-7.32,2.2-10.85
						c1.85-6.08,3.55-18.94,10.02-18.3c3.86,0.39,7.47,2.67,9.48,5.99c1.9,3.14,2.32,6.92,2.94,10.55s1.6,7.42,4.25,9.96
						c4.78,4.58,10.07,0.9,13.58-3.09c2.68-3.05,5.24-6.63,9.13-7.78c3.02-0.89,6.3-0.02,8.89,1.82
						C234.83,409.36,235.62,410.1,236.3,410.91z M89.15,348.71c-5.17-0.11-10.14-0.76-14.8-3.15c-4.49-2.31-8.77-4.14-13.9-2.38
						c-1.08,0.37-9.89,3.94-9.8,4.86c0.01,0.08,2.44,24.36,2.44,24.36s3.34-2.61,7.15,1.4c3.81,4,5.94,0.71,8.9,12.12
						c0.9,3.48,2.3,9.3,7.03,8.86c3.84-0.36,4.81-4.59,4.98-7.77c0.25-4.69-0.81-9.32-1.41-13.93c-0.63-4.88-2.22-4.64,0.25-9.22
						c1.69-3.14,5.6-3.93,9.16-3.89c2.49,0.03,4.8,1.19,7.08,2.18s4.81,1.85,7.22,1.24c6.05-1.52,3.35-8.99,0.13-11.88
						c-2.45-2.2-5.42-2.72-8.49-2.82C93.12,348.64,91.1,348.75,89.15,348.71z"/>
				</g>
			</g>
			<g>
				<g>
					<path class="st12" d="M147.29,158.04c-1.54,6.31,0.27,15.32-5.9,17.41c-5.4,1.82-11.48-4.71-16.49-2.01
						c-2.65,1.43-3.47,4.72-4.86,7.38c-3.33,6.35-11.53,9.71-18.38,7.53c-1.9-0.6-3.74-1.58-5.73-1.57
						c-5.55,0.02-7.95,6.85-11.97,10.66c-6.2,5.89-16.27,4.26-24.26,7.32c-6.95,2.66-17.91,7.66-20.87,14.47
						c-2.96,6.81-4.05,14.25-5.11,21.59c-0.41,2.83-0.77,5.93,0.74,8.37c1.49,2.41,4.62,3.81,5.21,6.58
						c0.73,3.4-2.89,6.67-2.01,10.03c0.77,2.96,4.39,3.97,7.41,4.48c16.57,2.78,42.06,5.8,53.47-6.48c1.95-2.1,3.75-4.66,6.53-5.38
						c2.16-0.55,4.42,0.16,6.5,0.98c9.9,3.88,18.82,10.14,29,13.23c10.18,3.1,22.81,2.13,29.35-6.22
						c6.48,4.31,14.21,6.25,21.77,8.13c21.34,5.29,44.51,10.46,64.72,1.82c2.95-1.26,5.8-2.81,8.88-3.71
						c3.21-0.94,6.59-1.14,9.93-1.34c5.1-0.31,10.2-0.61,15.3-0.92c1.43-0.09,2.98-0.21,4.08-1.13c0.89-0.74,1.33-1.86,1.74-2.94
						c3.23-8.47,6.37-18.41,1.63-26.15c-5.4-8.84-18.52-10.29-24.25-18.93c-3.75-5.65-3.4-12.96-3-19.73
						c0.11-1.91,0.21-3.88-0.5-5.66c-1.96-4.94-8.46-5.69-13.34-7.83c-5.84-2.57-10.2-8.24-11.15-14.53
						c-0.42-2.8-0.44-6.12-2.76-7.76c-1.33-0.94-3.06-1.03-4.69-1.05c-7.92-0.11-16.17,0.43-23.43-2.72
						c-7.58-3.29-14.61-10.57-22.6-8.48c-1.53,0.4-3.11,1.15-4.63,0.72c-3.27-0.92-2.87-5.53-3.56-8.84
						C180.52,128.28,149.59,148.64,147.29,158.04z"/>
				</g>
				<g>
					<path class="st76" d="M87.45,212.59c3.36-0.24,6.53-0.87,9.53-2.5c0.91-0.49,6.24-5.53,6.38-5.5
						c5.69,1.23,11.78,0.58,17.08-1.83c2.44-1.11,4.72-2.57,7.25-3.42c5.51-1.85,11.53-0.63,17.21,0.6
						c2.82,0.61,5.76,1.28,7.95,3.16c5.74,4.91,3.12,14.5,6.56,21.23c1.65-2.92,3.8-6.19,7.15-6.5c4.02-0.37,6.83,3.66,10.14,5.98
						c5.55,3.89,12.99,2.97,19.73,2.23c6.73-0.75,14.48-0.81,19.15,4.1c1.72,1.81,2.82,4.12,4.21,6.19c2.21,3.3,5.19,6.04,7.31,9.39
						c2.13,3.35,3.31,7.74,1.51,11.28c-6.05-1.07-7.46-8.83-10.16-14.35c-3.92-8.03-13.45-12.9-22.25-11.38
						c-4.26,0.74-8.56,2.79-12.7,1.58c-4.24-1.24-7.38-5.7-11.79-5.64c-5.99,0.09-10.72,8.55-16.16,6.05
						c-2.82-1.3-3.62-4.83-4.31-7.86c-1.35-5.94-3.59-11.69-6.61-16.98c-0.64-1.12-1.36-2.27-2.46-2.95
						c-0.94-0.58-2.07-0.77-3.17-0.78c-7.72-0.05-14.19,8.02-21.79,6.69c-1.57-0.27-3.06-0.95-4.63-1.2
						c-6.96-1.11-12.66,6.04-19.66,6.86C87.59,217.68,76.24,213.4,87.45,212.59z M73.8,233.1c-1.99-1.22-4.28-9.77-6.42-8.13
						c-1.36,1.05-4.87,8.94-4.52,10.85c0.8,4.28,8.18,8.45,11.37,7.88c2.73-0.49,5.07-2.98,7.82-3.11c1.67-0.08,3.34,0.72,4.99,0.42
						c3.03-0.56,4.92-4.56,7.88-5.52c1.13-0.36,2.32-0.25,3.49-0.13c8.6,0.86,17.2,1.73,25.81,2.59c-0.02-1.83-1.3-3.34-2.72-3.94
						c-1.42-0.6-2.97-0.49-4.47-0.39c-3.25,0.21-6.55,0.29-9.72-0.64c-2.64-0.77-10.02-1.9-12.69-2.54
						C84.84,228.1,83.27,238.92,73.8,233.1z M239.12,218.35c-1.75,0.64-3.66,0.58-5.5,0.88c-4.84,0.8-9.12,4.38-10.77,9
						c5.06,0.38,9.65-2.74,14.56-4.01c4.15-1.07,8.51-0.8,12.76-1.28c7.32-0.84,17.99-9.01,6.99-14.31
						C248.28,204.36,246.01,215.83,239.12,218.35z M207.78,188.52c-1.66,1.77-3.49,3.59-6.23,4.51
						c-11.88,4.57-24.85-4.57-27.17,19.95c4.15-4.53,9.17-10.83,13.89-13.59c6.72-3.92,7.65,0.08,15.71-1
						c3.64-1.82,10.63-11.21,14.28-12.13c2.74,0,9.99-3.57,13.15-4.53c9.81-2.97-9.95-5.3-12.41-4.17s-4.64,2.7-6.71,4.01
						C209.94,183.23,208.73,187.85,207.78,188.52z M180.02,157.36c-0.11-0.47-0.4-0.85-0.87-0.99c-1.2-0.34-6.1,3.59-7.19,4.32
						c-2.39,1.6-4.68,3.38-6.64,5.49c-1.93,2.08-3.09,3.76-3.33,6.56c-0.28,3.29-11.31,7.68-10.45,10.91
						c0.35,1.32,1.25,2.88,2.6,2.65c1.2-0.2,0.96-1.84,1.46-2.95c3.9-8.61,8.65-1.46,10.23-4.9c0.6-1.31,1.19-2.61,2.35-3.47
						c1.16-0.86,2.46-1.54,3.43-2.61c2.77-3.06,2.04-8.42,5.24-11.03c0.89-0.73,2.04-1.18,2.75-2.08
						C180.02,158.75,180.17,157.98,180.02,157.36z"/>
				</g>
				<g>
					<path class="st71" d="M145.38,174.95c2.71-4.19,5.33-12.3,9.3-17.67c1.46-1.98,3.08-4.07,5.43-4.79
						c1.55-0.48,3.22-0.28,4.83-0.08c8.37,1.04,18.62,3.68,20.42,11.92c0.37,1.67,0.34,3.51,1.28,4.94
						c2.77,4.23,9.27,0.64,12.71-3.07c5.58,11.66,12.42,24.46,24.75,28.36c3.13,0.99,6.62,1.41,9.04,3.63
						c3.58,3.29,3.24,9.08,1.54,13.64s-4.48,8.81-4.95,13.65c-0.23,2.31,0.9,5.38,3.21,5.14c1.88-0.19,2.7-2.42,3.12-4.26
						c1.74-7.72,3.48-15.44,5.22-23.16c0.56-2.5,1.1-5.23-0.02-7.53c-2.13-4.37-9.7-7.25-7.22-11.43c4.7-0.71,6.93,6.01,11.31,7.84
						c2.15,0.9,4.61,0.5,6.9,0.96c5.56,1.13,8.82,6.98,10.16,12.5c1.34,5.51,1.58,11.45,4.47,16.33c1.88,3.18,7.03,5.46,8.84,2.24
						c0.5-0.89,0.54-1.96,0.56-2.98c0.13-5.49,0.27-10.97,0.4-16.46c0.17-6.81-0.65-15.23-6.93-17.86
						c-3.34-1.4-7.21-0.57-10.69-1.56c-10.98-3.14-10.56-20.48-20.32-26.4c-9.14-5.54-23.4,1.3-30.49-6.7
						c-2.27-2.56-3.9-7.47-7.58-8.3c-4.32-0.97-6.55,4.3-11.01,2.01c-7.33-3.77-4.04-14.58-15.95-12.58
						c-8.42,1.41-18.97,10.33-24.67,16.2c-3.27,3.37-6.59,7.23-7.92,11.85C140.65,162.96,142.1,180.03,145.38,174.95z"/>
				</g>
				<g>
					<path class="st77" d="M194.39,162.8c-1.51,2.09-0.15,5.07,1.7,6.86c1.85,1.79,4.23,3.18,5.31,5.52c0.92,2,0.7,4.32,0.98,6.51
						c0.28,2.19,1.42,4.61,3.58,5.04c-0.53,1.66-1.73,3.02-2.4,4.62c-0.68,1.6-0.64,3.79,0.83,4.72c2.79,1.77,5.98-2.94,9.22-2.25
						c1.08,0.23,1.92,1.03,2.71,1.8c1.39,1.36,2.78,2.72,4.17,4.09c1.69,1.66,3.87,3.49,6.14,2.84c2.61-0.75,1.2-2.14,2.61-2.47
						c1.15-0.27,5.35,2.07,6.01,1.08c0.28-0.41,0.31-0.93,0.29-1.43c-0.49-10.01-17.51-12.89-21.73-21.19
						c-1.94-3.81-2.93-7.67-5.75-11.03C205.66,164.65,197.99,157.82,194.39,162.8z"/>
				</g>
				<g>
					<g>
						<path class="st78" d="M141.54,223.18c-0.71,9.37-4.29,17.53-14,17.83c-6.02,0.19-11.52-3.11-16.63-6.3
							c-14.79-9.22-37.22-14.96-40.15-33.96c-4.4-28.49,27.62-38.32,45.42-34.25c16.94,3.87,14.73,20.73,19.58,36.82
							C137.42,208.82,142.19,214.6,141.54,223.18z"/>
					</g>
					<g>
						<path class="st79" d="M119.18,176.68c0.01,0,0.02-0.01,0.04-0.01c-5.4-3.7-12.18-5.72-19-5.64c8.93-2.34,16.82-8,21.42-15.38
							c-9.26,1.28-18.26,4.33-26.23,8.9c3.28-3.96,5.69-8.5,7.07-13.27c0.43-1.49,0.51-3.49-1.02-4.1c-1.82-0.73-3.5,1.31-4.31,2.99
							c-2.32,4.82-4.63,9.64-6.95,14.46c-5.24-5.1-13.47-7.49-21.1-6.12c2.88,4.48,7.45,8.03,12.78,9.92
							c-5.72-0.84-11.76,0.04-16.97,2.48c-2.05,0.96-4.23,3.13-2.94,4.82c0.91,1.18,2.86,1.07,4.43,0.74
							c4.42-0.93,8.68-2.53,12.54-4.73c-3.25,1.85-23.45,12.84-17.03,17.13c5.14,3.43,23.53-10.08,27.6-13.12
							c5,5.34,9.99,10.67,14.99,16.01c1.42-5.87-0.25-12.23-4.41-16.79C105.81,177.81,112.85,178.45,119.18,176.68z"/>
					</g>
					<g>
						<path class="st80" d="M89.89,187.73c0.39,0.86,2.52,6.57,1.41,6.38c-0.16-0.03-0.3-0.15-0.42-0.26
							c-1.54-1.46-2.7-3.32-3.34-5.35c-0.12-0.38-0.23-0.79-0.18-1.19c0.05-0.4,0.27-0.8,0.65-0.95c0.39-0.16,0.85,0,1.16,0.27
							c0.31,0.28,0.51,0.66,0.7,1.04C89.88,187.69,89.88,187.71,89.89,187.73z M117.87,214.48c0.27,0.05,0.59-0.02,0.76-0.22
							c0.22-0.26,0.13-0.61,0.02-0.9c-0.77-1.99-2.15-3.77-3.98-5.09c-0.29-0.21-0.63-0.42-1.01-0.39c-1.6,0.09,0.21,2.88,0.52,3.36
							c0.76,1.14,1.77,2.14,2.97,2.92c0.1,0.07,0.2,0.13,0.31,0.18C117.59,214.41,117.72,214.46,117.87,214.48z M102.72,218.02
							c0.19,0.01,0.42-0.05,0.56-0.15c0.18-0.14,0.13-0.3,0.07-0.43c-0.43-0.9-1.33-1.66-2.57-2.17c-0.2-0.08-0.43-0.16-0.71-0.13
							c-1.16,0.14-0.02,1.36,0.17,1.56c0.48,0.5,1.15,0.91,1.97,1.21c0.07,0.02,0.14,0.05,0.21,0.07
							C102.52,218,102.62,218.02,102.72,218.02z M131.51,216.96c0.17,0.08,0.41,0.13,0.58,0.09c0.22-0.05,0.24-0.22,0.24-0.36
							c-0.03-1-0.54-2.05-1.47-3.03c-0.15-0.15-0.33-0.32-0.6-0.4c-1.12-0.34-0.57,1.23-0.47,1.5c0.24,0.65,0.68,1.3,1.31,1.9
							c0.05,0.05,0.11,0.1,0.17,0.15C131.34,216.86,131.42,216.91,131.51,216.96z M79.17,197.24c0.11,0.16,0.29,0.31,0.46,0.36
							c0.21,0.06,0.32-0.07,0.39-0.2c0.47-0.88,0.54-2.06,0.21-3.36c-0.05-0.21-0.13-0.44-0.32-0.64c-0.81-0.85-1.1,0.79-1.15,1.07
							c-0.11,0.68-0.05,1.46,0.21,2.3c0.02,0.07,0.04,0.14,0.07,0.21C79.07,197.07,79.11,197.15,79.17,197.24z M124.18,188.63
							c0.21,0.31,0.56,0.66,0.9,0.5c0.28-0.13,0.32-0.52,0.3-0.83c-0.12-2.46-0.79-4.88-1.93-7.06c-0.2-0.39-0.45-0.79-0.86-0.94
							c-1.73-0.62-0.62,3.26-0.46,3.86c0.41,1.48,1.05,2.91,1.88,4.21C124.07,188.45,124.13,188.54,124.18,188.63z M112.3,196.51
							c0.73,0.71,1.41,0.3,1.38-0.68c-0.05-2.43-0.88-4.83-2.34-6.78c-0.31-0.41-0.68-0.82-1.17-0.93
							c-1.97-0.44-0.85,3.24-0.59,4.04c0.5,1.48,1.31,2.86,2.38,4C112.07,196.28,112.18,196.39,112.3,196.51z M116.38,225.75
							c0.2-0.34-0.03-0.76-0.27-1.08c-1.21-1.61-2.83-2.91-4.67-3.74c-0.33-0.15-0.68-0.29-1.05-0.28
							c-2.21,0.05,0.59,3.45,1.25,3.99c1.06,0.87,2.41,1.39,3.78,1.45c0.03,0,0.07,0,0.1,0
							C115.86,226.09,116.22,226.03,116.38,225.75z M102.36,205.93c0.06-0.98-0.96-2.09-1.47-2.84c-0.74-1.1-1.67-2.08-2.74-2.88
							c-0.26-0.19-0.55-0.38-0.87-0.39c-2.45-0.04,1.64,5.87,2.16,6.29c0.61,0.48,1.97,0.99,2.59,0.51
							C102.22,206.48,102.34,206.26,102.36,205.93z M122.7,202.3c0.83,1.61,1.93,3.02,3.2,4.06c0.24,0.2,0.49,0.38,0.76,0.44
							c0.76,0.17,0.84-0.9,0.61-1.58c-0.88-2.58-2.31-4.92-4.07-6.67c-0.32-0.32-0.69-0.64-1.08-0.65
							c-0.65-0.02-0.74,0.58-0.59,1.34C121.74,200.36,122.47,201.84,122.7,202.3z M127.62,226.83c0.3,1.41,0.9,2.75,1.76,3.85
							c0.16,0.21,0.34,0.41,0.57,0.53c0.64,0.32,1.01-0.45,0.99-1.01c-0.08-2.14-0.72-4.25-1.83-6.01c-0.2-0.32-0.45-0.65-0.79-0.77
							c-0.58-0.18-0.83,0.23-0.91,0.84C127.3,225.14,127.54,226.43,127.62,226.83z M84.59,205.47c0.76,1.54,1.89,2.91,3.28,3.92
							c0.27,0.2,0.57,0.39,0.9,0.45c0.33,0.06,0.71-0.02,0.92-0.3c0.31-0.41,0.08-0.99-0.16-1.44c-1.31-2.44-2.92-4.71-4.78-6.75
							c-0.19-0.2-0.4-0.42-0.67-0.46c-0.23-0.04-0.37,0.05-0.45,0.22C83.2,201.97,84.37,205.03,84.59,205.47z"/>
					</g>
					<g>
						<path class="st78" d="M173.5,177.32c-5.16-5.2-13.65-3.53-17.7,2.69c-11.03,18.37-11.83,46.63,1.26,62.06
							c1.89,1.6,3.95,2.82,6.12,3.7c10.86,4.38,24.55,0.12,34.08-8.6c2.02-2.04,3.64-4.15,4.89-6.3c1.25-2.15,2.14-4.35,2.7-6.56
							c4.62-20.14-14.51-33.39-28.05-44.03C175.69,179.29,174.62,178.25,173.5,177.32z"/>
					</g>
					<g>
						<path class="st81" d="M157.95,216.15c0.1,2,0.21,4.03,0.9,5.9c1.63,4.43,6.12,7.08,10.43,9c5.87,2.62,9.17,6.12,15.31,8.04
							c0.57,0.18,1.18,0.36,1.76,0.22c0.54-0.13,0.98-0.51,1.37-0.91c4.14-4.17,5.51-10.28,6.58-16.06
							c0.76-4.09-1.64-9.16-0.99-13.27c0.22-1.37,0.43-2.8,0.06-4.14c-0.47-1.71-1.79-3.02-3.07-4.25
							c-5.42-5.24-7.74-9.5-13.16-14.73c-2.67-2.58-5.46-5.23-8.96-6.43c-8.93-3.05-8.08,12.86-11.07,17.41
							C152.21,204.37,157.5,207.32,157.95,216.15z"/>
					</g>
					<g>
						<path class="st82" d="M164.16,211.52c-0.18-0.86-0.33-1.72-0.45-2.58c-0.82-5.72-0.7-11.5-0.82-17.26
							c-0.07-3.21-1.74-11.73,4.52-8.16c1.5,0.86,2.57,2.3,3.59,3.69c3.47,4.74,6.94,9.48,10.41,14.23
							c2.57,3.51,5.16,7.06,6.9,11.05s2.59,8.51,1.52,12.73c-0.5,1.98-1.47,3.91-3.08,5.17c-3.2,2.48-7.94,1.58-11.38-0.56
							C169.12,225.93,165.66,218.81,164.16,211.52z"/>
					</g>
				</g>
			</g>
			<g>
				<path class="st83" d="M268.77,600.11c0,0,0.25,42.03-2.37,47.24c-2.88,5.75-19.31,7.7-25.75,8.91
					c-27.05,5.07-52.48,5.07-80.01,5.71h8.7c-27.53-0.65-62.11-0.64-89.16-5.71c-6.45-1.21-13.72-3.16-16.61-8.91
					c-2.62-5.22-2.6-47.24-2.6-47.24s31.04,17.07,104.18,15.84C239.35,614.71,268.77,600.11,268.77,600.11z"/>
			</g>
			<g>
				<path class="st84" d="M214.24,538.15c1.78,0.01,3.67,0.31,5.64,0.93c9,2.85,14.6,13.64,11.74,22.64
					c-2.85,9-13.64,14.6-22.64,11.74C188.91,567.11,196.14,538.04,214.24,538.15z M185.36,543.11c6.01,4.21,14.73,4.05,20.59-0.37
					c5.86-4.42,8.41-12.76,6.01-19.7s-9.54-11.94-16.87-11.81c-0.05,0-0.1,0-0.14,0C178.54,511.67,171.86,533.67,185.36,543.11z
					 M107.3,514.87c-10.97-6.7-27.05,5.69-23.3,19.07c2.82,10.08,15.28,13.05,24.21,9.43C120.8,538.26,117.21,520.92,107.3,514.87z
					 M211.7,469.57c-10.98-6.7-27.09,5.7-23.33,19.09c2.83,10.09,15.3,13.07,24.24,9.44C225.21,492.99,221.62,475.63,211.7,469.57z
					 M168.32,453.45c-22.02-5.99-31.12,26.37-9.1,32.36c8.99,2.45,19.35-3.03,21.73-11.5c0.92-3.28,0.59-6.78-0.7-9.99
					C178.22,459.26,173.83,454.95,168.32,453.45z M238.37,505.66c-17.03-4.72-24.39,21.83-7.35,26.55
					c6.95,1.92,15.02-2.65,16.95-9.6c0.04-0.14,0.07-0.28,0.11-0.42C249.71,515.33,245.18,507.54,238.37,505.66z M97.02,426.42
					c-17.03-4.72-24.39,21.83-7.35,26.55c6.95,1.92,15.02-2.65,16.95-9.6c0.04-0.14,0.07-0.28,0.11-0.42
					C108.36,436.1,103.83,428.3,97.02,426.42z M122.79,554.32c-17.03-4.72-24.39,21.83-7.35,26.55c6.95,1.92,15.02-2.65,16.95-9.6
					c0.04-0.14,0.07-0.28,0.11-0.42C134.13,564,129.6,556.21,122.79,554.32z M183.87,558c-17.03-4.72-24.39,21.83-7.35,26.55
					c6.95,1.92,15.02-2.65,16.95-9.6c0.04-0.14,0.07-0.28,0.11-0.42C195.21,567.67,190.68,559.88,183.87,558z M164.29,575.54
					c13.8-11.04-3.4-32.55-17.2-21.51c-5.63,4.5-6.66,13.73-2.15,19.36c0.09,0.11,0.18,0.22,0.28,0.33
					C149.81,579.06,158.77,579.95,164.29,575.54z M115.74,467.41c-21.36-5.91-30.58,27.37-9.22,33.29
					c8.71,2.41,18.84-3.32,21.25-12.04c0.05-0.17,0.09-0.35,0.14-0.53C129.95,479.55,124.28,469.78,115.74,467.41z M243.9,442.57
					c-17.03-4.72-24.39,21.83-7.35,26.55c6.95,1.92,15.02-2.65,16.95-9.6c0.04-0.14,0.07-0.28,0.11-0.42
					C255.24,452.24,250.71,444.45,243.9,442.57z M161.71,512.68c-2.6-5.45-7.25-10.29-13.17-11.47
					c-10.82-2.15-23.97,9.48-21.79,20.89c2.49,13.07,19.85,18.53,30.16,11.77C163.15,529.78,166.16,522,161.71,512.68z"/>
			</g>
			<g>
				<path class="st1" d="M158.21,514.79c2.67,7.69-3.44,18.14-10.08,12.57c-2.62-2.19-3.95-6.21-4.09-10.11
					C143.68,506.55,155.29,506.38,158.21,514.79z M195.09,524.58c-0.01,2.11,0.35,4.28,1.65,6.09s3.68,3.2,6.23,3.12
					c0.78-0.02,1.56-0.18,2.22-0.53c3.68-1.95,2.56-9.91,0.19-12.53c-1.34-1.47-3.82-2.09-6-1.78
					C196.02,519.43,195.11,522.07,195.09,524.58z M244.08,447.16c-1.05-0.5-2.41-0.88-3.27-0.1c-0.35,0.31-0.53,0.76-0.67,1.21
					c-0.54,1.69-0.58,3.52-0.3,5.28c0.21,1.32,0.62,2.64,1.45,3.67s2.17,1.74,3.49,1.56c2.76-0.39,3.72-3.75,3.61-6.12
					C248.28,450.01,246.34,448.24,244.08,447.16z M123.75,559.02c-0.26-0.11-0.54-0.19-0.83-0.24c-4.59-0.77-4.24,6.48-2.85,8.92
					c1.11,1.94,3.67,3.17,5.68,2.2c1.43-0.69,2.26-2.33,2.29-3.92c0.03-1.59-0.62-3.13-1.51-4.45
					C125.83,560.48,124.89,559.49,123.75,559.02z M226.83,554.67c-0.57-1.58-1.58-3.37-3.25-3.44c-0.68-0.03-1.33,0.24-1.93,0.55
					c-2.29,1.19-4.19,3.03-5.7,5.12c-1.13,1.57-2.06,3.34-2.26,5.26c-0.2,1.92,0.46,4.01,2,5.17c3.23,2.42,7.65-0.05,9.97-2.6
					C228.24,561.9,228.06,558.08,226.83,554.67z M168.15,459.13c-2.84,0.17-5.23,2.66-5.71,5.46s0.75,5.73,2.78,7.72
					c1.15,1.13,2.61,2.03,4.21,2.23c2.62,0.33,5.27-1.36,6.41-3.74C178.46,465.33,174.35,458.77,168.15,459.13z M121.49,477.44
					c-1.15-2.08-2.76-3.87-4.97-4.62c-9.96-3.4-8.29,10.85-4.73,15.22c2.34,2.87,7.01,4.19,9.78,1.73c2.53-2.25,2.26-6.3,1.16-9.51
					C122.4,479.31,121.99,478.35,121.49,477.44z"/>
			</g>
			<g class="st22">
				<g>
					<path class="st12" d="M321.53,242.02c-2.74-1.87-4.9-2.28-6.79-4.9l-43.52-109.76l-0.46-0.07
						c-18.53-2.64-37.15-4.58-55.82-5.83c0,0-10.7,17.28-42.8,17.28c-43.17,0-51.51-17.63-51.51-17.63
						c-20.62,1.22-41.19,3.28-61.65,6.21l-0.29,0.04L14.75,238.36c-1.89,2.62-1.95,1.01-4.69,2.88c-7.79,5.32-9.73,18.48-8.04,27.28
						c1.08,5.65,15.27,8.01,15.27,8.01s43.89,11.29,153.43,12.06c109.54,0.77,139.38-13.07,139.38-13.07s17.06-3.4,18.14-9.05
						C329.93,257.69,329.32,247.35,321.53,242.02z"/>
				</g>
			</g>
		</g>
		<g id="Stroke_00000028322996780030648270000008764786747494313886_">
			<g>
				<path d="M38.24,345.34c0.3,3.41,0.6,6.83,0.9,10.24c0.72,8.16,1.43,16.31,2.15,24.47c0.87,9.91,1.74,19.81,2.61,29.72
					c0.75,8.53,1.5,17.07,2.25,25.6c0.37,4.16,0.56,8.38,1.1,12.52c0.01,0.06,0.01,0.12,0.02,0.18c0.11,1.26,2.09,1.27,1.98,0
					c-0.3-3.41-0.6-6.83-0.9-10.24c-0.72-8.16-1.43-16.31-2.15-24.47c-0.87-9.91-1.74-19.81-2.61-29.72
					c-0.75-8.53-1.5-17.07-2.25-25.6c-0.37-4.16-0.56-8.38-1.1-12.52c-0.01-0.06-0.01-0.12-0.02-0.18
					C40.1,344.09,38.13,344.07,38.24,345.34L38.24,345.34z"/>
			</g>
			<g>
				<path d="M52.96,508.82c0.95,8.64,1.93,17.27,2.92,25.9c1.65,14.36,3.2,28.75,5.19,43.06c0.72,5.18,2.35,9.74,6.44,13.2
					c3.62,3.06,8.04,4.92,12.4,6.67c1.18,0.48,1.69-1.44,0.53-1.91c-3.91-1.57-7.94-3.25-11.25-5.93
					c-3.61-2.93-5.29-6.74-6.02-11.26c-1.08-6.76-1.76-13.6-2.57-20.39c-1.61-13.46-3.15-26.92-4.67-40.39
					c-0.33-2.98-0.67-5.96-1-8.95C54.8,507.57,52.82,507.55,52.96,508.82L52.96,508.82z"/>
			</g>
			<g>
				<path d="M53.07,487.08c-0.78-8.28-1.56-16.56-2.34-24.84c-0.11-1.18-0.22-2.36-0.33-3.54c-0.12-1.26-2.1-1.27-1.98,0
					c0.78,8.28,1.56,16.56,2.34,24.84c0.11,1.18,0.22,2.36,0.33,3.54C51.21,488.34,53.19,488.35,53.07,487.08L53.07,487.08z"/>
			</g>
			<g>
				<path d="M297.52,312.38c-2.25,27.41-5.58,54.7-8.31,82.06c-0.77,7.74-1.49,15.48-2.13,23.23c-0.1,1.27,1.87,1.26,1.98,0
					c2.25-27.41,5.58-54.7,8.31-82.06c0.77-7.74,1.49-15.48,2.13-23.23C299.6,311.11,297.62,311.11,297.52,312.38L297.52,312.38z"/>
			</g>
			<g>
				<path d="M276.18,452.27c-1.61,15.03-3.17,30.06-4.41,45.13c-0.1,1.27,1.87,1.26,1.98,0c1.24-15.06,2.8-30.1,4.41-45.13
					C278.29,451.01,276.31,451.01,276.18,452.27L276.18,452.27z"/>
			</g>
			<g>
				<path d="M279.68,439.16c1.32-12.53,2.58-25.06,3.61-37.61c0.1-1.27-1.87-1.26-1.98,0c-1.03,12.55-2.29,25.09-3.61,37.61
					C277.57,440.43,279.55,440.42,279.68,439.16L279.68,439.16z"/>
			</g>
			<g>
				<path d="M240.59,601.2c9.72-2.68,20.57-7.44,24.3-17.65c1.17-3.21,1.61-6.75,2.1-10.11c0.61-4.2,1.09-8.41,1.52-12.63
					c0.24-2.38,0.46-4.75,0.65-7.13c0.1-1.27-1.88-1.26-1.98,0c-0.44,5.67-1.03,11.33-1.78,16.96c-0.48,3.62-0.98,7.29-1.94,10.82
					c-1.1,4.09-3.7,7.57-6.95,10.23c-4.72,3.86-10.65,6-16.45,7.6C238.84,599.63,239.36,601.54,240.59,601.2L240.59,601.2z"/>
			</g>
			<g>
				<path d="M38.32,173.96c-6.84,18.95-13.69,37.91-20.53,56.86c-0.74,2.05-1.28,4.78-3.08,6.19c-1.47,1.16-3.41,1.64-5.02,2.58
					c-2.59,1.51-4.66,3.68-6,6.36c-1.45,2.91-2.17,6.12-2.83,9.29c-0.75,3.56-1.17,7.15-0.61,10.78c0.27,1.75,0.79,3.6,1.9,5.02
					c0.93,1.19,2.28,2.04,3.61,2.72c2.03,1.03,4.24,1.81,6.45,2.32c1.24,0.29,1.77-1.62,0.53-1.91c-1.73-0.4-3.45-0.97-5.07-1.69
					c-1.26-0.56-2.56-1.23-3.55-2.2c-1.09-1.07-1.55-2.62-1.84-4.08c-0.7-3.54-0.22-7.14,0.52-10.63c0.65-3.06,1.31-6.23,2.79-9.01
					c1.44-2.71,3.68-4.66,6.44-5.98c1.64-0.78,3.43-1.36,4.68-2.75c1.33-1.48,1.89-3.49,2.55-5.32c3.27-9.05,6.53-18.1,9.8-27.14
					c3.72-10.3,7.43-20.59,11.15-30.89C40.66,173.29,38.75,172.77,38.32,173.96L38.32,173.96z"/>
			</g>
			<g>
				<path d="M31.29,280.78c22.2,3.38,44.61,5.45,67.01,6.94c28.12,1.88,56.32,2.73,84.5,2.49c16.6-0.14,33.21-0.67,49.78-1.69
					c1.26-0.08,1.27-2.06,0-1.98c-29.26,1.8-58.61,2.11-87.91,1.34c-26.14-0.68-52.28-2.19-78.3-4.77
					c-11.55-1.14-23.08-2.5-34.56-4.24C30.57,278.69,30.03,280.59,31.29,280.78L31.29,280.78z"/>
			</g>
			<g>
				<path d="M253.14,287.14c17.38-1.8,34.68-5.32,51.66-9.34c4.09-0.97,8.17-1.99,12.22-3.12c1.22-0.34,0.7-2.25-0.53-1.91
					c-16.29,4.55-33.02,7.93-49.72,10.57c-4.53,0.72-9.08,1.35-13.64,1.83C251.88,285.3,251.87,287.27,253.14,287.14L253.14,287.14z
					"/>
			</g>
			<g>
				<path d="M329.32,265.67c-0.02-5.76,0.55-12.09-2.09-17.42c-2.33-4.7-6.72-7.92-10.86-10.93c-1.03-0.75-2.02,0.97-1,1.71
					c3.87,2.81,7.98,5.82,10.15,10.22c2.45,4.95,1.8,11.07,1.82,16.42C327.35,266.95,329.33,266.95,329.32,265.67L329.32,265.67z"/>
			</g>
			<g>
				<path d="M299.46,195.12c-3.48-10.19-7.63-20.18-11.67-30.16c-4.23-10.46-8.53-20.88-12.88-31.29c-0.91-2.19-1.83-4.38-2.75-6.57
					c-0.19-0.45-0.47-0.67-0.95-0.73c-10.42-1.24-20.83-2.47-31.25-3.71c-1.47-0.17-2.94-0.35-4.42-0.52
					c-1.26-0.15-1.25,1.83,0,1.98c10.42,1.24,20.83,2.47,31.25,3.71c1.47,0.17,2.94,0.35,4.42,0.52c-0.32-0.24-0.64-0.48-0.95-0.73
					c2.57,6.11,5.11,12.23,7.64,18.35c4.75,11.49,9.46,23,14,34.57c1.96,5,3.92,10.01,5.65,15.09
					C297.96,196.85,299.87,196.33,299.46,195.12L299.46,195.12z"/>
			</g>
			<g>
				<path d="M91.14,122.48c-9.39,1.13-18.77,2.26-28.16,3.38c-1.33,0.16-2.67,0.32-4,0.48c-0.49,0.06-0.77,0.28-0.95,0.73
					c-2.61,6.42-5.22,12.84-7.83,19.26c-0.48,1.18,1.43,1.69,1.91,0.53c2.61-6.42,5.22-12.84,7.83-19.26
					c-0.32,0.24-0.64,0.48-0.95,0.73c9.39-1.13,18.77-2.26,28.16-3.38c1.33-0.16,2.67-0.32,4-0.48
					C92.39,124.3,92.41,122.32,91.14,122.48L91.14,122.48z"/>
			</g>
			<g>
				<path d="M121.51,252.08c25.5,1.07,51.04,1.23,76.55,0.36c24.21-0.83,48.42-2.55,72.43-5.82c11.94-1.63,23.83-3.65,35.57-6.33
					c1.24-0.28,0.72-2.19-0.53-1.91c-21.75,4.97-43.97,7.78-66.18,9.67c-24.97,2.12-50.05,2.99-75.11,2.98
					c-14.25-0.01-28.5-0.32-42.74-0.92C120.23,250.05,120.24,252.03,121.51,252.08L121.51,252.08z"/>
			</g>
			<g>
				<path d="M24.08,242.29c16.33,2.92,32.82,4.96,49.34,6.54c5.26,0.5,10.52,0.95,15.78,1.35c1.27,0.1,1.26-1.88,0-1.98
					c-17.28-1.32-34.53-3.11-51.67-5.69c-4.32-0.65-8.63-1.36-12.92-2.12C23.36,240.16,22.83,242.06,24.08,242.29L24.08,242.29z"/>
			</g>
			<g>
				<path d="M224.73,266.98c17.86-1.09,35.67-2.96,53.32-5.9c4.99-0.83,9.96-1.76,14.92-2.77c1.25-0.25,0.72-2.16-0.53-1.91
					c-17.35,3.53-34.91,5.94-52.54,7.48c-5.05,0.44-10.11,0.81-15.17,1.12C223.46,265.08,223.45,267.05,224.73,266.98L224.73,266.98
					z"/>
			</g>
			<g>
				<path d="M144.17,267.38c16.77,0.66,33.55,1.01,50.33,0.76c4.8-0.07,9.6-0.19,14.4-0.37c1.27-0.05,1.28-2.02,0-1.98
					c-16.75,0.61-33.51,0.55-50.27,0.09c-4.82-0.13-9.65-0.3-14.47-0.49C142.9,265.35,142.9,267.33,144.17,267.38L144.17,267.38z"/>
			</g>
			<g>
				<path d="M129.39,130.97c9.45,5.34,19.83,7.91,30.61,8.56c10.21,0.62,20.81,0.54,30.77-2.03c6.08-1.57,11.85-4.13,17.19-7.41
					c1.08-0.66,0.09-2.38-1-1.71c-9.03,5.54-19.01,8.49-29.56,9.19c-9.94,0.65-20.36,0.46-30.1-1.74
					c-5.95-1.34-11.61-3.57-16.92-6.57C129.28,128.63,128.28,130.34,129.39,130.97L129.39,130.97z"/>
			</g>
			<g>
				<path d="M152.44,627.82c25.99,0.48,51.98-1.31,77.67-5.26c7.49-1.15,14.96-2.49,22.39-4c1.25-0.25,0.72-2.16-0.53-1.91
					c-25.61,5.18-51.62,8.3-77.75,9.08c-7.26,0.21-14.52,0.25-21.79,0.11C151.17,625.81,151.17,627.79,152.44,627.82L152.44,627.82z
					"/>
			</g>
			<g>
				<path d="M99.56,623.75c11.05,1.47,22.15,2.56,33.27,3.26c1.27,0.08,1.27-1.9,0-1.98c-11.13-0.7-22.22-1.8-33.27-3.26
					C98.3,621.61,98.32,623.59,99.56,623.75L99.56,623.75z"/>
			</g>
			<g>
				<path d="M79.11,641.74c25.11,4.53,50.58,6.96,76.1,7.19c7.17,0.06,14.34-0.05,21.51-0.32c1.27-0.05,1.27-2.03,0-1.98
					c-25.24,0.97-50.56-0.17-75.6-3.44c-7.18-0.94-14.34-2.06-21.47-3.35C78.39,639.61,77.86,641.52,79.11,641.74L79.11,641.74z"/>
			</g>
			<g>
				<path d="M228.75,644.02c7.8-0.7,15.91-1.92,23.3-4.62c0.41-0.15,0.72-0.49,0.73-0.95c0.01-3.61-0.01-7.22,0-10.83
					c0-1.27-1.97-1.27-1.98,0c-0.01,3.61,0.01,7.22,0,10.83c0.24-0.32,0.48-0.64,0.73-0.95c-7.23,2.64-15.16,3.86-22.78,4.55
					C227.5,642.16,227.49,644.13,228.75,644.02L228.75,644.02z"/>
			</g>
		</g>
	</g>
</g>
</svg>
