<?xml version="1.0" encoding="utf-8"?>
<!-- Generator: Adobe Illustrator 26.1.0, SVG Export Plug-In . SVG Version: 6.00 Build 0)  -->
<svg version="1.1" xmlns="http://www.w3.org/2000/svg" xmlns:xlink="http://www.w3.org/1999/xlink" x="0px" y="0px"
	 viewBox="0 0 307.17 583.23" style="enable-background:new 0 0 307.17 583.23;" xml:space="preserve">
<style type="text/css">
	.st0{fill:#391F14;}
	.st1{fill:#682320;}
	.st2{fill:#D26F75;}
	.st3{fill:#FEEAE3;}
	.st4{fill:#F8E2E7;}
	.st5{fill:#E86E78;}
	.st6{fill:#F19299;}
	.st7{fill:#F4C3C9;}
	.st8{fill:#B3203B;}
	.st9{fill:#666633;}
	.st10{fill:#C74E69;}
	.st11{opacity:0.4;}
	.st12{fill:#FFFFFF;}
	.st13{fill:#FAEED5;}
	.st14{fill:#DCA455;}
	.st15{fill:#4F3021;}
	.st16{fill:#D69F53;}
	.st17{fill:#FCE3A2;}
	.st18{fill:#FFD480;}
	.st19{fill:#FBAF3C;}
	.st20{fill:#FDC363;}
	.st21{fill:#754A3C;}
	.st22{opacity:0.3;}
	.st23{fill:#DDEADB;}
	.st24{fill:#BCD3C2;}
	.st25{fill:#A3C6AC;}
	.st26{fill:#D8E5DA;}
	.st27{fill:#233328;}
	.st28{fill:#5C6B63;}
	.st29{fill:#82AD91;}
	.st30{fill:#D2DBD1;}
	.st31{fill:#7AA388;}
	.st32{opacity:0.5;}
	.st33{fill:#6C845F;}
	.st34{fill:#5E7553;}
	.st35{fill:#C1786C;}
	.st36{fill:#E7CCC2;}
	.st37{fill:#F8E7DA;}
	.st38{fill:#EAC8B6;}
	.st39{fill:#E3987F;}
	.st40{fill:#F2C4A8;}
	.st41{fill:#7A4D4B;}
	.st42{fill:#DE998E;}
	.st43{fill:#CC644C;}
	.st44{fill:#D88977;}
	.st45{fill:#D87C60;}
	.st46{fill:#F7E4D6;}
	.st47{fill:#8C4330;}
	.st48{fill:#D4695B;}
	.st49{fill:#F0D6BF;}
	.st50{fill:#C19160;}
	.st51{fill:#D8AA75;}
	.st52{fill:#915A26;}
	.st53{fill:#BC7C48;}
	.st54{fill:#5B361E;}
	.st55{fill:#7E4F23;}
	.st56{fill:#CE9957;}
	.st57{fill:#E2BA84;}
	.st58{fill:#22120A;}
	.st59{fill:#554E26;}
	.st60{fill:#F6ECF5;}
	.st61{fill:#DBB6D1;}
	.st62{fill:#F3E4E0;}
	.st63{fill:#996699;}
	.st64{fill:#E8D4E7;}
	.st65{fill:#C48BBD;}
	.st66{fill:#6F3670;}
	.st67{fill:#8F6191;}
	.st68{fill:#441946;}
	.st69{fill:#F3DAD0;}
	.st70{fill:#741112;}
	.st71{fill:#CC3333;}
	.st72{fill:#DE6D57;}
	.st73{fill:#C75044;}
	.st74{fill:#CA4536;}
	.st75{fill:#D25847;}
	.st76{fill:#F3E4DE;}
	.st77{fill:#E06865;}
	.st78{fill:#CC4746;}
	.st79{fill:#436137;}
	.st80{fill:#9A3332;}
	.st81{fill:#EDA99F;}
	.st82{fill:#CC6666;}
	.st83{fill:#E89B95;}
	.st84{fill:#2C1B10;}
	.st85{fill:#CCAAA2;}
	.st86{fill:#EFDFD9;}
	.st87{fill:#836759;}
	.st88{fill:#D1B7A6;}
	.st89{fill:#674E3D;}
	.st90{fill:#B0806D;}
	.st91{fill:#CDAA96;}
	.st92{fill:#967A67;}
	.st93{fill:#EBBC8B;}
	.st94{fill:#6B3715;}
	.st95{fill:#F7DEBC;}
	.st96{fill:#EFE4DA;}
	.st97{fill:#CC6E28;}
	.st98{fill:#B25827;}
	.st99{fill:#A54924;}
	.st100{fill:#9E6031;}
	.st101{fill:#DDDACC;}
	.st102{fill:#908B47;}
	.st103{fill:#AFAA7A;}
	.st104{fill:#7F7E5F;}
	.st105{fill:#8B693E;}
	.st106{fill:#8E4316;}
	.st107{fill:#DDDAB1;}
	.st108{fill:#8F9C58;}
	.st109{fill:#828E3C;}
	.st110{fill:#8E5852;}
	.st111{fill:#CA887F;}
	.st112{fill:#E3988D;}
	.st113{fill:#F2CAB9;}
	.st114{fill:#EDAB9A;}
	.st115{fill:#F2DDBB;}
	.st116{fill:#AC4D27;}
	.st117{fill:#E69F59;}
	.st118{fill:#F2DAAE;}
	.st119{fill:#DA7B38;}
	.st120{fill:#E9C1A4;}
	.st121{fill:#D58761;}
	.st122{fill:#55150F;}
</style>
<g id="Bg">
</g>
<g id="Graphic">
	<g id="Boba_7">
		<g id="Drink_00000142153343749188416340000004880543649256533148_">
			<g>
				<g>
					<path class="st9" d="M203.07,24.9c-1.32-8.3-0.74-17.34-0.57-24.9c-3.7,4.52-11.63,12.73-14.44,17.5
						c-4.31,7.31-10.99,9.55-14.94,17.11c-4.8,9.2-11.03,23.97-4.41,35.44c5.11,8.86,12.73,24.48,22.27,23.28
						c6.92-0.87,10.1-11.66,13.05-18.65c4.86-11.51,3.44-24.86,1.25-37.23C204.55,33.3,203.74,29.1,203.07,24.9z"/>
				</g>
				<g>
					<path class="st9" d="M197.2,65.83c0.39-8.87,3.56-19.17,11.45-21.59c2.41-0.74,4.95-0.61,7.45-0.72
						c16.77-0.75,31.9-12.35,48.68-13.06c-2.82,6.5-8.79,10.61-13.12,16.05c-6.89,8.67-9.42,20.47-15.54,29.79
						c-6.44,9.81-17.39,16.61-28.5,17.53C191.54,95.16,196.65,78.08,197.2,65.83z"/>
				</g>
				<g>
					<path class="st59" d="M219.33,57.69c7.7-7.87,18.14-10.94,27.73-15.33c-4.71,3.62-9.69,6.78-14.87,9.44
						c-2.17,1.11-4.39,2.15-6.32,3.75c-1.81,1.5-3.3,3.44-4.73,5.41c-3.13,4.32-4.39,6.38-10.57,11.99
						c-1.37,1.24-2.68,9.34-4.26,9.12c-2.94-0.42,3.16-10.96,4.58-13.71C213.07,64.13,216.13,60.96,219.33,57.69z"/>
				</g>
				<g>
					<path class="st59" d="M183.64,47.45c0.02-0.94,0.05-1.89,0.27-2.8c0.32-1.27,1.01-2.37,1.64-3.48
						c4.15-7.31,6.13-15.94,9.84-23.55c-0.81,9.94-2.88,19.74-6.13,29c-0.54,1.54-1.12,3.07-1.49,4.67
						c-0.96,4.07-0.6,8.38-0.58,12.6c0.01,3.38,0.31,8.34-0.84,11.51c-1.67,4.58-2.39,1.02-2.52-2.37
						C183.5,64.51,183.44,55.98,183.64,47.45z"/>
				</g>
				<g>
					<path class="st59" d="M240.12,54.48c-3.02,1.87-3.53,1.66-6.55,2.18c-1.31,0.22-2.61,0.32-3.93,0.83
						c-1.07,0.41-2.16,1.1-3.19,1.14c-0.46,0.02-5.15-0.75-5.15-0.79c-0.14-1.75,2.99-1.14,3.2-1.15c1.79-0.04,4-1.36,5.87-1.72
						c1.96-0.37,1.86,0.28,3.8,0.08C236.05,54.86,240.12,54.48,240.12,54.48z"/>
				</g>
				<g>
					<path class="st59" d="M220.51,45.86c-1.87,3.04-1.75,3.5-2.49,6.4c-0.32,1.25-0.54,2.49-1.1,3.79
						c-0.45,1.05-1.14,2.15-1.28,3.12c-0.06,0.44,0.09,4.77,0.12,4.77c1.44-0.05,1.26-2.93,1.29-3.14c0.22-1.69,1.55-3.91,2.04-5.71
						c0.51-1.89-0.04-1.73,0.33-3.57C219.76,49.73,220.51,45.86,220.51,45.86z"/>
				</g>
				<g>
					<path class="st59" d="M202.55,35.2c-1.95,3.12-4.21,5.71-6.67,7.64c-1.06,0.83-2.17,1.55-3.14,2.65
						c-0.78,0.88-1.48,2.02-2.37,2.56c-0.4,0.24-4.8,1.85-4.81,1.82c-0.78-1.46,2.19-2.46,2.38-2.57c1.56-0.9,3-3.15,4.5-4.37
						c1.58-1.28,3.22-2.35,4.84-3.48C198.86,38.36,202.55,35.2,202.55,35.2z"/>
				</g>
				<g>
					<path class="st59" d="M238.79,63.96c0,0-5.6,5.55-10,6.13c-1.9,0.25-3.82,0.34-5.68,0.96c-1.5,0.5-5.16,4.06-6.69,4.09
						c-0.69,0.01-5.7-3.81-5.71-3.85c-0.64-2.23,4.19-1.38,4.52-1.38c2.67,0,5.65-1.64,8.36-2.05c2.85-0.43,2.77,0.21,5.62,0
						C231.97,67.67,238.79,63.96,238.79,63.96z"/>
				</g>
				<g>
					<path class="st59" d="M205.93,67.01c-0.09-2.56,0.72-5.1,0.58-7.59c-0.18-3.13-2.07-9.21-2.07-9.21s-0.1,4.73,0.12,7.06
						c0.2,2.17,0.54,4.34,0.42,6.54c-0.1,1.78-2.35,6.64-2.04,8.35c0.14,0.77,4.5,5.52,4.53,5.53c0.57,0.06,0.83-0.29,0.93-0.84
						C206.74,74.04,206.06,70.6,205.93,67.01z"/>
				</g>
				<g>
					<path class="st59" d="M192.05,56.25c1.33-1.36,2.09-3.46,3.41-4.74c1.66-1.6,5.83-3.43,5.83-3.43s-2.29,2.74-3.57,3.87
						c-1.2,1.05-2.48,1.98-3.5,3.32c-0.82,1.08-1.86,5.69-2.9,6.4c-0.47,0.32-5.49-0.67-5.52-0.7c-0.38-0.44-0.36-0.86-0.15-1.25
						C188.07,59.51,190.19,58.16,192.05,56.25z"/>
				</g>
				<g>
					<path class="st59" d="M179.52,55.55c-0.68-2.76-0.38-5.76-1.1-8.43c-0.91-3.35-4.34-9.41-4.34-9.41s0.97,5.18,1.73,7.65
						c0.71,2.31,1.58,4.56,1.94,7c0.29,1.96-1.05,7.92-0.32,9.69c0.33,0.8,6.15,4.68,6.19,4.67c0.63-0.1,0.84-0.57,0.82-1.19
						C182,62.96,180.47,59.41,179.52,55.55z"/>
				</g>
			</g>
			<g>
				<path class="st60" d="M4.21,177.02c0.27,0.38,0.42,0.57,0.42,0.57s14.33,232.6,22.58,327.76
					c8.89,102.63,239.72,102.63,248.69,7.03c8.18-87.18,8.09-87.17,24.66-331.13c0,0,1.73-2.67,4.03-7.45
					c6.52-13.51-1.96-29.25-17.29-32.28c-30.15-5.96-82.1-14.41-134.3-14.41c-51.41,0-103.07,8.32-133.44,14.27
					C2.54,144.71-5.55,163.4,4.21,177.02z"/>
			</g>
			<g>
				<path class="st61" d="M153.68,556.09c-13.6-0.07-27.18-1.43-40.46-4.1c-18.66-3.75-37.66-10.67-49.22-24.46
					c-12.26-14.62-13.97-34.14-15.22-52.46C45,419.55,30.86,186.06,30.86,186.06s59.03-9.33,117.68-9.33
					c58.82,0,129.1,9.33,129.1,9.33c-7.42,100.55-14,193.58-21.42,294.13c-1.36,18.5-3.38,38.47-16.93,52.36
					c-10.21,10.47-25.44,15.71-40.46,18.92C184.05,554.62,168.86,556.16,153.68,556.09z"/>
			</g>
			<g>
				<path class="st62" d="M55.76,284.53c0.22,0.69,0.89,1.11,1.62,0.8c0.82-0.34,1.38-0.08,1.98,0.42c1.5,1.27,3.17,2.02,5.14,1.23
					c1.79-0.72,1.99-2.54,2.22-4.06c0.14-0.93-0.57-1.98-0.9-2.98c-1.64,0.55-3.11-1.03-4.68-0.38c-1.55,0.34-2.27,1.54-2.9,2.69
					c-0.35,0.64-0.64,1.06-1.38,1.19C56.29,283.53,55.48,283.67,55.76,284.53z"/>
				<path class="st62" d="M40.69,293.42c-0.1-1.14-1.8-2.1-3.42-2.18c0.12,1.88,0.23,3.78,0.35,5.68
					C39.36,296.82,40.85,295.34,40.69,293.42z"/>
				<path class="st62" d="M42.77,313.28c0.68-0.63,1.23-1.4,0.65-2.49c-0.09-1.25-0.77-1.65-1.98-1.14c-0.67,0.28-1.34,0.3-1.89-0.2
					c-0.43-0.4-0.84-0.65-1.22-0.77c0.06,0.95,0.12,1.91,0.18,2.87c0.87,0.06,1.55,0.68,2.3,1.37
					C41.26,313.32,42.05,313.95,42.77,313.28z"/>
				<path class="st62" d="M41.17,260.44c1.38-0.35,2.76-2.58,2.35-3.81c-0.21-0.63-3.05-1.91-3.76-1.69
					c-0.63,0.19-1.98,3.16-1.78,3.89C38.18,259.55,40.35,260.65,41.17,260.44z"/>
				<path class="st62" d="M60.84,271.61c1.03-0.29,1.71-1.93,1.33-3.21c-0.22-0.75-1.87-1.93-2.45-1.76
					c-0.58,0.17-1.88,2.53-1.74,3.15C58.18,270.62,60.07,271.83,60.84,271.61z"/>
				<path class="st62" d="M60.75,298.68c-0.41-1.32-1.16-2.17-2.82-1.44c-2.08,0-1.39,1.64-1.27,2.74c0.16,1.54,1.56,1.59,2.58,1.31
					C60.36,300.99,61.18,300.06,60.75,298.68z"/>
				<path class="st62" d="M46.51,290.92c0.1-0.77-0.62-1.05-0.87-1.52c-0.59-1.1-2.32-0.36-2.53-1.84c-0.04-0.25-0.61,0-0.69,0.44
					c-0.09,0.47-0.07,1.01-0.31,1.39c-0.61,1,0.15,1.69,0.6,2.25c0.5,0.61,1.34,1.06,2.29,0.65
					C45.72,292.07,46.39,291.79,46.51,290.92z"/>
				<path class="st62" d="M42.74,318.29c1.04-0.15,1.81-1,1.4-2.08c-0.56-1.51-2.11-0.72-3.16-0.85c-0.51-0.07-2.09,0.43-1.41,1.97
					C40.16,319,41.59,318.46,42.74,318.29z"/>
				<path class="st62" d="M47.6,284.1c0.45,0.08,1.2-0.73,0.81-1.51c-0.55-1.09-1.54-1.69-2.77-1.6c-1.04,0.08-0.75,0.88-0.56,1.69
					C45.09,284.31,46.64,283.92,47.6,284.1z"/>
				<path class="st62" d="M56.95,290.46c-0.9,0.27-1.5,0.95-1.25,1.88c0.22,0.82,0.94,1.63,1.83,1.25c0.71-0.29,1.62-0.95,1.05-2.13
					C58.5,290.44,57.85,290.19,56.95,290.46z"/>
				<path class="st62" d="M61.52,275.85c0.16,0.61,0.29,1.19,1.18,1c0.88-0.19,1.32-0.83,1.24-1.55c-0.09-0.82-0.91-0.98-1.48-1.02
					C61.37,274.5,61.33,275.11,61.52,275.85z"/>
				<path class="st62" d="M51.86,307.82c0.6-0.31,0.97-1.05,0.61-1.86c-0.2-0.54-0.26-1.38-1.12-1.03
					c-0.87,0.35-0.57,1.41-0.84,2.12C50.37,307.39,51.37,308.07,51.86,307.82z"/>
				<path class="st62" d="M60.38,307.1c0.75-0.18,0.91-0.71,0.74-1.39c-0.16-0.62-0.56-0.89-1.21-0.78
					c-0.69,0.18-0.78,0.68-0.62,1.26C59.44,306.73,59.64,307.28,60.38,307.1z"/>
				<path class="st62" d="M33.49,229.38c0.11,1.85,0.23,3.74,0.35,5.68c1.12-0.89,1.35-2.71,0.57-4.36
					C34.15,230.16,33.84,229.72,33.49,229.38z"/>
				<path class="st62" d="M52.6,248.49c0.46-0.15,0.88-0.41,1.33-0.62c0,0.01,0.01,0.01,0.01,0.02c0.28-0.13,0.54-0.3,0.83-0.38
					c1.49-0.43,2.05-1.62,1.84-2.93c-0.21-1.31-0.9-2.41-2.57-2.61c-2.1-0.25-4.01,1.5-4.33,4.26
					C49.49,248.03,50.82,249.08,52.6,248.49z"/>
				<path class="st62" d="M41.21,280.88c1.24-0.45,2.11-1.22,1.33-2.83c-0.65-1.36-2.93-2.26-4.16-1.63
					c-1.44,0.73-1.74,1.91-0.93,3.64C38.17,281.62,39.15,281.85,41.21,280.88z"/>
				<path class="st62" d="M43.6,217c0.48-0.01,0.9-0.46,0.53-1.06c-0.53-0.87-1.2-0.59-1.96-0.14c-0.33,0.3-1.42,0.35-1.01,1.08
					C41.73,217.9,42.77,217.03,43.6,217z"/>
				<path class="st62" d="M55.55,195.56c0.72-0.28,0.89-0.84,0.62-1.48c-0.33-0.77-0.9-0.35-1.39-0.17c-0.43,0.27-1.2,0.38-0.8,1.14
					C54.29,195.64,54.89,195.82,55.55,195.56z"/>
				<path class="st62" d="M41.98,330.05c-0.71,0.18-0.73,0.71-0.68,1.31c0.16,0.4,0.43,0.78,0.93,0.58c0.51-0.21,1-0.54,0.84-1.23
					C42.93,330.14,42.57,329.9,41.98,330.05z"/>
				<path class="st62" d="M78.61,282.41c0.8-0.19,0.74-0.84,0.82-1.44c-0.24-0.72-0.76-0.41-1.2-0.33
					c-0.64,0.12-0.99,0.46-0.76,1.15C77.66,282.35,78.04,282.55,78.61,282.41z"/>
				<path class="st62" d="M56.6,268.53c-0.41-0.44-0.98-0.72-1.55-0.57c-0.47,0.13-0.39,0.69-0.23,1.09
					c0.22,0.58,0.68,0.58,1.19,0.43C56.46,269.34,56.75,269.1,56.6,268.53z"/>
				<path class="st62" d="M92.81,383.97c0.52-0.71,1.14-0.79,1.91-0.67c1.94,0.31,3.76,0.08,5.03-1.62c1.16-1.55,0.39-3.2-0.21-4.63
					c-0.37-0.86-1.52-1.4-2.32-2.08c-1.11,1.32-3.2,0.73-4.2,2.11c-1.15,1.1-1.14,2.49-1.08,3.8c0.03,0.73,0,1.24-0.56,1.74
					c-0.43,0.38-1.05,0.92-0.37,1.51C91.56,384.6,92.35,384.61,92.81,383.97z"/>
				<path class="st62" d="M75.24,468.3c-1.6-2.86-5.28-3.14-7.41-0.57c0.17,0.32,0.01,0.63-0.03,0.96
					c-0.37,3.77-0.42,5.32,3.88,5.57c0.91,0.05,1.76-0.11,2.55-0.61c1.27-0.8,1.08-2.57,2.27-3.43c0.04-0.03-0.22-0.52-0.38-0.76
					C75.84,469.05,75.47,468.71,75.24,468.3z"/>
				<path class="st62" d="M77.59,400.35c-0.04,0.57-0.75,0.63-0.88,1.27c-0.33,1.67,1.6,3.33,3.72,3.08
					c2.51-0.29,3.78-3.14,2.31-5.16C81.87,398.35,78.81,398.82,77.59,400.35z"/>
				<path class="st62" d="M66.02,443.76c0.99-0.7,1.47-1.59,1.01-2.75c-0.25-0.62-3.49-1.92-4.09-1.7c-0.22,0.08-0.4,0.27-0.58,0.42
					c-1.61,1.32-1.65,4.38-0.09,5.79c0.22,0.2,0.59,0.54,0.76,0.3C63.77,444.71,65.47,445.06,66.02,443.76z"/>
				<path class="st62" d="M92.98,416.15c0.59,0.12,1.59,0.24,1.86-0.71c0.26-0.9,0.32-1.84-0.73-2.46
					c-0.73-1.02-1.51-1.01-2.28,0.05c-0.42,0.59-0.99,0.96-1.72,0.81c-1.86-0.37-2.77,0.29-2.57,2.24c0.05,0.49-0.76,1.11,0.05,1.42
					c0.52,0.2,1.4,0.25,1.7-0.29C90.22,415.57,91.51,415.86,92.98,416.15z"/>
				<path class="st62" d="M66.07,366.64c-0.51-0.43-3.6-0.05-4.09,0.51c-0.44,0.49-0.05,3.73,0.5,4.25
					c0.55,0.51,2.97,0.33,3.56-0.28C67.03,370.1,67.05,367.48,66.07,366.64z"/>
				<path class="st62" d="M83.25,436.57c-0.79,0.86-0.55,3.09,0.44,3.95c1.11,0.97,2.3,0.69,3.28-0.09
					c1.03-0.82,0.75-2.98-0.37-4.06C85.93,435.73,83.91,435.85,83.25,436.57z"/>
				<path class="st62" d="M90.75,429.01c-0.5,0.88-0.7,1.83,0.42,2.72c1.07,0.86,3.43,0.68,4.39-0.41c0.35-0.39-0.11-2.88-0.6-3.25
					C94.21,427.51,91.66,428,90.75,429.01z"/>
				<path class="st62" d="M51.6,442.37c-0.45-0.43-0.79-0.2-1.06,0.16c-0.8,1.07-1.98,1.35-3.18,1.6c-0.27,0.06-0.47,0.14-0.58,0.25
					c0.01,0.21,0.03,0.41,0.04,0.62c0.05,0.06,0.1,0.13,0.17,0.2c0.3,0.31,0.61,0.59,0.92,0.88c0.09,0.09,0.17,0.17,0.26,0.25
					c1.06,0.99,2.95,1.08,3.83,0.19C52.52,446.02,52.21,442.95,51.6,442.37z"/>
				<path class="st62" d="M70.49,432.03c0.46-1.01,0.34-2.15-0.26-3.11c-0.4-0.64-3.15-0.8-3.67-0.32c-0.6,0.58-0.41,2.81,0.3,3.53
					C67.5,432.77,70.14,432.79,70.49,432.03z"/>
				<path class="st62" d="M88.65,370.45c0.73-0.78,0.46-2.53-0.53-3.44c-0.57-0.53-2.6-0.68-3.01-0.23
					c-0.4,0.45-0.29,3.14,0.15,3.59C85.86,370.99,88.1,371.04,88.65,370.45z"/>
				<path class="st62" d="M102.63,393.64c-1.04-0.91-2.12-1.25-3.16,0.23c-1.77,1.08-0.33,2.12,0.34,3
					c0.94,1.23,2.16,0.55,2.89-0.22C103.49,395.81,103.71,394.58,102.63,393.64z"/>
				<path class="st62" d="M81.77,393.28c-0.16-0.19-0.52,0.32-0.36,0.74c0.17,0.45,0.46,0.9,0.46,1.35c-0.01,1.17,1,1.37,1.68,1.61
					c0.75,0.27,1.7,0.21,2.29-0.63c0.5-0.55,0.93-1.14,0.58-1.95c-0.31-0.71-1.08-0.58-1.53-0.85
					C83.81,392.91,82.72,394.44,81.77,393.28z"/>
				<path class="st62" d="M65.87,464.83c-1.36-0.08-2,0.84-2.48,1.75c-0.41,0.78,0.22,1.5,0.91,1.96c1.46,0.97,2.54,0.24,3.51-0.88
					c-0.03-0.46,0.01-0.94-0.15-1.35C67.36,465.52,66.92,464.89,65.87,464.83z"/>
				<path class="st62" d="M67.8,467.66c0,0.03,0,0.05,0,0.08l0,0.01c0.01-0.01,0.02-0.02,0.02-0.02
					C67.82,467.7,67.82,467.68,67.8,467.66C67.8,467.66,67.8,467.66,67.8,467.66z"/>
				<path class="st62" d="M82.68,469.11c-0.86-1.64-2.19-0.41-2.58,0.09c-0.59,0.75-1.04,2.04,0.07,3.04
					c1.19,1.08,2.11,0.07,2.83-0.55C83.9,470.91,83.87,469.87,82.68,469.11z"/>
				<path class="st62" d="M97.53,417.24c-1.26-1-2.18,0.48-3.15,0.91c-0.47,0.21-1.57,1.46-0.19,2.42c1.38,1.12,2.33-0.08,3.22-0.82
					C98.22,419.08,98.44,417.96,97.53,417.24z"/>
				<path class="st62" d="M81.21,464.93c0.56-0.65,0.88-2.04,0.03-2.64c-0.68-0.48-1.91-1.07-2.81,0.14
					c-0.79,0.78-1.01,1.62-0.02,2.47C79.34,465.7,80.5,465.74,81.21,464.93z"/>
				<path class="st62" d="M48.34,412.41c0.86,0.89,1.59,0.26,2.33-0.39c0.85-0.75,0.93-1.61,0.24-2.36
					c-0.77-0.83-1.64-0.55-2.39,0.31C47.73,410.69,47.54,411.6,48.34,412.41z"/>
				<path class="st62" d="M83.82,387.99c0.43-0.16,0.64-1.25-0.09-1.71c-1.04-0.65-2.2-0.64-3.2,0.07c-0.84,0.61-0.19,1.14,0.4,1.73
					C81.78,389.48,82.9,388.34,83.82,387.99z"/>
				<path class="st62" d="M95.11,388.58c-0.63,0.7-0.79,1.59-0.09,2.26c0.61,0.59,1.65,0.9,2.22,0.12c0.45-0.62,0.9-1.65-0.2-2.36
					C96.42,387.76,95.74,387.88,95.11,388.58z"/>
				<path class="st62" d="M53.76,454.03c-0.49-0.35-1.27-0.76-1.92-0.05c-0.67,0.72-0.62,1.61-0.11,2.23
					c0.61,0.73,1.3,0.2,1.92-0.45C54.17,455.29,54.54,454.58,53.76,454.03z"/>
				<path class="st62" d="M79.52,414.28c0.56-0.41,0.15-1.05-0.21-1.4c-0.55-0.54-0.6-1.31-1.02-1.89c-0.22-0.29-0.34-0.65-0.8-0.56
					c-0.53,0.1-0.84,0.45-1.01,0.93c-0.14,0.4,0.07,0.86,0.38,0.91c0.89,0.12,1.05,0.9,1.43,1.4
					C78.8,413.8,79.01,414.65,79.52,414.28z"/>
				<path class="st62" d="M92.96,373.95c0.65-0.62,0.7-1.4,0.26-1.97c-0.5-0.66-1.29-0.36-1.79-0.11c-0.82,0.76-0.54,1.31,0,1.84
					C91.88,374.16,92.29,374.59,92.96,373.95z"/>
				<path class="st62" d="M60.04,461.94c-0.58,0.6-0.27,1.08,0.25,1.52c0.49,0.53,1.02,0.9,1.68,0.25c0.57-0.56,0.5-1.43,0.12-1.8
					C61.59,461.42,60.71,461.25,60.04,461.94z"/>
				<path class="st62" d="M99.33,404.15c-0.45-0.36-0.94-1.05-1.49-0.3c-0.56,0.75,0.25,1.5,0.38,2.25
					c0.06,0.37,1.27,0.43,1.56-0.04C100.12,405.48,100.06,404.65,99.33,404.15z"/>
				<path class="st62" d="M53.89,443.92c-0.64,0.48-0.32,0.94,0.12,1.36c0.53,0.51,1.08,0.82,1.76,0.24
					c0.67-0.57,0.01-1.1,0.01-1.68C55.12,443.53,54.47,443.48,53.89,443.92z"/>
				<path class="st62" d="M74.54,423.08c0.53-0.57,0.4-1.04-0.14-1.53c-0.5-0.46-0.93-0.49-1.43,0.12c-0.6,0.45-0.22,0.85,0.21,1.25
					C73.61,423.31,74,423.68,74.54,423.08z"/>
				<path class="st62" d="M105.15,399.42c-0.5,0.52-0.31,0.99,0.13,1.4c0.4,0.38,0.86,0.74,1.4,0.2c0.55-0.54,0.4-1.08-0.09-1.57
					C106.13,399,105.64,398.99,105.15,399.42z"/>
				<path class="st62" d="M71.83,426.05c-0.52,0.43-0.64,0.9-0.12,1.39c0.49,0.46,0.94,0.41,1.41-0.1c0.44-0.48,0.62-0.85,0.06-1.38
					C72.65,425.46,72.24,425.49,71.83,426.05z"/>
				<path class="st62" d="M44.82,349.21c-1.51-0.99-2.93-0.98-3.99-0.04c0.11,1.83,0.23,3.67,0.34,5.49c0.1,0.1,0.2,0.2,0.31,0.28
					c1.42,1.03,3.63,0.38,4.76-1.07C47.33,352.48,46.6,350.38,44.82,349.21z"/>
				<path class="st62" d="M65.95,354.54c0.75,1.65,2.44,1.86,3.66,0.43c0.31-0.37,0.54-0.81,0.81-1.22c0.01,0,0.01,0.01,0.02,0.01
					c0.17-0.25,0.3-0.54,0.51-0.76c1.05-1.14,0.92-2.45,0.06-3.46c-0.86-1.01-2.02-1.6-3.56-0.9
					C65.52,349.52,64.8,352.01,65.95,354.54z"/>
				<path class="st62" d="M73.04,389.82c1.42,0.95,2.39,0.64,3.64-1.25c0.82-1.03,1.17-2.14-0.33-3.11
					c-1.26-0.82-3.68-0.41-4.41,0.76C71.1,387.6,71.45,388.76,73.04,389.82z"/>
				<path class="st62" d="M43.72,332.44c-0.13,0.43-1.03,1.04-0.3,1.45c1.01,0.57,1.45-0.72,2.15-1.17c0.41-0.26,0.53-0.86-0.1-1.18
					C44.57,331.07,44.14,331.67,43.72,332.44z"/>
				<path class="st62" d="M44.41,306.6c-0.68-0.49-0.95,0.17-1.28,0.58c-0.23,0.46-0.83,0.94-0.1,1.39
					c0.58,0.35,1.18,0.19,1.61-0.38C45.12,307.58,44.98,307.01,44.41,306.6z"/>
				<path class="st62" d="M102.86,430.19c-0.52,0.52-0.26,0.98,0.1,1.47c0.35,0.26,0.77,0.45,1.1,0.01
					c0.32-0.44,0.58-0.98,0.08-1.49C103.73,429.77,103.29,429.75,102.86,430.19z"/>
				<path class="st62" d="M50.8,400.93c0.42,0.27,0.9,0.53,1.21-0.06c0.28-0.52,0.43-1.16-0.07-1.65c-0.54-0.54-0.82,0.08-1.15,0.36
					C50.3,400.02,50.27,400.48,50.8,400.93z"/>
				<path class="st62" d="M108.21,369.15c-0.48,0.44-0.61,0.91-0.05,1.38c0.44,0.38,0.87,0.34,1.29-0.07
					c0.59-0.58,0.2-1.11-0.04-1.66C108.82,368.31,108.54,368.84,108.21,369.15z"/>
				<path class="st62" d="M53.21,390.71c0.44-0.45,0.5-0.95,0.04-1.44c-0.56-0.6-1.2-0.24-1.65,0.04c-0.72,0.45,0.05,0.75,0.24,1.1
					C52.26,390.73,52.62,391.32,53.21,390.71z"/>
				<path class="st62" d="M66,392.18c0.48-0.43,0.33-0.82-0.12-1.18c-0.4-0.32-0.8-0.56-1.35,0.17c-0.25,0.39-0.23,0.93,0.31,1.39
					C65.41,393.06,65.68,392.47,66,392.18z"/>
				<path class="st62" d="M56.11,402.06c-0.47,0.37-0.38,0.68-0.07,0.97c0.39,0.36,0.77,0.87,1.35,0.26c0.28-0.3,0.73-0.67,0.3-1.05
					C57.23,401.8,56.6,401.89,56.11,402.06z"/>
				<path class="st62" d="M53.56,377.52c-0.68-0.11-1.3-0.68-2.01-0.35c-0.24,0.49,0.01,0.75,0.29,1.01
					c0.6,0.56,1.26,0.24,1.85,0.05C53.97,378.12,53.9,377.57,53.56,377.52z"/>
				<path class="st62" d="M82.17,371.39c0.49,0.38,0.88,0.14,1.24-0.25c0.32-0.35,0.44-0.71,0.02-1.12
					c-0.58-0.16-1.21-0.11-1.62,0.32C81.47,370.69,81.83,371.12,82.17,371.39z"/>
				<path class="st62" d="M61.06,387.67c0.33-0.33,0.59-0.69,0.1-1.07c-0.51-0.4-1.04-0.08-1.53,0.02
					c-0.38,0.36-0.27,0.67,0.01,0.98C60.09,388.08,60.56,388.17,61.06,387.67z"/>
				<path class="st62" d="M60.42,402.15c-0.3-0.18-0.99-0.23-1.17-0.03c-0.58,0.62-0.39,1.39,0.01,2.28c0.38-0.53,0.67-0.97,1-1.38
					C60.47,402.74,60.84,402.4,60.42,402.15z"/>
				<path class="st62" d="M222.76,377.19c-1.46,1.39-1.26,4.15,0.44,6.03c1.66,1.83,4.45,1.94,6.43,0.25
					c1.06-0.91,0.66-4.37-0.68-5.84C227.72,376.27,224.01,376.01,222.76,377.19z"/>
				<path class="st62" d="M199.92,300.67c-1.21-1.19-5.09-1.49-6.18-0.47c-0.69,0.65-0.64,4.4,0.07,5.19
					c1.23,1.38,4.52,1.53,5.81,0.26C200.73,304.58,200.9,301.64,199.92,300.67z"/>
				<path class="st62" d="M187.22,337.63c-0.9,0.97-1.03,3.04-0.24,3.83c1.11,1.12,4.11,1.49,5.03,0.62
					c1.32-1.24,1.44-3.31,0.25-4.53C191.29,336.58,188.15,336.63,187.22,337.63z"/>
				<path class="st62" d="M198.7,345.53c-1.29,1.25-1.26,2.54,0.08,3.96c1.31,1.39,3.57,1.6,4.84,0.44
					c1.02-0.93,0.97-2.92-0.11-4.09C202.29,344.54,199.88,344.38,198.7,345.53z"/>
				<path class="st62" d="M229.64,347.61c0.68-0.68,0.66-2.84-0.04-3.61c-0.93-1.03-3.05-0.96-4.36,0.26
					c-1.44,0.78-1.02,2.05-0.29,3.16C225.7,348.55,228.65,348.59,229.64,347.61z"/>
				<path class="st62" d="M222.47,332.13c-2.4-2.49-3.44-2.68-4.84-1.32c-0.96,0.94-0.94,2.6,0.05,3.68
					c0.62,0.68,3.25,1.07,3.32,0.5C221.14,333.78,223.2,333.08,222.47,332.13z"/>
				<path class="st62" d="M213.09,377.05c1.04,0.67,2.3,0.84,3.4,0.02c0.81-0.61,0.92-2.78,0.27-3.45
					c-0.64-0.67-2.75-0.64-3.51,0.05C212.46,374.39,212.26,376.52,213.09,377.05z"/>
				<path class="st62" d="M192.54,323.55c0.5-0.47-0.15-2.97-1.04-3.86c-1-1-1.97-0.66-2.69-0.09c-0.98,0.9-1.24,2.1-0.76,2.65
					C188.92,323.23,191.93,324.11,192.54,323.55z"/>
				<path class="st62" d="M251.82,392.34c-0.82,0.5-0.94,1.74-0.08,2.47c1.09,1.13,2.23,1.6,3.34,0.61
					c1.01-0.91,0.79-1.98-0.09-3.07C253.86,390.97,252.62,391.86,251.82,392.34z"/>
				<path class="st62" d="M245.62,356.6c-0.67-1.08-1.73-1.45-2.64-0.6c-0.63,0.58-0.91,1.62-0.03,2.53
					c0.9,0.93,2.01,1.48,3.01,0.68C246.87,358.49,246.62,357.37,245.62,356.6z"/>
				<path class="st62" d="M211.03,416.16c-0.91,0.74-0.69,1.85,0.23,2.46c0.75,0.78,1.34,1.68,2.39,0.94
					c0.86-0.62,0.85-2.48,0.17-3.28C212.91,415.2,211.71,415.61,211.03,416.16z"/>
				<path class="st62" d="M214.39,382.01c-0.9,0.8-1.04,1.69-0.27,2.53c0.9,0.99,1.84,0.66,2.39,0.04c1.12-1.03,1.33-2.06,0.59-2.82
					C216.29,380.92,215.28,381.22,214.39,382.01z"/>
				<path class="st62" d="M255.24,332.5c0.9-0.77,0.92-1.85,0.27-2.57c-0.91-1-1.96-0.46-2.9,0.47c-1.02,0.66-0.78,1.34,0.03,2.24
					C253.68,333.81,254.42,333.21,255.24,332.5z"/>
				<path class="st62" d="M238.15,345.24c-0.65,0.59-0.62,1.26,0.01,1.9c0.73,0.75,1.37,0.59,2.19-0.42
					c0.16-0.24,1.23-0.64,0.28-1.44C239.89,344.65,238.95,344.51,238.15,345.24z"/>
				<path class="st62" d="M231.73,374.54c-0.73,0.71-0.58,1.22,0.1,1.78c0.55,0.84,1.13,0.69,1.8,0.11
					c0.75-0.65,0.77-1.54,0.29-2.11C233.28,373.59,232.46,373.83,231.73,374.54z"/>
				<path class="st62" d="M223.13,353.76c0.66,0.72,1.29,0.48,1.92-0.03c0.83-0.67,0.48-1.25-0.14-1.8c-0.51-0.69-1.09-1-1.8-0.26
					C222.45,352.36,222.48,353.06,223.13,353.76z"/>
				<path class="st62" d="M201.93,312.26c-0.59,0.59-0.51,1.39,0,1.99c0.6,0.71,1.49,0.62,2.14,0.19c0.73-0.48,0.28-1.18-0.04-1.79
					C203.33,312.43,202.75,311.44,201.93,312.26z"/>
				<path class="st62" d="M176.85,342.6c-0.72,0.71-0.66,1.36,0.15,2.12c0.32,0.25,0.71,1.06,1.35,0.4
					c0.66-0.69,0.84-1.66,0.22-2.47C178.12,342.05,177.46,342,176.85,342.6z"/>
				<path class="st62" d="M227.6,282.17c0.57-0.53,0.52-1.43-0.08-1.96c-0.58-0.5-1.4-0.43-2.01,0.04c-0.76,0.59-0.3,1.17,0.24,1.72
					C226.25,282.79,227.07,282.66,227.6,282.17z"/>
				<path class="st62" d="M268.04,267.99c0.65-0.69,0.69-1.42,0.08-2.13c-0.53-0.61-1.07-0.43-1.63,0.19
					c-0.88,0.48-0.56,1.08,0.04,1.7C266.97,268.22,267.41,268.66,268.04,267.99z"/>
				<path class="st62" d="M245.17,347.01c0.48-0.6,1.51-1.08,0.75-2.11c-0.39-0.54-0.8-0.8-1.5-0.24c-0.94,0.76,0.01,1.65-0.46,2.33
					C244.47,347.5,244.92,347.33,245.17,347.01z"/>
				<path class="st62" d="M233.66,352.26c0.36-0.31,0.85-0.73,0.37-1.22c-0.57-0.58-1.3-0.5-1.87-0.18
					c-0.57,0.54-0.69,1.01-0.23,1.54C232.56,353.12,233.14,352.71,233.66,352.26z"/>
				<path class="st62" d="M220.87,298.41c0.84,0.14,1.04,0.92,1.6,1.65c0.55-1.71-0.1-2.86-1.33-2.79
					c-0.39,0.02-0.94-0.11-1.01,0.52C220.06,298.3,220.55,298.35,220.87,298.41z"/>
				<path class="st62" d="M192.81,296.41c1.05-2.62,0.8-3.24-1.4-2.94C192.51,294.28,192.19,295.49,192.81,296.41z"/>
				<path class="st62" d="M192.07,331.2c-0.47,0.45-0.63,0.89-0.2,1.45c0.47,0.62,0.94,0.4,1.38,0.03c0.42-0.35,0.88-0.79,0.4-1.35
					C193.19,330.8,192.6,330.77,192.07,331.2z"/>
				<path class="st62" d="M265.33,308.07c-0.64,0.84-0.12,3.13,1.06,3.61c0.68,0.27,1.4,0.38,2.07,0.19
					c0.11-1.54,0.22-3.08,0.33-4.62C267.66,306.75,266.08,307.09,265.33,308.07z"/>
				<path class="st62" d="M252.96,421.9c-1.01-0.58-2.05-0.4-3.2,0.51c0.47,0.67-0.68,1.64,0.33,2.26c0.98,0.6,2.33,0.8,3.05-0.23
					C253.55,423.87,254.13,422.58,252.96,421.9z"/>
				<path class="st62" d="M241.68,359.55c-0.46,0.34-0.66,0.65-0.21,1.17c0.54,0.64,1.15,0.22,1.62,0.05
					c0.59-0.22,0.23-0.67-0.21-1.25C242.67,359.18,242.23,359.14,241.68,359.55z"/>
				<path class="st62" d="M250.04,290.71c-0.47-0.67-1.09-0.21-1.7-0.2c-0.21,0.41-0.26,0.92,0.01,1.19
					c0.49,0.49,1.16,0.22,1.67-0.04C250.44,291.45,250.25,291.01,250.04,290.71z"/>
				<path class="st62" d="M263.7,336.97c-0.44,0.34-0.65,0.74-0.26,1.23c0.41,0.52,0.89,0.55,1.41,0.11c0.4-0.34,0.47-0.68-0.02-1.2
					C264.58,336.9,264.23,336.56,263.7,336.97z"/>
				<path class="st62" d="M245.57,316.73c-0.56,0.42-0.16,0.85,0.17,1.21c0.48,0.53,0.84,0.17,1.22-0.16
					c0.36-0.32,0.55-0.65,0.28-0.88C246.56,316.28,246.01,316.41,245.57,316.73z"/>
				<path class="st62" d="M250.2,346.14c0.39,0.49,0.82,0.36,1.23-0.03c0.31-0.3,0.68-0.68,0.33-1.07
					c-0.48-0.54-1.11-0.09-1.67-0.05C249.73,345.43,249.95,345.83,250.2,346.14z"/>
				<path class="st62" d="M225.45,310.37c-0.37,0.33-0.25,0.66,0.05,0.94c0.42,0.39,0.88,0.42,1.3,0.01
					c0.32-0.31,0.29-0.69-0.02-0.96C226.36,310.01,225.89,309.99,225.45,310.37z"/>
				<path class="st62" d="M212.23,371.01c0.41,0.24,1.03,0.43,1.52,0.07c0.57-0.42,0.04-0.73-0.2-1.03
					c-0.35-0.45-0.74-0.65-1.09-0.22C212.07,370.27,211.77,370.74,212.23,371.01z"/>
				<path class="st62" d="M255.74,369.49c-0.45,0.52-0.06,0.82,0.22,1.12c0.43,0.46,0.86,0.42,1.23-0.07
					c0.23-0.31,0.39-0.72,0.03-0.97C256.77,369.25,256.22,369.1,255.74,369.49z"/>
			</g>
			<g>
				<path class="st63" d="M237.99,453.12c2.05,0.58,18.56,6.58,19.84,4.92c-0.53,7.34-1.08,14.72-1.62,22.15
					c-1.36,18.5-3.38,38.47-16.93,52.36c-10.21,10.47-25.44,15.71-40.46,18.92c-14.77,3.16-29.96,4.7-45.14,4.62
					c-13.6-0.07-27.18-1.43-40.46-4.1c-18.66-3.75-37.66-10.67-49.22-24.46c-9.34-11.15-12.56-25.14-14.11-39.28
					c0.01-0.01,0.02-0.01,0.03-0.02c6.76,1.87,7.54,10.87,13.23,13.59c6.11,2.92,11.72-3.08,12.82-9.52
					c0.9-5.27,3.08-12.78,9.3-5.64c1.37,1.57,2.38,3.42,3.12,5.37c7.1,18.67,22.37,15.73,35.15,7.21
					c8.97-5.98,29.74-19.97,25.64-32.63c-1.64-5.06-9.3-11.6-6.17-17.16c1.76-3.12,6.02-3.61,9.58-3.23
					c11.18,1.2,23.42,7.97,28.19,18.51c2.68,5.91,0.53,13.33,7.2,15.72c6.2,2.22,15.23-3.28,20.08-6.48
					c11.78-7.78,9.82-23.1,24.24-21.94C233.97,452.16,235.85,452.51,237.99,453.12z M56.14,296.4c4.29,7.48,11.32,16.14,18.34,10.7
					c3.98-3.09,2.83-15.81,0.95-19.97c-1.83-4.04-5.35-6.63-6.62-11.1c-2.21-7.82,0.28-18.26,2.37-25.83
					c2.92-10.58,5.87-19.2,18.66-15c7.86,2.58,20.79,6.4,27.36,11.33c6.88,5.16,4.27,16.53,9.91,22.4
					c7.44,7.75,21.46-2.07,21.72-11.53c0.16-6.25-10.31-10.42-10.01-15.73c0.65-11.27,29.02,0.62,32.35,5.64
					c10.65,16.06-5.71,34.99,10.98,49.81c1.25,1.11,2.83,2.17,4.46,1.8c1.64-0.37,2.63-2.11,2.84-3.77
					c0.53-4.34-0.24-10.28,2.67-13.94c3.39-4.27,10.67-3.5,13.48-8.27c6.43-10.94-18.86-21.32-8.33-30.75
					c2.39-2.14,5.59-3.05,8.5-4.41c8.01-3.74,6.39-11.72,16.84-11.98c5.56-0.14,11.92,1.62,16.62,5.22
					c5.8,4.45,6.46,11.39,11.33,16.27c4.17,4.17,11.68,5.01,15.02,0c2.68-2.91,5.43-5.75,8.2-8.57c1.27-17.37,2.55-34.89,3.86-52.64
					c0,0-70.27-9.33-129.1-9.33c-58.65,0-117.68,9.33-117.68,9.33s2.22,36.58,5.13,84.23c-0.08-1.34,9.25,4.55,10.07,5.47
					c3.27,3.68,4.63,8.86,6.46,13.3C53.19,290.72,54.46,293.47,56.14,296.4z"/>
			</g>
			<g>
				<path class="st64" d="M235.5,262.41c10.07-0.74,17.61,10.64,16.77,20.7c-1.14,13.8-14.9,25.25-28.68,23.87
					c-6.92-0.69-14.63-3.94-20.27,0.12c-3.67,2.63-4.92,7.49-5.39,11.98s-0.46,9.21-2.57,13.21s-7.3,6.85-11.22,4.61
					c-6.53-3.74-1.74-14.6-5.8-20.94c-2.53-3.95-7.99-5.03-12.59-4.09c-4.6,0.93-8.71,3.42-13.04,5.22
					c-8.05,3.33-17.07,4.27-25.63,2.65c-4.44-0.84-9.58-3.38-9.7-7.89c-0.09-3.55,3.22-6.39,6.65-7.29
					c3.43-0.91,7.06-0.45,10.61-0.59c7.79-0.31,15.22-3.95,20.69-9.43c4-4.01,6.25-15.44,10.03-17.72
					c9.39-5.69,25.28,13.37,36.08,11.86c13.02-1.82,18.16-20.33,29.52-25.16C232.37,262.92,233.87,262.53,235.5,262.41z M54.92,411
					c-0.41,5.15-0.3,10.32,0.32,15.45c0.22,1.8,0.53,3.66,1.73,5.16c2.63,3.29,8.59,3.46,12.74,1.59c4.15-1.87,7.05-5.19,10.2-8.14
					c3.15-2.95,7.08-5.76,11.78-6c5.34-0.27,10.09,2.85,13.55,6.3s6.29,7.45,10.65,10.07c0.9,0.54,1.94,1.03,3.04,0.95
					c1.54-0.11,2.64-1.28,4.04-1.81c2.94-1.13,6.23,0.65,9.45,0.83c4.21,0.24,7.97-2.35,10.25-5.35c2.27-3,3.51-6.47,5.61-9.56
					c4.41-6.5,12.74-10.98,21.58-11.6c5.56-0.39,11.35,0.63,16.64-0.88c5.29-1.51,9.44-7.33,5.84-10.92
					c-2.79-2.78-8.08-2.25-12.02-0.75s-7.74,3.76-12.06,3.67c-4.67-0.09-8.56-2.88-12.77-4.59c-12.05-4.91-27.55-1.15-38.88-7.17
					c-2.54-1.35-5.07-3.23-8.05-3.01c-8.24,0.59-7.03,14.65-15.29,14.78c-1.96,0.03-3.77-0.88-5.27-1.94
					c-5.88-4.14-10.32-11.42-17.97-11.05c-6.76,0.33-10.55,6.56-12.93,11.91L54.92,411z"/>
			</g>
			<g>
				<g>
					<path class="st64" d="M158.49,52.42c9.1,3.75,17.26,13.58,13.75,22.74c14.21-4.09,19.31,15.28,32.13,7.93
						c13.04-7.48,24.46,10.53,31.33-2.11c1.86-3.42,11.76,9.25,14.42,12.08c9.27,9.86,18.72,19.98,24.15,32.36
						c5.39,12.27,14.76,21.48,14.42,32.74c-0.48,16.12-8.42,21.15-8.95,25.34c-1.27,10.07-13.56,14.06-23.62,15.66
						c-30.12,4.79-53.02,0.89-83.27-3.04c-4.46-0.58-9.03-1.31-13.43-0.36c-6.58,1.42-11.72,6.33-17.5,9.78
						c-17,10.16-38.48,7.23-58.04,3.98c-19.69-3.28-41.04-7.44-54.13-22.46c-6.25-7.18-10.03-16.46-10.55-25.95
						c-0.7-12.7,2.36-12.32,10.05-22.47c2.77-3.65,5.94-7.14,7.54-11.44c1.53-4.1,3.49-21.58,5.03-25.68
						c4.68-12.44,20.9-15.75,29.86-25.59c11.1-12.19,19.44-61.7,29.07-44.3c8.91,16.11,16.66,6.44,23.98,10.01
						C135.67,46.96,147.37,47.83,158.49,52.42z"/>
				</g>
				<g>
					<path class="st60" d="M134.78,170.9c-12.54,2.02-24.82-7.13-37.62,6.05c-2.8,2.88-8.84,0.93-11.17-2.33
						c-1.69-2.35-1.27-5.66-2.64-8.21c-1.36-2.54-4.27-3.89-7.11-4.44c-2.84-0.55-5.77-0.46-8.61-1.01
						c-6.61-1.29-12.36-6.3-14.54-12.65c-0.57-1.66-0.9-3.47-0.45-5.16c1.65-6.16,10.33-2.28,13.77-0.08
						c3.05,1.94,5.73,4.42,8.65,6.54c7.96,5.78,17.53,8.82,26.92,11.78c10.47,3.3,21.69,6.61,32.23,3.56
						c2.02-0.59,4.68-1.19,5.83,0.57c0.82,1.26,0.16,3.04-1.03,3.96c-0.62,0.48-1.35,0.78-2.11,0.99
						C136.21,170.67,135.49,170.79,134.78,170.9z M244.35,142.8c-2.63,0.63-5.45,0.62-8.22,0.6c-8.58-0.06-18.26-8.23-26.85-8.29
						c-2.87-0.02-4.68,8.08-7.42,8.67c-2.4,0.52-5.67-6.63-7.97-5.9c-9.16,2.9-18.49,9.99-28.48,9.76
						c-10-0.23-20.93,0.71-27.65,6.38c29.57,8.16,60.49-13.33,89.42-3.71c6.6,2.19,15.73,10.33,22.32,8.53
						c3.4-0.93,5.89-3.15,8.23-5.28c2.17-1.99,4.35-3.97,6.52-5.96c0.93-0.85,1.9-1.78,2-2.92c0.08-0.9-0.4-1.79-0.87-2.63
						C253.99,121.75,259.52,139.41,244.35,142.8z M123.59,131.88c-3.06,0.35-6.22,0.36-9.11,1.31c-2.89,0.95-5.52,3.15-5.51,5.81
						c4.17-0.01,8.67,0.12,12.29-1.82c37.5-20.09,24.41,6.69,37.49-7.53c0.24-13-10.64-10.28-20.75-6.32
						C128.11,127.21,134.61,130.64,123.59,131.88z M92.23,80.92c0.57,3.77,3.42,6.73,6.13,9.42c1.57,1.55,3.18,3.14,5.17,4.1
						c6.03,2.91,13-0.7,19.64-1.61c3.91-0.54,7.89-0.11,11.81,0.33c9.55,1.05,19.1,2.1,28.64,3.15c0.86,0.09,1.78,0.18,2.56-0.19
						c1.73-0.82,1.72-3.51,0.41-4.9c-1.31-1.4-3.34-1.8-5.25-2.02c-7.1-0.81-14.27-0.01-21.42-0.07c-7.15-0.06-14.58-1.1-20.49-5.1
						c-3.18-2.16-6.03-4.76-8.96-7.24C94.9,63.58,90.5,69.34,92.23,80.92z"/>
				</g>
				<g>
					<path class="st65" d="M57.38,72.42c7.63-10.9,18.24-2.16,22.29-14.65c2.54-7.82,5.83-21.12,13.64-29.35
						c9.02-9.5,9.96,13.12,19.44,12.64c2.3-0.12,4.14-1.89,6.27-2.77c7.77-3.21,14.91,5.67,22.92,8.23
						c7.57,2.43,16.65-0.87,23.34,3.42c3.14,2.01,5.12,5.38,6.73,8.74c3.95,8.26,18.86,15.2,19.43,24.33
						c0.25,3.47-9.41-8.2-23.95,0.35c-1.64,0.96-3.56,1.66-5.45,1.46c-1.9-0.2-3.42-1.61-4.71-3.02
						c-4.93-5.36-8.88-11.81-14.97-15.82s-11.97-6.29-19.34-4.14c13.5,7.34,14.18,25.46,6.32,24.34
						c-37.11-5.29-29.27,24.02-36.7,26.81c-4.9,1.84-9.95,3.71-15.19,3.57c-5.24-0.13,6.45-16.77,4.46-21.59
						c-2-4.85-1.99-12.72-7.26-12.57c-1.65,0.05-3.08,1.08-4.4,2.08c-6.36,4.81-12.71,9.62-19.07,14.43
						c-2.79,2.11-5.7,4.38-7.04,7.6c-1.25,3.02-0.93,6.42-1.14,9.68c-0.61,9.45-6.17,18.45-14.38,23.23
						c9.9-31.83,2.22-31.44,5.03-38.32C38.12,90.26,41.11,95.67,57.38,72.42z M210.09,89.27c2.97,1.28,6.05,2.58,9.29,2.56
						c3.91-0.02,7.6-1.98,11.51-2.11c6.33-0.2,7.29,19.98,11.98,24.23c4.96,4.49,14.43-6.6,17.83-0.84
						c1.39,2.35,2.49,4.86,3.93,7.18c2.51,4.03,7.74,8.28,11.9,10.59c-0.2-11.22-9.11-22-17.36-29.64s-12.87-11.75-20.18-20.29
						c-1.59-1.86-4.3-3.98-6.13-2.34c-1.88,1.69-6.75,0.84-9.23,1.38c-0.86,0.19-1.72-0.3-2.47-0.76
						C210.31,72.56,192.92,81.87,210.09,89.27z"/>
				</g>
				<g>
					<path class="st66" d="M150.91,62.91c4.02-0.28,8.1,1.52,10.13,6.29c2.21,5.2-0.52,11.93-5.74,14.14
						c-5.22,2.2-11.98-0.52-14.19-5.71C137.7,69.64,144.22,63.38,150.91,62.91z M154.37,105.77c-1.26,3.76,1.03,8.32,4.81,9.58
						c3.78,1.25,8.36-1.03,9.61-4.79c1.15-3.45-0.15-6.29-2.4-8C162.65,99.71,156.3,99.99,154.37,105.77z M73.48,79.47
						c-1.56,4.66,1.28,10.31,5.96,11.86c4.68,1.55,10.35-1.28,11.91-5.93c1.43-4.28-0.19-7.79-2.97-9.91
						C83.74,71.97,75.88,72.32,73.48,79.47z M66.05,168.57c-1.77,5.3,1.46,11.72,6.77,13.48c5.32,1.76,11.77-1.45,13.54-6.75
						c1.63-4.86-0.22-8.86-3.38-11.26C77.71,160.03,68.77,160.43,66.05,168.57z M168.91,131.43c-1.6,4.79,1.32,10.61,6.13,12.21
						c4.81,1.6,10.65-1.31,12.25-6.11c1.47-4.4-0.19-8.02-3.06-10.2C179.47,123.7,171.37,124.06,168.91,131.43z M214.13,136.17
						c-1.61,4.83,1.33,10.69,6.18,12.3c4.85,1.61,10.73-1.32,12.35-6.15c1.48-4.43-0.2-8.08-3.08-10.27
						C224.77,128.38,216.61,128.75,214.13,136.17z M185.3,126.27c-1.6,4.79,1.32,10.61,6.13,12.21c4.81,1.6,10.65-1.31,12.25-6.11
						c1.47-4.4-0.19-8.02-3.06-10.2C195.86,118.54,187.76,118.9,185.3,126.27z M59.23,154.77c5.63-0.66,10.15-6.36,9.49-11.96
						c-0.66-5.61-6.38-10.11-12.01-9.45c-5.17,0.6-8.05,4-8.9,7.92C46.38,147.8,50.58,155.78,59.23,154.77z M232.94,139.27
						c3.97,3.93,10.55,4.94,15.53,2.39c4.98-2.55,7.98-8.47,7.08-13.98c-0.9-5.51-5.62-10.18-11.16-11.03
						c-3.71-0.57-7.01,0.41-9.59,2.31C228.7,123.45,226.65,133.05,232.94,139.27z M118.38,181.12c3.8,3.76,12.14,4.73,16.9,2.29
						c4.76-2.44,7.63-8.1,6.77-13.36c-0.86-5.26-7.42-9.73-12.71-10.54c-3.54-0.55-6.7,0.4-9.17,2.21
						C114.33,166,112.37,175.18,118.38,181.12z M190.85,90.16c3.09,3.06,8.22,3.85,12.09,1.86c3.88-1.99,6.21-6.59,5.52-10.88
						s-4.38-7.92-8.69-8.59c-2.89-0.44-5.46,0.32-7.47,1.8C187.55,77.85,185.95,85.32,190.85,90.16z M49.02,106.44
						c3.83,3.79,10.18,4.77,14.98,2.31c4.8-2.46,7.7-8.17,6.83-13.48c-0.86-5.31-5.42-9.82-10.76-10.64
						c-3.58-0.55-6.76,0.4-9.25,2.23C44.93,91.18,42.96,100.44,49.02,106.44z M239.29,180.04c2.54,2.51,6.75,3.16,9.94,1.53
						c3.19-1.63,5.1-5.42,4.53-8.94c-0.57-3.52-3.6-6.51-7.14-7.05c-2.37-0.37-4.49,0.26-6.14,1.48
						C236.58,169.92,235.27,176.06,239.29,180.04z M121.88,139.05c3.29,3.25,8.73,4.09,12.85,1.98c4.12-2.11,6.6-7,5.86-11.56
						c-0.74-4.55-4.65-8.42-9.23-9.12c-3.07-0.47-5.8,0.34-7.93,1.91C118.37,125.97,116.68,133.91,121.88,139.05z"/>
				</g>
				<g>
					<path class="st64" d="M65.9,141.71c0.47,0.72,0.75,1.58,0.66,2.43c-0.1,0.85-0.61,1.67-1.4,2.06
						c-0.88,0.43-1.97,0.28-2.82-0.19c-0.85-0.48-1.47-1.24-1.97-2.04c-0.46-0.75-0.84-1.58-0.84-2.45c0-1.58,0.84-2.16,1.92-2.17
						C63.02,139.32,65.14,140.55,65.9,141.71z M131.22,164.03c-1.84,0.16-3.23,1.23-2.59,3.77c0.33,1.32,1.26,2.45,2.33,3.36
						c1.34,1.14,3.16,2.05,4.88,1.57c1.72-0.49,2.76-2.36,2.51-4.05c-0.25-1.69-1.58-3.12-3.2-3.88
						C133.95,164.23,132.48,163.92,131.22,164.03z M200.56,74.9c-0.55,0.09-1.07,0.35-1.43,0.78c-1.18,1.39,0.07,3.17,1.01,4.24
						c0.58,0.66,1.33,1.19,2.17,1.37s1.79-0.02,2.4-0.65c0.76-0.78,0.87-2.08,0.44-3.09c-0.43-1.01-1.32-1.76-2.29-2.23
						c-0.61-0.29-1.27-0.49-1.94-0.47C200.8,74.87,200.68,74.88,200.56,74.9z M60.53,88.08c-0.68,0.11-1.33,0.43-1.78,0.97
						c-1.46,1.73,0.09,3.93,1.26,5.26c0.72,0.82,1.64,1.47,2.69,1.7c1.04,0.23,2.21-0.03,2.97-0.81c0.94-0.96,1.08-2.57,0.54-3.83
						c-0.54-1.26-1.63-2.18-2.84-2.76c-0.75-0.36-1.58-0.61-2.41-0.58C60.82,88.04,60.67,88.05,60.53,88.08z M243.99,121.56
						c-1.76,0.26-3.19,1.27-2.98,3.33c0.12,1.14,0.75,2.17,1.45,3.09c0.87,1.16,1.93,2.25,3.3,2.83s3.1,0.56,4.25-0.36
						c2.71-2.18,0.98-6.54-1.56-8.08C247.28,121.67,245.51,121.33,243.99,121.56z"/>
				</g>
				<g>
					<path class="st67" d="M218.06,175.71c-0.35,0-0.71-0.09-1.04-0.28l-5.5-3.17c-1-0.57-1.34-1.85-0.77-2.84
						c0.57-1,1.84-1.34,2.84-0.77l5.5,3.17c1,0.57,1.34,1.85,0.77,2.84C219.48,175.34,218.78,175.71,218.06,175.71z M48.92,173.36
						c-0.77,0-1.51-0.43-1.87-1.17l-2.78-5.7c-0.5-1.03-0.07-2.28,0.96-2.78c1.03-0.5,2.28-0.07,2.78,0.96l2.78,5.7
						c0.5,1.03,0.07,2.28-0.96,2.78C49.54,173.29,49.23,173.36,48.92,173.36z M170.02,162.26c-0.35,0-0.71-0.09-1.04-0.28
						c-0.99-0.58-1.33-1.85-0.76-2.84l3.18-5.48c0.58-1,1.85-1.33,2.84-0.76c0.99,0.58,1.33,1.85,0.76,2.84l-3.18,5.48
						C171.43,161.89,170.73,162.26,170.02,162.26z M260.96,161.08c-0.71,0-1.4-0.36-1.79-1.02l-3.24-5.45
						c-0.59-0.99-0.26-2.27,0.73-2.85c0.99-0.59,2.27-0.26,2.85,0.73l3.24,5.45c0.59,0.99,0.26,2.27-0.73,2.85
						C261.69,160.99,261.32,161.08,260.96,161.08z M109.98,120.02c-0.53,0-1.07-0.2-1.47-0.61c-0.81-0.81-0.81-2.13,0-2.94
						l4.49-4.49c0.81-0.81,2.13-0.81,2.94,0c0.81,0.81,0.81,2.13,0,2.94l-4.49,4.49C111.05,119.81,110.51,120.02,109.98,120.02z
						 M209.32,107.05c-0.35,0-0.71-0.09-1.04-0.28l-5.5-3.17c-1-0.57-1.34-1.85-0.77-2.84c0.57-1,1.84-1.34,2.84-0.77l5.5,3.17
						c1,0.57,1.34,1.85,0.77,2.84C210.74,106.67,210.04,107.05,209.32,107.05z"/>
				</g>
			</g>
			<g class="st11">
				<path class="st12" d="M300.55,181.26c0,0,1.73-2.67,4.03-7.45c5.98-12.39-0.66-26.66-13.63-31.28c0,0-18.18,8.66-37.93,15.12
					c-28.25,9.25-67.23,12.97-97.95,12.97c-29.01,0-72.18-5.63-96.92-13.24c-19.1-5.88-38.61-16-38.61-16
					c-17.01,3.33-25.1,22.01-15.34,35.64c0.27,0.38,0.42,0.57,0.42,0.57s30.63,27.43,148.78,27.75
					C271.36,205.65,300.55,181.26,300.55,181.26z"/>
			</g>
			<g>
				<path class="st68" d="M192.03,478.92c4.58,2.35,10.8,0.77,13.7-3.48c0.7-1.03,1.22-2.19,1.39-3.42
					c0.28-2.03-0.41-4.11-1.56-5.81c-2.1-3.13-5.77-5.13-9.54-5.22C185.16,460.74,182.81,474.18,192.03,478.92z"/>
				<path class="st68" d="M82.91,434.75c4.95-3.44,4.23-15.24-0.67-18.37c-4.07-2.6-10.02-1.68-13.11,2.04
					c-3.09,3.72-2.9,9.74,0.4,13.26c1.9,2.02,4.57,3.17,7.28,3.75C78.87,435.87,81.18,435.95,82.91,434.75z"/>
				<path class="st68" d="M215.51,500.34c-2.03-1.75-4.6-3.02-7.28-2.99c-3.06,0.03-5.89,1.74-8.09,3.87
					c-1.53,1.49-2.86,3.23-3.62,5.23c-1.81,4.79,0.18,10.66,4.41,13.53c4.23,2.88,10.27,2.64,14.4-0.38
					C222.72,514.22,221.88,505.8,215.51,500.34z"/>
				<path class="st68" d="M217.71,446.05c3.02-4.1,2.59-10.43-1.12-13.92c-6.77-6.37-21.14-0.01-19.75,9.57
					C198.24,451.39,212.45,453.2,217.71,446.05z"/>
				<path class="st68" d="M79.13,474.02c-2.39,6.32,0.24,14.07,5.82,17.86s13.55,3.49,19.01-0.5c9.73-7.11,8.63-18.22,0.23-25.43
					c-2.68-2.3-6.07-3.98-9.61-3.95c-4.04,0.04-7.77,2.3-10.68,5.11C81.88,469.08,80.13,471.38,79.13,474.02z"/>
				<path class="st68" d="M55.74,389.62c3.33,5.04,10.32,7.57,16.04,5.4c6.54-2.49,10.22-10.7,7.74-17.24
					c-6.09-16.02-31.07-6.52-24.97,9.5C54.85,388.11,55.25,388.9,55.74,389.62z"/>
				<path class="st68" d="M166.22,464.08c18.33,1.36,17.28-28.96,0.97-27.34c-2.35,0.23-4.57,1.27-6.47,2.66
					c-3.35,2.45-5.88,6.19-6.36,10.32C153.55,456.61,159.31,463.57,166.22,464.08z"/>
				<path class="st68" d="M248.4,473.92c0.3-0.35,0.59-0.7,0.85-1.08c0.22-0.31,0.42-0.63,0.61-0.96c2.86-5,2.26-11.67-1.18-16.29
					c-8.94-12.01-24.07-4.77-23.76,9.32c0.13,5.75,3.95,11.38,9.36,13.19C238.14,474.94,243.36,473.51,248.4,473.92z"/>
				<path class="st68" d="M154.23,417.36c0.91-10.63-9.44-16.82-18.79-14.57c-5.01,1.2-9.65,4.28-11.97,8.63
					C112.99,431.13,152.38,439,154.23,417.36z M138.32,411.83c0.84-7.3,7.47-4.56,10.64-0.28c0.79,1.07,1.37,2.24,1.58,3.38
					c0.3,1.61,0.17,3.32-0.57,4.78s-2.16,2.6-3.77,2.83c-3.03,0.42-5.6-2.33-6.83-5.13C138.6,415.65,138.1,413.73,138.32,411.83z"/>
				<path class="st68" d="M251.9,416.09c-1.22-0.03-2.43,0.13-3.59,0.46c-5.51,1.57-9.96,6.93-10.02,12.74
					c-0.06,7.04,6.21,13.48,13.24,13.72c3.05,0.1,5.55-0.58,7.53-1.78c0.53-7.21,1.05-14.38,1.57-21.53
					C258.51,417.6,255.59,416.2,251.9,416.09z"/>
				<path class="st68" d="M248.4,473.92c-3.22,3.71-8.51,5.65-13.28,4.44c-0.29-0.07-0.56-0.16-0.84-0.26
					c-0.82,0.67-1.58,1.41-2.26,2.23c-4.61,5.58-4.86,14.61,0.11,19.87c4.64,4.91,13.84,7.96,20.7,5.79
					c0.74-3.15,1.31-6.37,1.77-9.6c-0.96,0.61-2.06,0.97-3.22,0.96c-2.41-0.03-4.61-1.58-5.98-3.56c-1.37-1.99-2.03-4.37-2.53-6.73
					c-1.98-9.37,5.02-9.99,11.17-4.83c0.64,0.54,1.23,1.14,1.74,1.81c0.04,0.05,0.07,0.1,0.11,0.15c0.11-1.34,0.21-2.67,0.31-3.99
					c0.09-1.23,0.18-2.45,0.27-3.67c-1.34-0.89-2.91-1.59-4.74-2.05C250.65,474.18,249.53,474.01,248.4,473.92z"/>
				<path class="st68" d="M62.65,445.52c-2.03-1.75-4.6-3.02-7.28-2.99c-3.06,0.03-5.89,1.74-8.09,3.87
					c-0.12,0.12-0.23,0.24-0.35,0.36c0.44,6.89,0.84,13.08,1.19,18.43c4.23,2.84,10.23,2.59,14.35-0.41
					C69.85,459.4,69.02,450.99,62.65,445.52z M64.66,457.35c-0.26,1.06-0.88,2.07-1.83,2.61c-1.49,0.86-3.44,0.38-4.84-0.63
					c-1.98-1.42-3.19-3.86-3.12-6.3c0.06-2.13,1.1-4.31,2.79-5.63c1.66-1.3,4.19,0.39,5.26,1.79c0.3,0.39,0.56,0.82,0.77,1.26
					c0.55,1.13,0.86,2.38,1.03,3.63C64.87,455.17,64.93,456.29,64.66,457.35z"/>
				<path class="st68" d="M220.88,524.25c-4.61,5.58-4.86,14.61,0.11,19.87c0.12,0.13,0.25,0.25,0.38,0.38
					c6.76-2.99,12.93-6.84,17.91-11.95c3.2-3.28,5.75-6.9,7.8-10.76c-1.66-1.55-3.8-2.74-6.48-3.42
					C233.59,516.6,225.49,518.67,220.88,524.25z"/>
				<path class="st68" d="M197.88,542.35c-2.86-0.13-5.71,0.83-7.6,3.08c-1.82,2.17-2.6,5.3-1.64,7.93
					c3.41-0.55,6.81-1.18,10.18-1.9c2.91-0.62,5.82-1.32,8.71-2.12c-0.26-0.9-0.67-1.77-1.2-2.55
					C204.51,544.09,201.19,542.5,197.88,542.35z"/>
				<path class="st68" d="M180.58,516.62c-5.77-3-13.63-1.02-17.3,4.34c-7.99,11.68,3.98,22.74,15.77,19.71
					c4-1.02,7.34-3.7,7.56-6.79l0.36-0.62C189.25,527.18,186.35,519.62,180.58,516.62z"/>
				<path class="st68" d="M182.49,479.68c-3.37-2.24-7.22-3.99-11.26-4.08c-5.38-0.13-9.96,2.74-12.73,6.85
					c-1.67-12.02-19.45-16.27-27.46-6.64c-13.98,16.8,14.44,32.68,24.74,17.43c0.26,2.14,0.99,4.25,2.29,6.21
					c7.62,11.44,25.54,3.16,29.11-7.59c0.9-2.71,0.88-5.84-0.6-8.29C185.6,481.94,184.06,480.73,182.49,479.68z M183.05,489.67
					c-0.21,1.14-0.57,2.27-1.07,3.32c-0.77,1.59-1.89,2.99-3.41,3.88c-2.51,1.48-6.2,1.11-7.83-1.31c-1.37-2.03-0.96-4.84,0.22-6.99
					c1.94-3.52,10.15-9.39,12.05-2.79C183.37,487.04,183.29,488.39,183.05,489.67z"/>
				<path class="st68" d="M51.08,496.78c1.07,6.2,2.64,12.26,5.11,17.95c0.49,0.1,0.99,0.16,1.5,0.15c2.05-0.04,3.99-1.06,5.49-2.45
					c2.75-2.57,4.16-6.51,3.65-10.24C65.62,493.33,56.19,491.63,51.08,496.78z"/>
				<path class="st68" d="M128.92,524.79c1.52-1.94,3.08-3.96,3.6-6.37c1.07-4.99-2.74-9.81-7.1-12.48c-7-4.28-18.23-4.79-23.4,2.75
					c-0.67,0.98-1.23,2.18-1.68,3.5c-1.53-1.55-3.4-3-5.66-4.29c-19.09-10.91-29.65,16.35-21.6,28.08c2.36,1.75,4.86,3.35,7.49,4.81
					c0.73,0.13,1.49,0.22,2.31,0.24c10.52,0.28,17.95-4.33,21.05-10.47c3.24,2.13,7.51,2.2,11.44,2.05
					c1.84-0.07,3.71-0.17,5.45-0.78C124.25,530.64,126.68,527.64,128.92,524.79z M120.76,522.06c-1.63-0.77-2.85-2.24-3.63-3.86
					s-1.16-3.41-1.46-5.18c-0.19-1.09-0.35-2.22-0.07-3.28c1.23-4.75,7.93-1.92,10.08,0.41c0.35,0.38,0.66,0.79,0.94,1.23
					c1.29,2.02,1.77,4.55,1.26,6.9c-0.29,1.32-0.91,2.62-1.99,3.44C124.45,522.79,122.39,522.83,120.76,522.06z"/>
				<path class="st68" d="M115.37,448.89c-0.08,0.59-0.11,1.21-0.08,1.86c0.01,0.27,0.04,0.54,0.08,0.81
					c1.84,13.44,24.8,9.2,20.86-4.47c-1.92-6.66-8.98-8.2-14.38-6.03c1.02-5.32-1.44-11.27-6.14-14.04
					c-5.46-3.22-13.22-1.72-17.09,3.3c-2.22,2.88-3.16,6.58-3.33,10.21c-0.14,2.76,0.23,5.76,2.15,7.75
					C101.21,452.18,109.55,451.79,115.37,448.89z M108.2,436.07c2.06-2.53,8.05-6.56,9.97-1.61c0.73,1.89,0.17,4.03-0.6,5.9
					c-0.16,0.38-0.33,0.76-0.51,1.14c-0.54,1.11-1.2,2.16-2.09,3c-1.19,1.13-2.85,1.86-4.47,1.62c-2.06-0.3-3.69-2.18-4.04-4.23
					C106.11,439.83,106.88,437.69,108.2,436.07z"/>
				<path class="st68" d="M150.14,538.8c-7-4.28-18.23-4.79-23.4,2.75c-2.02,2.95-3.06,7.81-2.71,12.3
					c3.74,0.55,7.49,0.99,11.26,1.33c-0.01-0.05-0.03-0.09-0.04-0.14c-0.45-2.64,0.55-5.38,2.23-7.45
					c2.64-3.24,10.33-8.41,12.79-2.07c0.94,2.42,0.22,5.16-0.77,7.57c-0.2,0.49-0.42,0.98-0.65,1.46c-0.24,0.49-0.5,0.96-0.78,1.43
					c1.87,0.06,3.74,0.1,5.61,0.11c0.39,0,0.77-0.01,1.16-0.01c1.08-1.47,2.02-3.03,2.4-4.8
					C158.31,546.28,154.5,541.47,150.14,538.8z"/>
				<path class="st66" d="M149.51,553.09c0.99-2.4,1.7-5.14,0.77-7.57c-2.46-6.35-10.15-1.17-12.79,2.07
					c-1.69,2.07-2.68,4.82-2.23,7.45c0.01,0.05,0.03,0.09,0.04,0.14c4.25,0.39,8.51,0.66,12.78,0.79c0.28-0.46,0.55-0.94,0.78-1.43
					C149.09,554.08,149.31,553.59,149.51,553.09z"/>
				<path class="st66" d="M110.5,446.12c1.62,0.24,3.28-0.49,4.47-1.62c0.89-0.84,1.55-1.89,2.09-3c0.18-0.37,0.35-0.76,0.51-1.14
					c0.77-1.87,1.33-4.01,0.6-5.9c-1.92-4.95-7.91-0.91-9.97,1.61c-1.32,1.62-2.09,3.76-1.74,5.81
					C106.81,443.94,108.44,445.81,110.5,446.12z"/>
				<path class="st66" d="M62.92,449.2c-1.07-1.4-3.6-3.1-5.26-1.79c-1.69,1.32-2.73,3.5-2.79,5.63c-0.07,2.44,1.14,4.88,3.12,6.3
					c1.4,1,3.35,1.48,4.84,0.63c0.95-0.54,1.57-1.55,1.83-2.61c0.26-1.06,0.21-2.18,0.06-3.26c-0.17-1.25-0.48-2.5-1.03-3.63
					C63.48,450.02,63.22,449.59,62.92,449.2z"/>
				<path class="st66" d="M146.19,422.53c1.62-0.22,3.03-1.37,3.77-2.83s0.87-3.17,0.57-4.78c-0.21-1.13-0.79-2.3-1.58-3.38
					c-3.17-4.28-9.8-7.02-10.64,0.28c-0.22,1.9,0.28,3.81,1.05,5.56C140.6,420.2,143.16,422.95,146.19,422.53z"/>
				<path class="st66" d="M170.96,488.58c-1.19,2.15-1.59,4.96-0.22,6.99c1.63,2.42,5.32,2.79,7.83,1.31
					c1.52-0.89,2.64-2.29,3.41-3.88c0.51-1.05,0.86-2.18,1.07-3.32c0.24-1.29,0.33-2.63-0.04-3.89
					C181.11,479.19,172.91,485.06,170.96,488.58z"/>
				<path class="st66" d="M127.88,518.26c0.51-2.34,0.03-4.88-1.26-6.9c-0.28-0.43-0.59-0.85-0.94-1.23
					c-2.15-2.34-8.85-5.17-10.08-0.41c-0.28,1.07-0.11,2.2,0.07,3.28c0.31,1.77,0.68,3.56,1.46,5.18s2,3.09,3.63,3.86
					c1.63,0.77,3.69,0.73,5.13-0.35C126.97,520.89,127.59,519.59,127.88,518.26z"/>
				<path class="st66" d="M254.05,482.22c-6.15-5.16-13.15-4.54-11.17,4.83c0.5,2.36,1.16,4.74,2.53,6.73
					c1.37,1.99,3.57,3.53,5.98,3.56c1.16,0.01,2.25-0.35,3.22-0.96c0.57-4.06,0.97-8.16,1.3-12.21c-0.04-0.05-0.07-0.1-0.11-0.15
					C255.28,483.37,254.69,482.76,254.05,482.22z"/>
			</g>
		</g>
		<g id="Stroke_00000180328336392311751790000006901676746439617717_">
			<g>
				<path d="M8.88,180c-3.69-2.45-5.87-7.44-6.63-11.62c-1.33-7.28,0.99-15.58,6.26-20.84c2.85-2.84,6.57-4.8,10.6-5.19
					c1.24-0.12,1.25-2.07,0-1.95C2.69,141.99-4.75,163.2,3.2,176.4c1.2,1.99,2.74,3.99,4.7,5.29C8.95,182.38,9.93,180.69,8.88,180
					L8.88,180z"/>
			</g>
			<g>
				<path d="M17.37,186.46c9.27,3.65,18.9,6.32,28.59,8.57c11.36,2.64,22.85,4.66,34.39,6.31c24.06,3.44,48.39,5.36,72.69,5.78
					c11.73,0.2,23.49,0.05,35.19-0.79c1.25-0.09,1.26-2.04,0-1.95c-22.03,1.6-44.25,0.96-66.27-0.59
					c-23.99-1.69-48.01-4.59-71.52-9.74c-11.04-2.42-22.03-5.32-32.56-9.47C16.72,184.11,16.21,186,17.37,186.46L17.37,186.46z"/>
			</g>
			<g>
				<path d="M244.49,201.82c8.92-1.79,17.83-3.82,26.6-6.26c8.47-2.36,16.81-5.25,24.68-9.2c1.12-0.56,0.14-2.25-0.99-1.69
					c-7.86,3.94-16.2,6.79-24.66,9.13c-8.63,2.38-17.39,4.38-26.16,6.14C242.74,200.18,243.26,202.07,244.49,201.82L244.49,201.82z"
					/>
			</g>
			<g>
				<path d="M302.32,180.13c4.65-6.34,6.09-15.3,3.75-22.81c-2.28-7.33-8.27-12.57-15.35-15.16c-1.18-0.43-1.69,1.45-0.52,1.88
					c6.54,2.39,12.1,7.33,14.09,14.15c2.04,6.98,0.63,15.09-3.66,20.95C299.89,180.16,301.58,181.13,302.32,180.13L302.32,180.13z"
					/>
			</g>
			<g>
				<path d="M39.3,151.14c6.13,2.52,12.35,5.06,18.74,6.84c11.22,3.14,22.63,5.6,34.11,7.55c23.67,4.03,47.74,5.87,71.74,5.58
					c13.16-0.16,26.31-0.98,39.38-2.54c1.23-0.15,1.25-2.1,0-1.95c-23.45,2.8-47.17,3.24-70.72,1.69
					c-23.67-1.56-47.26-5.15-70.21-11.19c-7.71-2.03-15.15-4.84-22.52-7.86C38.66,148.78,38.15,150.67,39.3,151.14L39.3,151.14z"/>
			</g>
			<g>
				<path d="M20.04,222.24c0.31,5.17,0.62,10.34,0.93,15.52c0.75,12.42,1.49,24.83,2.24,37.25c0.9,14.93,1.79,29.85,2.69,44.78
					c0.78,12.97,1.56,25.95,2.34,38.92c0.38,6.28,0.64,12.59,1.13,18.87c0.01,0.08,0.01,0.17,0.02,0.25c0.07,1.25,2.03,1.26,1.95,0
					c-0.31-5.17-0.62-10.34-0.93-15.52c-0.75-12.42-1.49-24.83-2.24-37.25c-0.9-14.93-1.79-29.85-2.69-44.78
					c-0.78-12.97-1.56-25.95-2.34-38.92c-0.38-6.28-0.64-12.59-1.13-18.87c-0.01-0.08-0.01-0.17-0.02-0.25
					C21.92,220.99,19.97,220.98,20.04,222.24L20.04,222.24z"/>
			</g>
			<g>
				<path d="M33.49,438.64c0.76,14.09,1.57,28.17,2.74,42.23c0.64,7.75,1.35,15.52,2.47,23.22c0.38,2.66,0.8,5.32,1.46,7.93
					c0.98,3.88,2.77,7.57,4.77,11.02c2.99,5.15,6.64,9.95,10.71,14.29c3.81,4.07,8.08,7.88,12.94,10.64
					c1.09,0.62,2.08-1.06,0.99-1.69c-4.28-2.44-8.05-5.7-11.47-9.22c-3.75-3.85-7.12-8.08-10.01-12.61
					c-2.4-3.76-4.59-7.81-5.82-12.13c-0.67-2.35-1.07-4.79-1.45-7.2c-2.41-15.46-3.27-31.22-4.24-46.83
					c-0.41-6.55-0.77-13.1-1.12-19.66C35.37,437.39,33.42,437.39,33.49,438.64L33.49,438.64z"/>
			</g>
			<g>
				<path d="M237.06,549c9.35-4.66,17.07-12.5,21.52-21.96c2.62-5.55,3.93-11.54,5.03-17.55c1.21-6.58,2.26-13.18,3.16-19.81
					c1-7.37,1.82-14.75,2.46-22.16c0.11-1.25-1.85-1.24-1.95,0c-1.11,12.92-2.78,25.8-5.03,38.57c-1.05,5.98-2.11,12.05-4.38,17.71
					c-1.91,4.79-4.72,9.24-8.15,13.08c-3.85,4.31-8.48,7.84-13.65,10.42C234.95,547.87,235.94,549.56,237.06,549L237.06,549z"/>
			</g>
			<g>
				<path d="M274.69,373.95c-0.52,7.12-1.04,14.24-1.57,21.37c-0.83,11.3-1.66,22.6-2.49,33.9c-0.19,2.6-0.38,5.2-0.57,7.8
					c-0.09,1.25,1.86,1.25,1.95,0c0.52-7.12,1.04-14.24,1.57-21.37c0.83-11.3,1.66-22.6,2.49-33.9c0.19-2.6,0.38-5.2,0.57-7.8
					C276.74,372.7,274.78,372.71,274.69,373.95L274.69,373.95z"/>
			</g>
			<g>
				<path d="M282.34,269.65c-0.21,2.85-0.42,5.69-0.63,8.54c-0.5,6.84-1,13.68-1.5,20.52c-0.61,8.28-1.21,16.56-1.82,24.84
					c-0.53,7.2-1.06,14.39-1.58,21.59c-0.17,2.36-0.35,4.72-0.52,7.08c-0.08,1.1-0.28,2.26-0.25,3.36c0,0.05-0.01,0.1-0.01,0.15
					c-0.09,1.25,1.86,1.25,1.95,0c0.21-2.85,0.42-5.69,0.63-8.54c0.5-6.84,1-13.68,1.5-20.52c0.61-8.28,1.21-16.56,1.82-24.84
					c0.53-7.2,1.06-14.39,1.58-21.59c0.17-2.36,0.35-4.72,0.52-7.08c0.08-1.1,0.28-2.26,0.25-3.36c0-0.05,0.01-0.1,0.01-0.15
					C284.39,268.4,282.43,268.41,282.34,269.65L282.34,269.65z"/>
			</g>
			<g>
				<path d="M149.46,195.34c20.21,1.1,40.55,0.06,60.66-1.99c19.04-1.95,38.1-4.78,56.69-9.38c7.45-1.85,14.92-3.96,21.97-7.03
					c1.15-0.5,0.16-2.18-0.99-1.69c-6.15,2.68-12.66,4.56-19.14,6.24c-8.47,2.19-17.05,3.93-25.67,5.42
					c-20.01,3.47-40.29,5.64-60.58,6.52c-10.97,0.48-21.97,0.55-32.94-0.04C148.21,193.32,148.21,195.27,149.46,195.34
					L149.46,195.34z"/>
			</g>
			<g>
				<path d="M47.08,181.73c22.24,5.32,45.01,8.71,67.77,10.87c6.4,0.61,12.82,1.09,19.24,1.43c1.26,0.07,1.25-1.89,0-1.95
					c-23.13-1.22-46.23-4.14-68.97-8.49c-5.86-1.12-11.71-2.36-17.51-3.74C46.38,179.56,45.86,181.44,47.08,181.73L47.08,181.73z"/>
			</g>
			<g>
				<path d="M104.95,563.6c24.21,5.79,49.42,8.18,74.21,5.23c6.97-0.83,13.88-2.07,20.7-3.75c1.22-0.3,0.7-2.18-0.52-1.88
					c-23.94,5.9-48.98,6.2-73.29,2.54c-6.91-1.04-13.78-2.4-20.58-4.03C104.25,561.43,103.73,563.31,104.95,563.6L104.95,563.6z"/>
			</g>
		</g>
	</g>
</g>
</svg>
