<?xml version="1.0" encoding="utf-8"?>
<!-- Generator: Adobe Illustrator 26.1.0, SVG Export Plug-In . SVG Version: 6.00 Build 0)  -->
<svg version="1.1" xmlns="http://www.w3.org/2000/svg" xmlns:xlink="http://www.w3.org/1999/xlink" x="0px" y="0px"
	 viewBox="0 0 320.74 634.07" style="enable-background:new 0 0 320.74 634.07;" xml:space="preserve">
<style type="text/css">
	.st0{fill:#391F14;}
	.st1{fill:#682320;}
	.st2{fill:#D26F75;}
	.st3{fill:#FEEAE3;}
	.st4{fill:#F8E2E7;}
	.st5{fill:#E86E78;}
	.st6{fill:#F19299;}
	.st7{fill:#F4C3C9;}
	.st8{fill:#B3203B;}
	.st9{fill:#666633;}
	.st10{fill:#C74E69;}
	.st11{opacity:0.4;}
	.st12{fill:#FFFFFF;}
	.st13{fill:#FAEED5;}
	.st14{fill:#DCA455;}
	.st15{fill:#4F3021;}
	.st16{fill:#D69F53;}
	.st17{fill:#FCE3A2;}
	.st18{fill:#FFD480;}
	.st19{fill:#FBAF3C;}
	.st20{fill:#FDC363;}
	.st21{fill:#754A3C;}
	.st22{opacity:0.3;}
	.st23{fill:#DDEADB;}
	.st24{fill:#BCD3C2;}
	.st25{fill:#A3C6AC;}
	.st26{fill:#D8E5DA;}
	.st27{fill:#233328;}
	.st28{fill:#5C6B63;}
	.st29{fill:#82AD91;}
	.st30{fill:#D2DBD1;}
	.st31{fill:#7AA388;}
	.st32{opacity:0.5;}
	.st33{fill:#6C845F;}
	.st34{fill:#5E7553;}
	.st35{fill:#C1786C;}
	.st36{fill:#E7CCC2;}
	.st37{fill:#F8E7DA;}
	.st38{fill:#EAC8B6;}
	.st39{fill:#E3987F;}
	.st40{fill:#F2C4A8;}
	.st41{fill:#7A4D4B;}
	.st42{fill:#DE998E;}
	.st43{fill:#CC644C;}
	.st44{fill:#D88977;}
	.st45{fill:#D87C60;}
	.st46{fill:#F7E4D6;}
	.st47{fill:#8C4330;}
	.st48{fill:#D4695B;}
	.st49{fill:#F0D6BF;}
	.st50{fill:#C19160;}
	.st51{fill:#D8AA75;}
	.st52{fill:#915A26;}
	.st53{fill:#BC7C48;}
	.st54{fill:#5B361E;}
	.st55{fill:#7E4F23;}
	.st56{fill:#CE9957;}
	.st57{fill:#E2BA84;}
	.st58{fill:#22120A;}
	.st59{fill:#554E26;}
	.st60{fill:#F6ECF5;}
	.st61{fill:#DBB6D1;}
	.st62{fill:#F3E4E0;}
	.st63{fill:#996699;}
	.st64{fill:#E8D4E7;}
	.st65{fill:#C48BBD;}
	.st66{fill:#6F3670;}
	.st67{fill:#8F6191;}
	.st68{fill:#441946;}
	.st69{fill:#F3DAD0;}
	.st70{fill:#741112;}
	.st71{fill:#CC3333;}
	.st72{fill:#DE6D57;}
	.st73{fill:#C75044;}
	.st74{fill:#CA4536;}
	.st75{fill:#D25847;}
	.st76{fill:#F3E4DE;}
	.st77{fill:#E06865;}
	.st78{fill:#CC4746;}
	.st79{fill:#436137;}
	.st80{fill:#9A3332;}
	.st81{fill:#EDA99F;}
	.st82{fill:#CC6666;}
	.st83{fill:#E89B95;}
	.st84{fill:#2C1B10;}
	.st85{fill:#CCAAA2;}
	.st86{fill:#EFDFD9;}
	.st87{fill:#836759;}
	.st88{fill:#D1B7A6;}
	.st89{fill:#674E3D;}
	.st90{fill:#B0806D;}
	.st91{fill:#CDAA96;}
	.st92{fill:#967A67;}
	.st93{fill:#EBBC8B;}
	.st94{fill:#6B3715;}
	.st95{fill:#F7DEBC;}
	.st96{fill:#EFE4DA;}
	.st97{fill:#CC6E28;}
	.st98{fill:#B25827;}
	.st99{fill:#A54924;}
	.st100{fill:#9E6031;}
	.st101{fill:#DDDACC;}
	.st102{fill:#908B47;}
	.st103{fill:#AFAA7A;}
	.st104{fill:#7F7E5F;}
	.st105{fill:#8B693E;}
	.st106{fill:#8E4316;}
	.st107{fill:#DDDAB1;}
	.st108{fill:#8F9C58;}
	.st109{fill:#828E3C;}
	.st110{fill:#8E5852;}
	.st111{fill:#CA887F;}
	.st112{fill:#E3988D;}
	.st113{fill:#F2CAB9;}
	.st114{fill:#EDAB9A;}
	.st115{fill:#F2DDBB;}
	.st116{fill:#AC4D27;}
	.st117{fill:#E69F59;}
	.st118{fill:#F2DAAE;}
	.st119{fill:#DA7B38;}
	.st120{fill:#E9C1A4;}
	.st121{fill:#D58761;}
	.st122{fill:#55150F;}
</style>
<g id="Bg">
</g>
<g id="Graphic">
	<g id="Boba_8">
		<g id="Drink_00000011733815113792502850000001888758782590615962_">
			<g>
				<path class="st49" d="M316.35,129.17c0,0-32.22,17.68-77.84,25.25c-50.25,8.35-89.55,11.11-154.24,1.2
					c-52.27-8-81-26.46-81-26.46c-11.19,32.64,10.23,49.11,10.23,49.11S29.7,489.34,40.58,586.76
					c5.52,60.85,212.64,62.74,224.28,7.22c12.56-85.42,38.7-411.93,38.7-411.93S328.61,161.82,316.35,129.17z"/>
			</g>
			<g>
				<path class="st50" d="M40.13,174.78c0,0,24.94-12.75,120-12.75c94.89,0,118.92,13.68,118.92,13.68s-43.85,13.97-118.57,13.97
					C87.51,189.68,40.13,174.78,40.13,174.78z"/>
			</g>
			<g>
				<path class="st51" d="M279.05,175.71c-29.11,7.74-56.17,11.66-92.07,12.57c-7.53,0.19-15.04,0.59-22.57,0.54
					c-19.14-0.14-38.29-0.98-57.34-2.66c0,0-36.14-2.24-66.94-11.38c3.65,35.11,19.54,375.61,24.9,396.24
					c10.11,38.94,92.58,36.05,129.68,32.34c13.56-1.36,19.66-4.25,31.57-9.79c15.45-7.18,16.71-19.8,18.87-32.86
					C245.57,558.16,274.68,228.06,279.05,175.71z"/>
			</g>
			<g>
				<path class="st52" d="M241.94,290.27c23.85,14.98-10.23,40.67-21.58,49.88c-5.36,4.35-12.94,8.6-18.68,4.76
					c-2.97-1.98-4.55-5.75-7.79-7.25c-3.83-1.77-8.39,0.38-11.47,3.28c-3.07,2.9-5.43,6.6-8.96,8.92
					c-3.01,1.98-6.62,2.78-10.17,3.37c-10.53,1.73-21.32,1.82-31.88,0.26c-4.59-0.68-9.36-1.77-12.82-4.86s-5.06-8.72-2.33-12.47
					c3.36-4.62,10.27-3.76,15.99-3.75c7.96,0.01,16.34-3.03,20.82-9.6c5.63-8.25,4.23-20.34,11.26-27.42
					c5.17-5.2,14.31-5.76,20.07-1.22c6.71,5.29,9.92,16.55,18.46,16.51C218.19,310.61,220.6,276.87,241.94,290.27z M72.33,448.76
					c-10.35-9.25-15.74,11.13-15.74,11.13l2.93,47.3c0,0,16.54,19.98,31.41,11.73c7.39-4.1,12.19-12.31,20.19-15.04
					c10.8-3.69,21.8,4.06,32.89,6.78c8.6,2.11,18.48,0.82,24.91-5.27c3.21-3.03,7.77-4.12,6.86-9.32c-0.59-3.33-4.66-6.53-6.81-8.63
					c-4.75-4.64-8.77-9.66-11.33-15.85c-2.45-5.92-3.27-15.61-11.68-14.75c-5.79,0.59-10.64,6.67-15.01,9.95
					c-5.29,3.96-14.7,1.73-18.55,7.79c-1.65,2.6-0.85,8.11-4.36,9.05c-10.53,2.81-21.76-11.67-26.54-19.23
					c-3.03-4.79-4.29-11.05-8.49-15.04C72.78,449.16,72.56,448.96,72.33,448.76z"/>
			</g>
			<g>
				<path class="st53" d="M249.74,509.86c-2.71,30.42-4.49,50.24-4.59,50.86c-2.16,13.05-3.42,25.68-18.87,32.86
					c-11.91,5.54-18.01,8.43-31.57,9.79c-37.1,3.71-119.56,6.6-129.68-32.34c-1.01-3.87-2.38-18.99-3.98-41.24
					c19.18-2.73,40.54,15.29,54.15,28.14c4.43,4.43,12.4,7.08,19.48,4.43c14.17-7.97,7.08-25.68,11.51-38.97
					c0.89-0.89,3.54-1.77,4.43-0.89c11.51,14.17,20.37,29.23,33.65,39.85c7.97,6.2,19.48-4.43,26.57-11.51
					c2.66-2.66,8.86,0.89,11.51-0.89c10.63-7.97-0.89-23.91,11.51-32.77C239.03,513.58,244.34,511.33,249.74,509.86z M186.98,188.28
					c-7.53,0.19-15.04,0.59-22.58,0.54c-19.14-0.14-38.29-0.98-57.34-2.66c0,0-36.14-2.24-66.94-11.38
					c1.11,10.66,3.34,49.49,6.07,98.98c2.83,1.21,6.07,1.29,7.9-1c10.63-11.51,7.97-28.34,9.74-43.39c0-6.2,7.97-14.17,16.83-12.4
					c6.2,1.77,8.86,7.08,14.17,10.63c6.2,2.66,14.17,3.54,16.83,8.86c7.08,11.51-7.97,27.45-0.89,38.97
					c7.97,11.51,30.11,7.97,38.97-2.66c7.08-8.86,11.55-31.14,19.52-39.99c7.08-7.08,22.14-2.66,26.57,6.2
					c5.91,11.16-10.66,20.34-14.39,31.75c-4.59,14.05-4.22,34.62,8.68,44.63c2.93,2.27,7.14,3.3,10.38,1.51
					c4.32-2.38,5.01-8.2,5.17-13.14c0.46-13.46,1.3-25.28,4.31-38.01c2.13-9.02-0.37-16.62,3.53-25.72
					c4.43-10.63,23.03-7.08,30.11,4.43c9.74,15.06,1.77,31,6.2,44.28c1.99,7.46,10.41,7.94,18.98,5.03
					c4.8-54.8,8.83-101.04,10.24-118.02C249.94,183.45,222.88,187.37,186.98,188.28z M262.22,340.07
					c-8.53,3.88-10.08,17.85-14.65,25.04c-1.97,3.1-5.21,5.79-8.88,5.66c-4.9-0.17-8.24-5.08-9.74-9.74
					c-0.01-0.05-0.03-0.09-0.04-0.14c-4.8-13.38-13.72,1.71-16.4,6.53c-5.6,10.1-7.71,10.74-21.13,11.61
					c-17.71,0.89-35.42-14.17-50.48-2.66c-9.74,6.2,3.54,19.48,12.4,20.37c10.63,1.77,21.25,1.77,31.88,2.66
					c12.65,1.05,15.67,16.93,19.27,26.27c1.35,3.5,3.52,6.96,6.97,8.44c3.3,1.41,7.22,0.7,10.33-1.08
					c5.68-3.25,7.85-8.8,12.04-13.38c3.04-3.32,6.49-6.07,10.71-7.72c1.27-0.5,14.16-2.89,14.11-2.25
					c2.03-23.05,4.14-46.98,6.2-70.41C263.96,339.42,263.09,339.67,262.22,340.07z M115.34,403.1c-1.99-0.4-3.88-0.5-5.49-0.1
					c-5.07,1.28-8.97,8.03-12.49,11.93c-1,1.11-2.04,2.32-2.18,3.8c-0.19,2.11,1.54,3.91,3.38,4.98c4.35,2.53,10.03,2.6,14.44,0.16
					c3.42-1.89,7-3.59,11.19-2.16c4.6,1.57,7.65,7.64,13.24,6.26c3.1-0.77,5.06-4.18,4.84-7.36s-2.22-6.03-4.73-8
					c-2.51-1.97-5.51-3.19-8.46-4.4C125.56,406.79,120.16,404.07,115.34,403.1z"/>
			</g>
			<g>
				<g>
					<path class="st0" d="M211.28,229.53c-1.08-3.67-1.47-7.68-0.15-11.29c1.09-2.98,3.26-5.47,5.73-7.5
						c6.75-5.53,16.24-7.82,24.67-5.53c8.44,2.29,15.47,9.3,17.22,17.74s-2.11,17.88-9.59,22.41
						C232.14,255.69,216.46,247.08,211.28,229.53z M106.05,330.17c-6.24-11.63-21.3-12.76-30.51-3.71
						c-11.46,11.26-1.56,29.78,14.11,30.21C103.22,357.03,112.22,341.67,106.05,330.17z M161.86,297.18
						c-7.29-13.59-24.89-14.92-35.66-4.33c-13.39,13.16-1.82,34.82,16.49,35.31C158.56,328.58,169.07,310.62,161.86,297.18z
						 M259.91,270.42c-5.96-11.11-20.34-12.19-29.14-3.54c-10.94,10.75-1.49,28.45,13.48,28.85
						C257.21,296.08,265.8,281.4,259.91,270.42z M234.4,537.23c-7.48-13.94-25.53-15.3-36.57-4.44
						c-13.73,13.5-1.87,35.7,16.91,36.21C231.01,569.43,241.79,551.01,234.4,537.23z M210.63,559.22
						c-5.91-11.01-20.17-12.09-28.89-3.51c-10.85,10.66-1.48,28.21,13.36,28.61C207.95,584.66,216.47,570.11,210.63,559.22z
						 M90.97,277.67c-5.96-11.11-20.34-12.19-29.14-3.54c-10.94,10.75-1.49,28.45,13.48,28.85
						C88.27,303.33,96.86,288.65,90.97,277.67z M113.22,547.29c-11.91-0.15-19.38,11.25-16.25,22.48
						c3.89,13.96,22.84,14.24,30.02,2.05C133.2,561.25,124.99,547.44,113.22,547.29z M164.79,221c-6.6-12.29-22.51-13.49-32.24-3.92
						c-12.11,11.9-1.65,31.48,14.91,31.93C161.8,249.39,171.31,233.15,164.79,221z M200.06,496.36
						c-6.53-12.16-22.27-13.34-31.9-3.88c-11.98,11.77-1.63,31.14,14.75,31.59C197.11,524.45,206.52,508.38,200.06,496.36z
						 M102.82,232.32c-6.49-12.1-22.16-13.28-31.75-3.86c-11.92,11.72-1.62,31,14.68,31.44
						C99.88,260.28,109.24,244.29,102.82,232.32z M156.39,515.25c-6.81-12.7-23.26-13.94-33.32-4.05
						c-12.51,12.29-1.7,32.52,15.41,32.99C153.31,544.58,163.13,527.8,156.39,515.25z M112.69,299.81
						c11.54,4.2,23.39-4.96,28.03-17.39c3.29-8.81,0.66-18-7.63-23c-6.75-4.07-13.33-4.18-18.89-1.9
						C97.83,264.24,90.23,291.64,112.69,299.81z M179.4,297.11c-4.19,13.91,10.83,25.18,23.41,23.6c8.73-1.1,16.02-7.4,17.95-16.69
						c1.57-7.55-0.29-13.21-3.95-16.94C206.21,276.3,184.76,279.36,179.4,297.11z M175.35,256.16
						c13.73,21.38,48.33,1.74,35.07-18.84C198.61,218.97,160.24,232.63,175.35,256.16z M75.23,560.95
						c6.56,7.78,18.85,6.07,27.31-0.94c6-4.98,7.89-12.66,3.99-19.68c-3.17-5.71-7.85-8.5-12.79-9.15
						C79.21,529.26,62.46,545.82,75.23,560.95z M237.05,487.12c-11.37-15.99-36.38,1.7-24.97,17.75c4.65,6.54,14.82,8.26,21.36,3.61
						c0.93-0.66,1.76-1.43,2.48-2.28C240.33,501.03,241.03,492.73,237.05,487.12z M157.68,548.33
						c-14.17,2.99-16.63,20.59-9.09,30.21c5.23,6.68,14.3,9.76,23.33,7.05c7.35-2.21,11.36-6.36,12.82-11.1
						C188.94,560.76,175.77,544.51,157.68,548.33z M84.6,494.52c-9.11,6.83-4.85,20.94,3.82,25.78c6.02,3.36,13.55,2.76,19.08-2.2
						c4.5-4.04,5.95-8.47,5.37-12.53C111.19,493.83,96.23,485.8,84.6,494.52z"/>
				</g>
				<g>
					<path class="st54" d="M205.88,310c-3.41-0.57-5.68-3.87-6.81-7.17c-1.43-4.16-1.57-9.09,0.9-12.79
						c3.99-5.97,13,0.76,14.71,4.05C217.16,298.86,214.08,311.37,205.88,310z M135.8,274.45c0.15-3.71-1.52-7.45-4.38-9.82
						c-2.15-1.78-7.51-4.18-10.27-2.44c-2.67,1.68-2.66,7.72-2.04,10.3c0.81,3.4,3.09,6.43,6.13,8.16c1.77,1.01,3.91,1.59,5.86,1
						c1.2-0.36,2.19-1.13,2.95-2.11C135.13,278.13,135.73,276.25,135.8,274.45z M239.64,211.37c-19.48-3.74,1.41,34.79,11.78,17.42
						c4.68-7.85-2.63-15.19-10.8-17.21C240.29,211.5,239.96,211.43,239.64,211.37z M89.92,541.05c-1.21,5.6,1.37,12.21,8,11.6
						c14.68-1.34-4.25-25.31-7.83-12.27C90.02,540.6,89.97,540.82,89.92,541.05z M245.71,269.1c-3.48,0.57-6.45,3.76-6.62,7.33
						c-0.19,4.1,2.98,7.6,6.49,9.59c2.61,1.48,5.95,2.39,8.56,0.84c2.05-1.22,3.11-3.73,3.14-6.13
						C257.34,274.76,252.1,268.04,245.71,269.1z M149.81,513.32c-1.55-1.62-3.83-2.72-6.12-1.97c-2.1,0.69-3.75,2.87-4.35,5.13
						c-0.6,2.26-0.27,4.58,0.44,6.61c1.2,3.43,3.7,6.36,7.12,7.04c1.24,0.24,2.62,0.17,3.82-0.52
						C157.05,525.98,152.79,516.42,149.81,513.32z M175.34,571.81c1.42-0.35,2.52-1.26,3.27-2.3c2.09-2.88,1.8-6.72,0.17-10.01
						c-0.97-1.95-2.43-3.83-4.56-5.03c-2.12-1.2-4.98-1.59-7.08-0.62c-2.29,1.06-3.19,3.45-3.17,5.69
						C164.02,563.84,167.88,573.64,175.34,571.81z M193.28,508.8c1.28-0.66,2.1-1.77,2.56-2.93c1.26-3.2-0.02-6.77-2.45-9.51
						c-1.44-1.63-3.35-3.07-5.72-3.71c-2.37-0.65-5.23-0.37-7,1.04c-1.94,1.53-2.18,3.99-1.57,6.11
						C180.26,503.86,186.55,512.25,193.28,508.8z"/>
				</g>
			</g>
			<g>
				<path class="st55" d="M144.93,181.17l2.29-45.08l-44.17-1.82l-2.26,44.66C114.46,182.1,130.46,183.66,144.93,181.17z"/>
			</g>
			<g class="st11">
				<path class="st12" d="M303.56,182.05c0,0,25.05-20.23,12.79-52.87c0,0-32.22,17.68-77.84,25.25
					c-50.25,8.35-89.55,11.11-154.24,1.2c-52.27-8-81-26.46-81-26.46c-11.19,32.64,10.23,49.11,10.23,49.11l0,0
					c47.86,14.98,96.36,18.83,144.86,19.42c0.46,0.01,0.93,0.01,1.39,0.02l0,0c32.89,0.43,66.65-2.95,99.1-8.3L303.56,182.05z"/>
			</g>
			<g>
				<ellipse class="st56" cx="160.13" cy="129.99" rx="156.54" ry="40.73"/>
			</g>
			<g>
				<ellipse class="st57" cx="160.13" cy="120.91" rx="114.06" ry="21.2"/>
			</g>
			<g>
				<g>
					<path class="st55" d="M147.56,129.44L153.79,6.7l-44.17-1.82l-6.2,122.32C116.96,130.57,133.59,131.46,147.56,129.44z"/>
				</g>
				<g>
					
						<ellipse transform="matrix(0.0401 -0.9992 0.9992 0.0401 120.6422 137.1613)" class="st58" cx="131.71" cy="5.79" rx="5.72" ry="22.1"/>
				</g>
			</g>
		</g>
		<g id="Stroke_00000085243659577945342860000006461939125738578613_">
			<g>
				<path d="M45.69,462.04c-0.53-8.41-1.06-16.82-1.59-25.23c-0.85-13.38-1.69-26.76-2.54-40.15c-0.19-3.05-0.38-6.09-0.58-9.14
					c-0.08-1.29-2.1-1.3-2.01,0c0.53,8.41,1.06,16.82,1.59,25.23c0.85,13.38,1.69,26.76,2.54,40.15c0.19,3.05,0.38,6.09,0.58,9.14
					C43.76,463.32,45.78,463.33,45.69,462.04L45.69,462.04z"/>
			</g>
			<g>
				<path d="M44.56,479.95c0.31,5.19,0.64,10.39,0.98,15.58c0.77,11.65,1.59,23.29,2.51,34.92c0.96,12.16,1.98,24.33,3.36,36.46
					c0.51,4.5,1.06,9.01,1.81,13.48c0.42,2.48,0.75,5.21,1.85,7.51c1.38,2.87,3.75,5.36,6.08,7.47c2.77,2.51,5.84,4.7,9.01,6.68
					c4.69,2.94,9.65,5.5,14.74,7.67c0.33,0.14,0.66,0.28,0.99,0.41c1.2,0.48,1.72-1.46,0.54-1.94c-0.89-0.36-2.08-0.89-3.19-1.41
					c-2.64-1.22-5.23-2.53-7.76-3.94c-6.18-3.44-12.7-7.54-16.98-13.3c-0.45-0.6-0.86-1.23-1.24-1.88c-0.15-0.25-0.29-0.5-0.42-0.76
					c-0.04-0.07-0.16-0.36-0.04-0.07c-0.17-0.4-0.3-0.83-0.42-1.25c-0.38-1.29-0.64-2.62-0.89-3.94c-0.75-4.05-1.27-8.15-1.76-12.24
					c-1.4-11.74-2.41-23.52-3.36-35.3c-0.95-11.8-1.8-23.61-2.59-35.43c-0.41-6.15-0.7-12.31-1.17-18.46
					c-0.01-0.09-0.01-0.18-0.02-0.27C46.5,478.66,44.49,478.66,44.56,479.95L44.56,479.95z"/>
			</g>
			<g>
				<path d="M4.01,124.7c-5.4,13.66-5.55,29.67,0.85,43.06c1.88,3.94,4.4,7.55,7.5,10.62c0.92,0.91,2.35-0.51,1.42-1.42
					c-9.84-9.74-13.16-25.18-11.37-38.6c0.6-4.51,1.87-8.9,3.54-13.12C6.43,124.03,4.48,123.5,4.01,124.7L4.01,124.7z"/>
			</g>
			<g>
				<path d="M304.09,184.63c11.49-12.69,18.19-29.77,16.35-46.99c-0.52-4.88-1.71-9.61-3.63-14.13c-0.51-1.19-2.24-0.16-1.74,1.02
					c6.58,15.44,3.89,33.6-4.42,47.82c-2.27,3.89-4.96,7.52-7.98,10.86C301.79,184.17,303.21,185.6,304.09,184.63L304.09,184.63z"/>
			</g>
			<g>
				<path d="M29.22,183.87c16.81,3.48,33.74,6.35,50.75,8.6c16.81,2.22,33.71,3.82,50.65,4.76c16.81,0.93,33.66,1.21,50.5,0.79
					c16.63-0.41,33.25-1.5,49.79-3.31c16.21-1.77,32.35-4.23,48.35-7.41c2.03-0.4,4.05-0.82,6.07-1.24
					c1.27-0.27,0.73-2.21-0.54-1.94c-16,3.37-32.15,6.02-48.38,7.95c-16.34,1.95-32.76,3.19-49.21,3.76
					c-16.64,0.58-33.3,0.47-49.94-0.28c-16.83-0.76-33.64-2.18-50.36-4.22c-17-2.07-33.92-4.79-50.72-8.11
					c-2.14-0.42-4.29-0.86-6.43-1.3C28.49,181.67,27.94,183.61,29.22,183.87L29.22,183.87z"/>
			</g>
			<g>
				<path d="M78.83,165.98c21.81,2.92,43.78,4.61,65.77,5.12c22.02,0.51,44.07-0.15,66.02-1.9c12.28-0.98,24.54-2.31,36.75-3.96
					c1.28-0.17,0.73-2.11-0.54-1.94c-21.74,2.93-43.61,4.81-65.53,5.57c-21.92,0.76-43.89,0.41-65.77-1.15
					c-12.27-0.87-24.51-2.12-36.71-3.76C77.55,163.79,77.56,165.81,78.83,165.98L78.83,165.98z"/>
			</g>
			<g>
				<path d="M147.77,184.56c19.37,0.34,38.75-0.2,58.07-1.6c5.51-0.4,11.01-0.87,16.51-1.41c1.28-0.12,1.29-2.14,0-2.01
					c-19.28,1.88-38.64,2.93-58.01,3.09c-5.52,0.05-11.05,0.02-16.57-0.08C146.47,182.52,146.47,184.54,147.77,184.56L147.77,184.56
					z"/>
			</g>
			<g>
				<path d="M267.98,160.52c6.92-1.73,13.76-3.83,20.44-6.36c6.14-2.33,12.23-4.98,17.8-8.48c1.1-0.69,0.09-2.43-1.02-1.74
					c-5.55,3.49-11.6,6.13-17.72,8.43c-6.55,2.46-13.25,4.51-20.03,6.21C266.19,158.89,266.72,160.83,267.98,160.52L267.98,160.52z"
					/>
			</g>
			<g>
				<path d="M255.74,174.94c16.33-2.96,32.25-7.9,47.4-14.65c1.18-0.53,0.16-2.26-1.02-1.74c-14.99,6.68-30.77,11.52-46.92,14.45
					C253.93,173.23,254.47,175.18,255.74,174.94L255.74,174.94z"/>
			</g>
			<g>
				<path d="M11.58,144.03c12.96,8.83,28.03,13.24,43.11,16.93c1.26,0.31,1.8-1.63,0.54-1.94c-14.93-3.65-29.8-7.98-42.63-16.73
					C11.52,141.56,10.51,143.3,11.58,144.03L11.58,144.03z"/>
			</g>
			<g>
				<path d="M30.89,164.94c13.25,4.37,26.92,7.27,40.69,9.46c1.27,0.2,1.81-1.74,0.54-1.94c-13.77-2.18-27.44-5.08-40.69-9.46
					C30.19,162.59,29.66,164.54,30.89,164.94L30.89,164.94z"/>
			</g>
			<g>
				<path d="M81,137.14c22.67,4.22,45.7,6.35,68.76,6.59c6.43,0.07,12.85-0.02,19.27-0.22c1.29-0.04,1.3-2.06,0-2.01
					c-22.62,0.73-45.3-0.19-67.75-3.15c-6.61-0.87-13.19-1.93-19.75-3.15C80.27,134.97,79.72,136.91,81,137.14L81,137.14z"/>
			</g>
			<g>
				<path d="M258.58,109.57c-15.7-3.75-31.59-6.64-47.66-8.23c-5.38-0.53-10.77-0.92-16.17-1.17c-1.3-0.06-1.29,1.95,0,2.01
					c17.27,0.82,34.42,3.11,51.35,6.65c3.99,0.84,7.97,1.74,11.94,2.68C259.3,111.81,259.84,109.87,258.58,109.57L258.58,109.57z"/>
			</g>
			<g>
				<path d="M75.85,94.6c-18.16,2.43-35.89,7.32-52.72,14.58c-1.19,0.51-0.16,2.25,1.02,1.74c16.47-7.1,33.92-11.93,51.7-14.3
					C77.11,96.45,77.13,94.43,75.85,94.6L75.85,94.6z"/>
			</g>
			<g>
				<path d="M116.99,617.22c18.5,2.7,37.33,3.43,55.99,2.41c17.98-0.99,36.36-3.45,53.31-9.78c7.72-2.88,15.24-6.65,21.51-12.08
					c0.98-0.85-0.45-2.27-1.42-1.42c-5.4,4.68-11.84,8.08-18.45,10.72c-7.79,3.12-15.96,5.27-24.19,6.87
					c-18.38,3.58-37.29,4.54-55.97,3.94c-10.11-0.33-20.22-1.15-30.24-2.61C116.26,615.09,115.71,617.03,116.99,617.22
					L116.99,617.22z"/>
			</g>
			<g>
				<path d="M269.83,414.98c-0.61,7.25-1.23,14.5-1.84,21.75c-0.97,11.46-1.94,22.92-2.91,34.38c-0.22,2.65-0.45,5.3-0.67,7.95
					c-0.11,1.29,1.91,1.28,2.01,0c0.61-7.25,1.23-14.5,1.84-21.75c0.97-11.46,1.94-22.92,2.91-34.38c0.22-2.65,0.45-5.3,0.67-7.95
					C271.95,413.69,269.94,413.7,269.83,414.98L269.83,414.98z"/>
			</g>
			<g>
				<path d="M275.55,381.07c2.83-30.68,5.59-61.37,8.08-92.08c0.69-8.55,1.36-17.1,2.01-25.65c0.1-1.29-1.92-1.29-2.01,0
					c-2.32,30.61-4.95,61.2-7.71,91.78c-0.78,8.65-1.57,17.3-2.37,25.96C273.41,382.36,275.43,382.36,275.55,381.07L275.55,381.07z"
					/>
			</g>
		</g>
	</g>
</g>
</svg>
