<?xml version="1.0" encoding="utf-8"?>
<!-- Generator: Adobe Illustrator 26.1.0, SVG Export Plug-In . SVG Version: 6.00 Build 0)  -->
<svg version="1.1" xmlns="http://www.w3.org/2000/svg" xmlns:xlink="http://www.w3.org/1999/xlink" x="0px" y="0px"
	 viewBox="0 0 292.36 622.47" style="enable-background:new 0 0 292.36 622.47;" xml:space="preserve">
<style type="text/css">
	.st0{fill:#391F14;}
	.st1{fill:#682320;}
	.st2{fill:#D26F75;}
	.st3{fill:#FEEAE3;}
	.st4{fill:#F8E2E7;}
	.st5{fill:#E86E78;}
	.st6{fill:#F19299;}
	.st7{fill:#F4C3C9;}
	.st8{fill:#B3203B;}
	.st9{fill:#666633;}
	.st10{fill:#C74E69;}
	.st11{opacity:0.4;}
	.st12{fill:#FFFFFF;}
	.st13{fill:#FAEED5;}
	.st14{fill:#DCA455;}
	.st15{fill:#4F3021;}
	.st16{fill:#D69F53;}
	.st17{fill:#FCE3A2;}
	.st18{fill:#FFD480;}
	.st19{fill:#FBAF3C;}
	.st20{fill:#FDC363;}
	.st21{fill:#754A3C;}
	.st22{opacity:0.3;}
	.st23{fill:#DDEADB;}
	.st24{fill:#BCD3C2;}
	.st25{fill:#A3C6AC;}
	.st26{fill:#D8E5DA;}
	.st27{fill:#233328;}
	.st28{fill:#5C6B63;}
	.st29{fill:#82AD91;}
	.st30{fill:#D2DBD1;}
	.st31{fill:#7AA388;}
	.st32{opacity:0.5;}
	.st33{fill:#6C845F;}
	.st34{fill:#5E7553;}
	.st35{fill:#C1786C;}
	.st36{fill:#E7CCC2;}
	.st37{fill:#F8E7DA;}
	.st38{fill:#EAC8B6;}
	.st39{fill:#E3987F;}
	.st40{fill:#F2C4A8;}
	.st41{fill:#7A4D4B;}
	.st42{fill:#DE998E;}
	.st43{fill:#CC644C;}
	.st44{fill:#D88977;}
	.st45{fill:#D87C60;}
	.st46{fill:#F7E4D6;}
	.st47{fill:#8C4330;}
	.st48{fill:#D4695B;}
	.st49{fill:#F0D6BF;}
	.st50{fill:#C19160;}
	.st51{fill:#D8AA75;}
	.st52{fill:#915A26;}
	.st53{fill:#BC7C48;}
	.st54{fill:#5B361E;}
	.st55{fill:#7E4F23;}
	.st56{fill:#CE9957;}
	.st57{fill:#E2BA84;}
	.st58{fill:#22120A;}
	.st59{fill:#554E26;}
	.st60{fill:#F6ECF5;}
	.st61{fill:#DBB6D1;}
	.st62{fill:#F3E4E0;}
	.st63{fill:#996699;}
	.st64{fill:#E8D4E7;}
	.st65{fill:#C48BBD;}
	.st66{fill:#6F3670;}
	.st67{fill:#8F6191;}
	.st68{fill:#441946;}
	.st69{fill:#F3DAD0;}
	.st70{fill:#741112;}
	.st71{fill:#CC3333;}
	.st72{fill:#DE6D57;}
	.st73{fill:#C75044;}
	.st74{fill:#CA4536;}
	.st75{fill:#D25847;}
	.st76{fill:#F3E4DE;}
	.st77{fill:#E06865;}
	.st78{fill:#CC4746;}
	.st79{fill:#436137;}
	.st80{fill:#9A3332;}
	.st81{fill:#EDA99F;}
	.st82{fill:#CC6666;}
	.st83{fill:#E89B95;}
	.st84{fill:#2C1B10;}
	.st85{fill:#CCAAA2;}
	.st86{fill:#EFDFD9;}
	.st87{fill:#836759;}
	.st88{fill:#D1B7A6;}
	.st89{fill:#674E3D;}
	.st90{fill:#B0806D;}
	.st91{fill:#CDAA96;}
	.st92{fill:#967A67;}
	.st93{fill:#EBBC8B;}
	.st94{fill:#6B3715;}
	.st95{fill:#F7DEBC;}
	.st96{fill:#EFE4DA;}
	.st97{fill:#CC6E28;}
	.st98{fill:#B25827;}
	.st99{fill:#A54924;}
	.st100{fill:#9E6031;}
	.st101{fill:#DDDACC;}
	.st102{fill:#908B47;}
	.st103{fill:#AFAA7A;}
	.st104{fill:#7F7E5F;}
	.st105{fill:#8B693E;}
	.st106{fill:#8E4316;}
	.st107{fill:#DDDAB1;}
	.st108{fill:#8F9C58;}
	.st109{fill:#828E3C;}
	.st110{fill:#8E5852;}
	.st111{fill:#CA887F;}
	.st112{fill:#E3988D;}
	.st113{fill:#F2CAB9;}
	.st114{fill:#EDAB9A;}
	.st115{fill:#F2DDBB;}
	.st116{fill:#AC4D27;}
	.st117{fill:#E69F59;}
	.st118{fill:#F2DAAE;}
	.st119{fill:#DA7B38;}
	.st120{fill:#E9C1A4;}
	.st121{fill:#D58761;}
	.st122{fill:#55150F;}
</style>
<g id="Bg">
</g>
<g id="Graphic">
	<g id="Boab_9">
		<g id="Drink_00000072982094152034258740000017885963027268598915_">
			<g>
				<path class="st35" d="M38.99,547.29l0.08,0.03l0.05,26.19c0.01,11.1,3.52,28.97,9,31.53c47.93,22.32,153.72,24.17,194.51-0.02
					c5.31-3.15,9.64-20.46,9.64-31.59l0-26.08L38.99,547.29z"/>
			</g>
			<g>
				<path class="st36" d="M289.44,192.68c3.25,5.44-1.06,14.31-1.06,14.31c-1.53,10.51-3.06,30.41-4.6,40.92
					c-0.77,5.31-0.79,10.78-1.12,16.12c-1.05,16.97-2.03,33.94-3,50.91c-1.33,23.25-2.64,46.5-3.94,69.75
					c-1.35,24.09-2.68,48.18-4.02,72.28c-1.08,19.5-6.29,79.36-8.92,91.81c-3.29,15.61-11.05,25.64-24.72,31.12
					c-26.97,10.8-56.49,15.96-85.84,16.25c-27.5,0.27-54.45-3.56-80.67-10.78c-19.03-5.23-44.19-23.12-45.35-44.15
					c0,0-3.08-25.14-3.64-35.08c-1.04-18.61-1.71-30.49-2.76-49.1c-1.28-22.71-2.57-45.43-3.86-68.14
					c-1.27-22.24-2.54-44.48-3.84-66.72c-1-17.19-2.01-34.39-3.07-51.58c-0.93-15.11-2.37-30.06-4.09-45.1
					c-0.24-2.1-0.42-13.6-0.73-15.69c0,0-6.26-11.74-2.4-16.65c10.79-13.73,19.08-0.15,53.93,3.17c0.4,0.04,0.81,0.08,1.22,0.12
					c49.61,4.69,99.59,5.14,149.31,1.51c7.83-0.57,15.95-1.13,24.06-1.63C261.95,194.38,279.75,176.46,289.44,192.68z"/>
			</g>
			<g>
				<path class="st37" d="M150.63,205.65c-71.16-0.86-122.51,13.56-122.51,13.56c3.64,40.09,2.88,48.5,5.57,88.65
					c3.41,50.88,6.62,101.78,10.1,152.66c1.64,23.96,1.27,48.23,6.62,71.79c10.11,44.46,98.08,41.16,135.15,36.93
					c13.56-1.55,27.18-4.86,39.09-11.18c15.44-8.2,16.7-22.61,18.86-37.52c0.42-2.91,15.49-240.5,19.86-300.26
					C263.37,220.28,221.79,206.51,150.63,205.65z"/>
			</g>
			<g>
				<path class="st38" d="M278.98,189.34c-18.16-15.01-41.4-20.4-63.99-23.67c-50.35-7.29-101.72-6.04-151.72,3.69
					c-17.26,3.36-34.92,7.99-49.01,19.37c-1.09,0.88-2.28,2.36-1.61,3.65c29.01,13.02,63.07,16.22,94.37,18.6
					C164.03,215.33,226.27,218.77,278.98,189.34z"/>
			</g>
			<g>
				<path class="st39" d="M244.93,499.84c-0.83,12.56-1.35,20.2-1.42,20.7c-2.16,14.9-3.42,29.32-18.86,37.52
					c-11.9,6.32-25.53,9.63-39.09,11.18c-37.08,4.24-125.05,7.53-135.15-36.93c-2.67-11.74-3.92-23.67-4.7-35.64
					c1.69-0.54,3.58-0.54,5.68,0.22c15.54,5.48,18.28,26.51,30.17,36.56c13.71,10.97,36.56,6.4,52.1-5.48
					c5.48-4.57,12.8-5.48,19.2-2.74c9.14,5.48,10.06,16.45,17.37,23.77c9.14,7.31,19.2,1.83,27.42-3.66
					c12.8-10.06,21.94-21.02,23.77-38.39C222.59,498.73,233.58,499.18,244.93,499.84z M150.63,205.65
					c-71.16-0.86-122.51,13.56-122.51,13.56c2.23,24.58,2.81,37.25,3.54,52.63c13.52,10.28,21.45,25.86,32.53,40.4
					c8.23,10.06,25.6,0.91,31.08-9.14c6.4-10.97-2.74-25.6,1.83-38.39c2.74-8.23,13.71-12.8,20.11-10.06
					c9.14,2.74,8.23,18.28,11.88,26.51c15.54,33.82,48.45,7.31,69.47-8.23c1.83-0.91,5.48,0,6.4,1.83
					c8.23,18.28-0.91,55.76,30.17,51.19c0.91-15.54-3.66-31.08,0.91-45.71c0.91-3.66,6.4-8.23,11.88-6.4
					c4.36,2.72,7.74,6.42,11.12,9.73c1.8-27.04,3.34-49.75,4.33-63.31C263.37,220.28,221.79,206.51,150.63,205.65z"/>
			</g>
			<g>
				<path class="st40" d="M213.61,362.09c7.44,0.37,7.52,13.52,10.33,18.22c3.59,6.01,12.59,14.57,5.69,21.31
					c-2.43,2.37-6.42,4.35-9.44,2.62c-4.65-2.66-1.25-10.42-5.71-13.32c-2.29-1.49-5.65-0.78-7.83,0.83
					c-2.18,1.62-3.52,3.93-5.06,6.06c-1.53,2.13-3.48,4.23-6.19,4.96c-4.74,1.27-9.86-2.7-10.2-7.11
					c-0.34-4.41,3.08-8.55,7.42-10.67c4.2-2.05,9.5-2.79,12.35-6.22c0.07-0.08,0.13-0.16,0.19-0.24
					C210.09,372.05,200.36,361.43,213.61,362.09z M108.88,397.93c-4.04-1.99-7.45-5.32-10.63-8.6c-4.08-4.22-8.27-8.69-13.8-10.65
					c-4.91-1.74-13.47-0.32-17.15,3.85c-4.71,5.33,0.07,13.69,2.36,19.09c3.65,8.63,4.58,18.39,2.63,27.56
					c-1.08,5.04-3.01,10.07-2.39,15.19s5.13,10.3,10.17,9.22c4.93-1.06,6.9-6.86,8.44-11.66c1.55-4.8,5.01-10.37,9.99-9.6
					c8.34,1.29,6.35,17.19,14.57,19.1c4,0.93,7.7-2.36,10.08-5.71s4.57-7.28,8.43-8.67c2.98-1.08,6.29-0.35,9.35,0.48
					s6.26,1.77,9.35,1.08c3.1-0.69,5.94-3.68,5.22-6.77c-1.03-4.41-7.87-5.39-8.89-9.8c-0.69-2.95,1.7-5.73,4.26-7.35
					c2.56-1.62,5.56-2.75,7.4-5.15c4.05-5.29-0.51-13.58-6.85-15.64c-6.34-2.06-13.2,0.09-19.47,2.34s-12.98,4.65-19.45,3.03
					C111.23,398.95,110.03,398.5,108.88,397.93z M34.74,336.56c0,0,11.18-3.8,14.67-9.07c5.1-7.7,8.05-6.83,10.6-5.85
					c3.14,1.21,1.22,8,0.83,10.23c-0.88,4.97-2.38,10.68-0.64,15.62c2.21,6.28,5.72,4.2,10.16,2.89c3.87-1.14,8.07-0.34,11.88,0.58
					c7.68,1.86,16.49,6.36,24.44,3.44c5.37-1.97,8.53-8.57,6.69-13.99c-1.84-5.42-8.37-8.73-13.83-7.01
					c-3.97,1.25-8.3,4.66-11.7,2.26c-1.23-0.87-1.9-2.32-2.48-3.71c-2.88-6.91-4.91-14.17-6.05-21.57
					c-0.27-1.77-0.58-3.72-1.94-4.88c-2.08-1.78-5.36-0.68-7.48,1.06s-3.89,4.07-6.49,4.94c-5.33,1.78-10.16-3.31-14.7-6.63
					c-6.61-4.85-8.46-7.46-16.32-5.12L34.74,336.56z"/>
			</g>
			<g>
				<path class="st0" d="M75.23,544.36c-2.24-5.37-3.03-11.78-0.36-16.95c2.2-4.27,6.61-7.11,11.26-8.09s9.54-0.29,14.07,1.2
					c7.22,2.38,10.98,7.23,11.38,14.91C112.75,558.24,81.76,560.02,75.23,544.36z M233.53,468.82c0.56-6.33-1.73-10.66-6.89-13.3
					c-3.24-1.65-6.83-2.69-10.44-2.32c-3.61,0.37-7.24,2.28-9.37,5.57c-2.58,3.99-2.7,9.31-1.61,13.93
					C208.38,486.16,231.88,487.64,233.53,468.82z M199.9,500.66c15.96-7.75,13.9-36.9-8.2-38.66
					c-15.96-1.27-28.92,20.39-15.96,33.82c2.88,2.98,6.59,4.99,10.46,5.96C190.9,502.96,195.86,502.62,199.9,500.66z M123.6,471.72
					c-2.22-6.5-10.11-8.94-17.59-7.37c-9.28,1.96-13.48,16.17-7.51,23.08c4.23,4.28,13.84,6.8,19.91,3.39
					c4.51-2.54,6.21-8.57,6.43-13.38C124.94,475.38,124.47,473.44,123.6,471.72z M137.33,458.12c-3.17,0.57-6.45,2.24-8.88,4.38
					c-6.83,6.04-10.24,15.54-5.98,23.31c7.68,12.95,27.32,12.95,35.86,0.86c4.3-6.09,3.53-13.63-0.85-19.45
					c-1.78-2.37-4.26-4.55-7.07-6.2C146.37,458.64,141.64,457.34,137.33,458.12z M85.31,402.5c-14.84-7.42-34.28,5.82-26.73,25.08
					c3.02,7.7,12.75,10.65,20.62,9.47c7.22-1.08,14.14-6.27,16.04-13.64c2.07-8.03-2.51-17-9.61-20.74
					C85.52,402.61,85.41,402.56,85.31,402.5z M165.1,509.93c-2.8,0.51-5.68,1.97-7.82,3.86c-6.02,5.32-9.03,13.69-5.27,20.53
					c6.77,11.41,24.07,11.41,31.59,0.76c3.79-5.36,3.11-12.01-0.75-17.13c-1.57-2.09-3.76-4.01-6.23-5.47
					C173.06,510.38,168.89,509.24,165.1,509.93z M235.87,399.96c-3.26-3.55-7.02-4.37-11.47-2.57c-2.79,1.13-5.43,2.78-7.29,5.16
					c-1.86,2.38-2.86,5.56-2.22,8.52c0.77,3.59,3.72,6.37,6.95,8.06C231.26,424.05,245.56,410.53,235.87,399.96z M60.75,511.91
					c4.61,4.89,9.7,6.08,15.52,3.75c3.65-1.46,7.07-3.63,9.39-6.81c2.32-3.18,3.43-7.45,2.36-11.48c-1.29-4.88-5.43-8.71-9.87-11.07
					C65.2,479.43,47.05,497.39,60.75,511.91z M188.39,447.32c4.41,4.8,9.17,6.15,14.53,4.22c3.35-1.21,6.48-3.1,8.55-5.99
					c2.07-2.89,2.99-6.85,1.9-10.69c-1.33-4.65-5.27-8.43-9.46-10.85C191.69,416.96,175.28,433.05,188.39,447.32z M190.84,539.82
					c-1.17,4.08-0.09,7.31,3.26,9.88c2.09,1.61,4.52,2.88,7.13,3.22c2.61,0.34,5.42-0.33,7.34-2.16c2.33-2.21,3.06-5.7,2.86-8.92
					C210.85,532.46,194.34,527.69,190.84,539.82z M85.97,456.34c-2.06-13.58-23.17-14.07-25.54-0.5c-0.82,4.68,1.15,9.75,4.9,12.61
					c8.56,6.54,21.77-0.52,20.72-11.4C86.03,456.82,86,456.58,85.97,456.34z M199.96,528.09c2.48,6.76,7.15,9.9,14.2,9.71
					c4.42-0.12,8.93-1.07,12.77-3.46s6.95-6.36,7.71-10.89c0.92-5.5-1.56-10.99-5.03-15.09C219.48,496.41,192.58,508,199.96,528.09z
					 M126.8,554.24c1.98,4.9,5.52,7.2,10.75,7.09c3.28-0.07,6.61-0.73,9.42-2.45c2.81-1.71,5.04-4.57,5.51-7.85
					c0.58-3.98-1.38-7.96-4.04-10.95C140.68,531.39,120.91,539.67,126.8,554.24z M138.61,506.52c-3.71-5.18-9.97-6.09-15.33-5.18
					c-8.05,0-12.52,8.14-10.73,16.27c2.68,7.23,10.73,11.75,17.89,9.95c6.26-1.81,9.84-9.04,10.03-15.71
					C140.37,509.85,139.69,508.06,138.61,506.52z"/>
			</g>
			<g>
				<path class="st41" d="M149.52,465.77c4.37,2.8,7.27,8.83,5.83,14c-0.89,3.19-4.06,5.78-7.31,5.34
					c-2.01-0.27-3.75-1.58-5.07-3.13c-4.01-4.66-4.65-15.94,0.34-17.71C144.83,463.74,146.88,464.08,149.52,465.77z M164.94,525.72
					c1.39,5.02,7.45,10.53,12.9,8.08c5.45-3.06,5.45-10.41,1.21-14.69c-4.84-4.29-12.11-1.84-14.33,3.84
					C164.64,523.91,164.73,524.84,164.94,525.72z M87.76,530.84c-0.1,1.41,0.13,2.87,0.69,4.2c1.56,3.71,7.25,8.65,11.56,7.7
					c6.22-1.36,7.28-8.62,3.41-14.15c-2.96-3.75-10.18-6.13-13.75-2.34C88.51,527.48,87.89,529.13,87.76,530.84z M216.91,518.5
					c0.39,1.19,1.03,2.25,1.84,3.04c2.28,2.22,7.82,3.35,10.48,0.45c3.84-4.19,2.2-10.57-2.27-13.1c-3.27-1.55-9.02,0.14-10.24,4.96
					C216.33,515.42,216.44,517.05,216.91,518.5z M186.99,473.74c-0.23,1.43-0.12,2.96,0.33,4.42c1.26,4.08,6.67,10.16,11.17,9.97
					c6.51-0.27,8.26-7.51,4.78-13.87c-2.7-4.38-9.91-8.11-13.91-4.88C188.06,470.43,187.27,472,186.99,473.74z"/>
			</g>
			<g>
				<g>
					<polygon class="st42" points="148.76,208.39 50.36,21.02 23.49,35.86 121.52,222.54 					"/>
				</g>
				<g>
					<path class="st43" d="M59.9,39.28c-6.12,9.09-14.38,16.06-23.16,21.9l9.89,18.85c8.83-5.77,17.09-12.68,23.2-21.82L59.9,39.28z
						"/>
				</g>
				<g>
					<path class="st43" d="M79.25,76.07c-6.12,9.09-14.38,16.06-23.16,21.9l9.89,18.85c8.83-5.77,17.09-12.68,23.2-21.82
						L79.25,76.07z"/>
				</g>
				<g>
					<path class="st43" d="M98.61,112.86c-6.12,9.09-14.38,16.06-23.16,21.9l9.89,18.85c8.83-5.77,17.09-12.68,23.2-21.82
						L98.61,112.86z"/>
				</g>
				<g>
					<path class="st43" d="M117.96,149.65c-6.12,9.09-14.38,16.06-23.16,21.9l9.89,18.85c8.83-5.77,17.09-12.68,23.2-21.82
						L117.96,149.65z"/>
				</g>
				<g>
					<path class="st43" d="M137.31,186.44c-6.12,9.09-14.38,16.06-23.16,21.9l9.89,18.85c8.83-5.77,17.09-12.68,23.2-21.82
						L137.31,186.44z"/>
				</g>
				<g>
					
						<ellipse transform="matrix(0.872 -0.4895 0.4895 0.872 -9.2196 21.6901)" class="st43" cx="36.87" cy="28.47" rx="15.35" ry="7.63"/>
				</g>
				<g>
					<polygon class="st42" points="165.39,205.5 101.22,3.83 72.17,13.75 136.11,214.67 					"/>
				</g>
				<g>
					<path class="st43" d="M107.42,23.46c-7.62,7.89-16.96,13.31-26.63,17.53l6.45,20.28c9.7-4.14,19.04-9.51,26.66-17.43
						L107.42,23.46z"/>
				</g>
				<g>
					<path class="st43" d="M120.05,63.07c-7.62,7.89-16.96,13.31-26.63,17.53l6.45,20.28c9.7-4.14,19.04-9.51,26.66-17.43
						L120.05,63.07z"/>
				</g>
				<g>
					<path class="st43" d="M132.69,102.68c-7.62,7.89-16.96,13.31-26.63,17.53l6.45,20.28c9.7-4.14,19.04-9.51,26.66-17.43
						L132.69,102.68z"/>
				</g>
				<g>
					<path class="st43" d="M145.32,142.28c-7.62,7.89-16.96,13.31-26.63,17.53l6.45,20.28c9.7-4.14,19.04-9.51,26.66-17.43
						L145.32,142.28z"/>
				</g>
				<g>
					<path class="st43" d="M157.96,181.89c-7.62,7.89-16.96,13.31-26.63,17.53l6.45,20.28c9.7-4.14,19.04-9.51,26.66-17.43
						L157.96,181.89z"/>
				</g>
				<g>
					
						<ellipse transform="matrix(0.9441 -0.3298 0.3298 0.9441 1.9413 29.0591)" class="st43" cx="86.63" cy="8.81" rx="15.35" ry="7.63"/>
				</g>
			</g>
			<g>
				<path class="st40" d="M209.32,87.86c-7.19-14.23-16.43-27.43-27.33-39.07c-1.43-1.52-3.36-2.53-5.44-2.65
					c-7.9-0.47-8.25,11.36-12.95,17.53c-8.27,10.87-28.96,1.79-37.63,12.34c-3.92,4.77-3.01,12.35-7.08,17
					c-11.73,13.44-9.13,21.29-15.8,21.21c-6.67-0.09-11.5-5.9-18.17-6.16c-26.97-1.06-16.8,16.22-30.83,24.51
					c-8.73,5.16-18.84,0.35-26.05,9.55c-6.62,8.46-0.57,21.73-8.88,29.31c-16.2,14.79-10.46,38.41-0.5,51.19
					c7.77,9.96,22.33,9.51,34.69,12.14c62.04,13.2,38.65-1.08,61.25,0.66c11.72,0.9,20.41,15.63,31.76,12.55
					c29.02-7.89,42.63,10.08,59.46,0c4.51-2.7,12.34-15.72,17.4-17.17c6.03-1.72,31.28-1.54,37.44-2.75
					c15.05-2.95,28.76-33.41,24.49-48.14c-9.76-33.67-20.01-11.34-23.8-31.83c-4.68-25.34-20.94-14.86-21.15-29.81
					c-0.1-6.67-4.53-8.69-9.07-13.06C225.68,99.95,217.85,95.72,209.32,87.86z"/>
			</g>
			<g>
				<g>
					<path class="st37" d="M181.95,125.6c-0.4,4.51-3.96,8.01-7.39,10.95c-10.64,9.1-23.19,18.49-23.59,33.76
						c-0.05,1.9-0.07,3.84-0.64,5.65c-0.43,1.37-1.37,3.18-2.74,3.82c-1.34,0.62-2.83-0.03-4.27,0.09
						c-1.43,0.12-2.77,0.95-4.12,1.38c-1.53,0.49-3.47,0.48-4.43-0.81c-0.56-0.76-0.62-1.86-0.13-2.67c0.66-1.1,2.35-1.34,3.45-1.91
						c1.45-0.76,2.89-1.74,4.01-2.94c2.45-2.62,3.32-6.29,4.6-9.64c3.83-9.99,11.73-17.75,17.95-26.44
						c6.22-8.7,10.95-19.91,7.2-29.93c-1.65-4.42-12.64-16.62-9.3-21.42c0.62-0.9,2-0.81,2.56,0.13c5.7,9.55,9.71,20.71,14.39,30.78
						C180.85,119.31,182.23,122.4,181.95,125.6z M159.21,211.23c-1.15,1.03-7.05,12.24-5.04,11.89c4.24-0.74,7.08-4.57,10.24-7.49
						c2.69-2.48,5.82-4.42,8.92-6.35c2.74-1.71,5.63-3.6,6.89-6.57c-2.03-0.36-4.06,0.49-5.95,1.33
						C169.55,206.13,163.1,207.75,159.21,211.23z M245.19,159.82c0.14,3.18,2.96,6.08,5.29,8.25c2.98,2.77,6.36,5.4,7.94,9.04
						c2.97,6.85-1.39,14.44-5.99,20.45c-4.59,6.01-9.85,12.68-8.71,19.99c7.6-0.31,5.18-10.26,9.01-16.71
						c2.44-4.11,9.74-9.19,11.48-13.6c1.01-2.54,2.03-5.29,1.28-7.91c-0.52-1.82-1.83-3.34-3.14-4.77
						C258.29,170.14,251.23,161.28,245.19,159.82z"/>
				</g>
				<g>
					<path class="st44" d="M68,130.94c-6.18,6-29.99,13.3-36.21,19.26c-13.55,13-1.55,19.78-14.64,28.45
						c-1.11-8.08,3.08-29.25,8.86-35c9.31-9.26,11.37-8.46,33.57-16.33c6.75-2.39,10.25-22.45,17.45-22.1
						C76.62,110.65,71.89,127.16,68,130.94z"/>
				</g>
			</g>
			<g>
				<path class="st44" d="M225.8,80.84c8.81,9.82,6.56,17.92,16.27,26.86c9.07,8.35,19.49,16.64,22.53,28.58
					c1.7,6.69,0.83,13.77,0.02,20.58c-0.2,1.7-0.73,3.36-1.71,4.77c-3.3,4.74-8.23,2.57-10.37-0.81c-1.47-2.32-1.95-5.11-2.53-7.79
					c-2.22-10.28-6.78-20.76-16.94-25.38c-5.12-2.33-11.12-2.32-15.88,0.67c-9.47,5.96,2.41,28.95-0.59,38.68
					c-5.3,17.19-25.86,22.58-28.87,40.31c-0.48,2.81-0.49,5.74-2.1,8.24c-0.87,1.35-2.26,2.37-3.86,2.51
					c-4.14,0.36-6.11-4.84-6.2-8.91c-0.28-12.61,5.57-25.22,15.38-33.15c4.75-3.83,10.35-2.12,13.74-7.54
					c0.99-1.59,1.69-3.37,1.89-5.23c0.88-8.24-16.95-23.56-23.89-26.06c-6.05-2.18-12.9-4.41-15.83-10.14
					c-2.96-5.79-0.98-13.82-7.26-17.66c-1.45-0.89-3.14-1.33-4.84-1.36c-5.37-0.08-9.7,3.3-12.62,7.42
					c-4.09,5.78-5.67,12.93-6.69,19.94c-1.02,7-1.6,14.16-4.06,20.8c-2.91,7.87-8.98,15.17-17.79,15.99
					c-5.46,0.51-10.89-2.06-13.21-7.03c-3.37-7.22,1.52-14.82,6.14-20.94c8.99-11.91,17.98-23.81,26.97-35.72
					c4.3-5.69,8.72-11.64,10.1-18.64c0.84-4.27-18.62-4.5-20.28-8.45c-2.18-5.17,2.31-11.18,7.83-12.84
					c6.9-2.08,15.62-1.11,21.97-4.85c5.12-3.02,2.87-8.39,5.54-13.56c2.38-4.59,6.07-16.82,11.76-17.78
					c7.55-1.28,16.76,14.24,23.33,18.27c19.62,12.04,11.73,18.65,15.83,25.6C212.32,80.86,220.76,75.22,225.8,80.84z"/>
			</g>
			<g>
				<g>
					<path class="st45" d="M134.55,170.95c-0.17-0.35-0.35-0.7-0.53-1.05c-10.74,1.32-21.43,2.38-31.12-0.17
						c-19.69-5.18-32.15-25.06-37.52-45.35c-3.62-13.84,7.82-25.25,18.79-32.8c5.5-3.45,11-6.91,16.14-11.13
						c-1.44-8.49-2.37-8.7-12.13-2.68c-9.76,6.02-22.76,13.34-29.1,35.09c-1.61,5.51-0.94,11.45,0.03,17.1
						c2.68,15.68,14.54,27.04,26.74,37.23c12.21,10.2,28.5,15.56,44.32,13.93c2.28-0.24,6.23-0.03,7.11-2.73
						C138.01,176.16,135.48,172.84,134.55,170.95z"/>
				</g>
				<g>
					<path class="st46" d="M65.39,124.38c5.37,20.29,17.83,40.17,37.52,45.35c9.69,2.55,20.38,1.49,31.12,0.17
						c-1.43-2.89-2.86-5.77-4.32-8.64c-2.79-5.46-5.63-10.9-8.61-16.26c-10.39-18.73-15.42-34.54-19.28-55.61
						c-0.67-3.64-1.1-6.6-1.5-8.94c-5.14,4.22-10.63,7.68-16.14,11.13C73.21,99.13,61.77,110.55,65.39,124.38z"/>
				</g>
				<g>
					<path class="st47" d="M112.48,139.02c1.05-0.2,0.17,1.69,0.08,1.87c-0.35,0.64-0.85,1.21-1.11,1.9c-0.56,1.48-1.06,3-1.81,4.37
						c-0.38,0.68-1.15,1.84-2.13,1.81c-0.88-0.03-1.66-1.04-1.64-1.8c0.04-1.54,1.8-2.81,2.61-3.84c1.16-1.46,2.25-3,3.73-4.16
						c0.07-0.06,0.14-0.11,0.23-0.14C112.45,139.03,112.46,139.02,112.48,139.02z M106.06,132.2c-0.11-0.02-0.21-0.01-0.32,0
						c-2.22,0.24-4.32,1.04-6.43,1.73c-1.49,0.49-4.05,0.68-5.13,2.05c-0.53,0.68-0.45,2.02,0.38,2.52c0.94,0.57,2.47-0.06,3.3-0.47
						c1.66-0.83,3.16-1.93,4.71-2.97c0.72-0.48,1.59-0.72,2.36-1.11c0.21-0.11,2.34-1.34,1.19-1.73
						C106.1,132.2,106.08,132.2,106.06,132.2z M104.49,123.7c-0.07-0.08-0.15-0.14-0.24-0.19c-1.84-1.13-3.91-1.75-5.93-2.45
						c-1.43-0.5-3.49-1.88-5.14-1.43c-0.81,0.22-1.56,1.34-1.22,2.24c0.37,1.01,1.91,1.43,2.79,1.59c1.76,0.33,3.57,0.35,5.37,0.44
						c0.84,0.05,1.65,0.37,2.47,0.52c0.22,0.04,2.58,0.33,1.94-0.67C104.51,123.73,104.5,123.72,104.49,123.7z"/>
				</g>
				<g>
					<path class="st45" d="M107.21,169.77c-0.29-0.26-0.59-0.52-0.88-0.78c-9.48,5.22-19,10.18-28.95,11.42
						c-20.2,2.52-39.17-11.3-51.7-28.14c-8.51-11.5-2.13-26.35,5.24-37.44c3.83-5.25,7.64-10.51,10.84-16.34
						c-4.49-7.35-5.44-7.19-12.26,2.03c-6.82,9.22-16.16,20.85-13.96,43.4c0.56,5.71,3.39,10.98,6.39,15.86
						c8.32,13.56,23.55,19.69,38.67,24.61c15.12,4.92,32.24,3.84,46.32-3.56c2.03-1.07,5.77-2.35,5.58-5.18
						C112.36,173.31,108.77,171.17,107.21,169.77z"/>
				</g>
				<g>
					<path class="st46" d="M25.68,152.27c12.53,16.83,31.5,30.65,51.7,28.14c9.95-1.24,19.47-6.2,28.95-11.42
						c-2.4-2.15-4.8-4.29-7.23-6.41c-4.62-4.03-9.28-8.02-14.04-11.89c-16.61-13.52-27.16-26.33-38.58-44.45
						c-1.97-3.13-3.48-5.72-4.72-7.74c-3.2,5.83-7.01,11.09-10.84,16.34C23.55,125.92,17.17,140.77,25.68,152.27z"/>
				</g>
				<g>
					<path class="st47" d="M74.84,148.34c0.9-0.57,0.79,1.51,0.77,1.71c-0.08,0.72-0.34,1.44-0.32,2.18
						c0.03,1.58,0.13,3.18-0.05,4.73c-0.09,0.77-0.38,2.14-1.31,2.47c-0.83,0.3-1.93-0.34-2.19-1.06c-0.53-1.44,0.62-3.28,1-4.54
						c0.53-1.79,0.97-3.62,1.91-5.25c0.04-0.08,0.09-0.15,0.16-0.21C74.81,148.35,74.82,148.34,74.84,148.34z M66.34,144.39
						c-0.11,0.02-0.2,0.07-0.3,0.12c-1.97,1.05-3.62,2.57-5.33,4c-1.2,1.01-3.51,2.14-4,3.81c-0.24,0.83,0.33,2.04,1.3,2.2
						c1.08,0.18,2.27-0.97,2.88-1.66c1.23-1.38,2.22-2.97,3.27-4.51c0.49-0.72,1.21-1.27,1.78-1.91c0.16-0.18,1.67-2.11,0.46-2.05
						C66.38,144.39,66.36,144.39,66.34,144.39z M61.72,137.09c-0.09-0.05-0.19-0.07-0.29-0.09c-2.13-0.37-4.28-0.17-6.42-0.07
						c-1.51,0.07-3.94-0.44-5.3,0.59c-0.67,0.51-0.95,1.82-0.3,2.53c0.72,0.8,2.31,0.61,3.18,0.44c1.75-0.35,3.44-1.01,5.15-1.58
						c0.8-0.27,1.67-0.27,2.48-0.44c0.22-0.05,2.52-0.66,1.55-1.35C61.76,137.11,61.74,137.1,61.72,137.09z"/>
				</g>
			</g>
			<g>
				<path class="st48" d="M188.37,78.24c1.57,0.74,16.09-0.97,15.97,1.65c-0.22,4.7-23.86,2.25-26.49,0.14
					c-1.53-1.23-2.8-2.74-4.23-4.08c-3.28-3.1-7.37-5.32-11.75-6.38c-1.17-0.28-2.54-0.68-3.43-1.4c-0.62-0.51-0.19-1.51,0.61-1.49
					c3.1,0.1,6.25-1.62,9.44-1.55c3.66,0.09,6.84,2.51,9.42,5.11C181.31,73.66,184.01,76.17,188.37,78.24z M181.38,108.75
					c-3.89-0.64-7.1,0.06-9.13,3.88c-1.66,3.14-1.01,5.35,2.73,4.88c2.86-0.36,5.36-2.02,8.45-2.18c3.03-0.16,6.06,0.21,9.08-0.01
					c7.44-0.54,14.55-4.61,18.79-10.75c2-2.9,3.49-6.33,6.42-8.29c1.45-0.98,3.17-1.52,4.55-2.6c1.38-1.08,2.36-3.01,1.57-4.57
					c-9.92,4.24-15.05,16.18-25.18,19.92C192.77,111.19,187.29,109.74,181.38,108.75z M225.61,122.71c-1.21,0.96-2.21,5.6-0.77,6.1
					c1.31,0.46,3.28-0.04,4.74,0.34c1.66,0.43,3.23,1.18,4.77,1.9c1.53,0.72,3.08,1.45,4.38,2.53c0.7,0.58,1.31,1.25,2,1.84
					c0.79,0.67,1.67,1.23,2.46,1.91c3.96,3.38,4.98,9.01,5.67,14.17c0.13,0.95,0.27,1.95,0.84,2.72c0.57,0.77,1.72,1.21,2.52,0.68
					c0.92-0.61,0.84-1.96,0.65-3.05c-0.64-3.67-1.3-7.37-2.62-10.86s-3.37-6.79-6.35-9.03c-1.64-1.24-3.52-2.11-5.39-2.98
					C234.22,126.97,230.08,119.14,225.61,122.71z M172.94,133.4c-0.88,0.9-1.34,2.34-0.73,3.44c0.58,1.05,1.87,1.44,3.01,1.85
					c1.43,0.52,10.65,1.63,12,2.32c6.1,3.14,4.53,6.01,8.88,11.33c1.22,1.49,2.31,3.16,3.92,4.21c1.31,0.85,2.96,1.28,3.93,2.51
					c2.11,2.66-0.41,6.73,0.72,9.93c1.07,0.24,2.17-0.45,2.75-1.37c0.58-0.93,0.75-2.04,0.9-3.13c0.34-2.48,0.62-5.05-0.13-7.44
					c-0.99-3.14-3.6-5.47-6.14-7.57C197.12,145.41,178.71,127.55,172.94,133.4z"/>
			</g>
			<g class="st11">
				<g>
					<path class="st12" d="M288.27,206.99c0,0,4.31-8.88,1.06-14.31c-9.69-16.22-27.49,1.71-59.09,3.67
						c-8.11,0.5-16.23,1.06-24.06,1.63c-49.72,3.63-99.69,3.17-149.31-1.51c-0.41-0.04-0.81-0.08-1.22-0.12
						c-34.85-3.32-43.14-16.9-53.93-3.17c-3.86,4.92,2.4,16.65,2.4,16.65s58.35,13.95,145.01,14.39
						C242.48,224.68,288.27,206.99,288.27,206.99z"/>
				</g>
			</g>
		</g>
		<g id="Stroke_00000047740133535867965560000013066043223576471431_">
			<g>
				<path d="M70.08,568.28c-11.12-5.41-23.18-11.56-28.12-23.68c-2.51-6.16-3.29-12.87-4.04-19.43c-0.5-4.39-0.93-8.8-1.32-13.2
					c-1.73-19.3-2.95-38.66-4.06-58c-0.26-4.61-0.52-9.21-0.76-13.82c-0.07-1.34-2.17-1.35-2.1,0c0.66,12.88,1.44,25.75,2.29,38.61
					c0.7,10.46,1.45,20.92,2.36,31.37c0.39,4.51,0.82,9.01,1.31,13.51c0.69,6.29,1.34,12.69,3.28,18.74
					c2.21,6.9,6.34,12.65,12,17.14c5.5,4.37,11.81,7.52,18.09,10.58C70.23,570.68,71.3,568.87,70.08,568.28L70.08,568.28z"/>
			</g>
			<g>
				<path d="M189.06,582.03c14.26-1.57,28.17-5.54,41.09-11.77c3.18-1.54,6.3-3.21,9.34-5.01c2.84-1.68,5.75-3.41,8.22-5.63
					c5.58-5.03,5.81-12.86,6.91-19.8c1.43-9.03,2.87-18.07,4.3-27.1c0.21-1.32-1.81-1.89-2.02-0.56
					c-1.23,7.72-2.45,15.44-3.68,23.16c-0.61,3.83-1.2,7.66-1.82,11.48c-0.55,3.39-1.22,6.89-3.48,9.6
					c-2.07,2.48-4.88,4.21-7.59,5.89c-2.94,1.82-5.96,3.51-9.05,5.08c-6.16,3.12-12.58,5.72-19.17,7.76
					c-7.51,2.33-15.23,3.94-23.04,4.8C187.73,580.07,187.72,582.17,189.06,582.03L189.06,582.03z"/>
			</g>
			<g>
				<path d="M185.25,607.7c15.26-1.53,30.37-4.99,44.65-10.63c3.35-1.32,6.65-2.76,9.9-4.33c1.22-0.59,0.15-2.4-1.06-1.81
					c-12.48,6.04-25.88,10.17-39.5,12.69c-4.63,0.86-9.3,1.51-13.99,1.99C183.92,605.74,183.91,607.84,185.25,607.7L185.25,607.7z"
					/>
			</g>
			<g>
				<path d="M89.84,603.04c23.12,6.64,47.75,8.09,71.69,6.93c2.76-0.13,5.53-0.32,8.29-0.54c1.34-0.11,1.35-2.21,0-2.1
					c-18.74,1.48-37.76,1.21-56.38-1.47c-7.78-1.12-15.49-2.69-23.05-4.86C89.09,600.64,88.54,602.67,89.84,603.04L89.84,603.04z"/>
			</g>
			<g>
				<path d="M28.78,391.97c-1.04-20.61-1.94-41.24-3.68-61.81c-0.11-1.34-2.21-1.35-2.1,0c1.74,20.57,2.64,41.2,3.68,61.81
					C26.75,393.31,28.85,393.32,28.78,391.97L28.78,391.97z"/>
			</g>
			<g>
				<path d="M9.25,186.35c-4.58,1.32-8.04,5.37-8.97,10c-1.06,5.27,0.98,10.62,4.49,14.53c0.9,1.01,2.38-0.48,1.48-1.48
					c-2.98-3.32-4.86-8-3.95-12.49c0.79-3.93,3.59-7.41,7.51-8.54C11.11,188,10.56,185.97,9.25,186.35L9.25,186.35z"/>
			</g>
			<g>
				<path d="M290.05,208.1c2.55-4.3,3.08-9.72,1.16-14.37c-1.75-4.24-5.23-7.51-9.52-9.1c-1.27-0.47-1.82,1.56-0.56,2.02
					c3.66,1.36,6.73,4.3,8.18,7.94c1.61,4.07,1.15,8.71-1.07,12.45C287.54,208.21,289.35,209.27,290.05,208.1L290.05,208.1z"/>
			</g>
			<g>
				<path d="M149.13,225.77c22.85-0.03,45.73-0.99,68.46-3.41c4.51-0.48,9.02-1.03,13.52-1.66c1.33-0.19,0.77-2.21-0.56-2.02
					c-19.69,2.76-39.61,4.04-59.47,4.65c-7.31,0.22-14.63,0.34-21.95,0.34C147.78,223.68,147.78,225.78,149.13,225.77L149.13,225.77
					z"/>
			</g>
			<g>
				<path d="M16.88,213.6c28.98,5.66,58.36,9.16,87.83,10.9c7.65,0.45,15.31,0.78,22.98,0.99c1.35,0.04,1.35-2.06,0-2.1
					c-28.4-0.8-56.77-3.15-84.87-7.42c-8.49-1.29-16.95-2.75-25.38-4.4C16.12,211.31,15.55,213.34,16.88,213.6L16.88,213.6z"/>
			</g>
			<g>
				<path d="M208.66,199.22c15.52-1.45,30.96-3.57,46.28-6.43c1.33-0.25,0.76-2.27-0.56-2.02c-15.14,2.83-30.4,4.92-45.73,6.36
					C207.33,197.25,207.32,199.35,208.66,199.22L208.66,199.22z"/>
			</g>
			<g>
				<path d="M24.67,191.42c20.16,3.95,40.58,6.53,61.06,8.18c21.82,1.75,43.73,2.44,65.61,2.26c12.49-0.1,24.98-0.48,37.45-1.14
					c1.34-0.07,1.35-2.17,0-2.1c-22.03,1.15-44.11,1.47-66.17,0.85c-21.3-0.6-42.58-2.07-63.73-4.72
					c-11.28-1.41-22.51-3.18-33.67-5.36C23.91,189.13,23.35,191.16,24.67,191.42L24.67,191.42z"/>
			</g>
			<g>
				<path d="M40.56,208.62c18.99,3.07,38.14,5.05,57.34,6.14c5.49,0.31,10.99,0.54,16.49,0.72c1.35,0.04,1.35-2.06,0-2.1
					c-19.05-0.59-38.07-1.98-56.98-4.41c-5.45-0.7-10.88-1.49-16.3-2.37C39.8,206.38,39.23,208.4,40.56,208.62L40.56,208.62z"/>
			</g>
			<g>
				<path d="M213.25,208.66c18.19-1.66,36.51-3.97,54.28-8.31c0.98-0.24,1.95-0.48,2.92-0.75c1.3-0.37,0.75-2.4-0.56-2.02
					c-2.92,0.83-5.9,1.47-8.87,2.1c-8.58,1.83-17.25,3.25-25.94,4.43c-7.26,0.99-14.54,1.79-21.83,2.46
					C211.91,206.68,211.9,208.78,213.25,208.66L213.25,208.66z"/>
			</g>
		</g>
	</g>
</g>
</svg>
