<?xml version="1.0" encoding="utf-8"?>
<!-- Generator: Adobe Illustrator 26.1.0, SVG Export Plug-In . SVG Version: 6.00 Build 0)  -->
<svg version="1.1" xmlns="http://www.w3.org/2000/svg" xmlns:xlink="http://www.w3.org/1999/xlink" x="0px" y="0px"
	 viewBox="0 0 353.89 628.3" style="enable-background:new 0 0 353.89 628.3;" xml:space="preserve">
<style type="text/css">
	.st0{fill:#391F14;}
	.st1{fill:#682320;}
	.st2{fill:#D26F75;}
	.st3{fill:#FEEAE3;}
	.st4{fill:#F8E2E7;}
	.st5{fill:#E86E78;}
	.st6{fill:#F19299;}
	.st7{fill:#F4C3C9;}
	.st8{fill:#B3203B;}
	.st9{fill:#666633;}
	.st10{fill:#C74E69;}
	.st11{opacity:0.4;}
	.st12{fill:#FFFFFF;}
	.st13{fill:#FAEED5;}
	.st14{fill:#DCA455;}
	.st15{fill:#4F3021;}
	.st16{fill:#D69F53;}
	.st17{fill:#FCE3A2;}
	.st18{fill:#FFD480;}
	.st19{fill:#FBAF3C;}
	.st20{fill:#FDC363;}
	.st21{fill:#754A3C;}
	.st22{opacity:0.3;}
	.st23{fill:#DDEADB;}
	.st24{fill:#BCD3C2;}
	.st25{fill:#A3C6AC;}
	.st26{fill:#D8E5DA;}
	.st27{fill:#233328;}
	.st28{fill:#5C6B63;}
	.st29{fill:#82AD91;}
	.st30{fill:#D2DBD1;}
	.st31{fill:#7AA388;}
	.st32{opacity:0.5;}
	.st33{fill:#6C845F;}
	.st34{fill:#5E7553;}
	.st35{fill:#C1786C;}
	.st36{fill:#E7CCC2;}
	.st37{fill:#F8E7DA;}
	.st38{fill:#EAC8B6;}
	.st39{fill:#E3987F;}
	.st40{fill:#F2C4A8;}
	.st41{fill:#7A4D4B;}
	.st42{fill:#DE998E;}
	.st43{fill:#CC644C;}
	.st44{fill:#D88977;}
	.st45{fill:#D87C60;}
	.st46{fill:#F7E4D6;}
	.st47{fill:#8C4330;}
	.st48{fill:#D4695B;}
	.st49{fill:#F0D6BF;}
	.st50{fill:#C19160;}
	.st51{fill:#D8AA75;}
	.st52{fill:#915A26;}
	.st53{fill:#BC7C48;}
	.st54{fill:#5B361E;}
	.st55{fill:#7E4F23;}
	.st56{fill:#CE9957;}
	.st57{fill:#E2BA84;}
	.st58{fill:#22120A;}
	.st59{fill:#554E26;}
	.st60{fill:#F6ECF5;}
	.st61{fill:#DBB6D1;}
	.st62{fill:#F3E4E0;}
	.st63{fill:#996699;}
	.st64{fill:#E8D4E7;}
	.st65{fill:#C48BBD;}
	.st66{fill:#6F3670;}
	.st67{fill:#8F6191;}
	.st68{fill:#441946;}
	.st69{fill:#F3DAD0;}
	.st70{fill:#741112;}
	.st71{fill:#CC3333;}
	.st72{fill:#DE6D57;}
	.st73{fill:#C75044;}
	.st74{fill:#CA4536;}
	.st75{fill:#D25847;}
	.st76{fill:#F3E4DE;}
	.st77{fill:#E06865;}
	.st78{fill:#CC4746;}
	.st79{fill:#436137;}
	.st80{fill:#9A3332;}
	.st81{fill:#EDA99F;}
	.st82{fill:#CC6666;}
	.st83{fill:#E89B95;}
	.st84{fill:#2C1B10;}
	.st85{fill:#CCAAA2;}
	.st86{fill:#EFDFD9;}
	.st87{fill:#836759;}
	.st88{fill:#D1B7A6;}
	.st89{fill:#674E3D;}
	.st90{fill:#B0806D;}
	.st91{fill:#CDAA96;}
	.st92{fill:#967A67;}
	.st93{fill:#EBBC8B;}
	.st94{fill:#6B3715;}
	.st95{fill:#F7DEBC;}
	.st96{fill:#EFE4DA;}
	.st97{fill:#CC6E28;}
	.st98{fill:#B25827;}
	.st99{fill:#A54924;}
	.st100{fill:#9E6031;}
	.st101{fill:#DDDACC;}
	.st102{fill:#908B47;}
	.st103{fill:#AFAA7A;}
	.st104{fill:#7F7E5F;}
	.st105{fill:#8B693E;}
	.st106{fill:#8E4316;}
	.st107{fill:#DDDAB1;}
	.st108{fill:#8F9C58;}
	.st109{fill:#828E3C;}
	.st110{fill:#8E5852;}
	.st111{fill:#CA887F;}
	.st112{fill:#E3988D;}
	.st113{fill:#F2CAB9;}
	.st114{fill:#EDAB9A;}
	.st115{fill:#F2DDBB;}
	.st116{fill:#AC4D27;}
	.st117{fill:#E69F59;}
	.st118{fill:#F2DAAE;}
	.st119{fill:#DA7B38;}
	.st120{fill:#E9C1A4;}
	.st121{fill:#D58761;}
	.st122{fill:#55150F;}
</style>
<g id="Bg">
</g>
<g id="Graphic">
	<g id="Boba_10">
		<g id="Drink_00000145746169690728448560000013036602554215735439_">
			<g>
				<path class="st23" d="M344.43,227.25c-2.86-1.73-8-1.18-9.98-3.6c-1.09-1.34-1.65-2.92-2.22-4.47
					c-10.33-27.9-22.18-54.85-44.74-75.07c-22.69-20.34-50.67-30.88-80.75-33.62c-43.89-4-98.07,0.86-134.35,27.8
					c-27.98,20.78-38.04,49.4-49.69,80.88c-0.57,1.54-1.13,3.12-2.22,4.47c-1.97,2.42-7.11,1.87-9.98,3.6
					c-8.15,4.93-9.49,21.85-7.73,30.01c1.13,5.23,11.15,6.56,11.15,6.56c1.63,33.31,13.98,21.13,15.62,30.32
					c1.21,6.78,20.21,261.57,20.21,261.57c0.69,4.12,2.89,9.36,7.98,9.27c0,0,4.08,35.59,6.81,40.16
					c7.98,13.31,18.11,15.4,32.63,17.85c41.02,6.92,107.97,7.28,168.37,0c9.85-1.25,21.08-6.76,25.66-15.51
					c1.19-2.26,1.95-4.72,2.39-7.24c1.66-9.47,4.63-34.41,4.43-34.41c5.09,0.08,7.29-5.16,7.98-9.27c0,0,18.15-255.63,19.36-262.41
					c1.64-9.19,14.36,2.91,15.91-30.44c0,0,9.73-1.2,10.86-6.43C353.92,249.1,352.58,232.18,344.43,227.25z"/>
			</g>
			<g>
				<path class="st24" d="M202.12,287.6c-8.06,0.19-16.1,0.59-24.16,0.54c-20.49-0.14-40.98-0.98-61.37-2.66
					c-20.25-1.67-42.55-3.7-61.57-7.28C56.24,289.05,73,540.97,73,540.97c0.52,3.96,0.99,6.65,1.42,7.79
					c1.16,3.13,3.98,5.8,8.06,8.08c0.13,8.2,0.56,27.82,2.01,30.81c2.39,4.92,8.42,7.44,13.76,8.47
					c21.22,4.11,57.61,5.17,79.05,5.65c21.44-0.48,57.82-0.7,79.05-4.81c5.34-1.03,11.37-2.71,13.76-7.63
					c1.3-2.67,1.78-21.64,1.96-29.7c2.53-0.95,8.7-2.52,10.07-13.77l17.78-266.78C260.11,284.61,240.54,286.68,202.12,287.6z"/>
			</g>
			<g>
				<path class="st25" d="M320.1,253.05c-0.96-6.2-4.95-11.45-8.81-16.4c-8.07-10.36,0.15-19.62-12.38-26.39
					c-4.98-2.69-19.64,3.04-22.42-3.54c-3.33-7.91-3.09-16.93-6.15-24.94c-3.24-8.48-10.28-15.43-18.8-18.57
					c-2.48-0.91-5.16-1.57-7.12-3.33c-2.92-2.62-3.46-6.89-4.34-10.72c-1.5-6.51-4.52-12.66-8.76-17.83c-1.8-2.19-4.4-4.4-7.15-3.68
					c-2.23,0.58-3.53,2.84-4.59,4.88c-8.55,16.4-21.56,34.16-40.06,34.21c-11.96,0.03-23.66-7.7-35.22-4.64
					c-10.93,2.89-18.01,14.66-29.11,16.76c-9.68,1.83-20.51-4.15-29.09,0.68c-6.92,3.89-8.71,12.78-11.02,20.36
					c-4.56,14.98-13.93,28.52-26.6,37.75c-2.68,1.95-5.71,4.02-6.47,7.24c-2.24,9.55,4.27,35.12,9.92,42.7
					c0.86,1.15,2.02,1.98,3.41,2.58c0.39,26.54,4.51,53.84,6.43,80.11c11.24,1,17.99-12.59,18.5-23.86
					c0.52-11.27-1.49-23.79,5.3-32.8c5.77-7.66,17.49-10.03,25.79-5.22c8.3,4.81,12.06,16.17,8.27,24.98
					c-1.77,4.13-4.9,7.56-6.69,11.68c-1.79,4.12-1.79,9.67,1.83,12.33c7.94,5.84,19.27-9.01,27.77-4.01
					c3.6,2.12,4.57,6.97,4.01,11.1s-2.23,8.09-2.48,12.26c-0.74,12.36,12.88,22.53,25.07,20.38s21.18-14.01,22.5-26.32
					c0.76-7.11-0.61-14.27-0.71-21.43c-0.1-7.15,1.38-14.88,6.61-19.76c5.23-4.88,15.04-5.05,18.67,1.11
					c2.43,4.12,1.45,9.37,2.63,14.02c2.2,8.61,12.39,13.75,21.02,11.64c8.63-2.11,15.03-10.22,16.55-18.98
					c0.83-4.76,1.43-11.02,6.13-12.11c3.23-0.75,6.47,1.94,7.51,5.09s0.49,6.58-0.1,9.85c-1.66,9.23-3.38,19.13,0.49,27.67
					c3.87,8.54,15.92,13.88,22.94,7.67c1.89-27.27,3.77-54.54,5.66-81.8c0.1-0.05,0.21-0.09,0.31-0.15
					C308.43,288.88,321.66,263.15,320.1,253.05z"/>
			</g>
			<g>
				<path class="st26" d="M141.49,520.87c-0.52,0.27-1.26,0.65-0.73,1.39c0.42,0.59,1.2,0.79,1.81,0.28
					c0.29-0.24,0.57-0.37,0.85-0.41c0.04,0.59,0.22,1.14,0.59,1.47c0.95,0.84,2.2,1.31,3.49,0.44c0.62-0.41,0.99-0.85,1.14-1.34
					c0.44-0.16,0.86-0.4,1.28-0.74c1.51-1.24,1.15-3.05,0.9-4.59c-0.15-0.94-1.15-1.73-1.77-2.59c-1.41,1.03-3.31-0.05-4.62,1.06
					c-1.39,0.8-1.71,2.17-1.97,3.47C142.31,520.02,142.16,520.51,141.49,520.87z"/>
				<path class="st26" d="M128.95,535.4c-0.57-1.39-3.69-1.66-5.25-0.45c-0.17,0.55-0.89,0.43-1.17,1.04
					c-0.57,1.21,0.23,2.74,1.62,3.49c0.33,0.38,0.71,0.46,1.14,0.39c0.05,0.01,0.1,0.03,0.15,0.04
					C127.98,540.22,129.92,537.74,128.95,535.4z"/>
				<path class="st26" d="M98.5,576.06c1.01-0.91,2.59-0.15,3.44-1.3c1.14-0.44,1.83-1.2,1.65-2.46c-0.09-0.66-2.96-2.72-3.6-2.65
					c-0.23,0.03-0.45,0.17-0.67,0.27c-1.89,0.91-2.67,3.9-1.48,5.66C98,575.84,98.28,576.26,98.5,576.06z"/>
				<path class="st26" d="M137,553.9c0.47-0.82,0.76-1.73-0.13-2.59c-0.47-1.18-1.24-1.35-2.25-0.49c-0.56,0.47-1.2,0.7-1.88,0.38
					c-1.73-0.81-2.79-0.38-3.06,1.58c-0.07,0.49-1.01,0.91-0.29,1.4c0.46,0.32,1.31,0.58,1.74,0.12c1.3-1.38,2.5-0.79,3.87-0.15
					C135.56,554.4,136.51,554.76,137,553.9z"/>
				<path class="st26" d="M120.49,499.12c-0.39-0.55-3.52-0.91-4.14-0.49c-0.54,0.38-0.95,3.64-0.53,4.29
					c0.41,0.64,2.83,1.03,3.56,0.58C120.6,502.75,121.25,500.18,120.49,499.12z"/>
				<path class="st26" d="M84.09,516.43c-0.63-0.86-3.89-1.26-4.95-0.62c-1.33,0.8-1,1.88-0.67,2.75c0.92,1.42,2.76,1.92,3.86,1.25
					C83.67,518.99,84.62,517.16,84.09,516.43z"/>
				<path class="st26" d="M123.29,576.52c1.21-0.56,1.45-2.74,0.61-4.07c-0.5-0.79-2.51-1.16-3.33-0.61
					c-0.98,0.65-1.28,2.9-0.52,3.98C120.91,577.04,122.14,577.05,123.29,576.52z"/>
				<path class="st26" d="M109.64,561.22c-0.05-0.14-0.18-0.28-0.38-0.42c0.12-0.48-0.01-1.07-0.37-1.63
					c-0.27-1.26-1.15-1.96-2.3-1.48c-0.79,0.34-1.42,1.23-0.89,2.4c0.04,0.09,0.08,0.17,0.13,0.25c-0.18,0.27-0.32,0.66-0.41,1.09
					c-0.04-0.13-0.08-0.28-0.13-0.43c-0.08-0.39-0.49-0.58-1.15-0.38c-0.55,0.17-0.84,0.39-0.6,1.04c0.3,0.79,1.01,0.61,1.52,0.6
					c0.12,0,0.2-0.03,0.26-0.06c-0.02,0.53,0.06,1.03,0.25,1.36c0.47,0.77,3.05,1.42,3.58,0.77
					C109.84,563.45,109.99,562.3,109.64,561.22z"/>
				<path class="st26" d="M139.14,503.83c-0.5,0.34-1.04,3.01-0.72,3.56c0.44,0.75,2.62,1.34,3.3,0.89c0.9-0.59,1.06-2.37,0.31-3.5
					C141.6,504.12,139.65,503.49,139.14,503.83z"/>
				<path class="st26" d="M149.88,534.37c-0.8-1.14-1.78-1.73-3.16-0.53c-2,0.64-0.84,2-0.39,3.03c0.62,1.43,1.99,1.06,2.89,0.48
					C150.2,536.71,150.71,535.56,149.88,534.37z"/>
				<path class="st26" d="M132.5,530.03c-0.9-0.88-2.34,0.36-3-1.01c-0.11-0.23-0.59,0.19-0.53,0.64c0.06,0.48,0.24,0.99,0.13,1.43
					c-0.29,1.15,0.66,1.58,1.26,1.98c0.67,0.44,1.61,0.62,2.4-0.07c0.62-0.42,1.18-0.89,1.03-1.77
					C133.66,530.46,132.88,530.4,132.5,530.03z"/>
				<path class="st26" d="M96.74,595.39c-0.54-0.17-1-0.13-1.4,0.02c0.78,0.23,1.56,0.42,2.33,0.58
					C97.46,595.73,97.17,595.52,96.74,595.39z"/>
				<path class="st26" d="M138.5,558.73c0.95-0.46,1.44-1.51,0.72-2.43c-1-1.28-2.25-0.05-3.31,0.14c-0.51,0.09-1.88,1.05-0.76,2.32
					C136.23,560.2,137.44,559.24,138.5,558.73z"/>
				<path class="st26" d="M112.43,596.59c-0.55-0.64-1.61-1.5-2.79-0.54c-0.73,0.44-1.15,1-0.96,1.71c1.25,0.16,2.53,0.32,3.83,0.47
					C112.77,597.68,112.83,597.05,112.43,596.59z"/>
				<path class="st26" d="M92.88,537.42c-0.94,0.52-1.34,1.36-0.76,2.35c0.63,1.08,1.5,0.63,2.38,0.17c1.01-0.53,1.3-1.36,0.8-2.26
					C94.74,536.69,93.82,536.75,92.88,537.42z"/>
				<path class="st26" d="M129.94,521.94c-0.97,0.39-0.45,1.07-0.03,1.79c0.5,1.57,1.88,0.72,2.86,0.6c0.46-0.06,0.93-1.07,0.32-1.7
					C132.23,521.75,131.09,521.47,129.94,521.94z"/>
				<path class="st26" d="M69.83,468.64c-0.43-0.94-1.08-0.94-1.72-0.78c0.14,2.05,0.27,4.07,0.41,6.07c0.79,0.19,1.75,0.13,2-0.28
					c0.51-0.85,0.74-2.18,0.16-2.7c-0.26-0.24-0.6-0.38-0.97-0.44c0.02-0.01,0.05-0.02,0.08-0.03
					C70.61,470.07,70.34,469.24,69.83,468.64z"/>
				<path class="st26" d="M145.23,530.45c0.59-0.5,1.28-1.41,0.37-2.37c-0.4-0.96-1.1-1.01-1.88-0.47
					c-0.78,0.54-1.15,1.37-0.63,2.19C143.54,530.53,144.48,531.08,145.23,530.45z"/>
				<path class="st26" d="M95.68,491.35c-0.49-0.46-1.29-1.12-2.03-0.6c-0.6,0.67-1.39,1.22-0.74,1.97
					c0.53,0.62,1.32,0.99,2.21,0.43C95.87,492.69,95.97,491.62,95.68,491.35z"/>
				<path class="st26" d="M87.45,581.89c-0.4-0.46-1.06-1.04-1.87-0.51c-0.83,0.54-0.99,1.43-0.64,2.16c0.42,0.87,1.23,0.51,2,0.02
					C87.55,583.23,88.08,582.62,87.45,581.89z"/>
				<path class="st26" d="M121.18,544.81c-0.54-0.03-0.94,0.24-1.22,0.67c-0.23,0.36-0.14,0.86,0.16,0.98
					c0.84,0.33,0.82,1.13,1.07,1.72c0.47,0.26,0.47,1.15,1.06,0.9c0.65-0.27,0.4-0.99,0.13-1.42c-0.41-0.66-0.27-1.43-0.55-2.1
					C121.69,545.21,121.65,544.83,121.18,544.81z"/>
				<path class="st26" d="M145.11,512.75c0.79-0.45,1.02-1.2,0.73-1.87c-0.34-0.77-1.17-0.67-1.73-0.53
					c-0.99,0.55-0.84,1.16-0.44,1.8C144.01,512.69,144.31,513.21,145.11,512.75z"/>
				<path class="st26" d="M93.19,593.37c0.69-0.41,0.83-1.28,0.55-1.73c-0.38-0.62-1.2-0.99-2.02-0.47c-0.71,0.45-0.53,1-0.11,1.55
					C91.95,593.36,92.39,593.85,93.19,593.37z"/>
				<path class="st26" d="M142.56,545.54c-0.03,0.38,1.14,0.73,1.54,0.33c0.48-0.48,0.62-1.31,0.02-1.97
					c-0.36-0.46-0.67-1.25-1.39-0.65C141.99,543.85,142.61,544.78,142.56,545.54z"/>
				<path class="st26" d="M115.5,554.98c-0.38-0.58-0.8-0.7-1.43-0.23c-0.7,0.3-0.42,0.78-0.1,1.28c0.31,0.48,0.61,0.94,1.29,0.49
					C115.92,556.08,115.91,555.6,115.5,554.98z"/>
				<path class="st26" d="M150.97,540.65c-0.61,0.39-0.54,0.89-0.21,1.41c0.3,0.47,0.66,0.93,1.32,0.53
					c0.67-0.4,0.65-0.96,0.29-1.56C152.02,540.48,151.55,540.35,150.97,540.65z"/>
				<path class="st26" d="M112.85,560.36c0.54-0.36,0.81-0.69,0.39-1.34c-0.4-0.62-0.81-0.69-1.34-0.24
					c-0.61,0.3-0.85,0.73-0.45,1.34C111.81,560.69,112.26,560.75,112.85,560.36z"/>
				<path class="st26" d="M66.51,443.94c0.58,0.59,1.17,1.27,2.27,1.2c0.94-0.06,1.99-0.25,2.6,0.87c0.15,0.27,0.54,0.31,0.82,0.11
					c0.24-0.17,0.16-0.42,0.03-0.66c-0.62-1.2-0.23-2.06,0.87-2.73c0.74-0.46,1.24-1.12,1.48-2c0.71-2.55-0.28-4.56-2.01-6.3
					c-0.44-0.45-0.92-0.62-0.33-1.4c0.48-0.62,0.48-1.56-0.33-2.12c-0.88-0.6-1.3,0.21-1.82,0.7c-0.48,0.45-0.88,0.87-0.41,1.57
					c0.21,0.32,0.28,0.93-0.18,0.81c-1.24-0.33-1.88,0.73-2.52,1.2c-0.36,0.26-0.7,0.54-1.01,0.83
					C66.16,438.68,66.33,441.32,66.51,443.94z"/>
				<path class="st26" d="M99.09,476.51c-1.19,1.12-1.08,3.86,0.08,5.24c1.15,1.35,3.47,1.24,4.93,0.09
					c1.4-1.11,1.19-3.35-0.28-4.92C102.31,475.29,100.56,475.14,99.09,476.51z"/>
				<path class="st26" d="M126.16,481.8c-2.1,0.39-3.4,2.66-2.88,5.42c0.34,1.8,1.95,2.41,3.48,1.3c0.4-0.29,0.73-0.66,1.09-1
					c0,0.01,0.01,0.01,0.01,0.01c0.23-0.21,0.43-0.45,0.68-0.62c1.31-0.87,1.48-2.18,0.88-3.38
					C128.83,482.34,127.84,481.49,126.16,481.8z"/>
				<path class="st26" d="M121.77,523.53c1.17,1.27,2.19,1.2,3.87-0.36c1.05-0.81,1.66-1.81,0.42-3.13
					c-1.04-1.11-3.51-1.28-4.5-0.31C120.4,520.89,120.47,522.11,121.77,523.53z"/>
				<path class="st26" d="M86.91,421.06c-0.74-0.98-1.94-0.92-2.56-0.26c-0.65,0.71-1.46,1.82-0.38,2.99
					c0.98,1.06,1.93,0.64,2.88,0.12C87.79,422.93,87.59,421.97,86.91,421.06z"/>
				<path class="st26" d="M69.94,495.03c0.04,0.57,0.08,1.13,0.11,1.69C70.59,496.11,70.57,495.61,69.94,495.03z"/>
				<path class="st26" d="M82.05,454.17c-0.44,0.31-0.59,1.17-0.16,1.64c0.52,0.58,1.3,0.7,1.96,0.13c0.51-0.44,0.72-0.99,0.08-1.56
					C83.41,453.56,82.58,453.8,82.05,454.17z"/>
				<path class="st26" d="M108.7,459.76c-0.77-0.68-1.34-0.2-1.93,0.46c-0.23,0.39-1.26,0.77-0.65,1.35c0.86,0.8,1.6-0.36,2.39-0.63
					C108.97,460.78,109.24,460.23,108.7,459.76z"/>
				<path class="st26" d="M83.22,476.51c0.78,0.52,1.37,0.19,1.93-0.39c0.33-0.34,0.6-0.78,0.09-1.06c-0.66-0.36-1.4-0.65-2.47-0.39
					C83.4,475.28,82.41,475.97,83.22,476.51z"/>
				<path class="st26" d="M113.5,436.65c0.6-0.49,0.6-1.08,0.15-1.61c-0.55-0.64-0.97-0.06-1.39,0.26
					c-0.34,0.39-1.04,0.73-0.43,1.34C112.31,437.12,112.94,437.1,113.5,436.65z"/>
				<path class="st26" d="M70.49,500.66c0.02,0.19-0.06,0.39-0.14,0.58c0.03,0.38,0.05,0.76,0.08,1.14c0.44,0.3,1.18,0.25,1.56-0.04
					c0.55-0.41,0.26-1.15-0.13-1.58C71.54,500.41,70.99,500.42,70.49,500.66z"/>
				<path class="st26" d="M77.58,469.98c0.26-0.4,1.08-0.69,0.47-1.3c-0.34-0.34-1.04-0.57-1.5-0.16c-0.49,0.44-0.49,1.14-0.16,1.67
					C76.83,470.88,77.2,470.23,77.58,469.98z"/>
				<path class="st26" d="M142.15,572.02c0.42-0.35,0.8-0.83,0.43-1.44c-0.3-0.5-0.72-0.62-1.25-0.3c-0.63,0.39-0.49,0.9-0.26,1.47
					C141.36,572.09,141.73,572.38,142.15,572.02z"/>
				<path class="st26" d="M97.29,529.1c0.35,0.37,0.75,0.74,1.21,0.23c0.4-0.45,0.7-1.03,0.33-1.63c-0.4-0.66-0.83-0.12-1.21,0.08
					C97.01,528.09,96.87,528.53,97.29,529.1z"/>
				<path class="st26" d="M162.12,513.27c0.71-0.42,0.46-1.04,0.36-1.63c-0.45-0.62-0.86-0.16-1.26,0.05
					c-0.58,0.31-0.81,0.75-0.38,1.34C161.19,513.51,161.62,513.57,162.12,513.27z"/>
				<path class="st26" d="M102.49,518.24c-0.4-0.72-1.11-0.52-1.63-0.36c-0.82,0.26-0.13,0.75-0.02,1.14
					c0.33,0.42,0.54,1.08,1.27,0.63C102.63,519.31,102.82,518.83,102.49,518.24z"/>
				<path class="st26" d="M114.29,524.16c0.57-0.3,0.52-0.73,0.16-1.18c-0.32-0.41-0.65-0.74-1.37-0.16
					c-0.33,0.32-0.45,0.86-0.03,1.44C113.51,524.88,113.91,524.37,114.29,524.16z"/>
				<path class="st26" d="M85.89,511.96c0.58-0.36,0.6-0.84,0.24-1.38c-0.26-0.38-0.53-0.68-1.07-0.31c-0.3,0.36-0.77,0.73-0.4,1.36
					C84.96,512.11,85.39,512.26,85.89,511.96z"/>
				<path class="st26" d="M88.07,516.62c0.37-0.26,0.69-0.57,0.34-1.03c-0.46-0.6-1.08-0.27-1.63-0.25
					c-0.44,0.44-0.13,0.79,0.08,1.14C87.2,517.04,87.62,516.94,88.07,516.62z"/>
				<path class="st26" d="M103.18,532.98c0.35-0.23,0.88-0.48,0.55-0.96c-0.35-0.52-0.99-0.59-1.51-0.54
					c-0.55,0.25-0.54,0.57-0.3,0.93C102.22,532.86,102.47,533.44,103.18,532.98z"/>
				<path class="st26" d="M105.57,507.51c0.3-0.03,0.37-0.58,0.05-0.72c-0.64-0.27-1.11-0.98-1.89-0.83
					c-0.35,0.42-0.17,0.74,0.04,1.05C104.22,507.72,104.94,507.56,105.57,507.51z"/>
				<path class="st26" d="M135.14,507.64c0.39,0.49,0.83,0.35,1.28,0.05c0.4-0.27,0.6-0.59,0.29-1.09c-0.53-0.3-1.17-0.4-1.67-0.08
					C134.62,506.79,134.88,507.3,135.14,507.64z"/>
				<path class="st26" d="M110.53,518.55c0.4-0.24,0.74-0.53,0.36-1.03c-0.41-0.52-1-0.33-1.5-0.35c-0.46,0.26-0.43,0.6-0.23,0.96
					C109.48,518.72,109.92,518.92,110.53,518.55z"/>
				<path class="st26" d="M106.05,533.41c0.29-0.22,0.73-0.46,0.38-0.81c-0.26-0.25-0.91-0.46-1.14-0.31
					c-0.72,0.47-0.72,1.27-0.54,2.24C105.25,534.1,105.64,533.74,106.05,533.41z"/>
				<path class="st26" d="M86.09,574.38c0.52,0.06,1.04-0.01,1.44-0.26c0.63-0.39,1.06-3.47,0.6-4.18
					c-0.34-0.53-0.73-0.38-1.07-0.09c-1.04,0.86-2.26,0.85-3.5,0.81c-0.35-0.01-0.59,0.04-0.72,0.17c0.12,3.02,0.27,6.03,0.46,8.68
					c0.4-0.05,0.8-0.13,1.19-0.28C85.61,578.8,86.36,576.27,86.09,574.38z"/>
				<path class="st26" d="M84.63,490.39c-0.74-1.55-4.33-3.16-5.71-2.56c-0.88,0.38-2.11,3.96-1.71,4.96
					c0.12,0.3,0.33,0.57,0.56,0.83c-0.72-0.04-1.46,0.23-2.07,0.8c-1.28,1.19-1.31,3.09-0.07,4.43c0.95,1.03,3.12,0.92,4.38-0.22
					c1.27-0.8,1.19-1.98-0.06-3.66c0.95,0.32,1.95,0.39,2.69,0.06C84.06,494.38,85.23,491.64,84.63,490.39z"/>
				<path class="st26" d="M72.71,536.54c0.15-0.64,0.13-1.34-0.13-1.97C72.62,535.28,72.67,535.94,72.71,536.54z"/>
				<path class="st26" d="M160.72,506.09c-0.45-1.15-2.79-2.05-4.02-1.55c-1.13,0.45-2.16,2.62-1.74,3.66
					c0.55,1.38,2.85,2.39,4.17,1.84C160.21,509.59,161.16,507.21,160.72,506.09z"/>
				<path class="st26" d="M147.7,595.27c0.62,0.06,1.91,0.55,1.93-0.3c0.05-1.8,0.93-0.92,1.69-0.82c0.93,0.12,2.03,0.44,2.66-0.52
					c0.43-0.65,1.09-1.44,0.5-2.21c-0.58-1.33-1.64-1.39-2.68-1.53c-1.12-0.14-1.36,0.82-1.62,1.46c-0.36,0.93-0.45,1.7-1.81,1.16
					c-0.59-0.23-1.62,0.13-1.68,1.01C146.66,594.18,146.88,595.19,147.7,595.27z"/>
				<path class="st26" d="M96.79,545.15c0.88-0.41,1.6-2.48,1.2-3.45c-0.53-1.3-2.56-1.96-4.23-1.25c-1.64,0.25-1.67,1.6-1.36,2.9
					C92.72,544.71,95.52,545.75,96.79,545.15z"/>
				<path class="st26" d="M218.27,588.15c1.33-0.53,2.42-2.95,1.85-4.13c-0.29-0.61-3.31-1.51-3.99-1.2
					c-0.6,0.28-1.57,3.42-1.27,4.13C215.16,587.66,217.48,588.47,218.27,588.15z"/>
				<path class="st26" d="M178.95,597.76c1.46-0.57,2.72-2.21,2.32-3.02c-0.47-0.95-3.61-1.92-4.76-1.47
					c-1.45,0.56-1.31,1.68-1.14,2.59C176.02,597.42,177.75,598.23,178.95,597.76z"/>
				<path class="st26" d="M91.13,525.08c-1.24,0.56-1.79,2.15-1.22,3.52c0.36,0.86,2.72,2.12,2.98,1.61
					c0.56-1.1,2.75-1.05,2.38-2.21C93.85,524.8,92.92,524.27,91.13,525.08z"/>
				<path class="st26" d="M144.08,567.69c0.73-0.53,1.47-0.6,2.08,0.02c0.69,0.71,1.27,0.24,1.79-0.07
					c0.72-0.42,0.47-1.16,0.41-1.56c-0.25-0.91-0.65-1.3-1.34-1.41c-1.48-0.24-2.86-0.48-4.2,0.73c-0.79,0.71-0.59,1.16-0.33,1.86
					C142.84,568.16,143.44,568.16,144.08,567.69z"/>
				<path class="st26" d="M239.44,596.73c0.99-0.43,1.45-2.15,0.91-3.39c-0.32-0.72-2.13-1.69-2.69-1.44
					c-0.55,0.25-1.55,2.78-1.32,3.38C236.65,596.1,238.7,597.06,239.44,596.73z"/>
				<path class="st26" d="M102.54,595.25c-0.67,0.13-1.12,0.74-1.14,1.43c1.41,0.24,2.87,0.47,4.37,0.68
					c-0.03-0.32-0.1-0.66-0.23-1.02C104.95,594.64,103.47,595.07,102.54,595.25z"/>
				<path class="st26" d="M107.27,547.98c0.24-0.18,1.39-0.18,0.76-1.27c-0.49-0.85-1.33-1.3-2.34-0.88
					c-0.82,0.34-1.02,0.98-0.64,1.8C105.48,548.59,106.14,548.66,107.27,547.98z"/>
				<path class="st26" d="M195.15,571.11c-0.71,0.56-1.58,0.96-1.07,1.81c0.41,0.7,1.13,1.2,2.1,0.81c0.82-0.33,1.11-1.36,0.86-1.68
					C196.64,571.52,195.97,570.73,195.15,571.11z"/>
				<path class="st26" d="M90.36,574.01c0.29,0.2,0.64,0.25,1.11,0.02c0.8-0.39,0.27-1.08,0.41-1.64c-0.03-0.03-0.07-0.05-0.11-0.07
					c-0.01-0.11-0.04-0.22-0.08-0.32c-0.34-0.91-1.21-0.96-2.15-0.54c-0.94,0.42-0.97,0.96-0.52,1.72
					C89.23,574.02,89.7,574.18,90.36,574.01z"/>
				<path class="st26" d="M90.33,549.4c1.02-0.35,0.88-1.02,0.48-1.76c-0.25-0.83-0.69-1.32-1.62-0.86c-0.86,0.43-1.07,1.1-0.7,1.99
					C88.88,549.68,89.55,549.66,90.33,549.4z"/>
				<path class="st26" d="M84.42,503.17c-0.58-0.45-0.79-1.58-1.86-1.09c-0.76,0.36-0.96,1.14-0.69,1.89
					c0.33,0.88,1.2,1.1,1.97,0.91C84.71,504.68,84.52,503.87,84.42,503.17z"/>
				<path class="st26" d="M129.94,570.15c0.35,0.77,1.14,1.17,1.81,0.82c0.34-0.17,0.58-0.51,0.67-0.89
					c0.56-0.03,1.08-0.16,1.48-0.44c0.43-0.3,0.58-2.85,0.19-3.33c-0.6-0.74-3.22-0.87-4.35-0.09c-0.7,0.74-1.13,1.62-0.25,2.77
					c0.06,0.08,0.15,0.15,0.23,0.23C129.71,569.52,129.8,569.83,129.94,570.15z"/>
				<path class="st26" d="M115.93,479.75c-0.93,0.3-0.69,1.01-0.36,1.72c0.19,0.95,1.01,1.11,1.69,0.82
					c0.73-0.31,0.99-1.18,0.59-1.89C117.48,479.74,116.67,479.51,115.93,479.75z"/>
				<path class="st26" d="M160.53,482.67c0.85-0.43,1.14-1.11,0.8-2c-0.29-0.76-0.87-0.78-1.62-0.38c-1,0.16-0.9,0.84-0.54,1.63
					C159.44,482.53,159.7,483.09,160.53,482.67z"/>
				<path class="st26" d="M111.75,549.91c0.66-0.41,1.8-0.51,1.43-1.75c-0.19-0.64-0.49-1.04-1.34-0.74
					c-1.15,0.4-0.56,1.57-1.23,2.06C110.91,550.14,111.4,550.12,111.75,549.91z"/>
				<path class="st26" d="M140.86,540.86c0.73-0.3,1.11-0.75,0.8-1.55c-0.29-0.76-1.09-0.53-1.64-0.94
					c-0.21,0.77-1.02,1.18-0.64,2.06C139.72,541.22,140.22,541.12,140.86,540.86z"/>
				<path class="st26" d="M99.01,550.95c0.44-0.17,1.05-0.4,0.76-1.03c-0.35-0.75-1.06-0.92-1.72-0.82
					c-0.73,0.32-1.01,0.73-0.75,1.38C97.67,551.39,98.36,551.2,99.01,550.95z"/>
				<path class="st26" d="M104.81,494.57c-0.23,0.47,0.21,0.69,0.5,0.85c0.75,0.42,0.67,1.23,0.95,2.12
					c1.11-1.44,0.89-2.76-0.31-3.11C105.57,494.31,105.08,494,104.81,494.57z"/>
				<path class="st26" d="M153.09,525.18c-0.28-0.62-0.65-0.85-1.29-0.54c-0.74,0.34-1.05,1.08-0.9,1.72
					c0.18,0.74,1.02,0.39,1.4,0.19C152.73,526.33,153.47,526.03,153.09,525.18z"/>
				<path class="st26" d="M79.34,483.91c1.9-2.13,1.86-2.8-0.33-3.27C79.78,481.78,79.06,482.82,79.34,483.91z"/>
				<path class="st26" d="M125.73,585.8c-0.53,0.23-0.79,0.52-0.5,1.15c0.27,0.59,0.77,0.86,1.44,0.65
					c0.57-0.18,0.64-0.62,0.44-1.17C126.86,585.74,126.46,585.49,125.73,585.8z"/>
				<path class="st26" d="M175.9,519.52c0.85,0.67,1.12,2.18,2.69,2.36c0.93,0.11,2,0.1,2.41,1.31c0.1,0.29,0.48,0.4,0.79,0.25
					c0.26-0.13,0.23-0.39,0.15-0.64c-0.4-1.29,0.13-2.07,1.33-2.54c0.81-0.32,1.41-0.89,1.8-1.71c1.15-2.39,0.52-4.54-0.89-6.56
					c-0.36-0.52-0.8-0.77-0.08-1.43c0.58-0.53,0.75-1.46,0.04-2.15c-0.77-0.75-1.31-0.02-1.91,0.37c-0.55,0.36-1.02,0.7-0.68,1.47
					c0.16,0.35,0.11,0.96-0.32,0.76c-1.16-0.54-1.98,0.4-2.69,0.74C175.53,513.25,173.47,515.76,175.9,519.52z"/>
				<path class="st26" d="M202.16,563.21c0.89,1.53,3.2,1.83,4.84,0.95c1.57-0.84,1.75-3.09,0.58-4.89
					c-1.21-1.87-2.91-2.33-4.59-1.23C201.62,558.93,201.25,561.65,202.16,563.21z"/>
				<path class="st26" d="M228.14,574.68c0.44-0.21,0.83-0.53,1.25-0.79c0,0.01,0.01,0.01,0.01,0.02c0.26-0.17,0.5-0.37,0.78-0.49
					c1.44-0.63,1.84-1.89,1.46-3.17c-0.38-1.29-1.22-2.29-2.92-2.28c-2.13,0.02-3.82,2.03-3.78,4.84
					C224.96,574.63,226.44,575.5,228.14,574.68z"/>
				<path class="st26" d="M180.79,572.59c-0.84-1.55-2.55-1.89-3.94-0.99c-1.47,0.95-1.83,2.81-0.84,4.35
					c0.76,1.18,2.91,1.45,4.35,0.54C181.82,575.9,181.9,574.63,180.79,572.59z"/>
				<path class="st26" d="M157.34,555.56c1.53-1.03,0.88-2.23,0.43-3.1c-0.65-1.27-2.25-1.07-3.14-0.47c-0.67,0.45-1.08,1.75-0.36,3
					C155.17,555.27,155.78,556.61,157.34,555.56z"/>
				<path class="st26" d="M148.13,551.24c0.88-0.5,1.06-1.76,0.67-2.77c-0.32-0.85-3.08-1.12-3.82-0.35
					c-0.84,0.88-0.49,2.02-0.3,3.2C145.82,551.82,147.13,551.81,148.13,551.24z"/>
				<path class="st26" d="M200.63,501.32c-0.55-1.09-1.75-1.25-2.48-0.7c-0.77,0.58-1.76,1.54-0.89,2.88
					c0.78,1.21,1.79,0.97,2.82,0.62C201.17,503.3,201.15,502.32,200.63,501.32z"/>
				<path class="st26" d="M172.42,549.48c0.4,0.78,2.44,1.33,2.92,0.77c0.65-0.75,1.1-2.02,0.63-2.63c-0.22-0.28-0.52-0.48-0.87-0.6
					c0.03-0.01,0.05-0.01,0.08-0.02c0.88-0.25,0.76-1.11,0.36-1.8c-0.39-1.52-1.68-0.99-2.54-0.97c-0.33,0.01-1.03,1.04-0.64,1.86
					c0.25,0.51,0.6,0.8,1,0.95c-0.13,0.04-0.26,0.09-0.39,0.15C172.36,547.86,171.98,548.6,172.42,549.48z"/>
				<path class="st26" d="M142.84,536.92c0.2,0.62,2.74,1.33,3.18,0.92c0.86-0.82-0.25-1.26-0.39-1.82
					c-0.9-1.52-1.02-1.55-2.05-0.96C142.8,535.49,142.59,536.16,142.84,536.92z"/>
				<path class="st26" d="M170.66,573.04c0.88-0.59,0.99-1.15,0.29-1.96c-0.33-1.14-1.4-0.82-1.83-0.43
					c-0.51,0.46-1.69,1.05-0.94,2.05C168.78,573.52,169.67,573.7,170.66,573.04z"/>
				<path class="st26" d="M168.19,539.56c-0.4-0.51-1.04-1.56-1.89-0.88c-0.58,0.46-1.42,1.19-0.61,2.29
					c0.61,0.83,1.17,0.99,1.98,0.36C168.61,540.98,168.6,540.09,168.19,539.56z"/>
				<path class="st26" d="M191.55,535.13c0.58-0.35,0.88-0.85,0.35-1.52c-0.37-0.91-1.22-0.81-1.81-0.53
					c-0.49,0.23-0.78,1.05-0.44,1.59C190.06,535.33,190.8,535.58,191.55,535.13z"/>
				<path class="st26" d="M215.36,543.21c-0.64-0.8-1.28-0.43-1.98,0.12c-0.29,0.35-1.38,0.54-0.87,1.22
					c0.7,0.94,1.64-0.07,2.46-0.2C215.45,544.27,215.81,543.77,215.36,543.21z"/>
				<path class="st26" d="M187.36,555.28c0.68,0.65,1.32,0.42,1.96-0.05c0.38-0.28,0.73-0.66,0.27-1.03
					c-0.58-0.47-1.26-0.88-2.36-0.82C187.75,554.09,186.65,554.61,187.36,555.28z"/>
				<path class="st26" d="M224.11,521.29c0.68-0.37,0.78-0.96,0.43-1.56c-0.43-0.73-0.94-0.23-1.42,0.01
					c-0.4,0.33-1.15,0.53-0.65,1.24C222.85,521.54,223.47,521.64,224.11,521.29z"/>
				<path class="st26" d="M171.8,578.75c0.61-0.31,0.46-1.09,0.14-1.58c-0.25-0.39-0.79-0.48-1.32-0.33
					c-0.05,0.58-0.89,1.02-0.46,1.6C170.5,578.9,171.34,578.99,171.8,578.75z"/>
				<path class="st26" d="M182.99,569.93c0.58-0.36,0.72-0.79,0.37-1.35c-0.36-0.58-0.84-0.62-1.4-0.17
					c-0.58,0.3-0.66,0.74-0.32,1.33C182.02,570.39,182.45,570.27,182.99,569.93z"/>
				<path class="st26" d="M182.94,547.86c0.32-0.35,1.19-0.49,0.69-1.2c-0.28-0.4-0.92-0.74-1.45-0.42
					c-0.55,0.35-0.68,1.04-0.45,1.61C182.04,548.62,182.51,548.05,182.94,547.86z"/>
				<path class="st26" d="M198.44,601.04c0.59-0.24,0.85-0.68,0.63-1.32c-0.27-0.78-1.01-0.71-1.54-0.64
					c-0.85,0.12-0.26,0.72-0.22,1.11C197.55,600.68,197.65,601.36,198.44,601.04z"/>
				<path class="st26" d="M134.11,497.32c-0.33,0.32-0.56,0.79-0.4,1.13c0.3,0.63,1.02,0.6,1.6,0.53c0.46-0.06,0.44-0.54,0.34-0.9
					C135.44,497.29,134.69,497.52,134.11,497.32z"/>
				<path class="st26" d="M183.81,590.64c0.63-0.25,0.74-0.72,0.48-1.32c-0.19-0.42-0.4-0.76-1-0.49c-0.36,0.31-0.89,0.59-0.63,1.27
					C182.87,590.64,183.27,590.86,183.81,590.64z"/>
				<path class="st26" d="M132.79,546.71c-0.54,0.18-0.87,0.48-0.67,1.08c0.22,0.63,0.65,0.83,1.3,0.58
					c0.49-0.19,0.68-0.48,0.4-1.15C133.65,546.95,133.43,546.5,132.79,546.71z"/>
				<path class="st26" d="M185.16,595.62c0.41-0.19,0.78-0.44,0.51-0.96c-0.34-0.67-1.02-0.45-1.56-0.53
					c-0.51,0.36-0.27,0.76-0.12,1.14C184.22,595.88,184.66,595.85,185.16,595.62z"/>
				<path class="st26" d="M202.42,587.85c-0.42,0.35-0.29,0.7-0.14,1.05c0.32,0.76,1.07,0.74,1.69,0.79c0.3,0.03,0.46-0.51,0.17-0.7
					C203.56,588.62,203.22,587.84,202.42,587.85z"/>
				<path class="st26" d="M233.16,593.84c-0.45,0.19-0.29,0.74-0.09,1.12c0.3,0.55,0.76,0.49,1.25,0.27c0.44-0.2,0.7-0.47,0.47-1.03
					C234.32,593.83,233.71,593.62,233.16,593.84z"/>
				<path class="st26" d="M207.47,600.47c-0.31-0.58-0.93-0.5-1.42-0.61c-0.5,0.17-0.53,0.51-0.39,0.91
					c0.05,0.14,0.11,0.25,0.17,0.35c0.55-0.02,1.11-0.03,1.66-0.05C207.59,600.93,207.61,600.74,207.47,600.47z"/>
				<path class="st26" d="M117.12,549.67c-0.49,0.29-0.42,0.74-0.29,1.13c0.2,0.6,0.66,0.62,1.18,0.39c0.4-0.18,0.88-0.41,0.68-0.9
					C118.41,549.62,117.66,549.83,117.12,549.67z"/>
				<path class="st26" d="M105.28,509.26c0.26,0.52,0.69,0.7,1.23,0.46c0.41-0.18,0.51-0.55,0.31-0.92
					c-0.27-0.48-0.71-0.66-1.26-0.45C105.1,508.54,105.1,508.89,105.28,509.26z"/>
				<path class="st26" d="M114.09,574.89c-0.6,0.34-0.33,0.76-0.17,1.14c0.25,0.58,0.67,0.69,1.19,0.35
					c0.33-0.21,0.62-0.55,0.36-0.92C115.15,575.01,114.68,574.68,114.09,574.89z"/>
				<path class="st26" d="M289.26,386.36c0.58-1.29-1.26-4.28-3.12-5.06c-1.7-0.71-5.21,0.64-5.84,2.25
					c-0.75,1.9,0.62,4.34,2.97,5.33C285.58,389.85,288.18,388.76,289.26,386.36z"/>
				<path class="st26" d="M226.72,323.28c-1.62-0.58-5.3,0.81-5.85,2.21c-0.36,0.89,1.29,4.3,2.29,4.72
					c1.72,0.73,4.79-0.53,5.43-2.25C229.13,326.52,228.03,323.75,226.72,323.28z"/>
				<path class="st26" d="M237.16,364.57c0.68-1.7-0.1-3.64-1.71-4.25c-1.29-0.49-4.15,0.9-4.57,2.22
					c-0.41,1.27,0.36,3.22,1.41,3.61C233.78,366.69,236.69,365.75,237.16,364.57z"/>
				<path class="st26" d="M246.52,368.45c1.79,0.71,3.95-0.07,4.62-1.67c0.54-1.29-0.36-3.09-1.85-3.69
					c-1.67-0.68-3.94,0.21-4.53,1.76C244.11,366.55,244.69,367.72,246.52,368.45z"/>
				<path class="st26" d="M289.15,286.32c1.36,0.59,3.71-0.32,4.26-1.64c0.44-1.07-0.56-3.43-1.66-3.92
					c-1.13-0.49-3.42,0.52-3.94,1.74C287.31,283.61,288.11,285.87,289.15,286.32z"/>
				<path class="st26" d="M273.96,353.54c0.33-0.91-0.61-2.88-1.58-3.29c-1.29-0.55-3.2,0.42-3.88,2.1
					c-0.99,1.33-0.06,2.31,1.09,3.02C270.76,356.09,273.47,354.86,273.96,353.54z"/>
				<path class="st26" d="M257.41,346.65c0.86,0.36,3.42-0.41,3.25-0.96c-0.38-1.17,1.2-2.68,0.13-3.25
					c-3.26-1.26-4.29-0.98-4.99,0.85C255.31,344.56,256.04,346.08,257.41,346.65z"/>
				<path class="st26" d="M274.51,386.12c0.48-0.9-0.34-2.94-1.23-3.28c-0.87-0.34-2.79,0.59-3.19,1.55c-0.42,1,0.31,3.03,1.3,3.17
					C272.63,387.72,273.85,387.34,274.51,386.12z"/>
				<path class="st26" d="M227.13,344.29c-1.34-0.49-2.08,0.24-2.5,1.06c-0.51,1.24-0.24,2.46,0.44,2.75
					c1.22,0.53,4.34,0.05,4.66-0.73C229.99,346.73,228.33,344.72,227.13,344.29z"/>
				<path class="st26" d="M293.85,357.19c0.52-1.05-0.19-1.97-1.43-2.25c-1.08-0.7-2.2-0.58-2.67,0.58
					c-0.33,0.8-0.14,1.87,1.06,2.33C292.02,358.32,293.27,358.35,293.85,357.19z"/>
				<path class="st26" d="M288.81,423.13c-1.29-0.6-2.21,0.29-2.6,1.08c-0.52,1.07,0.16,1.99,1.26,2.16
					c1.02,0.39,1.95,0.97,2.58-0.16c0.02-0.04,0.03-0.09,0.05-0.14l0.06-0.97C290.02,424.29,289.46,423.43,288.81,423.13z"/>
				<path class="st26" d="M277.08,390.15c-1.1-0.42-1.9,0.29-2.37,1.39c-0.48,1.12-0.23,1.99,0.83,2.43
					c1.24,0.52,1.97-0.19,2.21-0.98C278.33,391.56,278.08,390.53,277.08,390.15z"/>
				<path class="st26" d="M288.63,330.03c1.43,0.62,1.86-0.25,2.31-1.24c0.49-1.09,0.05-2.09-0.85-2.47
					c-1.26-0.53-1.99,0.41-2.45,1.67C286.99,329.03,287.5,329.55,288.63,330.03z"/>
				<path class="st26" d="M280.74,347.74c-0.34,0.82-0.03,1.41,0.81,1.73c0.98,0.37,1.51-0.04,1.82-1.32
					c0.04-0.29,0.86-1.11-0.35-1.44C282.07,346.46,281.16,346.73,280.74,347.74z"/>
				<path class="st26" d="M288.22,378.88c0.86,0.53,1.33,0.15,1.69-0.67c0.41-0.91,0.05-1.74-0.64-2.05
					c-0.89-0.4-1.54,0.18-1.9,1.13C287,378.25,287.36,378.66,288.22,378.88z"/>
				<path class="st26" d="M269.72,360.05c-0.31,0.91,0.02,1.54,0.91,1.91c0.91,0.37,1.38-0.11,1.74-0.85
					c0.47-0.96-0.1-1.34-0.9-1.59C270.71,359.1,270.05,359.07,269.72,360.05z"/>
				<path class="st26" d="M234.35,334.86c0.85,0.39,1.63-0.07,2.04-0.74c0.46-0.75-0.24-1.2-0.81-1.62
					c-0.73,0.09-1.68-0.56-2.08,0.54C233.21,333.83,233.62,334.53,234.35,334.86z"/>
				<path class="st26" d="M225.96,373.17c0.31-0.91,0.06-1.87-0.86-2.36c-0.67-0.35-1.29-0.12-1.59,0.69
					c-0.35,0.95-0.03,1.53,1.05,1.88C224.96,373.48,225.66,374.05,225.96,373.17z"/>
				<path class="st26" d="M243.23,292.78c-0.74-0.21-1.47,0.2-1.82,0.89c-0.44,0.87,0.23,1.2,0.96,1.47c0.8,0.54,1.5,0.07,1.78-0.61
					C244.44,293.8,244.01,293,243.23,292.78z"/>
				<path class="st26" d="M286.22,344.53c-0.53,1.09,0.71,1.51,0.58,2.33c0.68,0.25,1.02-0.09,1.11-0.5
					c0.18-0.75,0.92-1.63-0.22-2.25C287.11,343.79,286.62,343.72,286.22,344.53z"/>
				<path class="st26" d="M277.65,355.45c-0.29,0.74-0.2,1.22,0.45,1.51c0.89,0.39,1.25-0.23,1.53-0.87
					c0.19-0.43,0.46-1.03-0.19-1.27C278.67,354.53,278.04,354.92,277.65,355.45z"/>
				<path class="st26" d="M244.92,312.27c0.83-0.24,1.34,0.39,2.17,0.83c-0.23-1.8-1.31-2.58-2.41-1.99
					c-0.35,0.19-0.91,0.31-0.7,0.91C244.14,312.51,244.6,312.36,244.92,312.27z"/>
				<path class="st26" d="M298.49,300.21c-0.12,0.31-0.12,0.62-0.06,0.9L298.49,300.21C298.5,300.21,298.5,300.21,298.49,300.21z"/>
				<path class="st26" d="M218.4,322.42c-0.16-2.85-0.66-3.3-2.54-2.09C217.21,320.6,217.43,321.85,218.4,322.42z"/>
				<path class="st26" d="M232.57,354.58c-0.24,0.62-0.2,1.08,0.43,1.41c0.7,0.36,1.03-0.04,1.28-0.56c0.23-0.5,0.47-1.09-0.22-1.41
					C233.43,353.73,232.88,353.95,232.57,354.58z"/>
				<path class="st26" d="M295.02,302.81c0.33-1.64-0.27-2.54-1.93-2.89c-1.38-0.29-3.06,0.8-3.36,2.2
					c-0.23,1.04,1.23,2.92,2.51,2.85C293.5,304.89,294.72,304.34,295.02,302.81z"/>
				<path class="st26" d="M291.89,359.84c0.45-0.45-0.08-0.71-0.73-1.06c-0.33-0.22-0.75-0.07-1.08,0.54
					c-0.27,0.51-0.32,0.87,0.3,1.16C291.15,360.84,291.53,360.21,291.89,359.84z"/>
				<path class="st26" d="M268.33,292.76c-0.72-0.42-1.09,0.28-1.64,0.55c-0.01,0.46,0.16,0.95,0.52,1.08
					c0.66,0.23,1.15-0.29,1.51-0.75C269,293.28,268.64,292.95,268.33,292.76z"/>
				<path class="st26" d="M275.35,318.49c-0.34,0.62,0.22,0.84,0.67,1.04c0.66,0.29,0.84-0.21,1.04-0.67
					c0.2-0.45,0.22-0.83-0.12-0.93C276.06,317.64,275.61,318.01,275.35,318.49z"/>
				<path class="st26" d="M293.26,342.86c0.16-0.41,0.34-0.91-0.15-1.12c-0.67-0.29-1.05,0.4-1.55,0.67
					c-0.14,0.56,0.22,0.83,0.59,1.01C292.71,343.7,293.06,343.4,293.26,342.86z"/>
				<path class="st26" d="M254.22,321.26c-0.19,0.46,0.05,0.71,0.45,0.84c0.55,0.18,0.98,0.01,1.19-0.54
					c0.16-0.42-0.02-0.75-0.43-0.87C254.9,320.54,254.46,320.72,254.22,321.26z"/>
				<path class="st26" d="M269.45,381.8c0.34-0.63-0.28-0.68-0.62-0.86c-0.51-0.27-0.95-0.28-1.09,0.26
					c-0.18,0.58-0.26,1.14,0.29,1.19C268.51,382.44,269.16,382.34,269.45,381.8z"/>
			</g>
			<g>
				<g>
					<path class="st27" d="M212.09,7.96l-38.84-3.73L141.02,332.9l0.01,0c-0.01,0.04-0.02,0.08-0.02,0.12
						c-0.31,3.2,8.13,6.63,18.85,7.66c10.73,1.03,19.68-0.73,19.99-3.94c0-0.04,0-0.08,0-0.12l0.01,0L212.09,7.96z"/>
				</g>
				<g>
					
						<ellipse transform="matrix(0.0953 -0.9954 0.9954 0.0953 168.2479 197.311)" class="st28" cx="192.67" cy="6.09" rx="5.83" ry="19.51"/>
				</g>
			</g>
			<g>
				<path class="st29" d="M271.49,520c-6.31,2.7-8.77-4.16-10.94-8.6c-2.3-4.69-3.32-10.31-9.34-11.54
					c-9.9-2.02-12.15,6.21-14.89,13.31c-3.43,8.89-10.17,29.01-22.65,27.64c-14.71-1.61-13.33-24.35-19.51-33.43
					c-5.47-8.04-16.5-6.7-24.96-7.8c-4.21-0.55-8.66-0.93-12.54,0.79c-11.07,4.92-1.86,15.82-0.57,23.5
					c1.38,8.21-3.71,16.46-10.61,21.11c-10.68,7.18-27.78,11.66-35.73-1.4c-3.56-5.85-20.5-46.05-33.7-32.86
					c-1.75,1.93-3.28,3.97-4.66,6.08c1,14.96,1.61,24.16,1.61,24.16c0.52,3.96,0.99,6.65,1.42,7.79c1.16,3.13,3.98,5.8,8.06,8.08
					c0.13,8.2,0.56,27.82,2.01,30.81c2.39,4.92,8.42,7.44,13.76,8.47c21.22,4.11,57.61,5.17,79.05,5.65
					c21.44-0.48,57.82-0.7,79.05-4.81c5.34-1.03,11.37-2.71,13.76-7.63c1.3-2.67,1.78-21.64,1.96-29.7
					c2.53-0.95,8.7-2.52,10.07-13.77l2.22-33.24C280.21,515.35,276.04,518.05,271.49,520z"/>
			</g>
			<g>
				<g>
					<path class="st30" d="M161.73,186.53c2.61-0.13,5.12,0.82,7.53,1.75c2.96,1.15,5.93,2.29,8.89,3.44c2,0.77,4.21,1.56,6.28,0.96
						c1.23-0.36,2.06-1.53,3.27-1.92c16.42-5.21,7.84-8.43,14.89-9.97c2.7-0.59,5.62-1.03,7.69-2.79c2.21-1.88,4.21-5.36,6.96-4.33
						c3.82,1.86-4.67,9.65-9.7,12.41c-2.84,1.57-1.1,4.31-3.95,5.88c-1.22,0.67-2.53,1.36-3.93,1.32c-1.5-0.05-2.84-0.93-4.32-1.11
						c-3.93-0.49-6.62,3.7-10.22,5.3c-4.31,1.92-9.35-0.1-13.42-2.41c-4.07-2.32-8.37-5.07-13.1-4.59c-5,0.51-9.78,5.09-14.95,3.87
						c-3.81-0.9-9-7.05-6.03-10.79c3.52-4.45,4.75,3.31,7.74,5.09C150.92,191.97,156.08,186.81,161.73,186.53z M239.47,221.75
						c-0.77,0.17-1.57,0.09-2.34,0.26c-1.34,0.29-2.4,1.29-3.58,1.99c-2.6,1.56-6,1.71-8.73,0.38c-2.34-1.14-4.22-3.28-6.78-3.75
						c-1.46-0.27-2.95,0.04-4.39,0.35c-4.01,0.86-8.02,1.73-12.03,2.59c1.38,1.95,4.15,2.25,6.52,1.97c2.37-0.28,4.8-0.96,7.1-0.3
						c2.42,0.7,4.21,2.76,6.52,3.75c5.35,2.31,11.26-1.61,17.08-1.85c1.92-0.08,3.92,0.25,5.73-0.42c2.9-1.08,4.31-4.28,5.42-7.17
						c1.28-3.35,1.77-10.61-3.7-7.11C242.95,214.58,243.98,220.77,239.47,221.75z M109.86,224.24c-2.88-0.29-5.05-2.41-8.22-2.72
						c-3.74-0.36-13.25,1.12-15.17,4.33c-3.61,6.03,5.63,3.3,9.21,2.02c9.82-3.5,4.39,0.3,12.34,3.85c2.54,1.13,5.87-0.04,8.12-1.62
						c2.25-1.59,4.09-3.62,6.77-4.69c6.56-2.61,16.01,2.52,20.03,7.16c4.02,4.64,7.92,10.31,15.01,11.28
						c8.9,1.22,10.6-7.05,19.53-8.65c3.25-0.58,10.42,0.16,13.44-1s5.18-4.48,3.02-6.41c-9.13,2.06-18.27,4.13-27.4,6.19
						c-2.42,0.55-4.92,1.1-7.37,0.82c-2.75-0.31-5.1-1.61-7.21-3c-4.36-2.87-8.21-6.25-12.98-8.68c-4.78-2.43-10.89-3.82-16.37-2.22
						C118.13,222.23,114.78,224.74,109.86,224.24z M106.69,248.83c-7.31,0.55-10.21,5.16-1.19,5.65
						c9.99,0.55,13.29,4.23,19.75,11.36c3.25,3.58,9.58,1.79,13.15,5.09c3.57,3.3,11.26,12.44,16.07,11.06
						c2.48-0.71,13.47-4.37,15.71-5.61c3.52-1.94,5.7-7.82,9.63-8.82c14.86-3.78,22.6-0.64,37.46-4.42c1.99-0.51,4.09-1.07,5.5-2.49
						c1.41-1.41,1.74-3.97,0.12-5.15c-1.39-1-15.03-1.04-16.59-0.25c-7.78,3.9,1.66,3.57-19.86,7.01
						c-3.9,0.62-16.14,3.66-19.46,5.72c-1.82,1.13-11.26,7.82-13.4,7.45c-0.94-0.16-1.75-0.67-2.52-1.19
						c-9.2-6.2-16.02-15.31-25.88-20.57C120.04,250.94,112.76,248.37,106.69,248.83z M257.99,247.23
						c-4.95-0.61-10.16,0.07-14.56,1.91c-1.87,0.78-3.83,2.21-3.25,3.78c0.27,0.75,1.08,1.32,1.96,1.7
						c2.82,1.24,6.32,0.94,9.52,0.51c8.92-1.18,17.95-3.04,26.3-5.38c4.19-1.18,8.38-2.53,11.76-4.76c3.77-2.48,6.3-5.9,8.19-9.43
						c0.4-0.75,0.79-1.57,0.51-2.36c-0.59-1.66-3.35-8.84-5.25-7.93c-1.9,0.91-3.03,2.51-4.57,3.76c-2.72,2.19-2.2,9.69-5.52,11.31
						c-5.06,2.47-13.09,3.53-16.62,7.24L257.99,247.23z"/>
				</g>
				<g>
					<path class="st31" d="M105.78,419.91c1.48,1.07,2.69,2.34,3.39,3.67c0.93,1.75,1.36,3.72,2.13,5.55
						c0.76,1.83,1.99,3.62,3.84,4.32c2.05,0.77,4.37,0.02,6.27-1.08s3.59-2.57,5.62-3.39c3.2-1.29,6.84-0.85,10.14,0.16
						c3.29,1.01,6.41,2.57,9.72,3.52c8.05,2.3,5.7,2.33,12.5-2.56c2.05-1.47,4.02-3.28,6.5-3.73c4.01-0.72,19.41,1.19,19.97,5.23
						s-1.72,8.1-4.99,10.53c-3.27,2.44-7.38,3.47-11.43,3.93c-7.98,0.9-16.1-0.23-23.78-2.55c-4.16-1.26-8.22-2.87-12.48-3.69
						c-4.26-0.82-8.85-0.8-12.75,1.1c-5.21,2.54-8.36,7.97-10.48,13.36c-2.12,5.39-3.56,11.14-6.77,15.97
						c-2.17,3.27-5.87,6.23-9.68,5.29c-4.06-1-5.88-5.82-5.98-10c-0.23-9.51,4.93-18.73,3.71-28.17
						c-0.57-4.46-0.73-10.09-0.25-14.55C91.85,414.84,100.5,416.08,105.78,419.91z M256.61,369.86c-4.18,2.09-9.14,1.47-13.77,0.79
						c-5.58-0.82-11.16-1.64-16.75-2.46c-3.54-0.52-7.7-0.84-10.14,1.77c-3.18,3.4-0.93,9.15,2.56,12.24
						c4.36,3.85,10.35,1.1,15.22,0.06c6.22-1.33,10.76,0.63,15.75,4.36c3.27,2.45,6.54,5.14,10.49,6.2
						c5.98,1.61,13.38-3.07,16.18-8.26c2.54-4.72,3.33-10.52,1.44-15.54c-1.32-3.49-6-9.51-10.39-9.09
						C263.03,360.34,260.93,367.7,256.61,369.86z M157.57,156.96c-4.35-1.2-8.92-1.51-13.35-0.67c-4.54,0.86-8.69,2.79-10.85,6.57
						c-3.85,6.74-5.68,8.74-12.2,9.9c-3.17,0.56-7.16,0.01-8.58,3.29c-0.83,1.92-0.22,4.16,1.29,5.6c9.39,8.99,17.13,7,28.94,3.13
						c10.97-3.59,23.33-7.52,33.57-2.21c1.76,0.91,3.48,2.2,4.11,4.08c0.46,1.37,0.27,2.86,0.07,4.29
						c-0.95,6.97-2.45,14.84-8.41,18.59c-3.33,2.09-7.45,2.43-11.39,2.5c-5.36,0.09-10.74-0.21-16.06-0.91
						c-3.54-0.46-7.34-1.06-10.52,0.57c-3.95,2.02-5.45,9.2,0.94,9.79c1.66,0.15,3.28-0.36,4.71-1.22
						c7.72-4.68,16.43-1.08,24.64,0.88c7.28,1.73,16.56,1.31,20.19-5.23c1.23-2.22,1.58-4.82,2.56-7.16
						c2.66-6.31,9.39-9.72,15.6-12.62c2.39-1.11,5.08-2.25,7.58-1.42c3.44,1.14,4.93,5.45,8.25,6.89c3.45,1.49,7.37-0.65,10.2-3.12
						c2.84-2.46,5.59-5.47,9.31-6.06c5.15-0.81,9.63,3.31,13.2,7.11c4.8,5.09,9.59,10.18,14.39,15.27c1.84,1.95,3.74,4.01,4.5,6.58
						c0.66,2.24,0.38,4.63,0.03,6.94c-1.04,6.86-2.68,13.62-4.89,20.2c-0.62,1.83-1.27,3.88,0.04,5.56c1.36,1.72,3.89,1.88,5.7,0.63
						c3.32-2.27,3.58-6.27,4.12-9.9c0.82-5.48,2.64-10.92,6.07-15.27c3.43-4.35,8.61-7.51,14.14-7.69c3.96-0.13,8.44,1.09,11.38-1.9
						c2.29-2.32,2.36-5.97,0.58-8.71c-3.19-4.89-8.99-5.78-14.35-6.16c-4.41-0.31-9.03-0.47-12.84-2.69
						c-1.63-0.95-3.1-2.33-3.71-4.12c-0.55-1.61-0.36-3.37-0.32-5.08c0.36-14.62-11.09-27.21-24.1-33.89
						c-2.12-1.09-4.35-2.11-5.98-3.85c-1.96-2.09-2.8-4.95-3.82-7.63c-2.94-7.73-7.82-14.71-14.07-20.12
						c-1.35-1.17-2.84-2.3-4.6-2.61c-2.82-0.49-5.57,1.27-7.45,3.43c-3.94,4.51-5.29,10.66-8.02,15.99
						c-4.91,9.57-14.63,18.41-25.37,17.86C176.76,162.05,164.16,158.77,157.57,156.96z M182.3,300.68c1.68-1.73,2.27-3.56-1.42-4.29
						c-1.67-0.33-3.36,0.44-4.72,1.46c-1.36,1.02-2.51,2.3-3.93,3.24c-4.93,3.26-11.51,1.61-17.06-0.43
						c-3.6-1.32-12.33-5.32-16.05-2.58c-4.2,3.1,2.32,8.51,5.52,9.92c5.75,2.53,12.36,2.49,18.48,1.09
						c4.9-1.12,9.82-2.62,14.32-4.91C178.41,303.69,180.79,302.23,182.3,300.68z M288.53,288.86c-1.13-0.09-2.3,0-3.38,0.25
						c-3.13,0.71-6.01,2.35-9.18,2.85c-8.06,1.27-15.45-4.96-23.58-5.65c-8.8-0.75-16.64,4.96-24.68,8.61
						c-4.39,2-9.04,3.41-13.8,4.22c-2.22,0.38-10.71-0.38-11.22,2.4c-1.19,6.52,27.15,2.43,29.8,1.29
						c8.57-3.69,10.08-11.04,19.41-11.3c7.24-0.21,14.2,2.55,21.31,3.98c5.39,1.09,11.43,1.24,16.3-0.95
						c2.75-1.23,2.08-5.41-0.92-5.68C288.57,288.87,288.55,288.86,288.53,288.86z M113.65,287.45c5.07,7.5,7.53,2.93,6.94,0.91
						c-0.49-1.69-1.51-3.27-2.82-4.45c-2.41-2.17-4.23-1.61-11.5-7.38c-5.98-4.74-13.15,1.48-20.98,2.94
						c-4.09,0.76-8.1,1.96-11.94,3.57c-1.69,0.71-9.65,4.03-3.99,5.48c0.62,0.16,1.27,0.09,1.91,0.13c19,1.39,17.45-7.56,28.63-5.68
						C104.13,283.69,110.46,282.74,113.65,287.45z"/>
				</g>
			</g>
			<g class="st32">
				<g>
					<path class="st12" d="M344.43,227.25c-2.86-1.73-8-1.18-9.98-3.6c-1.09-1.34-1.65-2.92-2.22-4.47
						c-10.33-27.9-22.18-54.85-44.74-75.07c-16.71-14.98-36.29-24.64-57.47-29.78c-26.42,17.49-74.62,18.13-103.85,0.59
						c-19.71,4.49-38.36,11.94-53.78,23.39c-27.98,20.78-38.04,49.4-49.69,80.88c-0.57,1.54-1.13,3.12-2.22,4.47
						c-1.97,2.42-7.11,1.87-9.98,3.6c-8.15,4.93-9.49,21.85-7.73,30.01c1.13,5.23,11.15,6.56,11.15,6.56
						c1.63,33.31,13.98,21.13,15.62,30.32l15.01,3.13c43.73,9.13,88.28,13.73,132.94,13.73h0c35.08,0,67.17-1.22,100.49-5.78
						c16.18-2.22,32.06-5.44,47.4-11.08c1.64-9.19,14.36,2.91,15.91-30.44c0,0,9.73-1.2,10.86-6.43
						C353.92,249.1,352.58,232.18,344.43,227.25z"/>
				</g>
			</g>
			<g>
				<g>
					<path class="st27" d="M179.44,549.49c-0.2-15.76,25.51-11.44,17.94,3.78c-2.02,4.06-6.36,5.82-10.27,5.28
						C183.07,558,179.51,554.98,179.44,549.49z M248.46,586.77c3.91,0.54,8.25-1.22,10.27-5.28c7.57-15.22-18.14-19.54-17.94-3.78
						C240.86,583.2,244.43,586.21,248.46,586.77z M128.51,475.53c3.83,0.63,8.05-0.82,10.36-3.98c3.2-4.38,2.16-11.26-2.2-14.49
						c-10.81-8.02-23.16,8.95-12.28,16.79C125.62,474.74,127.03,475.29,128.51,475.53z M267.59,503.26
						c3.51,0.66,7.26,0.02,10.15-2.1c13.53-9.91-1.92-31-15.45-21.08c-5.52,4.04-6.86,12.75-2.82,18.27
						C261.4,500.97,264.39,502.66,267.59,503.26z M257.23,554.61c3.08-0.48,5.99-1.98,7.91-4.29c7.26-8.75-2.33-21.27-13.52-18.46
						c-5.05,1.27-8.87,5.88-8.99,10.81c-0.12,4.93,3.45,9.78,8.4,11.45C253.02,554.78,255.16,554.93,257.23,554.61z M104.13,511.94
						c-2.5-7.11-10.4-12.52-18.81-7.71c-6.02,3.45-8.36,12.07-4.91,18.09c3.45,6.02,12.07,8.36,18.09,4.91
						C104.83,523.61,106.01,517.29,104.13,511.94z M103.24,585.13c3.62,2.21,8.41,2.63,12.17,0.59
						c13.51-7.31,2.12-28.44-11.43-21.11c-5.53,2.99-7.83,10.74-4.84,16.27C100.1,582.65,101.54,584.09,103.24,585.13z
						 M218.57,465.67c-4.97,2.15-8.49,7.4-8.47,12.83c0.02,5.81,4.11,11.38,9.64,13.16c5.54,1.77,12.1-0.39,15.49-5.11
						c7.65-10.63-3.18-25.38-15.6-21.29C219.27,465.39,218.92,465.52,218.57,465.67z M132.14,514.06
						c-8.2,0.06-16.74,4.6-20.12,11.34c-1.87,3.74-1.84,7.99-1.5,12.09c1.07,12.79,14.74,19.55,28.69,13.39
						c11.86-5.24,14.37-19.95,7.79-29.56C143.48,516.18,137.89,514.02,132.14,514.06z M241.22,529.04
						c8.74-1.53,16.46-7.72,13.82-18.46c-4.51-18.34-27.86-13.48-33.03,1.41C217.36,525.38,230.12,530.97,241.22,529.04z
						 M176.99,541.28c4.99,2.02,11.03,1.63,15.38-1.59c16.03-11.85-2.44-36.92-18.51-25.04c-6.56,4.85-8.11,15.22-3.27,21.78
						C172.22,538.63,174.47,540.26,176.99,541.28z M139.55,492.78c0.14,3.08,1.11,6.1,2.97,8.58c5.04,6.71,15.73,8.22,22.44,3.18
						c16.4-12.33-2.82-37.98-19.26-25.62C141.48,482.1,139.31,487.52,139.55,492.78z M202,488.84
						c5.61-16.73-16.06-34.64-29.82-20.74c-4.48,4.52-6.35,11.29-5.49,17.59C169.16,503.61,196.33,505.73,202,488.84z
						 M210.55,550.19c-2.25,2.8-3.58,6.36-3.5,9.96c0.15,6.42,4.78,12.48,10.93,14.32c6.15,1.84,13.34-0.69,16.99-5.97
						c8.21-11.88-4.05-27.95-17.68-23.16C214.64,546.27,212.31,548,210.55,550.19z M229.58,467.64c0.84,0.81,1.93,1.29,3.04,1.65
						c5.52,1.81,11.87,0.86,16.61-2.48c2.11-1.49,3.9-3.4,5.46-5.45c2.23-2.93,4.08-6.33,4.24-10c0.22-4.88-2.73-9.59-6.89-12.15
						c-4.16-2.56-9.34-3.14-14.15-2.29c-6.56,1.15-12.22,5.85-12.8,12.86C224.72,454.3,226.3,464.46,229.58,467.64z M89.82,468.89
						c-6.9,4.25-9.22,14.44-4.88,21.28c4.34,6.84,14.51,9.08,21.36,4.75c11.88-7.53,6.62-26.6-7.01-28.27
						C96.29,466.28,93.05,466.9,89.82,468.89z M144.08,412.47c-2.37,1.66-4.25,4.04-5.15,6.79c-1.77,5.38,0.28,11.78,4.84,15.13
						c10.26,7.53,24.81-2.99,20.88-15.08c-1.75-5.38-7.18-9.34-12.84-9.35C149.05,409.95,146.34,410.89,144.08,412.47z
						 M169.05,588.65c3.57-2.68,6.15-6.74,6.61-11.94c0.65-7.28-3.81-14.73-10.53-17.6c-6.72-2.87-15.18-0.93-19.99,4.57
						s-5.58,14.15-1.83,20.42C149.09,593.76,161.37,594.42,169.05,588.65z M186.61,583.48c-2.39,3.74-2.76,9.15-0.23,12.82
						c3.57,5.17,8.3,5.12,8.3,5.12l10.47-0.27c0,0,3.23-0.75,5.63-4.53c5.84-9.18-1.4-18.97-11.83-19.28
						c-4.07-0.12-8.22,1.42-10.99,4.4C187.46,582.27,187.01,582.86,186.61,583.48z"/>
				</g>
				<g>
					<path class="st28" d="M144.24,525.86c1.7,3.51,1.6,8.12-1.1,10.93c-2.04,2.12-5.3,2.87-8.14,2.1c-2.84-0.77-5.2-2.96-6.43-5.63
						c-2.75-5.96-0.14-14.55,7.68-13.55c1.79,0.23,3.45,1.01,4.84,2.15C142.41,522.94,143.5,524.33,144.24,525.86z M193.01,469.94
						c-1.4-1.14-3.06-1.93-4.84-2.15c-7.82-0.99-10.42,7.59-7.68,13.55c1.23,2.67,3.59,4.86,6.43,5.63c2.84,0.77,6.1,0.02,8.14-2.1
						c2.71-2.81,2.81-7.42,1.1-10.93C195.42,472.41,194.33,471.02,193.01,469.94z M166.31,579.04c9.44-4.02,3.12-18.67-6.25-14.68
						c-0.43,0.18-0.82,0.39-1.19,0.61C151.21,569.68,157.34,582.87,166.31,579.04z M230.39,552.14c-1.03-0.94-2.23-1.61-3.5-1.85
						c-5.56-1.06-7.07,5.5-4.91,10.22c0.97,2.12,2.72,3.9,4.75,4.6c2.03,0.71,4.31,0.24,5.67-1.32c1.8-2.08,1.7-5.65,0.37-8.43
						C232.18,554.14,231.36,553.02,230.39,552.14z M251.35,443.41c-1.03-0.94-2.23-1.61-3.5-1.85c-5.56-1.06-7.07,5.5-4.91,10.22
						c0.97,2.12,2.72,3.9,4.75,4.6c2.03,0.71,4.31,0.24,5.67-1.32c1.8-2.08,1.7-5.65,0.37-8.43
						C253.15,445.41,252.33,444.29,251.35,443.41z M247.38,504.48c-1.2-0.86-2.66-1.42-4.26-1.52c-7-0.44-9.75,6.66-7.56,11.37
						c0.98,2.11,3,3.77,5.52,4.27c2.52,0.49,5.49-0.27,7.43-2.09c2.57-2.41,2.88-6.16,1.51-8.93
						C249.43,506.37,248.52,505.3,247.38,504.48z M93.77,475.91c-0.26,1.31-0.16,2.78,0.38,4.26c2.38,6.48,9.51,7.18,12.66,3.99
						c1.41-1.43,2.04-3.69,1.47-6.11c-0.57-2.42-2.39-4.93-4.7-6.23c-3.06-1.73-6.38-1.06-8.21,0.89
						C94.57,473.57,94.01,474.67,93.77,475.91z"/>
				</g>
			</g>
			<g>
				<g>
					<path class="st33" d="M109.36,195.96c0.29-0.63,0.58-1.32,0.41-1.99c-0.2-0.78-0.96-1.28-1.69-1.62
						c-1.85-0.86-3.95-1.19-5.98-0.96l-0.3-8.76c-0.02-0.55-0.32-1.08-0.83-1.3c-1.22-0.52-3.66,0.71-4.74,1.15
						c-1.16,0.48-2.74,2.18-4.3-1.62c-0.48-1.16-0.73-2.47-1.57-3.41c-1.25-1.4-3.45-1.41-5.24-0.86c-1.79,0.56-3.44,1.56-5.28,1.89
						c-3.23,0.56-6.38-1.05-9.43-2.26c-4.87-1.93-6.95-2.62-12.19-2.61c-1.05,0-2.1,0.28-2.98,0.86c-2.95,1.95-1.82,5.45-1.24,8.41
						c0.89,4.54,0.12,9.39-2.12,13.44l-2.96-0.72c-1.84,0.93-1.98,3.53-1.38,5.5c0.6,1.97,1.7,3.9,1.42,5.94
						c-0.15,1.14-1.07,2.19-2.09,2.62c-1.77,0.74-2.15,3.11-0.6,4.24c0.02,0.01,0.03,0.02,0.05,0.03
						c4.79,3.41,10.97,3.99,16.83,4.46c6.73,0.54,11.71,7.59,18.44,8.13c3.68,0.29,9.25-5.94,12.73-7.19
						C102.61,216.34,106.12,203.06,109.36,195.96z"/>
				</g>
				<g>
					<path class="st33" d="M107.72,212.75c1.8,0.69,3.76,1.51,4.61,3.24c0.85,1.73-0.47,4.41-2.35,3.99
						c2.84,1.76,5.72,3.55,7.95,6.04c2.23,2.49,3.74,5.82,3.29,9.13c-0.1,0.76-1.3,1.52-1.37,0.75c1.47,3.58,2.94,7.16,4.42,10.74
						c0.5,1.21,0.87,2.89-0.24,3.6c-0.5,0.32-1.15,0.3-1.69,0.56c-1.4,0.66-1.35,2.62-1.21,4.16c0.46,4.88-0.31,9.87-2.22,14.39
						c-0.52,1.24-1.48,2.64-2.81,2.46c-0.47-0.06-0.88-0.32-1.28-0.58c-4.51-2.89-9.03-5.78-13.54-8.68
						c-1.19,2.86-3.11,6.21-6.21,6.08c-1.38-0.06-2.6-0.85-3.72-1.65c-4.98-3.56-9.43-7.85-13.16-12.69
						c-0.4,1.77-2.47,2.77-4.27,2.49c-1.79-0.29-3.28-1.54-4.44-2.94c-2.65-3.21-4.03-7.45-3.77-11.6c0.08-1.21,0.09-2.78-1.04-3.23
						c-0.47-0.19-1.01-0.09-1.51-0.2c-1.89-0.43-1.87-3.11-1.35-4.98c1.17-4.23,2.76-8.67,6.31-11.25c2.24-1.63,5.05-2.35,7.29-3.99
						c5.01-3.69,6.23-8.62,12.87-9.12C95.22,208.94,101.25,210.29,107.72,212.75z"/>
				</g>
				<g>
					<path class="st34" d="M105.66,239.95c-5.12-15-4.87-11.99-23.22-19.56c1.03,3.83,3.38,3.26,6.67,5.48
						c3.12,2.12,9.77,8.07,11.77,11.27c4.8,7.71,3.35,15.2,12.73,22.25c0.05-1-5.16-6.45-5.75-9.59
						C107.21,246.39,106.78,243.25,105.66,239.95z"/>
				</g>
				<g>
					<path class="st34" d="M68.32,183.56c2.24,2.46,4.52,4.99,5.82,8.18c0.78,1.91,1.18,4.01,2.15,5.8
						c0.93,1.72,8.33,5.79,9.44,7.35c4.8,6.83,3.27,12.55,3.27,12.55c-5.72-11.88-12.6-13.16-16.33-20.46
						c-0.46-0.9-0.93-1.82-1.05-2.86c-0.13-1.11,0.16-2.28-0.05-3.37c-0.26-1.37-1.25-2.39-2.19-3.33
						c-1.54-1.53-7.13-5.32-6.71-7.88C63.14,176.64,67.48,182.62,68.32,183.56z"/>
				</g>
				<g>
					<path class="st34" d="M88.88,204.13c1.39-1.88,3.1-3.6,3.86-5.81c0.46-1.32,0.54-2.74,0.61-4.13c0.15-2.96,0.25-5.92,0.29-8.88
						c2.44,1.16,0.64,3.82,1.88,6.99c0.54,1.39,0.78,2.91,0.62,4.39c-0.16,1.48-0.84,2.84-1.52,4.17
						c-1.72,3.36-3.83,8.48-7.18,10.57C83.36,213.96,87.97,205.36,88.88,204.13z"/>
				</g>
				<g>
					<path class="st34" d="M76.84,209.04c-2.44,0.47-4.88,1.28-7.37,1.03c-1.49-0.15-2.91-0.67-4.3-1.2
						c-2.95-1.12-5.88-2.29-8.79-3.51c0.05,2.7,3.44,2.2,5.98,4.67c1.11,1.08,2.5,1.94,4.01,2.42c1.51,0.49,3.14,0.44,4.73,0.39
						c4.04-0.13,9.95,0.13,13.47-2.03C88.86,208.21,78.44,208.74,76.84,209.04z"/>
				</g>
				<g>
					<path class="st34" d="M79.24,196.25c0.03-0.16,0.07-0.32,0.09-0.47c0.33-1.88,1.65-3.57,1-5.39c-0.64-1.8-1.56-3.73-1.94-5.59
						c0.95-0.02,2.04,2.19,2.41,2.92c0.57,1.1,0.97,2.29,1.18,3.51c0.2,1.13-0.05,2.38,0.33,3.46c0.34,0.99,1.08,1.78,0.85,2.88
						c-0.4,1.95-1.49,2.47-2.61,4.17c-0.16,0.24-0.39,0.49-0.67,0.44c-0.27-0.05-0.4-0.37-0.45-0.64
						C79.13,200,78.92,197.75,79.24,196.25z"/>
				</g>
				<g>
					<path class="st34" d="M98.84,240.16c-0.61,4.45,3.61,14.55,1.04,12.37c-6.59-6.55-3.06-3.84-3.22-7.66
						c-0.09-2.21-1.25-5.82-0.31-7.82c0.31-0.65,3.09-5.58,3.84-3.6c0.17,0.46,0.01,0.97-0.14,1.43
						C99.49,236.6,99.08,238.37,98.84,240.16z"/>
				</g>
				<g>
					<path class="st34" d="M85.55,233.37c-0.86,1.56-2.05,3.18-1.98,4.95c0.43,10.82-1.48,11.99-1.48,11.99
						c-1.21-13.07-7.35-12.78-3.71-15.46c7.06-5.21-0.63-5.95,11.09-9.97c0.78-0.27,1.79,0.31,1.94,1.12
						c0.17,0.94-0.76,1.67-1.53,2.24C88.07,229.62,86.64,231.39,85.55,233.37z"/>
				</g>
				<g>
					<path class="st34" d="M96.59,225.37c0.17-0.06,0.35-0.11,0.52-0.16c2.07-0.61,3.82-2.3,5.95-1.79c2.11,0.5,4.39,1.29,6.54,1.49
						c-0.09-1.08-2.73-2.02-3.59-2.36c-1.31-0.5-2.7-0.81-4.1-0.9c-1.3-0.08-2.67,0.35-3.94,0.06c-1.16-0.26-2.14-1-3.36-0.6
						c-2.15,0.69-2.59,1.98-4.37,3.46c-0.25,0.21-0.51,0.5-0.41,0.81c0.09,0.3,0.47,0.4,0.78,0.43
						C92.39,225.97,94.95,225.92,96.59,225.37z"/>
				</g>
				<g>
					<path class="st34" d="M107.27,238.73c0.18,0.04,0.36,0.09,0.53,0.13c2.08,0.57,4.46,0.03,6.01,1.58
						c1.54,1.53,3.07,3.4,4.8,4.69c0.48-0.97-1.27-3.15-1.83-3.89c-0.85-1.12-1.88-2.1-3.03-2.91c-1.06-0.75-2.46-1.1-3.39-2
						c-0.85-0.83-1.3-1.96-2.55-2.27c-2.19-0.53-3.25,0.34-5.54,0.67c-0.32,0.05-0.7,0.16-0.78,0.47c-0.08,0.31,0.19,0.59,0.44,0.77
						C103.37,237.04,105.58,238.34,107.27,238.73z"/>
				</g>
				<g>
					<path class="st34" d="M70,197.19c-0.16,0.02-0.32,0.05-0.48,0.07c-1.89,0.22-3.66,1.44-5.44,0.68
						c-1.76-0.75-3.63-1.77-5.47-2.26c-0.08,0.95,2.07,2.16,2.78,2.58c1.07,0.63,2.23,1.1,3.43,1.39c0.97,0.23,2.98,0.72,3.93,0.5
						c0.64-0.15,1.2-0.5,1.8-0.77c1.64-0.74,3.25,0.38,4.85-0.55c0.25-0.14,0.52-0.36,0.48-0.64c-0.04-0.28-0.35-0.42-0.62-0.49
						C73.75,197.29,71.51,196.95,70,197.19z"/>
				</g>
			</g>
			<g>
				<g>
					<path class="st34" d="M210.2,198.43c-0.86,0-1.7-0.44-2.18-1.24l-3.27-5.52c-0.71-1.2-0.31-2.75,0.89-3.46
						c1.2-0.71,2.75-0.32,3.46,0.89l3.27,5.52c0.71,1.2,0.31,2.75-0.89,3.46C211.08,198.32,210.64,198.43,210.2,198.43z"/>
				</g>
				<g>
					<path class="st34" d="M192.31,234.1c-0.87,0-1.72-0.45-2.19-1.26c-0.7-1.21-0.28-2.75,0.92-3.45l5.56-3.21
						c1.21-0.7,2.75-0.28,3.45,0.92c0.7,1.21,0.28,2.75-0.92,3.45l-5.56,3.21C193.17,233.99,192.74,234.1,192.31,234.1z"/>
				</g>
				<g>
					<path class="st34" d="M270.02,218c-0.43,0-0.86-0.11-1.26-0.34c-1.21-0.7-1.62-2.24-0.92-3.45l3.21-5.56
						c0.7-1.21,2.25-1.62,3.45-0.92c1.21,0.7,1.62,2.24,0.92,3.45l-3.21,5.56C271.74,217.54,270.89,218,270.02,218z"/>
				</g>
				<g>
					<path class="st34" d="M151.91,234.89c-0.43,0-0.86-0.11-1.26-0.34c-1.21-0.7-1.62-2.24-0.92-3.45l3.21-5.56
						c0.7-1.21,2.24-1.62,3.45-0.92c1.21,0.7,1.62,2.24,0.92,3.45l-3.21,5.56C153.63,234.43,152.78,234.89,151.91,234.89z"/>
				</g>
				<g>
					<path class="st34" d="M133.64,272.41c-0.17,0-0.34-0.02-0.52-0.05c-1.37-0.28-2.24-1.62-1.96-2.99l1.3-6.29
						c0.28-1.37,1.63-2.24,2.99-1.96c1.37,0.28,2.24,1.62,1.96,2.99l-1.3,6.29C135.87,271.59,134.82,272.41,133.64,272.41z"/>
				</g>
				<g>
					<path class="st34" d="M132.03,201.79c-0.43,0-0.86-0.11-1.26-0.34l-5.56-3.21c-1.21-0.7-1.62-2.24-0.92-3.45
						c0.7-1.21,2.25-1.62,3.45-0.92l5.56,3.21c1.21,0.7,1.62,2.24,0.92,3.45C133.75,201.34,132.9,201.79,132.03,201.79z"/>
				</g>
				<g>
					<path class="st34" d="M253.32,241.5c-0.43,0-0.86-0.11-1.26-0.34l-5.56-3.21c-1.21-0.7-1.62-2.24-0.92-3.45
						c0.7-1.21,2.24-1.62,3.45-0.92l5.56,3.21c1.21,0.7,1.62,2.24,0.92,3.45C255.05,241.04,254.2,241.5,253.32,241.5z"/>
				</g>
				<g>
					<path class="st34" d="M159.09,206.06c-0.87,0-1.72-0.45-2.19-1.26c-0.7-1.21-0.28-2.75,0.92-3.45l5.56-3.21
						c1.21-0.7,2.75-0.28,3.45,0.92c0.7,1.21,0.28,2.75-0.92,3.45l-5.56,3.21C159.96,205.95,159.52,206.06,159.09,206.06z"/>
				</g>
				<g>
					<path class="st34" d="M160.83,261.65c-0.64,0-1.28-0.24-1.78-0.73l-4.57-4.51c-0.99-0.98-1-2.58-0.02-3.57
						c0.98-0.99,2.58-1,3.57-0.02l4.57,4.51c0.99,0.98,1,2.58,0.02,3.57C162.13,261.4,161.48,261.65,160.83,261.65z"/>
				</g>
				<g>
					<path class="st34" d="M230.75,245.18c-0.65,0-1.29-0.25-1.79-0.74l-4.54-4.54c-0.99-0.99-0.99-2.59,0-3.57
						c0.99-0.99,2.59-0.99,3.57,0l4.54,4.54c0.99,0.99,0.99,2.59,0,3.57C232.04,244.93,231.39,245.18,230.75,245.18z"/>
				</g>
				<g>
					<path class="st34" d="M207.51,283.5c-0.87,0-1.72-0.45-2.19-1.26l-3.21-5.56c-0.7-1.21-0.28-2.75,0.92-3.45
						c1.21-0.7,2.75-0.28,3.45,0.92l3.21,5.56c0.7,1.21,0.28,2.75-0.92,3.45C208.37,283.39,207.94,283.5,207.51,283.5z"/>
				</g>
			</g>
		</g>
		<g id="Stroke_00000155115406473524621750000004417728218224012725_">
			<g>
				<path d="M29.41,291.08c-4.96-1.69-10.51-3.81-12.13-9.33c-1.68-5.72-1.9-12.02-2.23-17.94c-0.03-0.47-0.33-0.98-0.82-1.08
					c-2.96-0.63-5.9-1.23-8.54-2.82c-2.26-1.36-3.44-3.33-3.47-5.99c-0.02-1.64,0.21-3.28,0.46-4.9c0.53-3.48,1.16-6.96,1.86-10.41
					c0.57-2.81,0.93-5.99,2.8-8.28c3.17-3.87,8.78-4.9,13.45-5.61c1.42-0.22,0.82-2.38-0.6-2.16c-4.66,0.71-9.68,1.79-13.3,5.01
					c-2.76,2.45-3.51,5.64-4.23,9.08c-0.81,3.83-1.51,7.69-2.11,11.55c-0.65,4.23-1.37,9.06,2.14,12.26c3,2.73,7.11,3.6,10.95,4.43
					c-0.27-0.36-0.55-0.72-0.82-1.08c0.19,3.41,0.45,6.81,0.85,10.2c0.38,3.16,0.7,6.55,1.87,9.53c2.19,5.6,8,7.9,13.29,9.7
					C30.18,293.71,30.77,291.54,29.41,291.08L29.41,291.08z"/>
			</g>
			<g>
				<path d="M325.05,293.25c5.29-1.8,11.1-4.1,13.29-9.7c1.17-2.98,1.49-6.37,1.87-9.53c0.4-3.39,0.66-6.79,0.85-10.2
					c-0.27,0.36-0.55,0.72-0.82,1.08c3.35-0.72,6.77-1.45,9.66-3.42c2.1-1.43,3.53-3.44,3.89-5.98c0.29-2.08,0-4.2-0.3-6.27
					c-0.54-3.76-1.23-7.5-1.98-11.22c-0.66-3.28-1.16-6.62-3.38-9.27c-3.48-4.15-9.35-5.41-14.44-6.18
					c-1.41-0.21-2.02,1.95-0.6,2.16c4.22,0.64,9.02,1.5,12.31,4.44c2.47,2.19,3.01,5.02,3.66,8.09c0.74,3.52,1.39,7.07,1.96,10.63
					c0.59,3.64,1.65,8.21-1.42,11c-2.69,2.44-6.53,3.11-9.96,3.85c-0.5,0.11-0.8,0.61-0.82,1.08c-0.33,5.92-0.55,12.22-2.23,17.94
					c-1.62,5.52-7.17,7.64-12.13,9.33C323.09,291.55,323.68,293.72,325.05,293.25L325.05,293.25z"/>
			</g>
			<g>
				<path d="M265.99,235.6c19.07-2.63,38.02-6.14,56.68-10.87c1.4-0.35,0.81-2.52-0.6-2.16c-18.66,4.73-37.62,8.24-56.68,10.87
					C263.97,233.63,264.58,235.79,265.99,235.6L265.99,235.6z"/>
			</g>
			<g>
				<path d="M78.42,235.67c20.85,2.76,41.83,4.55,62.85,5.45c21.08,0.9,42.21,0.9,63.29-0.03c11.59-0.51,23.17-1.3,34.73-2.39
					c1.43-0.13,1.44-2.38,0-2.24c-20.63,1.95-41.34,2.95-62.06,3.08c-21.19,0.13-42.39-0.64-63.51-2.35
					c-11.8-0.95-23.57-2.2-35.3-3.75C76.99,233.23,77.01,235.48,78.42,235.67L78.42,235.67z"/>
			</g>
			<g>
				<path d="M29.04,227.12c6.15,1.33,12.31,2.56,18.5,3.69c1.41,0.26,2.02-1.9,0.6-2.16c-6.19-1.13-12.35-2.36-18.5-3.69
					C28.22,224.65,27.62,226.81,29.04,227.12L29.04,227.12z"/>
			</g>
			<g>
				<path d="M120.39,279.57c25.47,1.82,51.04,2.33,76.56,1.49c24.44-0.8,48.85-2.83,73.05-6.31c12.92-1.86,25.78-4.14,38.53-6.93
					c1.41-0.31,0.81-2.47-0.6-2.16c-23.02,5.04-46.38,8.44-69.83,10.6c-24.93,2.3-49.99,3.21-75.03,2.88
					c-14.24-0.19-28.48-0.8-42.68-1.81C118.95,277.22,118.95,279.47,120.39,279.57L120.39,279.57z"/>
			</g>
			<g>
				<path d="M29.39,266.79c16.18,3.5,32.5,6.29,48.9,8.48c4.78,0.64,9.58,1.22,14.37,1.76c1.43,0.16,1.42-2.08,0-2.24
					c-16.48-1.85-32.89-4.28-49.18-7.41c-4.51-0.87-9.01-1.79-13.5-2.76C28.58,264.32,27.98,266.48,29.39,266.79L29.39,266.79z"/>
			</g>
			<g>
				<path d="M263.85,307.63c14.39-1.61,28.73-3.72,42.89-6.75c1.41-0.3,0.81-2.47-0.6-2.16c-13.96,2.98-28.11,5.08-42.29,6.67
					C262.43,305.55,262.42,307.79,263.85,307.63L263.85,307.63z"/>
			</g>
			<g>
				<path d="M59.26,302.56c22.92,3.73,46.05,6.11,69.22,7.58c24.22,1.53,48.51,2.05,72.77,1.55c13.23-0.27,26.45-0.86,39.65-1.81
					c1.43-0.1,1.44-2.35,0-2.24c-23.65,1.7-47.39,2.25-71.1,1.88c-24.02-0.38-48.04-1.7-71.95-4.14c-12.71-1.3-25.39-2.93-38-4.98
					C58.44,300.16,57.83,302.33,59.26,302.56L59.26,302.56z"/>
			</g>
			<g>
				<path d="M95.89,123.55c-14.29,5.82-26.8,15.17-37.19,26.51C48.33,161.37,40,174.49,33.4,188.31c-3.6,7.54-6.7,15.33-9.31,23.27
					c-0.45,1.38,1.71,1.96,2.16,0.6c4.6-14.01,10.73-27.54,18.56-40.04c7.97-12.73,17.8-24.46,29.71-33.68
					c6.71-5.19,14.1-9.55,21.96-12.75C97.81,125.18,97.23,123.01,95.89,123.55L95.89,123.55z"/>
			</g>
			<g>
				<path d="M317.64,181.68c-9.86-16.51-22.04-31.81-37.2-43.75c-11.19-8.82-23.75-15.57-37.15-20.37
					c-6.23-2.23-12.6-4.05-19.01-5.69c-1.4-0.36-2,1.8-0.6,2.16c11.8,3.03,23.42,6.74,34.32,12.23
					c14.14,7.13,26.68,16.97,37.31,28.68c7.76,8.54,14.46,17.98,20.38,27.87C316.44,184.05,318.38,182.92,317.64,181.68
					L317.64,181.68z"/>
			</g>
			<g>
				<path d="M331.63,214.37c-3.07-8.19-6.15-16.34-10.09-24.16c-0.65-1.29-2.59-0.15-1.94,1.13c3.86,7.65,6.87,15.61,9.87,23.63
					C329.96,216.3,332.13,215.72,331.63,214.37L331.63,214.37z"/>
			</g>
			<g>
				<path d="M45.27,324.93c1.34,18.09,2.68,36.18,4.03,54.27c1.34,18.01,2.67,36.02,4.01,54.02c0.76,10.21,1.51,20.41,2.27,30.62
					c0.11,1.43,2.35,1.44,2.24,0c-1.34-18.09-2.68-36.18-4.03-54.27c-1.34-18.01-2.67-36.02-4.01-54.02
					c-0.76-10.21-1.51-20.41-2.27-30.62C47.41,323.5,45.16,323.49,45.27,324.93L45.27,324.93z"/>
			</g>
			<g>
				<path d="M58.14,519.38c0.28,5.05,0.63,10.1,1.03,15.14c0.3,3.72,0.63,7.44,1.08,11.15c0.38,3.1,0.64,6.57,2.12,9.37
					c1.82,3.46,6.14,4.32,9.5,5.58c1.35,0.51,1.94-1.66,0.6-2.16c-2.65-0.99-6.53-1.67-8.06-4.35c-1.42-2.51-1.61-5.87-1.95-8.69
					c-0.83-6.93-1.32-13.9-1.77-20.86c-0.11-1.73-0.22-3.45-0.31-5.18C60.3,517.94,58.06,517.93,58.14,519.38L58.14,519.38z"/>
			</g>
			<g>
				<path d="M80.26,603.75c2.47,2.28,5.28,4.12,8.52,5.12c2.64,0.82,5.43,1.27,8.14,1.79c5.62,1.08,11.28,1.92,16.96,2.62
					c12.22,1.51,24.53,2.34,36.83,2.78c12.24,0.44,24.49,0.49,36.73,0.24c10.56-0.22,21.12-0.67,31.66-1.4
					c7.24-0.51,14.5-1.1,21.69-2.14c0.6-0.09,1.2-0.18,1.8-0.28c1.42-0.23,0.82-2.39-0.6-2.16c-6.53,1.07-13.16,1.61-19.75,2.11
					c-10.06,0.77-20.15,1.24-30.23,1.52c-11.87,0.33-23.74,0.36-35.61,0.05c-12.22-0.32-24.45-1-36.61-2.28
					c-5.74-0.61-11.46-1.35-17.16-2.3c-2.65-0.44-5.29-0.93-7.92-1.47c-3-0.62-6.03-1.18-8.73-2.7c-1.51-0.85-2.86-1.9-4.13-3.08
					C80.79,601.19,79.2,602.77,80.26,603.75L80.26,603.75z"/>
			</g>
			<g>
				<path d="M306.23,353.99c-0.32,4.18-0.64,8.36-0.96,12.55c-0.76,9.96-1.53,19.91-2.29,29.87c-0.93,12.12-1.86,24.24-2.79,36.36
					c-0.8,10.41-1.6,20.82-2.4,31.23c-0.27,3.46-0.53,6.91-0.8,10.37c-0.12,1.63-0.35,3.28-0.38,4.91c0,0.07-0.01,0.14-0.02,0.21
					c-0.11,1.44,2.13,1.43,2.24,0c0.32-4.18,0.64-8.36,0.96-12.55c0.76-9.96,1.53-19.91,2.29-29.87
					c0.93-12.12,1.86-24.24,2.79-36.36c0.8-10.41,1.6-20.82,2.4-31.23c0.27-3.46,0.53-6.91,0.8-10.37c0.12-1.63,0.35-3.28,0.38-4.91
					c0-0.07,0.01-0.14,0.02-0.21C308.59,352.55,306.34,352.56,306.23,353.99L306.23,353.99z"/>
			</g>
			<g>
				<path d="M307.7,336.61c-0.02,0.47-0.04,0.93-0.06,1.4c-0.06,1.45,2.16,1.43,2.24,0c0.57-9.74,1.15-19.48,1.72-29.22
					c0.08-1.44-2.16-1.44-2.24,0c-0.57,9.74-1.15,19.48-1.72,29.22c0.75,0,1.5,0,2.24,0c0.02-0.47,0.04-0.93,0.06-1.4
					C310,335.17,307.76,335.17,307.7,336.61L307.7,336.61z"/>
			</g>
			<g>
				<path d="M267.82,607.79c6.55-1.5,13.17-5.84,15.11-12.55c2.08-7.16,2.7-14.77,3.37-22.16c0.13-1.44-2.11-1.43-2.24,0
					c-0.63,6.88-1.25,13.88-3.02,20.58c-0.84,3.17-2.32,5.61-4.9,7.69c-2.57,2.08-5.7,3.54-8.92,4.27
					C265.82,605.95,266.41,608.11,267.82,607.79L267.82,607.79z"/>
			</g>
		</g>
	</g>
</g>
</svg>
