<?xml version="1.0" encoding="utf-8"?>
<!-- Generator: Adobe Illustrator 26.1.0, SVG Export Plug-In . SVG Version: 6.00 Build 0)  -->
<svg version="1.1" xmlns="http://www.w3.org/2000/svg" xmlns:xlink="http://www.w3.org/1999/xlink" x="0px" y="0px"
	 viewBox="0 0 318.73 615.15" style="enable-background:new 0 0 318.73 615.15;" xml:space="preserve">
<style type="text/css">
	.st0{fill:#391F14;}
	.st1{fill:#682320;}
	.st2{fill:#D26F75;}
	.st3{fill:#FEEAE3;}
	.st4{fill:#F8E2E7;}
	.st5{fill:#E86E78;}
	.st6{fill:#F19299;}
	.st7{fill:#F4C3C9;}
	.st8{fill:#B3203B;}
	.st9{fill:#666633;}
	.st10{fill:#C74E69;}
	.st11{opacity:0.4;}
	.st12{fill:#FFFFFF;}
	.st13{fill:#FAEED5;}
	.st14{fill:#DCA455;}
	.st15{fill:#4F3021;}
	.st16{fill:#D69F53;}
	.st17{fill:#FCE3A2;}
	.st18{fill:#FFD480;}
	.st19{fill:#FBAF3C;}
	.st20{fill:#FDC363;}
	.st21{fill:#754A3C;}
	.st22{opacity:0.3;}
	.st23{fill:#DDEADB;}
	.st24{fill:#BCD3C2;}
	.st25{fill:#A3C6AC;}
	.st26{fill:#D8E5DA;}
	.st27{fill:#233328;}
	.st28{fill:#5C6B63;}
	.st29{fill:#82AD91;}
	.st30{fill:#D2DBD1;}
	.st31{fill:#7AA388;}
	.st32{opacity:0.5;}
	.st33{fill:#6C845F;}
	.st34{fill:#5E7553;}
	.st35{fill:#C1786C;}
	.st36{fill:#E7CCC2;}
	.st37{fill:#F8E7DA;}
	.st38{fill:#EAC8B6;}
	.st39{fill:#E3987F;}
	.st40{fill:#F2C4A8;}
	.st41{fill:#7A4D4B;}
	.st42{fill:#DE998E;}
	.st43{fill:#CC644C;}
	.st44{fill:#D88977;}
	.st45{fill:#D87C60;}
	.st46{fill:#F7E4D6;}
	.st47{fill:#8C4330;}
	.st48{fill:#D4695B;}
	.st49{fill:#F0D6BF;}
	.st50{fill:#C19160;}
	.st51{fill:#D8AA75;}
	.st52{fill:#915A26;}
	.st53{fill:#BC7C48;}
	.st54{fill:#5B361E;}
	.st55{fill:#7E4F23;}
	.st56{fill:#CE9957;}
	.st57{fill:#E2BA84;}
	.st58{fill:#22120A;}
	.st59{fill:#554E26;}
	.st60{fill:#F6ECF5;}
	.st61{fill:#DBB6D1;}
	.st62{fill:#F3E4E0;}
	.st63{fill:#996699;}
	.st64{fill:#E8D4E7;}
	.st65{fill:#C48BBD;}
	.st66{fill:#6F3670;}
	.st67{fill:#8F6191;}
	.st68{fill:#441946;}
	.st69{fill:#F3DAD0;}
	.st70{fill:#741112;}
	.st71{fill:#CC3333;}
	.st72{fill:#DE6D57;}
	.st73{fill:#C75044;}
	.st74{fill:#CA4536;}
	.st75{fill:#D25847;}
	.st76{fill:#F3E4DE;}
	.st77{fill:#E06865;}
	.st78{fill:#CC4746;}
	.st79{fill:#436137;}
	.st80{fill:#9A3332;}
	.st81{fill:#EDA99F;}
	.st82{fill:#CC6666;}
	.st83{fill:#E89B95;}
	.st84{fill:#2C1B10;}
	.st85{fill:#CCAAA2;}
	.st86{fill:#EFDFD9;}
	.st87{fill:#836759;}
	.st88{fill:#D1B7A6;}
	.st89{fill:#674E3D;}
	.st90{fill:#B0806D;}
	.st91{fill:#CDAA96;}
	.st92{fill:#967A67;}
	.st93{fill:#EBBC8B;}
	.st94{fill:#6B3715;}
	.st95{fill:#F7DEBC;}
	.st96{fill:#EFE4DA;}
	.st97{fill:#CC6E28;}
	.st98{fill:#B25827;}
	.st99{fill:#A54924;}
	.st100{fill:#9E6031;}
	.st101{fill:#DDDACC;}
	.st102{fill:#908B47;}
	.st103{fill:#AFAA7A;}
	.st104{fill:#7F7E5F;}
	.st105{fill:#8B693E;}
	.st106{fill:#8E4316;}
	.st107{fill:#DDDAB1;}
	.st108{fill:#8F9C58;}
	.st109{fill:#828E3C;}
	.st110{fill:#8E5852;}
	.st111{fill:#CA887F;}
	.st112{fill:#E3988D;}
	.st113{fill:#F2CAB9;}
	.st114{fill:#EDAB9A;}
	.st115{fill:#F2DDBB;}
	.st116{fill:#AC4D27;}
	.st117{fill:#E69F59;}
	.st118{fill:#F2DAAE;}
	.st119{fill:#DA7B38;}
	.st120{fill:#E9C1A4;}
	.st121{fill:#D58761;}
	.st122{fill:#55150F;}
</style>
<g id="Bg">
</g>
<g id="Graphic">
	<g id="Boab_11">
		<g id="Drink_00000086689816457358888210000012726657511960539315_">
			<g>
				<path class="st13" d="M37.62,100.6l-23.93,91.78c-1.83,2.68-1.89,1.04-4.54,2.96c-7.55,5.46-9.43,18.95-7.8,27.97
					c1.05,5.79,14.8,8.22,14.8,8.22c1.52,10.17,4.42,21.84,5.94,32c1.12,7.5,6.34,32.09,11.87,37.42
					c16.46,155.38,12.4,176.69,26,273.34c0.64,4.56,2.68,10.36,7.4,10.26c0,0-0.13,11.47,2.41,16.53c2.8,5.57,9.85,7.46,16.1,8.63
					c24.83,4.65,48.26,4.9,73.34,5.44c25.08-0.55,48.51-0.79,73.34-5.44c6.25-1.17,13.3-3.06,16.1-8.63
					c2.54-5.06,2.41-16.53,2.41-16.53c4.72,0.09,6.76-5.71,7.4-10.26c12.6-89.52,26-273.34,26-273.34
					c5.53-5.33,10.74-29.92,11.87-37.42c1.52-10.17,2.15-22.86,3.67-33.03c0,0,16.54-3.49,17.58-9.28
					c1.63-9.02,1.04-19.62-6.51-25.08c-2.65-1.92-4.75-2.34-6.58-5.02l-23.52-90.52l-0.44-0.07
					c-68.02-10.26-174.59-10.25-242.61,0.02L37.62,100.6z"/>
			</g>
			<g>
				<path class="st14" d="M67.36,584.55c0,0-0.13,11.47,2.41,16.53c2.8,5.57,9.85,7.46,16.1,8.63c24.83,4.65,48.26,4.9,73.34,5.44
					c25.08-0.55,48.51-0.79,73.34-5.44c6.25-1.17,13.3-3.06,16.1-8.63c2.54-5.06,2.41-16.53,2.41-16.53l-16.5,3.95
					c-24.61,5.9-49.84,8.88-75.15,8.88h0c-24.76,0-49.44-2.85-73.56-8.5L67.36,584.55z"/>
			</g>
			<g>
				<g>
					<path class="st15" d="M131.25,8.25l37.79-3.68l45.49,347.79l-0.01,0c0.01,0.04,0.02,0.08,0.03,0.13
						c0.44,3.39-7.66,6.96-18.09,7.98c-10.44,1.02-19.26-0.91-19.7-4.3c-0.01-0.04,0-0.09-0.01-0.13l-0.01,0L131.25,8.25z"/>
				</g>
				<g>
					
						<ellipse transform="matrix(0.9957 -0.0931 0.0931 0.9957 0.0552 14.0041)" class="st16" cx="150.15" cy="6.41" rx="18.99" ry="6.19"/>
				</g>
			</g>
			<g>
				<path class="st17" d="M266.81,297.32c13.78-12.72,14.93-94.01,14.93-94.01c-37.5,6.22-62.75,8.55-98.95,9.58
					c-7.59,0.21-15.17,0.67-22.77,0.6c-19.31-0.16-38.61-1.1-57.82-2.99c-19.08-1.88-46.9-4.17-64.82-8.19
					c0,0,3.88,85.49,17.36,92.39c0,0,0.53,1.38,0.53,1.38c0,0,3.9,41.97,5.6,59.71c1.99,20.83,4.05,41.66,6.27,62.47
					c2.23,20.81,2.82,50.62,5.48,71.38c2.12,16.56,4.39,60.79,9.3,76.63c7.95,25.68,79.53,23.87,107.7,21.68
					c14.21-1.11,34.23-2.98,45.53-13.07c9.55-8.54,11.5-64.91,13.5-80.41c8.01-62.09,11.82-133.46,17.64-195.77L266.81,297.32z"/>
			</g>
			<g>
				<path class="st18" d="M281.74,203.31c-5.43-5.8-16.48-10.69-24.71-14.05c-42.96-17.55-99.16-17.91-149.19-11.52
					c-23.77,3.03-49.27,13-70.47,24.58c0,0,38.58,17.55,125.18,17.55C253.8,219.86,281.74,203.31,281.74,203.31z"/>
			</g>
			<g>
				<path class="st19" d="M216.06,518.05c-1.18,2.51-1.48,5.58-1.04,8.13c1.19,6.87,3.75,11.92-1,18.26
					c-14.63,19.2-31.99-7.31-45.71-17.37c-14.63-10.97-21.94,11.88-34.74,17.37c-3.66,1.83-8.23,1.83-11.88,0
					c-20.11-16.45-14.63-52.1-41.14-56.67c-3.18-0.59-5.86-0.46-8.15,0.24c0.07,0.55,0.13,1.1,0.2,1.64
					c2.12,16.56,4.39,60.79,9.3,76.63c7.95,25.68,79.53,23.87,107.7,21.68c14.21-1.11,34.23-2.98,45.53-13.07
					c5.98-5.35,8.98-29.46,10.88-50.54c0.11-1.25-10.18-6.71-11.45-7.41c-3.87-2.13-9.17-4.86-13.71-3.38
					C218.61,514.29,217.04,515.98,216.06,518.05z"/>
			</g>
			<g>
				<path class="st18" d="M151.03,444.44c9.76,2.52,14.96,12.46,25.03,14.05c1.3,0.21,2.69,0.25,3.95-0.17
					c1.65-0.55,2.83-1.8,3.99-2.95c4.84-4.85,12.14-9.32,19.03-7.52c2.92,0.76,5.29,2.57,8.19,3.37c6.74,1.85,13.93-2.05,21.06-3.12
					c1.51-0.23,3.09-0.32,4.5,0.1c4.54,1.33,4.68,7.3,1.27,10.39s-8.7,3.92-13.58,4.24c-4.87,0.32-9.99,0.35-14.33,2.42
					c-6.4,3.04-9.2,9.47-12.41,15.06c-3.21,5.6-8.74,11.54-15.91,11.32c-7.64-0.23-11.87-7.1-17.99-10.78
					c-1.47-0.88-3.18-1.61-5.01-1.53c-3.87,0.17-6.44,3.7-7.43,6.91c-0.99,3.21-1.28,6.76-3.79,9.36
					c-4.61,4.77-13.32,2.7-17.18-1.23c-5.41-5.51-3.2-14.03-2.12-20.67C130.08,462.77,128.59,438.66,151.03,444.44z M91.47,337.73
					c10.03-5.44,17.61-17.27,19.46-27.8c0.66-3.75,0.78-7.6,1.89-11.24c1.11-3.64,3.47-7.17,7.07-8.4
					c6.63-2.27,21.04,11.41,26.87,14.57c12.52,6.79,27.64,15.53,40.44,3.89c4.02-3.65,26.62-28.69,31.8-30.3
					c27.01-8.41-2.68,57.57,8.98,64.39c11.29,6.6,25.82-2.02,35.21-8.45c0.99-12.13,2-24.06,3.09-35.68l0.53-1.38
					c13.78-12.72,14.93-94.01,14.93-94.01c-37.5,6.22-62.75,8.55-98.95,9.58c-7.59,0.21-15.17,0.67-22.77,0.6
					c-19.31-0.16-38.61-1.1-57.82-2.99c-19.08-1.88-46.9-4.17-64.82-8.19c0,0,3.88,85.49,17.36,92.39l0.53,1.38
					c0,0,1.13,12.2,2.44,26.23c1.1,11.78,18.52,20.32,28.27,17.65C87.87,339.44,89.71,338.68,91.47,337.73z"/>
			</g>
			<g>
				<path class="st20" d="M120,275.67c1.89-0.96,4.02-1.59,6.13-1.34c5.84,0.71,8.67,7.31,10.66,12.84
					c1.98,5.53,5.71,11.97,11.58,11.57c2.78-0.19,5.21-1.99,7.95-2.51c11.26-2.13,14.81,13.67,24.47,14.98
					c2.58,0.35,5.25,0.04,7.77,0.68s5.01,2.71,4.87,5.31c-0.11,2-1.77,3.65-3.65,4.36c-8.84,3.34-19.57-0.24-27.92-3.25
					c-6.54-2.36-13.07-4.71-19.61-7.07c-6.28-2.26-14.44-4.08-18.69,1.07c-3.32,4.01-2.16,10.07-4.22,14.9
					c-4.63,10.78-23.93-2.08-32.36-5.35c-2.6-1-5.42-2.2-6.68-4.68c-4.01-7.89,23.88-18.56,27.41-25.82
					C110.74,285.13,113.44,279,120,275.67z M259.25,383.67c-11.12,5.01-19.67,5.89-23.06,5.33c-9.83-1.64-6.85-10.06-13.56-15.43
					c-3.34-2.67-7.88-3.79-12.08-2.97c-6.56,1.28-11.82,6.87-18.48,7.42c-11.94,0.99-16.89-21.59-28.43-16.55
					c-3.89,1.7-6.05,5.93-7.02,10.06s-1.08,8.45-2.41,12.48c-3.35,10.12-15.14,16.59-25.47,13.99c-7.11-1.79-13.35-7.22-20.68-6.96
					c-9.14,0.32-15.94,10.92-13.35,19.69c2.59,8.77,12.86,14.05,21.8,12.12c6.53-1.41,11.92-5.86,17.87-8.9
					c5.78-2.95,11.96-3.91,17.86-0.96c5.29,2.65,10.32,5.6,15.37,0.49c7.22-7.32,9.77-19.08,22.27-19.13
					c16.3-0.06,27.49,17.84,43.68,16.74c10.82-0.73,24.13-7.79,24.13-7.79C258.19,396.77,258.72,390.23,259.25,383.67z"/>
			</g>
			<g>
				<g>
					<path class="st0" d="M169.15,492.87c10.59,0.87,14.23,11.35,10.97,19.44c-4.31,10.68-16.81,11.97-24.27,5.29
						C145.12,507.98,154.5,491.66,169.15,492.87z M154.77,535.18c-7.86,6.46-7.21,17.8,4.32,22.13c8.73,3.27,18.17-1.02,19.8-10.54
						C181.15,533.59,166.08,525.88,154.77,535.18z M187.57,517.4c-5.84,4.81-5.36,15.88,3.21,19.09c6.5,2.43,15.27-2.34,16.49-9.42
						C208.94,517.28,195.97,510.49,187.57,517.4z M222.05,447.49c15.91,15.18,33.63-13.46,12.9-20.97
						C222.41,421.98,214.28,440.07,222.05,447.49z M84.8,472.25c18.4,17.55,39.56-16.36,14.44-22.95
						C84.33,445.39,75.81,463.68,84.8,472.25z M194.41,565.22c5.15,6.01,17.29,5.42,22.79-0.92c5.08-5.85,2.88-15.75-3.43-19.76
						C201.78,536.92,182.52,551.34,194.41,565.22z M88.77,511.3c2.69,2.26,5.86,4.22,9.88,3.89c16.38-1.36,15.88-22.22,0.06-23.84
						C89.27,490.39,81.39,505.1,88.77,511.3z M124.73,518.16c10.61-0.11,20.14-10.32,14.57-21.79
						c-4.93-10.17-18.18-12.25-26.42-4.46C103.66,500.63,111.59,518.3,124.73,518.16z M208.36,511.55c3.5,3.85,9.49,5.24,14.67,4.93
						c7.69-0.46,12.61-7.58,12.81-14.85c0.13-4.63-1.79-9.14-5.66-11.81c-5.93-4.09-13.75-2.77-19.16,1.57
						c-4.55,3.66-6.81,10.18-5.12,15.83C206.42,508.91,207.27,510.35,208.36,511.55z M131.81,512.94
						c-8.33,1.54-14.04,10.86-9.48,18.54c3.67,6.19,12.39,9.11,18.8,5.48c3.97-2.25,6.56-6.74,6.01-11.3
						C146.3,518.53,139.23,511.57,131.81,512.94z M93.78,529.26c-3.42,2.92-6.06,7.29-6.05,11.89c0.03,17.41,29.88,20.33,31.6,2.65
						c0.83-8.55-5.9-16.83-14.36-17.93C101.2,525.39,97.23,526.31,93.78,529.26z M148.14,557.98c-1.88-9.24-14.23-13.86-22.76-7.58
						c-5.17,3.81-7.68,10.8-4.06,16.54c4.05,6.41,14.57,8.15,20.84,4.76C145.69,569.78,149.21,563.24,148.14,557.98z M209.82,476.29
						c-0.62,16.39,26.08,18.38,32.96,6.14c6.2-11.02-1.41-23.23-12.43-23.21C222.25,459.22,210.2,466.36,209.82,476.29z"/>
				</g>
				<g>
					<path class="st21" d="M209.36,559.87c-2.46-1.19-4.75-3.15-5.99-5.95c-1.79-4.03,1.14-5.76,4.35-6.22
						c4.7-0.67,7.97,1.62,8.55,7.2C216.82,560.2,212.82,561.55,209.36,559.87z M172.85,497.73c-1.41-0.79-3.32-0.98-4.54,0.2
						c-1.01,0.98-1.22,2.66-0.8,4.02c0.42,1.36,1.35,2.45,2.35,3.39c1.66,1.58,3.68,2.93,5.93,2.93c0.28,0,0.57-0.02,0.82-0.15
						c0.47-0.23,0.73-0.77,0.91-1.28C179.09,502.31,176.2,499.61,172.85,497.73z M239.61,440.01c1.71-1.7-0.05-4.33-1.17-5.72
						c-1.81-2.26-4.59-4.29-7.45-4.59c-4.99-0.53-4.11,5.25-1.29,7.6C231.4,438.71,237.52,442.08,239.61,440.01z M111.64,539.46
						c1.31-1.72,0.6-5.28-0.64-6.79c-2.5-3.07-12.86-3.39-10.46,2.89c0.54,1.4,1.67,2.43,2.85,3.25
						C105.41,540.22,109.62,542.1,111.64,539.46z M174.56,545.95c1.41-1.85,0.65-5.67-0.68-7.31c-2.69-3.3-13.83-3.64-11.25,3.11
						c0.58,1.51,1.79,2.61,3.06,3.5C167.86,546.77,172.39,548.79,174.56,545.95z M135.1,496.11c-1.79-3.36-9.48-6.52-10.77-1
						c-0.5,2.14,0.95,4.15,2.31,5.78c0.94,1.13,1.88,2.25,2.81,3.38c0.93,1.12,1.92,2.29,3.23,2.83
						C138.57,509.55,136.63,498.98,135.1,496.11z"/>
				</g>
			</g>
			<g>
				<g>
					<path class="st19" d="M177.35,124.29c0.65,3.11-0.57,9.5,3.28,10.79c1.53,0.51,3.2,0.32,4.79,0.58
						c2.34,0.39,4.22,1.74,5.93,3.31c4.64,4.23,8.3-1.46,13.2-2.37c2.56-0.47,5.01,1.44,6.37,3.66c1.36,2.22,2.01,4.81,3.34,7.06
						c1.93,3.26,5.49,5.73,9.24,6.34c4.6,0.74,7.67-2.45,12.01-2.43c5.4,0.02,7.75,7.6,11.66,11.83c4.89,5.29,12.48,5.12,18.99,6.65
						c12.04,2.83,16.1,16.38,19.98,26.55c2.88,7.55,3.94,15.81,4.98,23.95c0.4,3.14,0.75,6.58-0.72,9.29
						c-1.45,2.67-4.5,4.23-5.07,7.3c-0.71,3.77,2.81,7.4,1.96,11.13c-0.75,3.28-4.28,4.41-7.22,4.97
						c-16.14,3.08-40.97,6.44-52.08-7.18c-1.9-2.33-3.66-5.17-6.36-5.96c-2.1-0.61-4.31,0.18-6.33,1.08
						c-9.65,4.31-18.33,11.24-28.24,14.68c-9.92,3.44-22.22,2.37-28.59-6.91c-6.31,4.78-13.84,6.94-21.2,9.02
						c-20.79,5.87-43.36,11.6-63.04,2.02c-2.53-1.23-3.24-5.08-4.95-7.29c-7.6-9.79-15.32-0.72-24.34,0.74
						c-10.69,1.73-11.84-11.54-14.46-19.36c-3.15-9.4-2.59-27.06,2.02-35.64c5.26-9.8,18.69-5.04,24.28-14.62
						c3.66-6.27,0.65-6.45,0.26-13.96c-0.11-2.11-0.2-4.31,0.48-6.28c1.91-5.48,8.24-6.31,12.99-8.69
						c5.69-2.85,13.19-2.05,14.12-9.03c0.41-3.1,0.43-6.79,2.68-8.61c1.29-1.04,2.98-1.14,4.57-1.17
						c7.72-0.12,15.75,0.48,22.82-3.02c7.38-3.65,14.23-11.73,22.02-9.4c1.49,0.45,3.02,1.28,4.51,0.8c3.18-1.02,2.8-6.14,3.47-9.81
						c1.74-9.56,10.73-9.26,17.91-5.74c4.43,2.18,8.75,5.08,11.78,9.04C176.06,119.82,176.87,122,177.35,124.29z"/>
				</g>
				<g>
					<path class="st18" d="M245.31,190.5c-6.82-0.91-12.37-8.84-19.15-7.61c-1.54,0.28-2.98,1.03-4.51,1.33
						c-7.41,1.47-13.71-7.48-21.23-7.42c-1.07,0.01-2.17,0.22-3.08,0.86c-1.07,0.76-1.77,2.03-2.39,3.27
						c-2.94,5.87-5.12,12.24-6.44,18.84c-0.67,3.36-1.45,7.28-4.2,8.72c-5.3,2.77-9.91-6.62-15.74-6.71
						c-4.3-0.07-7.36,4.88-11.48,6.25c-4.04,1.34-8.23-0.94-12.37-1.75c-8.58-1.69-17.85,3.72-21.67,12.62
						c-2.62,6.12-4.01,14.74-9.89,15.92c-1.75-3.93-0.6-8.79,1.47-12.51c2.07-3.72,4.97-6.76,7.12-10.42
						c1.36-2.3,2.42-4.86,4.1-6.87c4.55-5.45,12.09-5.38,18.65-4.55c6.56,0.83,13.81,1.84,19.22-2.47c3.22-2.57,5.96-7.04,9.87-6.63
						c3.26,0.34,5.36,3.96,6.96,7.21c3.34-7.47,0.79-18.11,6.38-23.55c2.13-2.08,5-2.82,7.74-3.5c5.53-1.37,11.39-2.72,16.76-0.66
						c2.47,0.95,4.69,2.57,7.06,3.8c5.17,2.67,11.09,3.39,16.64,2.03c0.14-0.03,5.33,5.55,6.22,6.1c2.92,1.8,6,2.5,9.28,2.77
						C261.54,186.44,250.48,191.19,245.31,190.5z M243.63,205.35c-2.6,0.71-9.79,1.96-12.36,2.82c-3.08,1.03-6.3,0.94-9.47,0.71
						c-1.46-0.11-2.97-0.23-4.35,0.43c-1.38,0.67-2.62,2.35-2.65,4.37c8.38-0.96,16.76-1.92,25.14-2.88c1.14-0.13,2.3-0.26,3.4,0.15
						c2.88,1.06,4.72,5.5,7.67,6.12c1.61,0.34,3.23-0.55,4.86-0.46c2.68,0.15,4.96,2.91,7.62,3.45c3.11,0.63,10.3-3.99,11.08-8.74
						c0.35-2.13-3.08-10.88-4.4-12.04c-2.08-1.83-4.32,7.66-6.25,9.01C254.7,214.75,253.16,202.75,243.63,205.35z M70.98,186.91
						c-10.72,5.88-0.32,14.94,6.81,15.87c4.14,0.54,8.39,0.24,12.43,1.42c4.79,1.4,9.26,4.87,14.19,4.45
						c-1.6-5.13-5.77-9.1-10.49-9.99c-1.79-0.34-3.65-0.27-5.36-0.98C81.84,194.89,79.63,182.17,70.98,186.91z M114.7,156.89
						c-2.02-1.45-4.14-3.2-6.54-4.45c-2.4-1.25-21.64,1.33-12.09,4.63c3.07,1.06,10.13,5.02,12.8,5.02
						c3.56,1.01,10.36,11.44,13.91,13.45c7.85,1.2,8.75-3.24,15.3,1.11c4.6,3.06,9.49,10.05,13.53,15.07
						c-2.26-27.2-14.89-17.06-26.47-22.13c-2.67-1.01-4.45-3.04-6.07-5C118.15,163.85,116.98,158.73,114.7,156.89z M146.52,132.14
						c0.7,1,1.81,1.5,2.68,2.31c3.12,2.9,2.4,8.84,5.11,12.23c0.94,1.18,2.22,1.94,3.34,2.89c1.13,0.95,1.7,2.4,2.29,3.85
						c1.54,3.81,6.17-4.11,9.96,5.44c0.49,1.23,0.25,3.05,1.42,3.27c1.31,0.25,2.19-1.48,2.53-2.94c0.84-3.58-9.9-8.46-10.18-12.1
						c-0.23-3.1-1.36-4.97-3.24-7.27c-1.91-2.34-4.14-4.31-6.46-6.09c-1.06-0.81-5.84-5.17-7.01-4.79c-0.47,0.15-0.74,0.58-0.85,1.1
						C145.97,130.72,146.12,131.57,146.52,132.14z"/>
				</g>
			</g>
			<g class="st22">
				<g>
					<path class="st12" d="M311.06,196.14c-2.64-1.91-4.73-2.33-6.55-4.97c-0.02-0.03-0.04-0.07-0.05-0.11l-23.45-90.26
						c-0.03-0.12-0.13-0.21-0.26-0.23l-0.19-0.03c-19.16-2.89-41.83-4.95-65.99-6.18c-9.91,10.21-22.21,17.91-35.28,22.27
						c-26.06,7.82-54.59-2.53-72.27-22.41c-25.36,1.21-49.18,3.33-69.19,6.35l0,0c-0.12,0.02-0.22,0.11-0.26,0.23L13.7,192.32
						c-0.01,0.04-0.03,0.07-0.05,0.1c-1.8,2.61-1.87,1-4.51,2.91c-7.55,5.46-9.43,18.95-7.8,27.97c1.05,5.79,14.8,8.22,14.8,8.22
						l25.53,5.55c38.23,8.3,77.25,12.42,116.37,12.28h0c38.86-0.14,77.59-4.48,115.52-12.95l26.42-5.9c0,0,16.54-3.49,17.58-9.28
						C319.21,212.19,318.61,201.59,311.06,196.14z"/>
				</g>
			</g>
		</g>
		<g id="Stroke_00000044162913481200331830000000495886366683234484_">
			<g>
				<path d="M16.45,230.44c-1.71-0.35-3.41-0.83-5.07-1.38c-2.7-0.89-6.26-2.16-7.74-4.8c-0.92-1.64-1.02-3.84-1.19-5.68
					c-0.18-1.94-0.22-3.9-0.08-5.85c0.26-3.7,1.21-7.38,3.09-10.6c1.91-3.28,4.66-5.94,8.11-7.52c1.31-0.6,0.17-2.53-1.13-1.94
					c-7.08,3.24-11.13,10.57-12.11,18.05c-0.54,4.11-0.48,8.75,0.63,12.78c0.98,3.58,4.23,5.52,7.46,6.85
					c2.39,0.98,4.91,1.73,7.43,2.25C17.26,232.9,17.86,230.73,16.45,230.44L16.45,230.44z"/>
			</g>
			<g>
				<path d="M308.16,229.68c2.97-0.72,5.64-2.43,7.54-4.82c2.13-2.69,2.95-5.84,3.01-9.23c0.11-6.2-0.01-13.58-4.2-18.57
					c-2.52-3-6.29-4.36-9.89-5.59c-1.37-0.47-1.96,1.7-0.6,2.16c3.55,1.21,7.29,2.55,9.49,5.8c2.03,3,2.58,6.74,2.8,10.28
					c0.23,3.73,0.7,8.07-0.97,11.53c-1.52,3.16-4.38,5.46-7.78,6.28C306.16,227.85,306.75,230.02,308.16,229.68L308.16,229.68z"/>
			</g>
			<g>
				<path d="M43.43,238.29c15.08,2.91,30.28,5.18,45.54,6.9c15.51,1.75,31.08,2.93,46.68,3.56c15.39,0.63,30.81,0.73,46.21,0.26
					c14.56-0.44,29.1-1.39,43.58-2.96c13.22-1.44,26.4-3.38,39.43-6.07c1.52-0.31,3.03-0.64,4.55-0.97c1.41-0.31,0.81-2.47-0.6-2.16
					c-12.81,2.82-25.78,4.9-38.8,6.44c-14.21,1.68-28.49,2.74-42.79,3.3c-15.18,0.59-30.38,0.63-45.56,0.14
					c-15.44-0.49-30.87-1.51-46.24-3.09c-15.35-1.57-30.64-3.7-45.82-6.47c-1.86-0.34-3.72-0.69-5.57-1.05
					C42.62,235.85,42.01,238.01,43.43,238.29L43.43,238.29z"/>
			</g>
			<g>
				<path d="M253.95,224.46c4.88-0.94,9.73-2,14.55-3.18c1.4-0.34,0.81-2.51-0.6-2.16c-4.82,1.19-9.67,2.24-14.55,3.18
					C251.93,222.57,252.53,224.73,253.95,224.46L253.95,224.46z"/>
			</g>
			<g>
				<path d="M169.94,232.11c17.72-0.54,35.44-1.32,53.08-3.16c5-0.52,9.99-1.13,14.96-1.84c1.42-0.2,0.82-2.36-0.6-2.16
					c-17.38,2.46-34.91,3.65-52.43,4.38c-5,0.21-10,0.38-15.01,0.53C168.5,229.91,168.49,232.15,169.94,232.11L169.94,232.11z"/>
			</g>
			<g>
				<path d="M64.62,224.36c18.35,2.55,36.76,4.63,55.24,6c1.44,0.11,1.43-2.14,0-2.24c-18.28-1.35-36.49-3.39-54.64-5.92
					C63.81,222,63.2,224.16,64.62,224.36L64.62,224.36z"/>
			</g>
			<g>
				<path d="M23.01,199.86c30.99,7.33,62.6,11.9,94.38,13.9c31.66,2,63.45,1.46,95.05-1.28c17.72-1.53,35.38-3.76,52.94-6.59
					c1.42-0.23,0.82-2.39-0.6-2.16c-31.29,5.05-62.91,8.12-94.6,8.83c-31.41,0.71-62.9-0.88-94.04-5.11
					c-17.65-2.4-35.19-5.65-52.53-9.75C22.21,197.36,21.61,199.53,23.01,199.86L23.01,199.86z"/>
			</g>
			<g>
				<path d="M274.78,203.4c7.81-1.28,15.52-3.13,23.06-5.55c1.37-0.44,0.78-2.61-0.6-2.16c-7.54,2.42-15.25,4.27-23.06,5.55
					C272.76,201.47,273.37,203.63,274.78,203.4L274.78,203.4z"/>
			</g>
			<g>
				<path d="M77.64,94.09c-11.53,1.02-23.03,2.57-34.38,4.86c-2.27,0.46-5.35,0.54-6.59,2.82c-0.6,1.1-0.82,2.43-1.15,3.63
					c-0.44,1.59-0.87,3.19-1.31,4.78c-1.62,5.89-3.23,11.79-4.85,17.68c-1.84,6.69-3.67,13.38-5.51,20.07
					c-0.38,1.39,1.78,1.99,2.16,0.6c3.08-11.23,6.16-22.46,9.24-33.68c0.76-2.79,1.53-5.57,2.29-8.36c0.31-1.14,0.48-2.95,1.24-3.9
					c0.76-0.95,2.82-1.01,3.93-1.24c5.36-1.1,10.75-2.03,16.16-2.83c6.23-0.91,12.48-1.63,18.75-2.18
					C79.07,96.21,79.08,93.97,77.64,94.09L77.64,94.09z"/>
			</g>
			<g>
				<path d="M295.61,153.55c-2.23-9.6-4.45-19.2-6.68-28.81c-1.12-4.84-2.24-9.68-3.37-14.52c-0.48-2.06-0.78-4.28-1.6-6.24
					c-0.75-1.79-2.11-2.75-3.99-3.13c-5.44-1.1-10.95-1.95-16.42-2.92c-1.41-0.25-2.02,1.91-0.6,2.16c4.53,0.8,9.06,1.61,13.59,2.41
					c2.08,0.37,4.6,0.3,5.46,2.58c0.73,1.97,1.04,4.17,1.51,6.21c2.11,9.12,4.23,18.24,6.34,27.35c1.2,5.16,2.39,10.33,3.59,15.49
					C293.77,155.55,295.94,154.96,295.61,153.55L295.61,153.55z"/>
			</g>
			<g>
				<path d="M49.37,346.89c0.26,3.63,0.52,7.26,0.79,10.9c0.63,8.77,1.26,17.53,1.89,26.3c0.76,10.57,1.52,21.14,2.28,31.71
					c0.66,9.17,1.32,18.34,1.98,27.52c0.32,4.42,0.44,8.91,0.96,13.32c0.01,0.06,0.01,0.13,0.01,0.19c0.1,1.43,2.35,1.44,2.24,0
					c-0.26-3.63-0.52-7.26-0.79-10.9c-0.63-8.77-1.26-17.53-1.89-26.3c-0.76-10.57-1.52-21.14-2.28-31.71
					c-0.66-9.17-1.32-18.34-1.98-27.52c-0.32-4.42-0.44-8.91-0.96-13.32c-0.01-0.06-0.01-0.13-0.01-0.19
					C51.51,345.46,49.27,345.45,49.37,346.89L49.37,346.89z"/>
			</g>
			<g>
				<path d="M61.29,508.44c0.9,11,2.1,21.98,3.6,32.92c0.75,5.46,1.57,10.91,2.46,16.35c0.85,5.16,1.46,10.55,3.5,15.4
					c1.85,4.38,5.19,8.26,9.89,9.58c1.39,0.39,1.99-1.78,0.6-2.16c-9.54-2.67-10.46-15.11-11.79-23.17
					c-1.71-10.37-3.15-20.79-4.31-31.23c-0.66-5.89-1.22-11.78-1.71-17.68C63.42,507.01,61.17,507,61.29,508.44L61.29,508.44z"/>
			</g>
			<g>
				<path d="M194.01,601.54c8.75-0.76,17.47-1.79,26.16-3.08c1.42-0.21,0.82-2.38-0.6-2.16c-8.49,1.27-17.01,2.26-25.56,3
					C192.59,599.42,192.57,601.67,194.01,601.54L194.01,601.54z"/>
			</g>
			<g>
				<path d="M86.25,596.63c23.87,4.33,48.1,6.99,72.38,6.79c6.86-0.06,13.71-0.35,20.54-0.88c1.43-0.11,1.44-2.36,0-2.24
					c-24,1.86-48.15,0.66-71.98-2.59c-6.81-0.93-13.59-2.02-20.35-3.25C85.44,594.21,84.83,596.37,86.25,596.63L86.25,596.63z"/>
			</g>
			<g>
				<path d="M237.03,584.31c10.15-3.67,13.87-14.59,15.27-24.36c1.73-12.1,2.9-24.31,4.33-36.45c0.83-7.07,1.66-14.15,2.49-21.22
					c0.17-1.43-2.08-1.42-2.24,0c-1.39,11.84-2.78,23.69-4.17,35.53c-0.68,5.82-1.36,11.65-2.05,17.47
					c-0.65,5.5-1.36,11.21-3.7,16.29c-2.12,4.61-5.64,8.81-10.52,10.58C235.08,582.64,235.66,584.81,237.03,584.31L237.03,584.31z"
					/>
			</g>
			<g>
				<path d="M31.44,264.31c1.09,4.87,2.14,9.74,3.39,14.57c1.48,5.7,3.04,11.61,5.76,16.87c0.94,1.82,2.14,3.81,4.11,4.63
					c1.33,0.55,1.91-1.62,0.6-2.16c-1.06-0.44-2.14-2.38-2.77-3.6c-1.21-2.34-2.11-4.85-2.93-7.35c-1.83-5.56-3.23-11.25-4.53-16.95
					c-0.5-2.2-0.97-4.4-1.46-6.59C33.29,262.3,31.13,262.9,31.44,264.31L31.44,264.31z"/>
			</g>
			<g>
				<path d="M288.21,257.11c-1.62,7.37-3.12,14.77-5.02,22.07c-0.93,3.58-1.96,7.13-3.14,10.64c-0.88,2.58-2.03,5.81-4.76,6.93
					c-0.5,0.21-0.78,0.54-0.82,1.08c-0.42,5.02-0.83,10.05-1.25,15.08c-0.66,8-1.32,16.01-1.98,24.01c-0.15,1.83-0.3,3.66-0.45,5.49
					c-0.12,1.44,2.13,1.43,2.24,0c0.42-5.02,0.83-10.05,1.25-15.07c0.66-8,1.32-16.01,1.98-24.01c0.15-1.83,0.3-3.66,0.45-5.49
					c-0.27,0.36-0.55,0.72-0.82,1.08c2.82-1.16,4.4-3.58,5.52-6.32c1.45-3.53,2.46-7.29,3.46-10.96c2.14-7.9,3.76-15.94,5.52-23.93
					C290.68,256.29,288.52,255.69,288.21,257.11L288.21,257.11z"/>
			</g>
			<g>
				<path d="M162.77,120.27c15.03-0.54,29.8-5.57,41.74-14.78c1.13-0.87,0.01-2.82-1.13-1.94c-11.63,8.97-25.94,13.95-40.6,14.48
					C161.33,118.08,161.33,120.32,162.77,120.27L162.77,120.27z"/>
			</g>
		</g>
	</g>
</g>
</svg>
