<?xml version="1.0" encoding="utf-8"?>
<!-- Generator: Adobe Illustrator 26.1.0, SVG Export Plug-In . SVG Version: 6.00 Build 0)  -->
<svg version="1.1" xmlns="http://www.w3.org/2000/svg" xmlns:xlink="http://www.w3.org/1999/xlink" x="0px" y="0px"
	 viewBox="0 0 300.66 622.34" style="enable-background:new 0 0 300.66 622.34;" xml:space="preserve">
<style type="text/css">
	.st0{fill:#391F14;}
	.st1{fill:#682320;}
	.st2{fill:#D26F75;}
	.st3{fill:#FEEAE3;}
	.st4{fill:#F8E2E7;}
	.st5{fill:#E86E78;}
	.st6{fill:#F19299;}
	.st7{fill:#F4C3C9;}
	.st8{fill:#B3203B;}
	.st9{fill:#666633;}
	.st10{fill:#C74E69;}
	.st11{opacity:0.4;}
	.st12{fill:#FFFFFF;}
	.st13{fill:#FAEED5;}
	.st14{fill:#DCA455;}
	.st15{fill:#4F3021;}
	.st16{fill:#D69F53;}
	.st17{fill:#FCE3A2;}
	.st18{fill:#FFD480;}
	.st19{fill:#FBAF3C;}
	.st20{fill:#FDC363;}
	.st21{fill:#754A3C;}
	.st22{opacity:0.3;}
	.st23{fill:#DDEADB;}
	.st24{fill:#BCD3C2;}
	.st25{fill:#A3C6AC;}
	.st26{fill:#D8E5DA;}
	.st27{fill:#233328;}
	.st28{fill:#5C6B63;}
	.st29{fill:#82AD91;}
	.st30{fill:#D2DBD1;}
	.st31{fill:#7AA388;}
	.st32{opacity:0.5;}
	.st33{fill:#6C845F;}
	.st34{fill:#5E7553;}
	.st35{fill:#C1786C;}
	.st36{fill:#E7CCC2;}
	.st37{fill:#F8E7DA;}
	.st38{fill:#EAC8B6;}
	.st39{fill:#E3987F;}
	.st40{fill:#F2C4A8;}
	.st41{fill:#7A4D4B;}
	.st42{fill:#DE998E;}
	.st43{fill:#CC644C;}
	.st44{fill:#D88977;}
	.st45{fill:#D87C60;}
	.st46{fill:#F7E4D6;}
	.st47{fill:#8C4330;}
	.st48{fill:#D4695B;}
	.st49{fill:#F0D6BF;}
	.st50{fill:#C19160;}
	.st51{fill:#D8AA75;}
	.st52{fill:#915A26;}
	.st53{fill:#BC7C48;}
	.st54{fill:#5B361E;}
	.st55{fill:#7E4F23;}
	.st56{fill:#CE9957;}
	.st57{fill:#E2BA84;}
	.st58{fill:#22120A;}
	.st59{fill:#554E26;}
	.st60{fill:#F6ECF5;}
	.st61{fill:#DBB6D1;}
	.st62{fill:#F3E4E0;}
	.st63{fill:#996699;}
	.st64{fill:#E8D4E7;}
	.st65{fill:#C48BBD;}
	.st66{fill:#6F3670;}
	.st67{fill:#8F6191;}
	.st68{fill:#441946;}
	.st69{fill:#F3DAD0;}
	.st70{fill:#741112;}
	.st71{fill:#CC3333;}
	.st72{fill:#DE6D57;}
	.st73{fill:#C75044;}
	.st74{fill:#CA4536;}
	.st75{fill:#D25847;}
	.st76{fill:#F3E4DE;}
	.st77{fill:#E06865;}
	.st78{fill:#CC4746;}
	.st79{fill:#436137;}
	.st80{fill:#9A3332;}
	.st81{fill:#EDA99F;}
	.st82{fill:#CC6666;}
	.st83{fill:#E89B95;}
	.st84{fill:#2C1B10;}
	.st85{fill:#CCAAA2;}
	.st86{fill:#EFDFD9;}
	.st87{fill:#836759;}
	.st88{fill:#D1B7A6;}
	.st89{fill:#674E3D;}
	.st90{fill:#B0806D;}
	.st91{fill:#CDAA96;}
	.st92{fill:#967A67;}
	.st93{fill:#EBBC8B;}
	.st94{fill:#6B3715;}
	.st95{fill:#F7DEBC;}
	.st96{fill:#EFE4DA;}
	.st97{fill:#CC6E28;}
	.st98{fill:#B25827;}
	.st99{fill:#A54924;}
	.st100{fill:#9E6031;}
	.st101{fill:#DDDACC;}
	.st102{fill:#908B47;}
	.st103{fill:#AFAA7A;}
	.st104{fill:#7F7E5F;}
	.st105{fill:#8B693E;}
	.st106{fill:#8E4316;}
	.st107{fill:#DDDAB1;}
	.st108{fill:#8F9C58;}
	.st109{fill:#828E3C;}
	.st110{fill:#8E5852;}
	.st111{fill:#CA887F;}
	.st112{fill:#E3988D;}
	.st113{fill:#F2CAB9;}
	.st114{fill:#EDAB9A;}
	.st115{fill:#F2DDBB;}
	.st116{fill:#AC4D27;}
	.st117{fill:#E69F59;}
	.st118{fill:#F2DAAE;}
	.st119{fill:#DA7B38;}
	.st120{fill:#E9C1A4;}
	.st121{fill:#D58761;}
	.st122{fill:#55150F;}
</style>
<g id="Bg">
</g>
<g id="Graphic">
	<g id="Boba_12">
		<g id="Drink_00000177481008571480985640000007354289974985714837_">
			<g>
				<g>
					<path class="st0" d="M134.13,7.74L103.84,4.7L69.65,346.4l0.01,0c-0.01,0.04-0.02,0.08-0.02,0.13
						c-0.33,3.33,6.18,6.71,14.54,7.55c8.37,0.84,15.42-1.18,15.75-4.51c0-0.04,0-0.08,0-0.13l0.01,0L134.13,7.74z"/>
				</g>
				<g>
					
						<ellipse transform="matrix(0.1001 -0.995 0.995 0.1001 100.878 123.9845)" class="st1" cx="118.98" cy="6.22" rx="6.06" ry="15.22"/>
				</g>
			</g>
			<g>
				<path class="st2" d="M258.79,549.54v25.23c0,4.2-3.11,7.8-7.39,8.54l-0.07,0.01l-0.04,11.47c-0.01,4.86-3.74,12.49-8.58,13.81
					c-62.37,16.96-120.27,19.62-185.6-0.01c-4.82-1.45-8.58-8.96-8.58-13.83l0-11.42c0,0,0,0,0,0c-4.35-0.6-7.54-8.26-7.54-12.5
					v-21.3H258.79z"/>
			</g>
			<g>
				<path class="st3" d="M13.68,159.63c18.57-16.11,42.34-21.9,65.44-25.41c51.48-7.82,104.02-6.48,155.15,3.97
					c17.65,3.61,35.7,8.58,50.11,20.8c1.12,0.95,2.33,2.53,1.65,3.92c-29.67,13.98-64.5,17.41-96.5,19.97
					C131.22,187.52,67.58,191.21,13.68,159.63z"/>
			</g>
			<g>
				<path class="st4" d="M3.1,163.21c-4.61,4.75,1.08,15.36,1.08,15.36c1.57,11.28,3.13,32.64,4.7,43.92
					c0.79,5.7,0.81,11.58,1.15,17.31c1.08,18.21,2.07,36.43,3.07,54.65c1.36,24.96,2.7,49.91,4.03,74.87
					c1.38,25.86,2.74,51.72,4.11,77.58c1.1,20.93,6.43,85.18,9.12,98.55c3.37,16.76,11.3,21.73,25.28,27.61
					c27.58,11.6,57.76,17.14,87.78,17.44c28.12,0.29,55.68-3.82,82.5-11.57c19.46-5.62,45.19-19.02,46.37-41.59
					c0,0,3.15-26.99,3.72-37.65c1.07-19.98,1.75-32.73,2.82-52.7c1.31-24.38,2.62-48.76,3.95-73.14c1.3-23.87,2.6-47.75,3.92-71.62
					c1.02-18.46,2.05-36.91,3.14-55.36c0.95-16.22,2.43-32.26,4.18-48.41c0.24-2.25,0.43-14.59,0.74-16.84c0,0,6.4-12.6,2.45-17.88
					c-11.03-14.74-19.51-0.17-55.14,3.4c-0.41,0.04-0.83,0.08-1.24,0.12c-50.73,5.03-101.84,5.52-152.68,1.63
					c-8-0.61-16.31-1.21-24.6-1.75C31.21,165.04,17.34,148.56,3.1,163.21z"/>
			</g>
			<g>
				<g>
					<g>
						<path class="st5" d="M276.65,145.02c-2.73-2.99-15.92-11.64-17.08-15.96c-0.83-3.1-0.38-6.48-0.43-9.75
							c-0.14-8.57-4.12-16.88-10.06-21.02c-2.51-1.75-21.55-3.3-22.15-6.84c-3.68-21.48-25.77-14.89-27.14-23.87
							c-2.15-14.06-15.84-24.99-24.51-28.39c-8.27,22.84-24.22,19.28-30.4,19.73C131.3,59.9,136.02,70.02,123.6,77
							c-13.78,7.75-17.5-3.38-29.86,6.72c-8.88,7.26-0.04,20.53-8.4,23.2c-5.1,1.63-13.07-2.08-18.24-0.88
							c-14.86,3.45-14.33,7.03-23.88,17.52c-5.84,6.42-14.16,9.52-20.68,15.11c-9.02,7.73-9,20.57-7.21,31.18
							c1.54,9.15,2.71,19.65,9.36,27.04c7.76,8.63,20.63,9.83,30.79,14.54c3.95,1.83,20.61-4.96,24.81-5.03
							c25.34-0.44,34.07,6.59,52.08,9.68c25.77,4.42,65.42-4.91,90.68-12.77c4.5-1.4,9.02-3.48,13.63-2.84
							c3.56,0.49,15.45,1.65,18.98,2.41C283.67,208.89,297.56,167.94,276.65,145.02z"/>
					</g>
					<g>
						<path class="st6" d="M77.34,138.12c-7.52,1.48-14.82,5.88-17.72,12.74c-2.92,6.92-1.16,15.52-5.82,21.49
							c-2.97-0.54-5.18-3.14-6.06-5.93c-0.88-2.8-0.69-5.79-0.49-8.7c0.53-7.72,1.06-15.44,1.59-23.16
							c4.81-2.63,10.33-4.04,15.86-4.04c-1.54-2.66-2.7-5.54-3.42-8.51c-0.21-0.85-0.36-1.81,0.12-2.56
							c0.41-0.63,1.18-0.95,1.91-1.17c9.88-3.02,21.44,5.89,20.59,15.87C84.01,132.86,83.5,136.91,77.34,138.12z M222.87,155.13
							c2.24,7.11-16.64,15.63-9.5,24.89c2.22,0.18,7.56-4.42,8.29-6.46c1.21-3.35,20.25-12.63,21.46-15.98
							c2.25-6.25-4.39-7.15-4.06-13.76c0.33-6.61-6.14-13.8-11.1-18.37c-5.52-5.08-16.25-8.47-23.55-10.22
							c-6.7-1.6-6.9-5.56-7.45,2.37C195.79,134.2,218.67,141.84,222.87,155.13z M147.02,95.14c-1.85,2.67-11.26,7.11-13.11,9.78
							c-2.01,2.89-4.04,5.84-5.05,9.19c-1,3.34-0.83,7.2,1.32,9.99c2.95,3.83,8.35-4.31,9.48,0.34c0.27,1.1,1.29,12.16,2.44,12.33
							c0.69,0.1,1.32-0.38,1.82-0.86c9.82-9.27,13.97-28.52,15.05-41.33C160.58,75.49,153.77,85.41,147.02,95.14z"/>
					</g>
					<g>
						<path class="st7" d="M124.66,130.09c-1.14,2.07-2.94,4.04-5.17,4.94c-2.82,1.15-4.35-0.23-6.96-0.69
							c-3.5-0.62-7.78-0.48-9.75,2.49c-1.84,2.77-0.83,6.92-3.13,9.31c-1.26,1.3-3.15,1.69-4.87,2.25
							c-5.7,1.88-10.41,6.58-12.3,12.28c-1.35,4.06-1.32,8.44-2.14,12.64s1.13,9.89-2.75,11.7c-1.86-8.89,0.94-15.75-0.92-24.64
							c-0.12-0.56-9.16-4.33-9.02-4.88c0.24-0.92,5.06-0.2,5.88-0.69c6.5-3.86,11.97-8.12,19.29-9.99c1.09-0.28,2.22-0.56,3.08-1.28
							c0.78-0.66,1.24-1.63,1.61-2.58c2.1-5.34,0.94-12.26,6.12-14.71c5.48-2.6,12.74,1.49,17.78-1.89
							c4.16-2.79,4.63-13.17,4.16-18.15c-1.38-14.73,10.94-27.24,23.23-31.02c1.14,6.6-12.71,23.3-14.91,29.75
							C130.62,114.6,129.7,120.94,124.66,130.09z M179.12,88.27c-1.68-3.09-1.82-6.92-2.71-10.28c-1-3.75-2.59-10.93-6.29-12.75
							c-4.21,8.04,1.93,23.21,6.23,30.27c0.84,1.38,1.77,2.76,2.14,4.34c0.59,2.53-0.33,5.12-0.8,7.67
							c-1.52,8.19,1.59,16.82-0.48,24.89c-1.44,5.6-5.28,10.52-5.8,16.28c-0.29,3.24,0.5,6.46,0.67,9.71s-0.46,6.82-2.92,8.94
							c-1.66,1.42-3.88,1.95-6.03,2.33c-6.73,1.17-13.71,1.28-20.11,3.65c-7.46,2.76-13.58,8.41-21.04,11.18
							c-4.21,1.56-8.8,2.2-12.66,4.49c-3.86,2.29-6.84,7.11-5.07,11.23c17.04-3.47,30.36-20.09,47.74-19.52
							c3.97,0.13,7.89,1.19,11.86,1.09c3.97-0.1,8.3-1.72,9.98-5.32c0.88-1.89,0.91-4.04,1.07-6.12c0.63-8.42,3.59-16.65,8.46-23.54
							c1.28-1.81,2.69-3.54,3.72-5.5c6.06-11.57-3.11-25.79-0.38-38.56c0.48-2.24,1.31-4.67,0.29-6.72
							C185.35,92.72,181,91.73,179.12,88.27z M226.6,125.95c2.84,4.44,5.19,9.18,6.99,14.13c2.3,6.34,3.58,13.8,0.02,19.53
							c-2.47,3.97-6.82,6.35-9.92,9.86c-2.86,3.25-4.74,7.54-8.49,9.71c-6.28,3.63-14.56-0.4-21.39,2.03
							c-1.6,0.57-3.12,1.53-4.04,2.96s-1.16,3.36-0.31,4.84c1.17,2.04,3.84,2.58,6.19,2.67c8.08,0.31,16.23-2.27,22.66-7.16
							c2.97-2.26,5.57-4.99,8.62-7.13s6.76-3.7,10.45-3.17c2.47,0.36,5.24,1.56,7.25,0.08c2.09-1.54,1.64-4.68,1.94-7.26
							c0.42-3.69,2.72-6.85,4.23-10.24c2.54-5.7,0.56-7.09-0.36-13.26c-0.84-5.65-3.34-7.78-4.55-13.28
							c-0.94-4.28,3.59-19.7-1.64-20.22c-13.79-1.38-17.05-5.95-19.91-8.81c-2.45-2.45-6,6.43-13.69-4.36
							c-0.79-1.11-2.7-1.17-3.81-0.38c-1.15,0.81,5.84,11.83,6.38,13.13c0.54,1.3,1.62,2.29,2.64,3.26
							C219.94,116.78,223.55,121.19,226.6,125.95z M172.3,143.65c-1.79,6.49-6.05,12.7-12.49,15.23c-4.92,1.93-10.5,1.55-15.56,3.11
							c-4.7,1.45-8.79,4.54-13.62,5.52c-8.33,1.7-17.17-3.16-25.32-0.79c-7.8,2.27-9.99,6.05-13.38,13.22
							c-3.8,8.06,7.42,14.81,11.79,3.58c1.86-4.78,11.44-3.12,16.53-3.97c7.65-1.28,15.11-3.56,22.13-6.77
							c12.79-5.85,26.44-15.01,39.75-10.37c1.64,0.57,3.45,1.36,5.06,0.7c1.87-0.76,2.44-3.02,2.63-4.97
							c0.81-8.4-0.89-20.78-6.96-27.4C172.64,119.63,174.4,136.01,172.3,143.65z"/>
					</g>
				</g>
				<g>
					<g>
						<path class="st8" d="M140.35,113.04c-0.43,0-0.86-0.11-1.26-0.34c-1.21-0.7-1.62-2.24-0.92-3.45l3.21-5.56
							c0.7-1.21,2.24-1.62,3.45-0.92c1.21,0.7,1.62,2.24,0.92,3.45l-3.21,5.56C142.07,112.59,141.22,113.04,140.35,113.04z"/>
					</g>
					<g>
						<path class="st8" d="M122.08,150.56c-0.17,0-0.34-0.02-0.52-0.05c-1.37-0.28-2.24-1.62-1.96-2.99l1.3-6.29
							c0.28-1.37,1.63-2.24,2.99-1.96c1.37,0.28,2.24,1.62,1.96,2.99l-1.3,6.29C124.31,149.74,123.26,150.56,122.08,150.56z"/>
					</g>
					<g>
						<path class="st8" d="M188.32,81.14c-0.87,0-1.72-0.45-2.19-1.26c-0.7-1.21-0.28-2.75,0.92-3.45l5.56-3.21
							c1.21-0.7,2.75-0.28,3.45,0.92c0.7,1.21,0.28,2.75-0.92,3.45l-5.56,3.21C189.18,81.03,188.74,81.14,188.32,81.14z"/>
					</g>
					<g>
						<path class="st8" d="M149.27,139.81c-0.64,0-1.28-0.24-1.78-0.73l-4.57-4.51c-0.99-0.98-1-2.58-0.02-3.57
							c0.98-0.99,2.58-1,3.57-0.02l4.57,4.51c0.99,0.98,1,2.58,0.02,3.57C150.57,139.56,149.92,139.81,149.27,139.81z"/>
					</g>
					<g>
						<path class="st8" d="M216.24,147.45c-0.59,0-1.17-0.2-1.65-0.62c-1.05-0.91-1.17-2.51-0.26-3.57l4.2-4.85
							c0.91-1.05,2.51-1.17,3.57-0.26c1.05,0.91,1.17,2.51,0.26,3.57l-4.2,4.85C217.65,147.15,216.95,147.45,216.24,147.45z"/>
					</g>
					<g>
						<path class="st8" d="M195.95,161.65c-0.87,0-1.72-0.45-2.19-1.26l-3.21-5.56c-0.7-1.21-0.28-2.75,0.92-3.45
							c1.21-0.7,2.75-0.28,3.45,0.92l3.21,5.56c0.7,1.21,0.28,2.75-0.92,3.45C196.81,161.55,196.38,161.65,195.95,161.65z"/>
					</g>
				</g>
				<g>
					<g>
						<path class="st9" d="M54.49,72.46c-1.65-8.96-2.79-16.64-3.01-18.25c-1.51-10.6-1.49-20.79,5.43-29.71
							c0.67-0.86,1.43-1.71,2.44-2.13c1.71-0.7,3.16,0.21,3.37,2.09c0.13,1.12-0.23,2.23-0.56,3.31c-2.93,9.53-4.93,19.7-4.77,29.71
							c0.16,9.64,1.99,18.92,4.87,28.09c0.9,2.88,7.14,17.85,3.5,19.84C61.81,107.57,57.37,88.08,54.49,72.46z"/>
					</g>
					<g>
						<path class="st8" d="M64.83,94.71c3.79-0.73,6.51-3.5,10.22-4.42c3.23-0.8,6.73-0.59,9.82,0.69
							c7.9,3.28,12.97,10.24,14.7,18.02c1.85,8.32-1.54,20.05-7.37,26.63c-7.84,8.86-21.5,12.19-31.78,7.66
							c-18.62-8.22-21.72-22.13-18.35-36.79c1.11-4.85,4.21-9.71,8.81-11.91c0.16-0.08,0.33-0.15,0.49-0.21
							C55.7,92.67,60.22,95.59,64.83,94.71z M244.04,139.43c11.05-2.79,13.56-21.4-0.11-25.4c-9.88-2.88-20.86,9.05-14.46,19.2
							c1.42,2.25,3.49,4,5.8,5.12C238.08,139.71,241.24,140.14,244.04,139.43z M187.65,98.37c-1.43-4.18-6.5-5.75-11.3-4.73
							c-5.96,1.26-8.67,10.39-4.83,14.83c2.72,2.75,8.89,4.37,12.79,2.18c2.9-1.63,3.99-5.5,4.13-8.6
							C188.51,100.72,188.21,99.47,187.65,98.37z M230.47,116.4c-0.72-5.75-6.82-9.12-13.27-9.1c-8,0.03-13.92,11.05-10.16,17.78
							c2.76,4.26,10.27,7.99,15.87,6.21c4.16-1.32,6.6-6.01,7.61-9.95C230.94,119.66,230.89,117.98,230.47,116.4z M220.01,79.42
							c-2.19,0.4-4.46,1.55-6.14,3.03c-4.72,4.18-7.08,10.74-4.13,16.11c5.31,8.95,18.89,8.95,24.79,0.6
							c2.97-4.21,2.44-9.42-0.58-13.44c-1.23-1.64-2.95-3.14-4.89-4.29C226.25,79.78,222.99,78.88,220.01,79.42z"/>
					</g>
					<g>
						<path class="st10" d="M80.24,100.65c-1.1-0.98-2.49-2.21-2.07-3.62c0.43-1.45,2.42-1.7,3.86-1.26c2.45,0.75,4.4,2.6,6.12,4.5
							c2,2.19,3.87,4.58,4.91,7.36c1.15,3.09,1.3,11.53-3.11,8.63c-1.51-0.99-2.3-5.26-3.15-6.83
							C85.12,106.29,82.91,103.02,80.24,100.65z M86.54,126.31c3.01,1.99,8.24-2.71,5.53-5.73c-0.42-0.47-1-0.78-1.6-0.95
							C86.95,118.67,83.1,124.05,86.54,126.31z M224.14,83.67c-3.45,1.22-3.01,9.02-0.24,12.24c0.92,1.07,2.12,1.97,3.51,2.16
							c2.25,0.3,4.43-1.49,5.05-3.69c1-3.57-1.01-7.74-4.03-9.68C226.61,83.54,225.19,83.3,224.14,83.67z M241.49,118.38
							c2.94-1.51,6.99,1.78,8.12,4.89c1.36,4.45-0.69,8.78-4.82,8.1c-2.86-0.47-5.47-5-5.73-7.73c-0.09-0.97,0.04-1.96,0.37-2.82
							C239.83,119.75,240.54,118.87,241.49,118.38z"/>
					</g>
				</g>
			</g>
			<g>
				<path class="st6" d="M29.64,192.84c38,6.79,56.5,9.28,93.19,10.4c7.69,0.23,15.38,0.73,23.07,0.66
					c19.57-0.17,39.13-1.2,58.6-3.26c19.34-2.05,47.54-4.55,65.7-8.95c-3.73,43.03-2.94,52.06-5.69,95.15
					c-3.49,54.62-6.77,109.26-10.33,163.87c-1.68,25.72-1.29,51.77-6.77,77.06c-10.34,47.72-100.29,44.18-138.21,39.64
					c-13.86-1.66-27.8-5.21-39.97-12c-15.79-8.8-17.08-24.27-19.28-40.27C49.52,512.02,34.1,256.99,29.64,192.84z"/>
			</g>
			<g>
				<path class="st5" d="M270.2,191.69c-2.08,24.03-2.76,37.46-3.42,52.15c-10.98,1.5-17.71-8.98-18.58-19.47
					c-16.45,3.66-31.08,6.4-48.45,3.66c-10.06-1.83-12.8,15.54-8.23,24.68c7.31,13.71,17.37,31.99,0.91,42.96
					c-14.63,9.14-43.88,31.99-48.45,12.8c-6.4-22.85,6.4-50.28-9.14-74.04c-3.66-5.48-14.63-8.23-16.45-0.91
					c-3.66,11.88-5.48,36.56-18.28,31.99c-14.63-4.57-16.45-24.68-28.34-34.74c-5.48-4.57-16.45-6.4-17.37-0.91
					c-1.83,12.8-4.57,25.6-0.91,38.39c2.74,9.14-7.31,29.25-14.63,18.28c-1.56-2.28-2.73-4.73-3.64-7.3
					c-2.33-37.03-4.37-68.85-5.59-86.39c38,6.79,56.5,9.28,93.19,10.4c7.69,0.23,15.38,0.73,23.07,0.66
					c19.57-0.17,39.13-1.2,58.6-3.26C223.84,198.59,252.04,196.09,270.2,191.69z M227.17,476.66c-7.31,10.97-4.57,25.6-12.8,36.56
					c-3.66,4.57-10.97,6.4-15.54,1.83c-9.14-7.31-10.06-21.94-22.85-23.77c-22.85-4.57-31.99,18.28-27.42,36.56
					c-11.88,1.83-20.1,9.14-30.15,15.53c-7.59,4.83-14.39-3.92-18.95-8.87c-3.42-3.72-6.13-8.6-10.1-11.78
					c-3.18-2.54-10.6-4.19-12.1-7.69c-4.57-11.88-15.54-17.37-25.6-21.02c-1.17-0.29-2.2-0.33-3.11-0.16
					c0.81,12.92,1.32,20.74,1.39,21.27c2.2,16,3.49,31.47,19.28,40.27c12.17,6.79,26.11,10.34,39.97,12
					c37.92,4.55,127.87,8.08,138.21-39.64c4.96-22.89,5.12-46.41,6.35-69.74C243.63,461.51,234.49,467.4,227.17,476.66z"/>
			</g>
			<g>
				<path class="st7" d="M74.82,401.8c5.58,1.99,9.38,7.54,15.05,9.26c6.13,1.86,12.51-1.21,18.76-2.6
					c9.41-2.09,19.64-0.17,27.66,5.18c5.82,3.89,10.76,11.17,7.98,17.6c-1.87,4.31-6.69,6.67-11.36,7.19
					c-4.67,0.52-9.35-0.44-14.03-0.89c-7.6-0.73-15.72,0.01-22,4.36c-3.46,2.39-6.14,5.73-9.33,8.46
					c-15.91,13.65-32.83,6.14-22.3-21.14C69.5,418.22,59.55,396.35,74.82,401.8z M262.02,326.32c-2.89-7.73-10.59-10.97-18.44-8.38
					c-7.85,2.59-13.49,15.15-17.02,22.63c-2.74,5.8-4.94,12.7-10.74,15.43c-8.69,4.08-17.76-3.95-26.18-8.57
					c-14.98-8.22-22.63-7.28-39.51-4.59c-4.48,0.72-10.23,2.97-9.72,7.48c0.35,3.09,3.64,4.89,6.62,5.78
					c9.78,2.9,9.55,3.18,19.76,3.49c10.2,0.31,21.31,2.78,27.54,10.86c1.74,2.25,3.04,4.89,5.19,6.76c2.08,1.81,4.78,2.76,7.49,3.25
					c8.24,1.49,17.12-1.14,23.23-6.86c2.59-2.43,4.72-5.38,7.67-7.37c8.93-6,12.03-3.03,21.5,2.08L262.02,326.32z"/>
			</g>
			<g class="st11">
				<g>
					<path class="st12" d="M4.17,178.57c0,0-5.69-10.62-1.08-15.36c14.25-14.65,28.11,1.83,60.43,3.93
						c8.29,0.54,16.6,1.14,24.6,1.75c50.84,3.89,101.95,3.4,152.68-1.63c0.42-0.04,0.83-0.08,1.24-0.12
						c35.64-3.57,44.11-18.14,55.14-3.4c3.95,5.28-2.45,17.88-2.45,17.88s-59.67,14.98-148.29,15.44
						C51,197.56,4.17,178.57,4.17,178.57z"/>
				</g>
			</g>
			<g>
				<path class="st7" d="M80.93,432.93c-0.46,0.43-1.07-0.06-1.66,0.36c-1.51,1.08-1.21,3.86,0.68,5.25
					c2.23,1.64,5.38,0.32,5.71-2.4C85.84,434.53,83.04,432.61,80.93,432.93z"/>
				<path class="st7" d="M60.51,293.16c-1.32,0.06-3.15,1.91-3.09,3.13c0.07,1.61,2.06,3.47,3.62,3.38
					c1.26-0.07,3.09-2.17,3.04-3.48C64.02,294.85,61.95,293.09,60.51,293.16z"/>
				<path class="st7" d="M84.69,455.4c0.18-1.36-0.46-1.94-1.87-1.66c-0.78,0.15-1.51,0.03-1.98-0.64
					c-1.21-1.69-2.44-1.84-3.73-0.13c-0.33,0.43-1.44,0.32-1.02,1.17c0.26,0.54,0.93,1.24,1.58,1.04c1.97-0.61,2.79,0.58,3.74,1.91
					c0.38,0.53,1.1,1.38,2.02,0.83C84.31,457.39,85.07,456.68,84.69,455.4z"/>
				<path class="st7" d="M93.27,394.66c-0.72,0.07-2.83,2.94-2.78,3.78c0.05,0.82,2.13,2.48,3.06,2.44
					c1.55-0.06,3.54-2.15,3.38-3.56C96.85,396.59,94.08,394.58,93.27,394.66z"/>
				<path class="st7" d="M53.29,394.34c-0.14-1.15-3-3.26-4.35-3.22c-1.68,0.05-1.95,1.25-2.1,2.24c0.11,1.83,1.59,3.29,2.98,3.23
					C51.53,396.54,53.41,395.31,53.29,394.34z"/>
				<path class="st7" d="M58.43,472.03c1.44,0.12,2.83-1.82,2.74-3.53c-0.05-1.01-1.76-2.43-2.83-2.35c-1.27,0.1-2.75,2.06-2.6,3.49
					C55.9,471.25,57.06,471.92,58.43,472.03z"/>
				<path class="st7" d="M51.53,452.97c1.13-0.46,1.88-1.47,2.12-2.68c0.16-0.81-1.92-3-2.7-3c-0.91,0.01-2.43,1.94-2.4,3.05
					C48.59,451.33,50.69,453.32,51.53,452.97z"/>
				<path class="st7" d="M112.07,411.69c-0.66,0.06-2.58,2.29-2.57,2.99c0.02,0.94,1.77,2.66,2.65,2.6
					c1.17-0.08,2.26-1.68,2.15-3.15C114.24,413.27,112.73,411.63,112.07,411.69z"/>
				<path class="st7" d="M82.27,463.28c1.15,0.07,2.16-0.66,1.97-1.92c-0.26-1.75-2.1-1.24-3.2-1.63c-0.53-0.19-2.34-0.01-1.96,1.79
					C79.35,463.46,81.01,463.21,82.27,463.28z"/>
				<path class="st7" d="M50.45,418.87c-1.16-0.01-2,0.57-1.97,1.82c0.02,1.35,1.09,1.4,2.16,1.43c1.24,0.03,1.95-0.59,1.96-1.71
					C52.6,419.17,51.69,418.74,50.45,418.87z"/>
				<path class="st7" d="M96.35,426.26c-0.35-1.3-1.28-2.16-2.61-2.33c-1.13-0.15-1,0.77-0.98,1.68c-0.36,1.75,1.4,1.68,2.39,2.09
					C95.62,427.89,96.6,427.18,96.35,426.26z"/>
				<path class="st7" d="M65.21,341.55c0.15-1.7-1.36-1.62-2.26-1.91c-0.34-0.11-1.43,0.7-1.32,1.67c0.07,0.61,0.33,1.03,0.68,1.33
					c-0.15,0-0.3,0-0.46,0.02c-0.87,0.48-1.52,1.11-1.38,2.16c0.13,0.94,2.02,2.23,2.71,1.84c0.93-0.54,1.85-1.67,1.59-2.47
					c-0.12-0.36-0.36-0.68-0.68-0.93c0.03,0,0.06,0.01,0.09,0.01C65.18,343.32,65.37,342.39,65.21,341.55z"/>
				<path class="st7" d="M103.68,440.11c0.82-0.16,1.96-0.65,1.61-2.04c0.13-1.12-0.51-1.54-1.53-1.45
					c-1.03,0.09-1.82,0.68-1.76,1.74C102.04,439.29,102.63,440.31,103.68,440.11z"/>
				<path class="st7" d="M76.1,378.19c0.96-0.04,1.62-1,1.49-1.41c-0.22-0.69-0.62-1.74-1.6-1.64c-0.92,0.32-1.96,0.41-1.75,1.47
					C74.41,377.47,74.96,378.24,76.1,378.19z"/>
				<path class="st7" d="M113.3,420.49c-1.23-0.01-1.41,0.65-1.37,1.47c0.03,0.69,0.04,1.34,1.05,1.33c0.98-0.01,1.6-0.59,1.68-1.38
					C114.75,421.01,113.9,420.66,113.3,420.49z"/>
				<path class="st7" d="M72.29,269.42c-1.08-0.19-1.22,0.53-1.14,1.47c0.06,0.71,0.13,1.38,1.13,1.25
					c1.03-0.14,1.57-0.73,1.54-1.76C73.78,269.5,73.2,269.27,72.29,269.42z"/>
				<path class="st7" d="M94.51,450.88c-1.01,0.18-0.92,1.39-1.38,2.08c-0.23,0.34,0.69,1.29,1.28,1.13
					c0.71-0.2,1.28-0.91,1.07-1.86C95.39,451.61,95.51,450.69,94.51,450.88z"/>
				<path class="st7" d="M48.27,311.99c-0.88,0.08-1.46,0.72-1.54,1.44c-0.08,0.82,0.91,0.77,1.36,0.7c0.53-0.08,1.4-0.12,1.31-1.13
					C49.34,312.27,49.04,311.9,48.27,311.99z"/>
				<path class="st7" d="M61.47,448.84c0.85-0.07,1.1-0.53,1.04-1.33c-0.06-0.75-0.38-1.08-1.23-0.98
					c-0.82-0.09-0.81,0.51-0.77,1.16C60.55,448.32,60.59,448.91,61.47,448.84z"/>
				<path class="st7" d="M103.7,455.23c0.84-0.03,1.13-0.56,1.1-1.32c-0.03-0.7-0.41-1.08-1.12-1.1c-0.78,0.04-0.99,0.56-0.95,1.22
					C102.78,454.63,102.87,455.26,103.7,455.23z"/>
				<path class="st7" d="M57.15,451.18c0.71-0.05,1.13-0.22,1.08-1.06c-0.05-0.8-0.4-1.08-1.14-0.94c-0.73-0.04-1.19,0.24-1.14,1.03
					C55.99,450.95,56.38,451.24,57.15,451.18z"/>
				<path class="st7" d="M85.13,306.67c-0.69,0.17-1.3,0.36-1.22,1.27c0.03,0.41-0.23,1.03-0.6,0.67c-0.99-0.97-2.17-0.31-3.02-0.2
					c-3.63,0.43-6.65,2.27-5.5,6.99c0.63,0.99,0.37,2.63,1.91,3.38c0.92,0.45,2.02,0.82,2,2.2c0,0.33,0.34,0.58,0.72,0.54
					c0.32-0.04,0.37-0.32,0.38-0.6c0.05-1.47,0.87-2.07,2.28-2.12c0.94-0.04,1.77-0.41,2.46-1.1c2.03-2.04,2.16-4.46,1.44-7.03
					c-0.18-0.66-0.55-1.07,0.43-1.5c0.78-0.34,1.29-1.22,0.81-2.18C86.71,305.93,85.89,306.49,85.13,306.67z"/>
				<path class="st7" d="M88.71,364.56c-1.72,0.42-3.08,3.08-2.71,5c0.37,1.89,2.62,3.02,4.61,2.71c1.91-0.3,2.9-2.54,2.35-4.8
					C92.39,365.11,90.82,364.04,88.71,364.56z"/>
				<path class="st7" d="M111.5,383.95c-2.19-0.74-4.64,0.71-5.6,3.6c-0.63,1.89,0.56,3.31,2.6,3.08c0.53-0.06,1.04-0.24,1.56-0.36
					c0,0.01,0,0.01,0,0.02c0.32-0.08,0.65-0.2,0.98-0.23c1.7-0.13,2.56-1.27,2.63-2.73C113.74,385.88,113.25,384.54,111.5,383.95z"
					/>
				<path class="st7" d="M58.91,375.34c1.71-0.09,2.25-1.36,1.85-3.85c-0.3-1.88-1.93-2.85-3.68-2.42
					c-1.84,0.45-2.88,2.23-2.43,4.15C54.99,374.7,57.11,375.75,58.91,375.34z"/>
				<path class="st7" d="M89.01,422.82c1.43-0.21,2.54-0.83,2.06-2.73c-0.4-1.6-2.64-3.08-4.1-2.69c-1.71,0.46-2.29,1.66-1.81,3.7
					C85.59,422.92,86.59,423.4,89.01,422.82z"/>
				<path class="st7" d="M46,306.57c-0.37-1.49-2.23-2.61-3.74-2.25c-1.13,0.27-2.27,2.58-1.59,3.8c0.67,1.2,1.78,2.13,3.42,1.7
					C45.84,309.37,46.44,308.36,46,306.57z"/>
				<path class="st7" d="M41.36,341.01c-0.84,0.22-1.74,1.41-1.45,2.94c0.82,0.62,0.97,2.21,2.94,1.7c1.93-0.5,1.7-1.97,1.55-3.02
					C44.19,341.09,42.48,340.71,41.36,341.01z"/>
				<path class="st7" d="M104.37,304.02c-1,0.32-2.35,0.95-1.95,2.63c0.37,1.52,1.48,1.63,2.67,1.65c1.4-0.44,1.73-1.46,1.57-2.67
					C106.48,304.31,105.31,303.72,104.37,304.02z"/>
				<path class="st7" d="M37.98,323.19c0.56-0.52-0.15-1.23-0.1-1.77c0-0.02-0.01-0.03-0.01-0.04
					C37.9,321.98,37.94,322.58,37.98,323.19z"/>
				<path class="st7" d="M49.5,365.32c-0.68,0.29-2.1,0.47-1.7,1.76c0.33,1.05,1.17,1.56,2.43,1.24c1.11-0.28,1.42-0.82,1-1.9
					C51.3,365.13,50.09,365.07,49.5,365.32z"/>
				<path class="st7" d="M56.64,333.69c0.33,1.07,0.84,1.43,1.9,1.08c1.09-0.01,1.4-0.92,1.16-1.62c-0.22-0.67-0.51-1.97-1.61-1.58
					C57.34,331.82,56.21,332.26,56.64,333.69z"/>
				<path class="st7" d="M85.21,337c0.72-0.15,1.21-0.56,0.9-1.44c-0.05-1.06-0.96-1.27-1.67-1.2c-0.58,0.06-1.17,0.79-1.02,1.47
					C83.62,336.66,84.29,337.18,85.21,337z"/>
				<path class="st7" d="M104.63,353.23c-0.43,0.25-1.61,0.06-1.33,0.93c0.38,1.21,1.7,0.51,2.59,0.67
					c0.52,0.09,1.06-0.29,0.81-1.02C106.33,352.76,105.54,352.92,104.63,353.23z"/>
				<path class="st7" d="M73.69,356.12c0.46,0.91,1.19,0.91,2.03,0.65c0.49-0.15,0.98-0.42,0.65-0.95
					c-0.43-0.69-0.98-1.35-2.13-1.68C74.52,355.05,73.21,355.18,73.69,356.12z"/>
				<path class="st7" d="M121.95,333.61c0.2,0.71,0.8,1.03,1.57,0.9c0.83-0.14,1.15-0.7,1-1.45c-0.18-0.9-0.88-0.58-1.46-0.49
					C122.54,332.76,121.69,332.7,121.95,333.61z"/>
				<path class="st7" d="M49.33,374.58c0.74-0.1,0.86-0.95,0.72-1.57c-0.11-0.49-0.63-0.78-1.24-0.81
					c-0.26,0.58-1.28,0.73-1.05,1.47C47.95,374.26,48.78,374.65,49.33,374.58z"/>
				<path class="st7" d="M63.47,367.63c-0.7,0.1-0.94,0.52-0.81,1.24c0.15,0.81,0.63,0.84,1.3,0.69c0.72-0.16,1.02-0.55,0.87-1.25
					C64.67,367.59,64.19,367.37,63.47,367.63z"/>
				<path class="st7" d="M71.83,346.94c0.45-0.24,1.39-0.08,1.13-0.98c-0.14-0.51-0.68-1.09-1.33-0.95
					c-0.69,0.15-1.07,0.82-1.03,1.49C70.64,347.4,71.33,346.98,71.83,346.94z"/>
				<path class="st7" d="M77.8,476.97c0.08,0.47,0.29,0.94,0.87,0.83c0.59-0.11,1.2-0.36,1.18-1.13c-0.02-0.63-0.35-0.97-1.02-0.95
					C78.02,475.75,77.88,476.31,77.8,476.97z"/>
				<path class="st7" d="M61.24,412.83c-0.03-0.84-0.72-0.56-1.19-0.57c-0.73-0.02-1.1,0.32-1.01,1.08c0.14,0.53,0.32,1.1,1.02,0.86
					C60.68,413.99,61.27,413.59,61.24,412.83z"/>
				<path class="st7" d="M130,431.48c-0.1-0.83-0.73-0.61-1.22-0.62c-0.71-0.01-1.17,0.27-1.07,1.07c0.07,0.63,0.45,0.92,1.09,0.91
					C129.69,432.81,129.78,432.1,130,431.48z"/>
				<path class="st7" d="M68.62,406.96c0.68-0.03,1.11-0.39,1.11-1.12c0-0.89-0.78-1.09-1.35-1.2c-0.91-0.18-0.52,0.64-0.63,1.06
					C67.84,406.27,67.69,407.01,68.62,406.96z"/>
				<path class="st7" d="M39.96,277.66c-0.46,0.2-0.86,0.6-0.81,1.02c0.08,0.76,0.83,0.99,1.45,1.12c0.49,0.11,0.64-0.4,0.67-0.8
					C41.34,278.11,40.49,278.07,39.96,277.66z"/>
				<path class="st7" d="M77.33,415.81c-0.49,0.13-0.88,0.58-0.79,1.35c0.09,0.82,0.74,0.55,1.22,0.56c0.7,0.01,0.88-0.41,0.78-1.03
					C78.46,416.12,78.32,415.64,77.33,415.81z"/>
				<path class="st7" d="M57.49,389.03c-0.48,0.19-1.12,0.28-1.1,1.07c0.02,0.62,0.34,0.99,0.98,0.97c0.74-0.03,1.02-0.47,0.96-1.18
					C58.3,389.39,58.2,388.96,57.49,389.03z"/>
				<path class="st7" d="M56.96,396.64c0.49-0.05,0.95-0.18,0.87-0.79c-0.11-0.81-0.88-0.83-1.4-1.1c-0.65,0.18-0.55,0.68-0.53,1.12
					C55.91,396.57,56.37,396.71,56.96,396.64z"/>
				<path class="st7" d="M63.59,419.53c-0.05-0.68-0.63-1.08-1.14-1.32c-0.66-0.05-0.81,0.25-0.78,0.72
					c0.04,0.59-0.03,1.27,0.88,1.21C63.01,420.12,63.64,420.16,63.59,419.53z"/>
				<path class="st7" d="M78.78,396.67c-0.46-0.59-0.53-1.52-1.35-1.79c-0.55,0.21-0.55,0.61-0.52,1.02
					c0.06,0.9,0.83,1.14,1.44,1.42C78.64,397.45,79.01,396.97,78.78,396.67z"/>
				<path class="st7" d="M107.44,413.89c0.52-0.04,0.88-0.23,0.85-0.88c-0.34-0.56-0.89-0.99-1.54-0.96
					c-0.53,0.03-0.57,0.65-0.5,1.11C106.36,413.84,106.87,413.94,107.44,413.89z"/>
				<path class="st7" d="M76.1,409.28c-0.01,0.72,0.3,1.15,1.08,1.12c0.51-0.02,0.99-0.11,0.89-0.78c-0.11-0.71-0.77-0.84-1.24-1.13
					C76.26,408.49,76.11,408.83,76.1,409.28z"/>
				<path class="st7" d="M65.83,421.52c-0.11-0.37-0.62-0.92-0.92-0.9c-0.93,0.06-1.35,0.82-1.7,1.83c0.7-0.14,1.26-0.28,1.83-0.36
					C65.43,422.03,65.98,422.03,65.83,421.52z"/>
				<path class="st7" d="M111.41,445.41c0.56-2.05-0.89-3.42-2.08-4.63c-0.72-0.73-2.11-0.81-3.2-1.19
					c-0.6,1.79-2.97,2.03-3.43,3.83c-0.1,0.21-0.17,0.42-0.22,0.63c-1.32,0.14-1.06,1.68-1.17,2.71c-0.16,1.53,1.05,1.97,2.14,1.99
					c0.03,0.31-0.02,0.61-0.2,0.97c-0.29,0.57-0.7,1.36,0.23,1.69c0.74,0.26,1.56-0.05,1.78-0.88c0.25-0.94,0.84-1.26,1.67-1.45
					C109.04,448.61,110.8,447.65,111.41,445.41z"/>
				<path class="st7" d="M113.45,545.98c0-0.01,0.01-0.02,0.01-0.03c-0.02-0.02-0.03-0.04-0.05-0.05c0,0,0,0,0,0
					C113.43,545.92,113.44,545.95,113.45,545.98L113.45,545.98z"/>
				<path class="st7" d="M120.02,551.05c0.94-0.31,1.75-0.82,2.36-1.64c0.98-1.33,0.07-3.05,0.93-4.41c0.03-0.05-0.43-0.44-0.7-0.62
					c-0.44-0.29-0.95-0.49-1.36-0.82c-2.78-2.27-6.64-1.08-7.79,2.4c0.3,0.26,0.26,0.64,0.36,0.99
					C114.96,550.93,115.54,552.53,120.02,551.05z"/>
				<path class="st7" d="M88.4,561.37c0.95-2.42-0.3-5.17-2.91-6.33c-2.02-0.9-4.1,0.43-5.4,3.45c-0.28,0.65-0.45,1.24-0.52,1.79
					c2.46,0.97,4.96,1.84,7.5,2.61C87.63,562.51,88.12,562.07,88.4,561.37z"/>
				<path class="st7" d="M95.94,475c0.33,1.83,2.97,2.75,5.03,1.64c2.44-1.31,2.59-4.72,0.28-6.18c-1.37-0.87-4.31,0.84-4.93,2.89
					C96.52,473.94,95.82,474.28,95.94,475z"/>
				<path class="st7" d="M98.86,525.56c0.31,0.12,0.82,0.31,0.89,0c0.32-1.43,2.2-1.76,2.24-3.3c0.73-1.11,0.86-2.21-0.08-3.21
					c-0.5-0.53-4.33-0.56-4.85-0.09c-0.19,0.17-0.3,0.43-0.42,0.66C95.53,521.61,96.71,524.74,98.86,525.56z"/>
				<path class="st7" d="M113.41,486.81c0.61,0,1.52-0.31,1.62-0.99c0.29-2.04,1.72-2.27,3.33-2.56c0.64-0.12,1.72-0.4,1.61-1.47
					c-0.1-1.02-0.41-2-1.74-2.22c-1.15-0.75-1.95-0.42-2.3,0.97c-0.2,0.77-0.62,1.37-1.42,1.52c-2.04,0.37-2.71,1.41-1.72,3.32
					C113.04,485.86,112.47,486.82,113.41,486.81z"/>
				<path class="st7" d="M69.28,449.91c0.76,0.31,3.15-0.86,3.52-1.72c0.32-0.76,0.17-1.87-0.23-2.81c0.3-0.24,0.37-0.76,0.36-1.14
					c-0.04-0.85,0.5-1.5,0.6-2.28c0.05-0.4,0.22-0.78-0.22-1.05c-0.5-0.31-1.01-0.27-1.51-0.01c-0.41,0.22-0.59,0.74-0.37,1.01
					c0.57,0.69,0.25,1.38,0.13,2.01c-0.17-0.13-0.34-0.24-0.52-0.3c-0.69-0.24-3.69,1.4-3.97,2.16
					C66.81,446.45,68.5,449.6,69.28,449.91z"/>
				<path class="st7" d="M49.62,481.76c-0.4-0.13-1.08,0.01-1.81,0.3c0.11,1.82,0.22,3.58,0.33,5.27c0.93-0.2,1.72-0.74,2.04-1.48
					C50.85,484.29,50.55,482.07,49.62,481.76z"/>
				<path class="st7" d="M118.69,511.84c1.53,0.54,2.63-0.22,3.31-1.41c0.72-1.25-0.43-3.34-2.01-3.99
					c-0.94-0.39-2.94,0.55-3.33,1.55C116.2,509.18,117.34,511.36,118.69,511.84z"/>
				<path class="st7" d="M127.1,497.69c0.19-0.54-1.27-2.89-1.92-3.07c-0.99-0.28-3.39,1.25-3.91,2.64
					c-0.15,1.1,0.02,2.14,1.52,2.61C124.22,500.32,126.56,499.19,127.1,497.69z"/>
				<path class="st7" d="M84.83,532.05c1.48,0.58,3.44-0.08,3.99-1.34c0.32-0.74-1.24-3.73-2.09-4.08
					c-0.63-0.26-0.88,0.12-1.01,0.59c-0.38,1.41-1.47,2.17-2.6,2.91c-0.68,0.44-0.77,0.87,0.05,1.24c0.42,0.19,0.86,0.35,1.29,0.53
					C84.59,531.95,84.71,532.01,84.83,532.05z"/>
				<path class="st7" d="M96.46,506.58c-0.38,0.83,0.71,3.03,1.73,3.48c0.9,0.39,3.6-0.65,3.65-1.56c0.07-1.21-0.52-2.33-1.51-3.07
					C99.66,504.93,96.78,505.88,96.46,506.58z"/>
				<path class="st7" d="M93.66,435.12c-0.33-0.12-0.87-0.08-1.42,0.05c0.08-0.12,0.16-0.25,0.21-0.41c0.28-0.8-0.43-1.27-0.59-1.83
					c-0.39-1.31-2.41-0.9-2.3-2.54c0.02-0.27-0.65-0.13-0.84,0.32c-0.2,0.48-0.3,1.07-0.64,1.42c-0.88,0.93-0.22,1.84,0.14,2.54
					c0.4,0.77,1.2,1.44,2.31,1.21c0.04,0,0.09-0.01,0.13-0.01c-0.08,0.07-0.13,0.15-0.16,0.22c-0.23,0.62,0.96,3.32,1.6,3.6
					c0.86,0.39,3.16-0.46,3.48-1.28C96.01,437.33,95.03,435.65,93.66,435.12z"/>
				<path class="st7" d="M119.15,456.43c-1.42-0.51-2.66-0.42-3.13,1.51c-1.37,1.82,0.51,2.3,1.55,2.93
					c1.45,0.88,2.43-0.31,2.85-1.39C120.9,458.31,120.63,456.97,119.15,456.43z"/>
				<path class="st7" d="M97.74,464.46c-0.24-0.13-0.4,0.53-0.07,0.9c0.35,0.39,0.83,0.73,1.01,1.19c0.47,1.2,1.57,0.99,2.36,0.96
					c0.87-0.03,1.82-0.47,2.09-1.56c0.29-0.76,0.49-1.53-0.2-2.22c-0.6-0.6-1.33-0.16-1.9-0.25
					C99.68,463.26,99.18,465.26,97.74,464.46z"/>
				<path class="st7" d="M113.42,545.9c-0.22-0.45-0.37-0.96-0.69-1.31c-0.62-0.69-1.33-1.16-2.42-0.8
					c-1.41,0.47-1.7,1.66-1.83,2.79c-0.11,0.96,0.83,1.44,1.71,1.63C112.07,548.6,112.88,547.43,113.42,545.9z"/>
				<path class="st7" d="M127.86,545.58c1.65,0.62,2.18-0.78,2.66-1.69c0.61-1.16,0.16-2.21-1.36-2.51
					c-1.54-1.32-2.4,0.46-2.59,1.13C126.27,543.52,126.33,545.01,127.86,545.58z"/>
				<path class="st7" d="M120.6,484.74c-0.4,0.4-1.01,2.11,0.78,2.54c1.86,0.59,2.34-1.02,2.95-2.13c0.55-1.01,0.33-2.24-0.89-2.6
					C121.75,482.03,121.42,483.91,120.6,484.74z"/>
				<path class="st7" d="M123.12,538.81c1.27,0.44,2.47,0.02,2.86-1.09c0.31-0.89,0.07-2.43-1.03-2.7
					c-0.88-0.22-2.37-0.32-2.81,1.27C121.66,537.39,121.77,538.34,123.12,538.81z"/>
				<path class="st7" d="M73.57,496.07c0.56-1.11,0.3-2.02-0.7-2.5c-1.12-0.54-1.9,0.1-2.31,1.27c-0.51,1.05-0.34,2.05,0.8,2.56
					C72.59,497.96,73.08,497.03,73.57,496.07z"/>
				<path class="st7" d="M97.71,458.25c0.37-0.34,0.15-1.53-0.78-1.7c-1.32-0.24-2.5,0.23-3.23,1.36c-0.62,0.96,0.27,1.23,1.1,1.61
					C96.22,460.59,96.91,458.97,97.71,458.25z"/>
				<path class="st7" d="M52.01,514.12c0.46-0.2,1.02-0.22,1.54-0.28c0.73-0.08,1.43-0.37,1.35-1.16c-0.07-0.73-0.25-1.59-1.17-1.89
					c-1.01-0.36-2.15,0.43-2.06,1.53c0.03,0.39,0.35,0.77-0.24,0.91c-0.47,0.12-0.77,0.33-0.54,0.81
					C51.19,514.69,51.57,514.31,52.01,514.12z"/>
				<path class="st7" d="M110.27,456.64c0.86,0.36,2.04,0.26,2.31-0.77c0.21-0.81,0.25-2.05-1.16-2.33c-0.96-0.6-1.61-0.2-1.96,0.76
					C109.1,455.27,109.29,456.23,110.27,456.64z"/>
				<path class="st7" d="M71.91,525.89c0.82,0.37,1.48-0.12,2.14-0.65c-0.53-0.86,0.47-2.28-1.01-2.58
					c-0.82-0.17-1.72,0.09-2.03,1.13C70.73,524.74,71.05,525.49,71.91,525.89z"/>
				<path class="st7" d="M92.42,540.69c0.91,0.5,1.41-0.32,1.78-1.23c0.34-0.68,0.43-1.55-0.58-1.8c-0.64-0.16-1.59-0.26-1.98,0.72
					C91.24,539.37,91.65,540.26,92.42,540.69z"/>
				<path class="st7" d="M103.89,486.77c0.41-0.65-0.27-1.13-0.77-1.34c-0.78-0.33-1.14-1.09-1.81-1.52
					c-0.34-0.21-0.61-0.53-1.05-0.25c-0.5,0.32-0.68,0.8-0.66,1.36c0.02,0.47,0.41,0.85,0.75,0.77c0.95-0.23,1.43,0.49,2.02,0.85
					C102.96,486.57,103.52,487.35,103.89,486.77z"/>
				<path class="st7" d="M101.38,440.26c0.41-0.89,0.15-1.7-0.53-2.11c-0.78-0.47-1.46,0.15-1.87,0.61
					c-0.53,1.11-0.02,1.55,0.74,1.87C100.36,440.9,100.96,441.18,101.38,440.26z"/>
				<path class="st7" d="M104.08,544.63c0.71,0.35,1.4,0.51,1.81-0.42c0.36-0.8-0.07-1.65-0.6-1.88c-0.72-0.31-1.68-0.12-2.09,0.85
					C102.86,544.03,103.36,544.4,104.08,544.63z"/>
				<path class="st7" d="M76.65,527.89c0.72,0.26,1.25,0.36,1.58-0.51c0.31-0.81,0.45-1.55-0.48-2.04c-0.9-0.48-1.26,0.43-1.9,0.74
					C75.97,526.75,75.69,527.53,76.65,527.89z"/>
				<path class="st7" d="M120.01,468.48c-0.61-0.19-1.38-0.69-1.64,0.29c-0.27,0.99,0.86,1.43,1.29,2.14
					c0.22,0.35,1.47-0.07,1.57-0.67C121.36,469.51,120.96,468.7,120.01,468.48z"/>
				<path class="st7" d="M90.35,528.63c0.75,0.3,1.43,0.4,1.9-0.46c0.46-0.85-0.43-1.13-0.66-1.72c-0.8-0.06-1.48,0.15-1.9,0.84
					C89.23,528.04,89.73,528.37,90.35,528.63z"/>
				<path class="st7" d="M81.35,534.57c0.83,0.37,1.54,0.03,1.92-0.56c0.55-0.84-0.41-0.89-0.83-1.17c-0.65-0.23-1.31-0.64-1.71,0.3
					C80.43,533.84,80.67,534.26,81.35,534.57z"/>
				<path class="st7" d="M102.36,497.74c0.3-0.8-0.01-1.22-0.76-1.51c-0.7-0.27-1.14-0.12-1.41,0.69c-0.43,0.7,0.12,0.95,0.72,1.19
					C101.5,498.35,102.05,498.57,102.36,497.74z"/>
				<path class="st7" d="M124.74,462.69c0.56,0.22,1.17,0.41,1.5-0.35c0.34-0.77-0.02-1.26-0.72-1.56c-0.65-0.28-1.15-0.1-1.48,0.54
					C123.75,462.04,124.13,462.45,124.74,462.69z"/>
				<path class="st7" d="M102.13,501.23c-0.74-0.3-1.15-0.11-1.34,0.63c-0.35,0.65-0.29,1.17,0.44,1.47
					c0.69,0.28,1.12,0.05,1.39-0.67C102.88,501.99,102.91,501.54,102.13,501.23z"/>
				<path class="st7" d="M45.69,438.58c0.29-0.99-0.03-1.97-0.74-2.75c0.08,1.28,0.16,2.55,0.24,3.82
					C45.4,439.31,45.57,438.95,45.69,438.58z"/>
				<path class="st7" d="M69.94,430.29c0.17-0.5,0.23-1.04,0.34-1.57c0.01,0,0.01,0,0.02,0c0.07-0.33,0.09-0.67,0.21-0.98
					c0.61-1.59-0.05-2.86-1.33-3.55c-1.28-0.69-2.7-0.82-3.99,0.51c-1.61,1.66-1.35,4.49,0.85,6.6
					C67.48,432.71,69.28,432.24,69.94,430.29z"/>
				<path class="st7" d="M90.66,461.7c0.42-1.38,0.34-2.65-1.58-3.04c-1.62-0.33-3.91,1.07-4.18,2.55
					c-0.32,1.74,0.51,2.78,2.56,3.23C89.29,464.84,90.15,464.14,90.66,461.7z"/>
				<path class="st7" d="M134.08,493.6c-0.32,0.74,0.13,1.11,0.69,1.46c0.46,0.12,0.97,0.14,1.12-0.43
					c0.15-0.58,0.19-1.24-0.52-1.55C134.8,492.83,134.35,492.98,134.08,493.6z"/>
				<path class="st7" d="M70.46,484.16c0.07-0.65-0.03-1.35-0.73-1.65c-0.77-0.33-0.81,0.41-1.03,0.83
					c-0.33,0.65-0.18,1.13,0.55,1.37C69.79,484.81,70.38,484.89,70.46,484.16z"/>
				<path class="st7" d="M116.07,428.39c-0.1-0.03-0.18-0.05-0.26-0.06c-0.07-0.35-0.15-0.7-0.18-1.03
					c-1.88,0.23-3.11-1.81-4.94-1.46c-1.74,0.02-2.78,1.14-3.71,2.23c-0.52,0.61-0.92,0.99-1.75,0.97
					c-0.63-0.02-1.53-0.05-1.43,0.93c0.08,0.78,0.71,1.39,1.56,1.23c0.95-0.18,1.5,0.22,2.03,0.89c1.33,1.7,2.95,2.88,5.24,2.47
					c2.07-0.37,2.7-2.25,3.28-3.83c0.39,0,0.67-0.23,0.87-0.67C117.14,429.24,116.53,428.85,116.07,428.39z"/>
				<path class="st7" d="M66.08,473.56c0.56,0.17,1.16,0.62,1.51-0.24c0.26-0.63,0.13-1.17-0.54-1.49c-0.81-0.38-1.32,0.23-1.67,0.7
					C64.83,473.28,65.75,473.28,66.08,473.56z"/>
				<path class="st7" d="M81.23,469.68c0.31-0.63,0-0.97-0.6-1.15c-0.54-0.16-1.04-0.25-1.31,0.72c-0.09,0.49,0.14,1.04,0.88,1.3
					C80.98,470.81,81.02,470.11,81.23,469.68z"/>
				<path class="st7" d="M48.41,476.67c0.29-0.68,0.01-1.12-0.65-1.38c-0.13-0.05-0.25-0.09-0.37-0.11c0.04,0.7,0.09,1.39,0.13,2.07
					C47.9,477.29,48.22,477.11,48.41,476.67z"/>
				<path class="st7" d="M51.33,479.1c-0.12,0.67,0.38,0.78,0.78,0.96c0.65,0.29,0.97-0.06,1.16-0.63c0.16-0.46,0.25-0.94-0.34-1.13
					C52.15,478.05,51.8,478.74,51.33,479.1z"/>
				<path class="st7" d="M75.43,484.73c0.55,0.21,1.14,0.57,1.47-0.28c0.17-0.42,0.47-0.97-0.11-1.2c-0.64-0.24-1.25,0.1-1.68,0.46
					C74.79,484.29,75,484.56,75.43,484.73z"/>
				<path class="st7" d="M63.06,460.4c0.25-0.21-0.04-0.75-0.41-0.67c-0.73,0.16-1.6-0.17-2.19,0.45c-0.05,0.59,0.32,0.76,0.7,0.91
					C61.99,461.43,62.54,460.83,63.06,460.4z"/>
				<path class="st7" d="M90.08,440.08c-0.65,0.07-1.28,0.38-1.52,0.98c-0.2,0.49,0.35,0.79,0.79,0.93
					c0.65,0.19,0.96-0.22,1.16-0.76C90.7,440.74,90.68,440.33,90.08,440.08z"/>
				<path class="st7" d="M74.38,467.06c0.2-0.47,0.32-0.94-0.32-1.13c-0.65-0.2-1.05,0.28-1.48,0.58c-0.82-0.5-1.8-0.86-2.56-0.8
					c-1.06,0.33-1.93,0.94-1.71,2.49c0.21,1.48,2.24,3.11,3.82,2.96c0.57-0.06,2.06-2.39,1.95-3.05c-0.02-0.15-0.11-0.3-0.22-0.46
					C74.07,467.56,74.24,467.37,74.38,467.06z"/>
				<path class="st7" d="M79.72,483.04c0.11-0.38,0.35-0.87-0.17-0.95c-0.38-0.06-1.1,0.16-1.21,0.44
					c-0.34,0.87,0.16,1.57,0.92,2.32C79.44,484.15,79.56,483.59,79.72,483.04z"/>
				<path class="st7" d="M261.76,204.52c0.43-2.25,0.72-4.39,0.45-6.65c-0.1-0.83-0.44-1.81-1.14-1.52c-1.58,0.65-3.5,0.4-5.23,2.01
					c-0.93,0.29-0.25,1.9-1.2,2.79c-1.3,1.23-1.14,3.71-0.05,5.13c0.9,1.17,2.73,1.85,3.37,1.37
					C259.22,206.72,261.31,206.91,261.76,204.52z"/>
				<path class="st7" d="M221.01,285.85c-4.14-0.32-5.84-0.33-6,4.39c-0.03,0.99,0.17,1.93,0.73,2.78c0.91,1.38,2.84,1.12,3.82,2.4
					c0.03,0.04,0.57-0.25,0.83-0.44c0.43-0.31,0.79-0.73,1.24-0.99c3.09-1.83,3.31-5.86,0.44-8.13
					C221.71,286.05,221.37,285.88,221.01,285.85z"/>
				<path class="st7" d="M222.03,285.83c0.01,0.01,0.02,0.02,0.03,0.02c0.02-0.01,0.04-0.01,0.07-0.03l-0.05,0c0.02,0,0.05,0,0.05,0
					c0,0,0,0,0,0C222.1,285.83,222.07,285.83,222.03,285.83L222.03,285.83z"/>
				<path class="st7" d="M216.02,250.15c-0.61,0.67-1.95,1.49-1.54,2.13c0.96,1.49,0.38,3.47,1.79,4.73
					c1.94,1.73,4.95,1.51,6.95-0.54c1.54-1.58,1.01-4-1.37-6.26C219.74,248.19,217.84,248.15,216.02,250.15z"/>
				<path class="st7" d="M248.27,283.28c0.79,1.07,1.77,1.57,3.04,1.03c0.67-0.29,2.02-3.87,1.76-4.52
					c-0.09-0.24-0.3-0.43-0.48-0.63c-1.49-1.73-4.84-1.7-6.35,0.04c-0.22,0.25-0.58,0.66-0.3,0.84
					C247.17,280.84,246.83,282.71,248.27,283.28z"/>
				<path class="st7" d="M256.57,301.98c-0.96-0.84-3.4-0.53-4.31,0.58c-1.04,1.24-0.7,2.54,0.18,3.6c0.93,1.11,3.28,0.75,4.44-0.51
					C257.56,304.89,257.38,302.69,256.57,301.98z"/>
				<path class="st7" d="M262.07,310.53c-0.91,1.19-0.66,3.77,0.56,4.8c0.02,0.02,0.06,0.02,0.09,0.03
					c0.12-1.88,0.24-3.76,0.36-5.64C262.73,309.86,262.39,310.11,262.07,310.53z"/>
				<path class="st7" d="M249.23,266.3c-1.19-0.85-1.53-2.13-1.83-3.45c-0.18-0.79-0.55-1.02-1.18-0.38
					c-0.33,0.33-0.63,0.69-0.94,1.03c-0.09,0.1-0.18,0.19-0.27,0.29c-1.05,1.18-1.11,3.26-0.12,4.2c0.58,0.55,3.93,0.13,4.55-0.55
					C249.89,266.95,249.63,266.58,249.23,266.3z"/>
				<path class="st7" d="M261.02,283.93c-0.68,0.71-0.63,3.6,0.2,3.96c1.06,0.46,2.23,0.32,3.24-0.26c0.02-0.26,0.03-0.52,0.05-0.78
					c0.07-1.17,0.15-2.31,0.22-3.44C263.93,282.9,261.75,283.17,261.02,283.93z"/>
				<path class="st7" d="M223.2,280.96c-0.87-0.43-1.64,0.28-2.12,1.04c-1.02,1.62-0.2,2.79,1.05,3.82c0.5-0.05,1.03-0.02,1.47-0.2
					c0.87-0.35,1.55-0.85,1.59-1.99C225.24,282.15,224.21,281.47,223.2,280.96z"/>
				<path class="st7" d="M267.21,234.76c0.04-0.73,0.07-1.47,0.11-2.22C266.68,233.15,266.28,233.81,267.21,234.76z"/>
				<path class="st7" d="M220.75,299.34c-0.84-0.62-2.26-1.09-3.32,0.15c-1.15,1.33-0.03,2.31,0.67,3.09
					c0.87,0.97,2.01,0.91,2.82-0.41C222.69,301.18,221.31,299.75,220.75,299.34z"/>
				<path class="st7" d="M225.42,297.38c-0.85,1.03-0.87,2.31,0.04,3.06c0.72,0.6,2.26,0.91,2.89-0.03
					c0.51-0.75,1.12-2.11-0.22-3.07C227.25,296.5,226.33,296.28,225.42,297.38z"/>
				<path class="st7" d="M233.5,236.31c0.54,0.12,1.04-0.14,1.03-0.66c-0.03-1.1-0.05-2.26-0.95-3.19
					c-0.77,0.12-1.05-1.53-2.19-0.48c-0.89,0.82-0.39,1.79,0.06,2.04c0.87,0.48,1.33,0.81,1.1,1.89
					C232.45,236.44,233.15,236.23,233.5,236.31z"/>
				<path class="st7" d="M205.34,224.19c0.76-0.79,0.65-1.52-0.12-2.24c-0.84-0.75-1.72-0.61-2.45,0.09
					c-0.7,0.68-0.51,1.5,0.14,2.09C203.64,224.81,204.5,225.06,205.34,224.19z"/>
				<path class="st7" d="M257.89,255.97c0.44-0.71,0.51-1.65-0.36-2.29c-0.79-0.59-1.61-0.56-2.28,0.12
					c-0.64,0.64-0.39,1.43-0.13,2.23C256.12,255.82,257.1,257.25,257.89,255.97z"/>
				<path class="st7" d="M234.28,267.93c-0.79,0.68-0.19,1.43,0.54,2.1c0.52,0.55,1.31,0.94,1.89,0.07c0.37-0.54,0.8-1.4,0.01-2.11
					C235.92,267.28,234.94,267.35,234.28,267.93z"/>
				<path class="st7" d="M254.6,209.73c-0.43-0.43-1.34-0.45-1.95,0.17c-0.7,0.7-0.39,1.3,0.21,1.86c0.49,0.48,0.96,0.93,1.66,0.23
					C255.26,211.23,255.19,210.31,254.6,209.73z"/>
				<path class="st7" d="M228.28,279.44c0.54-0.57,0.7-1.54-0.08-2.25c-0.67-0.62-1.2-0.27-1.66,0.32
					c-0.57,0.55-0.96,1.14-0.24,1.85C226.93,279.96,227.88,279.86,228.28,279.44z"/>
				<path class="st7" d="M251.74,257.56c-0.49,0.58-0.77,1.05-0.07,1.66c0.66,0.57,1.3,0.95,2.08,0.26
					c0.76-0.68,0.04-1.33-0.04-2.04C253.04,257.31,252.41,256.77,251.74,257.56z"/>
				<path class="st7" d="M246.3,270.16c-0.54,0.6-0.87,1.2-0.22,1.94c0.64,0.72,1.21-0.02,1.84-0.03c0.33-0.73,0.37-1.45-0.13-2.08
					C247.25,269.3,246.76,269.66,246.3,270.16z"/>
				<path class="st7" d="M245.08,261.28c0.44-0.53,1.05-1.01,0.31-1.71c-0.55-0.52-1.02-0.45-1.55,0.09c-0.64,0.65-0.56,1.43-0.14,2
					C244.3,262.46,244.68,261.58,245.08,261.28z"/>
				<path class="st7" d="M262.16,324.12c0-0.03,0-0.05,0-0.08C262.16,324.06,262.16,324.09,262.16,324.12z"/>
			</g>
			<g>
				<path class="st0" d="M86.75,533.88c-2.09-5.02-2.83-11-0.34-15.83c2.06-3.98,6.17-6.64,10.52-7.56
					c4.35-0.92,8.91-0.27,13.14,1.12c6.75,2.23,10.26,6.76,10.63,13.92C121.79,546.84,92.84,548.5,86.75,533.88z M213.02,479.95
					c14.9-7.24,12.98-34.46-7.66-36.1c-14.91-1.19-27.01,19.05-14.9,31.59c2.69,2.79,6.15,4.66,9.77,5.57
					C204.61,482.11,209.24,481.79,213.02,479.95z M136.34,473.03c-2.07-6.07-9.44-8.35-16.42-6.88c-8.66,1.83-12.59,15.1-7.01,21.55
					c3.95,3.99,12.92,6.35,18.59,3.16c4.21-2.37,5.8-8,6-12.49C137.59,476.45,137.15,474.64,136.34,473.03z M147,444.01
					c-2.96,0.54-6.03,2.09-8.29,4.09c-6.38,5.64-9.57,14.51-5.58,21.76c7.18,12.09,25.51,12.09,33.49,0.81
					c4.02-5.68,3.29-12.73-0.79-18.16c-1.66-2.21-3.98-4.25-6.6-5.79C155.44,444.5,151.02,443.28,147,444.01z M130.06,381.2
					c-13.86-6.93-32.01,5.44-24.97,23.42c2.82,7.19,11.91,9.94,19.26,8.84c6.74-1.01,13.21-5.85,14.98-12.74
					c1.93-7.5-2.34-15.88-8.97-19.37C130.26,381.3,130.16,381.25,130.06,381.2z M170.67,501.72c-2.61,0.47-5.31,1.84-7.3,3.61
					c-5.62,4.97-8.43,12.78-4.92,19.18c6.32,10.65,22.48,10.65,29.5,0.71c3.54-5.01,2.9-11.22-0.7-16c-1.47-1.95-3.51-3.74-5.82-5.1
					C178.11,502.15,174.22,501.08,170.67,501.72z M232.18,410.1c-3.04-3.32-6.55-4.08-10.71-2.4c-2.6,1.05-5.07,2.6-6.81,4.82
					c-1.74,2.22-2.67,5.19-2.07,7.96c0.72,3.36,3.47,5.95,6.49,7.52C227.88,432.6,241.23,419.97,232.18,410.1z M68.29,495.65
					c4.31,4.56,9.05,5.68,14.49,3.51c3.41-1.36,6.6-3.39,8.77-6.36c2.17-2.97,3.2-6.96,2.21-10.72c-1.21-4.56-5.07-8.13-9.22-10.34
					C72.44,465.31,55.49,482.09,68.29,495.65z M194.72,529.64c-1.1,3.81-0.08,6.82,3.04,9.23c1.96,1.51,4.22,2.69,6.66,3.01
					c2.44,0.32,5.06-0.31,6.86-2.01c2.17-2.06,2.86-5.32,2.67-8.33C213.39,522.77,197.98,518.31,194.72,529.64z M93.99,432.98
					c-1.93-12.68-21.63-13.14-23.85-0.47c-0.76,4.37,1.08,9.1,4.58,11.78c8,6.11,20.33-0.49,19.35-10.65
					C94.05,433.42,94.03,433.2,93.99,432.98z M203.23,518.68c2.32,6.31,6.68,9.24,13.26,9.06c4.12-0.11,8.34-1,11.92-3.23
					s6.49-5.94,7.2-10.17c0.86-5.14-1.46-10.26-4.7-14.09C221.46,489.1,196.34,499.93,203.23,518.68z M134.9,543.11
					c1.85,4.58,5.15,6.72,10.04,6.62c3.06-0.06,6.18-0.68,8.8-2.28c2.62-1.6,4.7-4.27,5.15-7.33c0.54-3.71-1.29-7.44-3.78-10.22
					C147.86,521.77,129.41,529.5,134.9,543.11z M162.18,499.97c-3.46-4.84-9.31-5.69-14.32-4.84c-7.52,0-11.69,7.6-10.02,15.2
					c2.51,6.75,10.02,10.98,16.7,9.29c5.85-1.69,9.19-8.44,9.36-14.67C163.82,503.09,163.19,501.41,162.18,499.97z"/>
			</g>
			<g>
				<path class="st1" d="M158.38,451.16c4.08,2.61,6.79,8.25,5.44,13.07c-0.83,2.98-3.79,5.39-6.82,4.99
					c-1.87-0.25-3.5-1.48-4.74-2.92c-3.74-4.35-4.34-14.88,0.32-16.54C154,449.26,155.92,449.58,158.38,451.16z M170.52,516.47
					c1.3,4.69,6.96,9.84,12.05,7.55c5.09-2.86,5.09-9.72,1.13-13.72c-4.52-4-11.31-1.72-13.38,3.58
					C170.25,514.78,170.32,515.65,170.52,516.47z M98.45,521.26c-0.1,1.32,0.12,2.68,0.64,3.92c1.45,3.47,6.77,8.08,10.79,7.2
					c5.81-1.27,6.8-8.05,3.19-13.22c-2.77-3.51-9.51-5.73-12.84-2.19C99.15,518.12,98.57,519.65,98.45,521.26z M219.06,509.73
					c0.36,1.11,0.96,2.1,1.72,2.84c2.13,2.07,7.3,3.13,9.78,0.42c3.59-3.92,2.06-9.87-2.12-12.23c-3.05-1.44-8.42,0.13-9.56,4.64
					C218.52,506.85,218.62,508.38,219.06,509.73z M200.96,454.81c-0.22,1.33-0.12,2.77,0.31,4.13c1.18,3.81,6.23,9.49,10.43,9.31
					c6.08-0.25,7.71-7.01,4.47-12.95c-2.52-4.09-9.25-7.58-12.99-4.55C201.96,451.73,201.22,453.19,200.96,454.81z"/>
			</g>
		</g>
		<g id="Stroke_00000178175773365842134590000001117990303400941245_">
			<g>
				<path d="M5.37,177.91c-3.85-3.87-4-9.89-1.27-14.42c2.64-4.39,7.27-6.09,12.23-5.21c1.41,0.25,2.02-1.91,0.6-2.16
					c-3.19-0.57-6.44-0.43-9.38,1.05c-2.26,1.14-4.09,3.03-5.39,5.19c-3.24,5.39-2.93,12.57,1.62,17.14
					C4.8,180.52,6.39,178.94,5.37,177.91L5.37,177.91z"/>
			</g>
			<g>
				<path d="M296.48,181.27c4.17-3.84,5.06-10.72,3.4-15.93c-1.88-5.92-7.26-9.04-13.12-9.95c-1.41-0.22-2.02,1.94-0.6,2.16
					c5.05,0.78,9.91,3.2,11.56,8.38c1.42,4.49,0.79,10.43-2.82,13.75C293.83,180.66,295.42,182.25,296.48,181.27L296.48,181.27z"/>
			</g>
			<g>
				<path d="M16.67,184.61c7.07,2.1,14.49,3.22,21.76,4.35c12.37,1.92,24.81,3.37,37.27,4.54c16.13,1.52,32.31,2.56,48.5,3.15
					c18.49,0.67,37.01,0.76,55.5,0.17c19.38-0.62,38.75-1.98,57.99-4.36c2.38-0.29,4.75-0.6,7.13-0.93c1.42-0.19,0.82-2.36-0.6-2.16
					c-19.3,2.62-38.73,4.18-58.19,4.97c-18.52,0.75-37.07,0.8-55.59,0.26c-16.42-0.48-32.83-1.42-49.19-2.85
					c-12.89-1.12-25.76-2.53-38.56-4.41c-7.93-1.17-15.93-2.38-23.7-4.43c-0.58-0.15-1.16-0.31-1.73-0.48
					C15.88,182.03,15.29,184.2,16.67,184.61L16.67,184.61z"/>
			</g>
			<g>
				<path d="M46.77,166.48c28.22,3.8,56.82,5.38,85.27,5.81c28.43,0.43,56.87-0.54,85.21-2.77c15.97-1.26,31.91-2.92,47.81-4.94
					c1.41-0.18,1.43-2.43,0-2.24c-28.2,3.59-56.56,6.03-84.97,7.13c-28.24,1.1-56.53,0.89-84.73-0.78
					c-16.03-0.95-32.08-2.23-47.99-4.38C45.96,164.12,45.35,166.28,46.77,166.48L46.77,166.48z"/>
			</g>
			<g>
				<path d="M151.53,184.1c19.16-0.33,38.31-1.05,57.43-2.3c5.44-0.35,10.88-0.75,16.31-1.19c1.43-0.12,1.44-2.36,0-2.24
					c-19.1,1.55-38.24,2.55-57.4,3.11c-5.45,0.16-10.89,0.28-16.34,0.38C150.09,181.89,150.08,184.13,151.53,184.1L151.53,184.1z"/>
			</g>
			<g>
				<path d="M100.9,183.04c12.45,0.59,24.92,0.9,37.39,1.02c1.44,0.01,1.45-2.23,0-2.24c-12.47-0.12-24.93-0.43-37.39-1.02
					C99.46,180.72,99.46,182.97,100.9,183.04L100.9,183.04z"/>
			</g>
			<g>
				<path d="M15.86,216.81c1.32,17.3,2.65,34.6,3.97,51.9c1.32,17.3,2.65,34.6,3.97,51.9c0.75,9.77,1.49,19.54,2.24,29.3
					c0.11,1.43,2.35,1.44,2.24,0c-1.32-17.3-2.65-34.6-3.97-51.9c-1.32-17.3-2.65-34.6-3.97-51.9c-0.75-9.77-1.49-19.54-2.24-29.3
					C17.99,215.37,15.75,215.36,15.86,216.81L15.86,216.81z"/>
			</g>
			<g>
				<path d="M34.54,468.27c0.7,10.57,1.45,21.14,2.24,31.71c0.55,7.26,1.1,14.51,1.77,21.76c0.89,9.6,1.4,19.82,5.5,28.7
					c4.28,9.29,15.14,14.07,24.35,16.85c1.39,0.42,1.98-1.75,0.6-2.16c-8.23-2.49-17.72-6.52-22.23-14.33
					c-2.37-4.1-3.41-9.06-4.2-13.67c-0.83-4.85-1.24-9.76-1.7-14.65c-1.32-14.2-2.3-28.43-3.3-42.66c-0.27-3.85-0.53-7.7-0.79-11.54
					C36.69,466.84,34.44,466.83,34.54,468.27L34.54,468.27z"/>
			</g>
			<g>
				<path d="M232.8,565.52c6.12-2.24,11.62-6.02,16.1-10.73c4.73-4.97,7.97-10.87,9.93-17.42c2.13-7.1,2.89-14.52,3.93-21.84
					c0.17-1.19,0.24-2.39,0.34-3.59c1.15-14.06,2.3-28.12,3.45-42.17c0.37-4.5,0.74-9,1.1-13.5c0.12-1.44-2.13-1.43-2.24,0
					c-0.91,11.12-1.82,22.23-2.73,33.35c-1.09,13.27-1.76,26.61-4.24,39.71c-1.45,7.68-3.89,15.16-8.87,21.31
					c-4.55,5.61-10.56,10.24-17.38,12.73C230.85,563.85,231.44,566.01,232.8,565.52L232.8,565.52z"/>
			</g>
			<g>
				<path d="M268.39,444.89c0.79-13.07,1.59-26.14,2.38-39.21c0.09-1.44-2.16-1.44-2.24,0c-0.79,13.07-1.59,26.14-2.38,39.21
					C266.06,446.33,268.31,446.32,268.39,444.89L268.39,444.89z"/>
			</g>
			<g>
				<path d="M215.63,596.9c8.71-1.95,17.32-4.28,25.82-6.98c1.37-0.44,0.79-2.6-0.6-2.16c-8.5,2.7-17.12,5.03-25.82,6.98
					C213.63,595.05,214.22,597.21,215.63,596.9L215.63,596.9z"/>
			</g>
			<g>
				<path d="M102.18,601.02c26.28,3.69,52.99,3.98,79.38,1.28c7.34-0.75,14.66-1.74,21.94-2.95c1.42-0.24,0.82-2.4-0.6-2.16
					c-25.73,4.27-51.98,5.68-78.01,3.94c-7.4-0.49-14.78-1.25-22.12-2.28C101.36,598.66,100.75,600.82,102.18,601.02L102.18,601.02z
					"/>
			</g>
			<g>
				<path d="M60.35,591.82c9.01,2.66,18.14,4.89,27.36,6.71c1.41,0.28,2.01-1.88,0.6-2.16c-9.22-1.82-18.35-4.06-27.36-6.71
					C59.56,589.25,58.97,591.41,60.35,591.82L60.35,591.82z"/>
			</g>
			<g>
				<path d="M278.68,226.28c-0.23,3.81-0.47,7.62-0.7,11.43c-0.56,9.15-1.13,18.3-1.69,27.45c-0.68,11.07-1.36,22.14-2.04,33.22
					c-0.59,9.58-1.18,19.16-1.77,28.74c-0.2,3.18-0.39,6.36-0.59,9.54c-0.09,1.48-0.27,2.99-0.27,4.47c0,0.07-0.01,0.14-0.01,0.2
					c-0.09,1.44,2.16,1.44,2.24,0c0.23-3.81,0.47-7.62,0.7-11.43c0.56-9.15,1.13-18.3,1.69-27.45c0.68-11.07,1.36-22.14,2.04-33.22
					c0.59-9.58,1.18-19.16,1.77-28.74c0.2-3.18,0.39-6.36,0.59-9.54c0.09-1.48,0.27-2.99,0.27-4.47c0-0.07,0.01-0.14,0.01-0.2
					C281.01,224.84,278.77,224.85,278.68,226.28L278.68,226.28z"/>
			</g>
		</g>
	</g>
</g>
</svg>
